<?xml version="1.0" encoding="utf-8"?>
<!-- Generator: Adobe Illustrator 27.5.0, SVG Export Plug-In . SVG Version: 6.00 Build 0)  -->
<svg version="1.1" xmlns="http://www.w3.org/2000/svg" xmlns:xlink="http://www.w3.org/1999/xlink" x="0px" y="0px"
	 viewBox="0 0 750 500" style="enable-background:new 0 0 750 500;" xml:space="preserve">
<g id="BACKGROUND">
	<rect style="fill:#FFFFFF;" width="750" height="500"/>
	<g>
		<path style="fill:#E5F7F9;" d="M601.556,360.312c-1.778,3.088-3.508,6.337-3.839,9.886c-0.33,3.548,1.075,7.49,4.23,9.147
			c3.03,1.591,6.73,0.731,9.964-0.391c20.821-7.226,37.916-24.448,44.987-45.321c6.235-18.405-6.361-30.468-21.578-16.59
			C621.891,329.289,610.594,344.615,601.556,360.312z"/>
		<g>
			<path style="fill:#E5F7F9;" d="M100.236,216.94c66.2-13.616,133.663,12.143,190.925,39.137c8.392,3.956,16.93,8.08,25.186,12.068
				c50.694,24.49,103.115,49.813,159.372,54.744c74.312,6.51,151.446-27.289,199.341-84.558c1.475-10.622-0.353-21.753-6.719-30.263
				c-12.505-16.718-36.917-18.001-57.644-15.492c-20.727,2.51-43.099,6.977-61.455-2.97c-33.064-17.918-31.874-70.016-62.953-91.191
				c-21.428-14.599-51.052-8.974-73.772,3.521c-22.72,12.494-41.776,30.957-64.738,43.001
				c-27.536,14.443-60.183,18.888-90.578,12.331c-26.076-5.625-49.833-18.853-75.187-27.147
				c-25.354-8.294-54.825-11.079-77.339,3.228c-28.404,18.051-35.44,57.498-26.688,90.284
				C84.631,220.87,92.04,218.626,100.236,216.94z"/>
			<path style="fill:#E5F7F9;" d="M603.954,298.121c-34.631,18.189-72.054,27.595-109.27,27.596
				c-6.394,0.001-12.773-0.276-19.14-0.835c-56.623-4.963-109.212-30.367-160.068-54.935c-8.253-3.987-16.786-8.109-25.169-12.062
				c-56.963-26.852-124.043-52.481-189.669-38.986c-8.172,1.68-15.539,3.921-22.125,6.683c0.306,1.059,0.627,2.111,0.966,3.154
				c5.835,17.972,15.355,34.206,26.081,49.825c19.022-1.64,39.572,1.079,60.064,8.247c32.858,11.497,61.552,31.995,90.488,53.77
				l5.304,3.997c25.939,19.56,52.761,39.788,82.853,52.836c55.225,23.943,122.658,23.492,185.006-1.238
				c14.288-5.667,28.373-12.624,42.16-20.767c4.176-7.592,8.987-14.851,14.179-21.633c20.376-26.619,46.5-48.309,67.904-74.108
				c8.414-10.142,16.217-21.173,19.928-33.818c0.325-1.107,0.601-2.233,0.853-3.366C655.093,264.87,631.288,283.765,603.954,298.121
				z"/>
			<path style="fill:#E5F7F9;" d="M575.82,500H172.31c-9.22-9.53-11.8-24.59-10.47-38.11c1.5-15.28,6.94-29.97,8.38-45.26
				c3.3-35.27-14.89-68.87-35.41-97.75c-9.12-12.84-18.91-25.44-27.94-38.42c18.42-1.41,38.28,1.31,58.1,8.24
				c32.58,11.4,61.14,31.8,89.94,53.48l5.3,3.99c26.04,19.63,52.95,39.93,83.27,53.08c27.38,11.87,57.73,17.8,88.98,17.8
				c32.32,0,65.61-6.34,97.56-19.02c13.41-5.32,26.64-11.76,39.62-19.25c-11.06,21.35-16.92,45.13-11.94,68.33
				C561.62,465.36,571.92,481.83,575.82,500z"/>
		</g>
	</g>
</g>
<g id="OBJECTS">
	<g>
		<path style="fill:#FFFFFF;" d="M478.019,141.112c0,0,2.323-15.762-16.887-18.757c-9.605-1.498-15.347,3.673-18.688,9.218
			c-3.554,5.899-4.567,12.977-3.186,19.724c1.804,8.813,6.572,23.601,19.171,39.007c0.963,1.178,2.482,1.746,3.976,1.46
			c8.16-1.565,34.953-7.851,46.55-24.644c0,0,13.135-19.63-7.616-31.052C501.339,136.068,485.168,128.869,478.019,141.112z"/>
		<path style="fill:#FFFFFF;" d="M242.815,191.95c0,0-6.575-5.89-13.829,2.073c-3.627,3.981-2.992,8.215-1.45,11.454
			c1.64,3.445,4.602,6.076,8.142,7.499c4.624,1.859,12.916,4.174,23.885,3.059c0.838-0.085,1.565-0.614,1.889-1.392
			c1.77-4.249,7.052-18.553,2.834-29.044c0,0-5.059-12.069-16.678-5.968C247.609,179.632,239.341,184.906,242.815,191.95z"/>
		<path style="fill:#FFFFFF;" d="M205.577,185.266c0,0-3.101-2.778-6.522,0.978c-1.711,1.878-1.411,3.875-0.684,5.402
			c0.774,1.625,2.171,2.866,3.84,3.537c2.181,0.877,6.092,1.969,11.266,1.443c0.395-0.04,0.738-0.289,0.891-0.656
			c0.835-2.004,3.326-8.75,1.337-13.699c0,0-2.386-5.692-7.866-2.815C207.838,179.456,203.938,181.943,205.577,185.266z"/>
		<path style="fill:#FD6E74;" d="M638.358,86.961c0,0,0.998-7.541-8.193-8.836c-4.596-0.647-7.301,1.861-8.857,4.532
			c-1.655,2.841-2.089,6.227-1.382,9.438c0.923,4.194,3.303,11.22,9.426,18.486c0.468,0.555,1.197,0.816,1.908,0.669
			c3.884-0.804,16.631-3.993,22.049-12.092c0,0,6.133-9.463-3.854-14.77C649.455,84.389,641.685,81.066,638.358,86.961z"/>
		<path style="fill:#FD6E74;" d="M74.257,308.754c0,0-3.73-6.629-11.857-2.145c-4.064,2.242-4.72,5.872-4.361,8.942
			c0.382,3.266,2.069,6.234,4.563,8.377c3.257,2.8,9.379,6.988,18.638,9.122c0.708,0.163,1.447-0.066,1.928-0.611
			c2.623-2.976,10.9-13.18,10.37-22.909c0,0-0.779-11.25-11.951-9.496C81.586,300.034,73.377,302.043,74.257,308.754z"/>
		<path style="fill:#FD6E74;" d="M65.257,110.754c0,0-3.73-6.629-11.857-2.145c-4.064,2.242-4.72,5.872-4.361,8.942
			c0.382,3.266,2.069,6.234,4.563,8.377c3.257,2.8,9.379,6.989,18.638,9.122c0.708,0.163,1.447-0.066,1.928-0.611
			c2.623-2.976,10.9-13.18,10.37-22.909c0,0-0.779-11.25-11.951-9.496C72.586,102.034,64.377,104.043,65.257,110.754z"/>
		<path style="fill:#FD6E74;" d="M96.384,82.817c0,0-2.482-4.41-7.889-1.427c-2.704,1.492-3.141,3.907-2.901,5.95
			c0.254,2.173,1.377,4.147,3.036,5.574c2.167,1.863,6.24,4.65,12.401,6.069c0.471,0.108,0.963-0.044,1.283-0.407
			c1.745-1.98,7.252-8.769,6.899-15.242c0,0-0.518-7.485-7.951-6.318C101.26,77.016,95.798,78.352,96.384,82.817z"/>
		<path style="fill:#FD6E74;" d="M695.576,312.595c0,0,1.54-4.821-4.327-6.749c-2.934-0.964-5,0.361-6.333,1.927
			c-1.418,1.666-2.099,3.832-2.014,6.018c0.112,2.855,0.845,7.736,4.001,13.214c0.241,0.419,0.688,0.675,1.171,0.662
			c2.638-0.07,11.36-0.661,15.86-5.328c0,0,5.128-5.477-0.789-10.125C703.146,312.215,698.448,309.126,695.576,312.595z"/>
	</g>
	<g>
		<defs>
			<rect id="SVGID_1_" width="750" height="500"/>
		</defs>
		<clipPath id="SVGID_00000011019113709704721990000002283377333998598797_">
			<use xlink:href="#SVGID_1_"  style="overflow:visible;"/>
		</clipPath>
		<g style="clip-path:url(#SVGID_00000011019113709704721990000002283377333998598797_);">
			<g>
				<path style="fill:#E29579;" d="M139.671,178.346c1.061-0.742,3.076-2.652,1.273-8.485c-1.803-5.834-19.728-4.561-20.682-6.258
					c-0.955-1.697,3.5-5.94,7.106-15.485c3.606-9.546-4.136-18.985-7.106-17.819c-2.97,1.167-5.515,17.076-12.622,20.788
					c-5.237,2.736-12.889,11.861-16.554,16.474c-23.322-2.741-151.473-18.828-204.126-47.098c0,0-11.296,53.752,4.285,71.28
					c15.018,16.895,178.225,20.219,208.477,13.809c6.944,2.203,22.718,2.57,29.556,1.855c7.106-0.742,6.894-7.955,6.894-7.955
					c5.091-2.015,3.712-10.606,3.712-10.606C143.383,184.604,139.671,178.346,139.671,178.346z"/>
				<g>
					<path style="fill:#DF8666;" d="M138.61,178.02c-2.62,0.825-5.383,1.225-8.153,1.262c-2.779,0.042-5.542-0.285-8.266-0.994
						c-1.354-0.396-2.779-1.012-3.803-2.183c-0.498-0.577-0.892-1.262-1.085-2.027c-0.203-0.761-0.148-1.606,0.144-2.326
						c0.574-1.46,1.86-2.442,3.225-2.876c1.378-0.428,2.795-0.404,4.15-0.223c-1.364,0.098-2.737,0.259-3.928,0.807
						c-1.179,0.514-2.154,1.489-2.511,2.622c-0.365,1.127,0.059,2.347,0.901,3.219c0.814,0.888,2.001,1.421,3.255,1.765
						c2.559,0.691,5.256,1.073,7.938,1.228C133.17,178.44,135.883,178.328,138.61,178.02z"/>
					<path style="fill:#DF8666;" d="M135.643,188.613c-2.692,0.099-5.383,0.072-8.076-0.133c-2.692-0.197-5.385-0.605-8.022-1.294
						c-1.318-0.367-2.67-0.815-3.874-1.644c-1.19-0.807-2.203-2.138-2.355-3.648c-0.192-1.473,0.319-3.018,1.382-4.012
						c1.05-0.984,2.532-1.434,3.863-1.169c-1.347,0.021-2.614,0.634-3.409,1.599c-0.811,0.946-1.082,2.26-0.854,3.428
						c0.233,1.174,1.002,2.157,2.047,2.802c1.03,0.673,2.266,1.087,3.528,1.415c2.549,0.692,5.167,1.145,7.804,1.54
						C130.315,187.885,132.981,188.187,135.643,188.613z"/>
					<path style="fill:#DF8666;" d="M133.793,199.139c-2.192-0.107-4.366-0.433-6.51-0.894c-2.149-0.455-4.255-1.067-6.338-1.796
						c-1.039-0.39-2.098-0.841-3.057-1.513c-0.948-0.68-1.793-1.585-2.261-2.691c-0.491-1.08-0.565-2.426-0.017-3.497
						c0.513-1.049,1.571-1.883,2.701-1.849c-1.081,0.259-1.825,1.142-2.123,2.088c-0.327,0.95-0.132,1.967,0.335,2.828
						c0.959,1.77,2.865,2.745,4.857,3.439c2.02,0.733,4.087,1.39,6.152,2.033L133.793,199.139z"/>
					<path style="fill:#DF8666;" d="M125.149,205.282c-1.369-0.198-2.714-0.519-4.015-1.06c-1.3-0.529-2.543-1.33-3.529-2.418
						c-0.965-1.087-1.684-2.519-1.693-4.03c-0.041-1.47,0.581-3.014,1.769-3.785c-0.786,1.148-0.964,2.48-0.779,3.705
						c0.193,1.223,0.809,2.334,1.652,3.263c0.831,0.95,1.885,1.705,3.021,2.379C122.714,204.008,123.949,204.586,125.149,205.282z"
						/>
					<path style="fill:#DF8666;" d="M100.958,184.628c2.422-0.282,4.732-0.977,6.833-2.055c2.092-1.085,3.986-2.533,5.492-4.313
						c1.524-1.765,2.66-3.86,3.407-6.095c0.738-2.242,1.068-4.632,0.972-7.068c0.624,2.364,0.582,4.923-0.018,7.342
						c-0.591,2.427-1.763,4.724-3.395,6.648c-1.648,1.909-3.736,3.424-6.042,4.383C105.911,184.437,103.39,184.876,100.958,184.628z
						"/>
				</g>
			</g>
			<g>
				<g>
					<path style="fill:#E29579;" d="M574.86,387.49c-1.162-0.57-3.447-2.147-2.563-8.188c0.884-6.042,18.791-7.542,19.473-9.366
						c0.682-1.824-4.372-5.33-9.404-14.207c-5.032-8.877,1.166-19.396,4.28-18.7s8.077,16.024,15.67,18.599
						c5.596,1.897,14.561,9.736,18.892,13.731c22.622-6.297,146.772-41.912,194.448-77.947c0,0,19.432,51.374,6.735,71.09
						c-12.239,19.005-172.991,47.402-203.869,45.724c-6.523,3.245-22.052,6.035-28.919,6.381c-7.136,0.36-8.036-6.799-8.036-6.799
						c-5.341-1.208-5.3-9.909-5.3-9.909C572.155,394.244,574.86,387.49,574.86,387.49z"/>
					<g>
						<path style="fill:#DF8666;" d="M575.859,387.004c2.716,0.412,5.508,0.382,8.251-0.007c2.753-0.386,5.432-1.135,8.015-2.254
							c1.277-0.599,2.59-1.428,3.422-2.742c0.403-0.647,0.687-1.384,0.76-2.17c0.084-0.783-0.101-1.61-0.5-2.277
							c-0.792-1.354-2.214-2.127-3.629-2.346c-1.428-0.21-2.824,0.031-4.135,0.418c1.363-0.113,2.744-0.165,4.005,0.193
							c1.244,0.327,2.358,1.139,2.884,2.205c0.534,1.057,0.303,2.328-0.395,3.319c-0.668,1.003-1.758,1.712-2.944,2.244
							c-2.422,1.076-5.028,1.868-7.655,2.435C581.298,386.582,578.6,386.889,575.859,387.004z"/>
						<path style="fill:#DF8666;" d="M580.42,397.015c2.676-0.316,5.33-0.757,7.96-1.375c2.63-0.609,5.228-1.426,7.728-2.513
							c1.245-0.566,2.513-1.216,3.575-2.221c1.052-0.98,1.848-2.452,1.765-3.967c-0.037-1.485-0.779-2.933-1.983-3.752
							c-1.189-0.811-2.722-1.027-3.996-0.561c1.334-0.187,2.68,0.224,3.615,1.055c0.947,0.81,1.417,2.066,1.371,3.256
							c-0.049,1.196-0.658,2.285-1.591,3.084c-0.914,0.824-2.071,1.422-3.268,1.941c-2.412,1.076-4.93,1.926-7.475,2.723
							C585.573,395.475,582.985,396.184,580.42,397.015z"/>
						<path style="fill:#DF8666;" d="M583.868,407.13c2.149-0.443,4.247-1.099,6.295-1.885c2.054-0.781,4.04-1.709,5.986-2.749
							c0.967-0.545,1.944-1.154,2.788-1.966c0.832-0.818,1.527-1.841,1.82-3.007c0.319-1.143,0.185-2.484-0.521-3.458
							c-0.668-0.958-1.842-1.619-2.953-1.411c1.107,0.089,1.979,0.848,2.419,1.736c0.47,0.889,0.433,1.923,0.105,2.846
							c-0.675,1.896-2.409,3.153-4.27,4.145c-1.883,1.035-3.824,2.003-5.766,2.956L583.868,407.13z"/>
						<path style="fill:#DF8666;" d="M593.354,411.87c1.323-0.407,2.602-0.93,3.804-1.665c1.204-0.723,2.308-1.706,3.115-2.932
							c0.786-1.223,1.276-2.748,1.053-4.243c-0.186-1.459-1.038-2.889-2.331-3.468c0.953,1.013,1.334,2.303,1.34,3.541
							c-0.003,1.238-0.44,2.43-1.13,3.479c-0.675,1.067-1.6,1.975-2.619,2.816C595.564,410.236,594.433,410.997,593.354,411.87z"/>
						<path style="fill:#DF8666;" d="M614.079,387.739c-2.437,0.094-4.826-0.238-7.068-0.979c-2.234-0.75-4.328-1.889-6.09-3.416
							c-1.777-1.51-3.223-3.405-4.304-5.498c-1.075-2.102-1.768-4.412-2.048-6.835c-0.253,2.432,0.182,4.954,1.147,7.252
							c0.957,2.307,2.469,4.397,4.378,6.046c1.922,1.633,4.218,2.808,6.644,3.401C609.156,388.313,611.714,388.359,614.079,387.739z
							"/>
					</g>
				</g>
				<g>
					<g>
						<g>
							<path style="fill:#24629F;" d="M641.46,399.49c-0.13,3.18-0.32,5.63-0.53,7.51c-0.7,6.01-1.72,6.25-2.58,6.46
								c-0.27,0.06-0.55,0.09-0.83,0.09c-2.96,0-6.42-3.4-8.32-5.54c1.24-0.08,2.55-0.17,3.92-0.28c1.57,1.5,3.16,2.66,4.12,2.82
								c0.21-0.58,0.42-1.67,0.61-3.24c0.52-4.11,0.91-11.47,0.76-21.11c-0.17-10.83-0.92-17.73-1.67-21.35
								c-0.31-1.51-0.62-2.44-0.88-2.86c-1.61,0.1-4,2.44-5.83,4.81c-1.27,0.37-2.45,0.71-3.54,1.02l-0.59-0.36
								c0.94-1.51,5.88-8.97,10.57-8.45c0.86,0.1,2.11,0.24,3.16,4.99c0.54,2.48,1.03,6.22,1.39,11.87
								C641.68,383.26,641.77,392.09,641.46,399.49z"/>
						</g>
					</g>
					<g>
						<g>
							<path style="fill:#FFA430;" d="M636.36,407.45c-0.39,2.37-0.83,4.04-1.25,4.65c-0.92,1.33-2.32,2.04-3.95,2.04
								c-0.42,0-0.86-0.04-1.31-0.14c-2.51-0.53-5.39-2.7-6.86-5.73c1.07-0.01,2.21-0.05,3.43-0.11c1.1,1.52,2.69,2.62,4.06,2.91
								c1.48,0.31,1.99-0.43,2.16-0.67c0.24-0.38,0.49-1.32,0.73-2.69c1.51-8.4,2.69-32.87-0.92-41.55c-0.19-0.48-0.4-0.9-0.63-1.28
								c-0.88-1.46-1.59-1.4-1.83-1.38c-0.97,0.08-2.4,2.03-3.58,4.4c-1.42,0.4-2.67,0.75-3.76,1.06c1.05-2.69,3.64-8.18,7.11-8.46
								c1.32-0.1,3.19,0.34,4.74,3.01c0.31,0.53,0.59,1.14,0.85,1.81C639.02,374.83,638.05,397.44,636.36,407.45z"/>
						</g>
					</g>
				</g>
			</g>
			<g>
				<g>
					<path style="fill:#E29579;" d="M178.941,346.75c1.054-5.398-5.193-9.129-5.193-9.129c0.578-1.158,1.439-3.797-2.927-8.065
						c-4.366-4.268-19.516,5.397-21.164,4.361c-1.648-1.037,0.245-6.89-1.137-17c-1.381-10.11-12.688-14.716-14.742-12.275
						c-2.054,2.441,3.294,17.64-1.183,24.291c-3.299,4.902-5.675,16.571-6.697,22.374c-7.754,3.097-27.967,11.031-53.479,19.98
						c0.907,3.355,1.803,6.711,2.723,10.054c3.512,12.768,6.849,25.591,10.382,38.357c30.603-15.93,57.128-31.487,66.078-39.114
						c7.155-1.375,21.194-8.573,26.865-12.461c5.893-4.041,2.267-10.279,2.267-10.279
						C184.249,353.645,178.941,346.75,178.941,346.75z"/>
					<g>
						<path style="fill:#DF8666;" d="M172.66,337.841c-1.91,1.974-4.148,3.643-6.565,4.997c-2.423,1.362-5.008,2.392-7.74,3.068
							c-1.379,0.298-2.926,0.435-4.384-0.106c-0.712-0.27-1.386-0.684-1.92-1.265c-0.542-0.572-0.896-1.341-0.983-2.114
							c-0.192-1.557,0.471-3.034,1.463-4.066c1.008-1.033,2.264-1.688,3.542-2.175c-1.152,0.737-2.283,1.533-3.068,2.582
							c-0.791,1.014-1.184,2.336-0.957,3.502c0.216,1.165,1.171,2.035,2.326,2.4c1.139,0.393,2.436,0.295,3.702-0.001
							c2.579-0.613,5.131-1.563,7.563-2.705C168.079,340.803,170.41,339.412,172.66,337.841z"/>
						<path style="fill:#DF8666;" d="M175.103,348.567c-2.319,1.371-4.697,2.63-7.163,3.734c-2.461,1.11-5.022,2.036-7.669,2.687
							c-1.333,0.305-2.735,0.557-4.189,0.402c-1.431-0.142-2.956-0.829-3.809-2.084c-0.871-1.203-1.159-2.805-0.698-4.186
							c0.453-1.366,1.542-2.467,2.838-2.869c-1.174,0.66-1.995,1.804-2.234,3.031c-0.262,1.218,0.126,2.502,0.884,3.42
							c0.764,0.921,1.909,1.418,3.135,1.487c1.227,0.1,2.51-0.125,3.776-0.439c2.571-0.607,5.088-1.458,7.595-2.367
							C170.072,350.467,172.56,349.461,175.103,348.567z"/>
						<path style="fill:#DF8666;" d="M178.495,358.701c-1.977,0.951-4.044,1.701-6.149,2.318c-2.107,0.625-4.249,1.091-6.427,1.444
							c-1.099,0.153-2.245,0.261-3.409,0.127c-1.158-0.146-2.331-0.538-3.27-1.287c-0.947-0.715-1.653-1.863-1.682-3.066
							c-0.049-1.167,0.483-2.405,1.492-2.913c-0.827,0.743-1.06,1.874-0.871,2.847c0.165,0.991,0.822,1.792,1.643,2.326
							c1.687,1.099,3.827,1.046,5.909,0.707c2.125-0.319,4.255-0.726,6.377-1.146L178.495,358.701z"/>
						<path style="fill:#DF8666;" d="M173.826,368.222c-1.298,0.479-2.633,0.838-4.034,0.982c-1.395,0.155-2.869,0.043-4.255-0.443
							c-1.367-0.495-2.681-1.411-3.41-2.735c-0.737-1.273-0.926-2.926-0.249-4.171c-0.144,1.383,0.335,2.64,1.081,3.628
							c0.753,0.983,1.824,1.666,3.008,2.081c1.183,0.439,2.47,0.6,3.79,0.651C171.078,368.263,172.439,368.183,173.826,368.222z"/>
						<path style="fill:#DF8666;" d="M142.714,361.601c1.995-1.403,3.694-3.116,5.027-5.064c1.322-1.951,2.296-4.127,2.771-6.41
							c0.498-2.278,0.498-4.662,0.089-6.982c-0.42-2.323-1.27-4.581-2.516-6.677c1.676,1.781,2.859,4.05,3.485,6.463
							c0.638,2.415,0.702,4.993,0.185,7.462c-0.539,2.464-1.651,4.791-3.221,6.734C146.976,359.072,144.97,360.659,142.714,361.601z
							"/>
					</g>
				</g>
				<g>
					<path style="fill:#8EE4FD;" d="M87.5,365c0,0,17.5,36.5,20,43.5c0,0-95.5,55.5-126,61.5c0,0-24-65.5-15-71S87.5,365,87.5,365z"
						/>
					<path style="opacity:0.5;fill:#8EE4FD;" d="M-17,456.75l29.054-12.899l29.075-12.841c9.707-4.244,19.376-8.572,29.032-12.929
						c4.835-2.162,9.646-4.377,14.438-6.631c2.383-1.151,4.81-2.22,7.158-3.44l3.546-1.79l3.448-1.971l-3.375,2.103l-3.496,1.893
						c-2.319,1.29-4.713,2.426-7.067,3.646c-4.753,2.345-9.531,4.64-14.33,6.888c-9.595,4.504-19.272,8.827-28.95,13.144
						c-9.708,4.25-19.418,8.493-29.174,12.63C2.603,448.692-7.17,452.788-17,456.75z"/>
				</g>
			</g>
			<g>
				<g>
					<path style="fill:#E29579;" d="M779.126,118.895c-0.623-11.207-0.924-22.425-0.845-33.632
						c-56.938,27.977-140.871,52.027-159.074,57.094c-4.332-3.994-13.296-11.833-18.892-13.731
						c-7.593-2.575-12.556-17.903-15.67-18.599c-3.114-0.696-9.312,9.823-4.28,18.7c5.032,8.877,10.086,12.384,9.404,14.207
						c-0.682,1.824-18.589,3.324-19.473,9.366c-0.884,6.042,1.401,7.618,2.563,8.188c0,0-2.705,6.755,1.406,10.408
						c0,0-0.04,8.701,5.3,9.909c0,0,0.9,7.159,8.036,6.799c6.867-0.346,22.396-3.136,28.919-6.381
						c21.796,1.185,108.299-12.617,161.606-27.522C778.198,142.1,778.492,130.484,779.126,118.895z"/>
					<g>
						<path style="fill:#DF8666;" d="M573.859,160.004c2.716,0.412,5.508,0.382,8.251-0.007c2.753-0.386,5.432-1.135,8.015-2.254
							c1.277-0.599,2.59-1.428,3.422-2.742c0.403-0.646,0.687-1.384,0.76-2.17c0.084-0.783-0.101-1.61-0.5-2.277
							c-0.792-1.354-2.214-2.127-3.629-2.346c-1.428-0.211-2.824,0.031-4.135,0.418c1.363-0.113,2.744-0.165,4.005,0.193
							c1.244,0.327,2.358,1.14,2.884,2.205c0.534,1.057,0.303,2.328-0.395,3.319c-0.668,1.003-1.758,1.712-2.944,2.245
							c-2.422,1.076-5.028,1.868-7.655,2.435C579.298,159.582,576.6,159.889,573.859,160.004z"/>
						<path style="fill:#DF8666;" d="M578.42,170.015c2.676-0.316,5.33-0.757,7.96-1.374c2.63-0.609,5.228-1.426,7.728-2.513
							c1.245-0.566,2.513-1.216,3.575-2.221c1.052-0.98,1.848-2.452,1.765-3.967c-0.037-1.485-0.779-2.933-1.983-3.751
							c-1.189-0.811-2.722-1.027-3.996-0.561c1.334-0.187,2.68,0.225,3.615,1.056c0.947,0.81,1.417,2.066,1.371,3.256
							c-0.049,1.196-0.658,2.285-1.591,3.084c-0.914,0.824-2.071,1.422-3.268,1.941c-2.412,1.076-4.93,1.926-7.475,2.723
							C583.573,168.475,580.985,169.184,578.42,170.015z"/>
						<path style="fill:#DF8666;" d="M581.868,180.13c2.149-0.443,4.247-1.099,6.295-1.885c2.054-0.781,4.04-1.709,5.986-2.749
							c0.967-0.545,1.944-1.154,2.788-1.966c0.832-0.818,1.527-1.842,1.82-3.007c0.319-1.143,0.185-2.484-0.521-3.458
							c-0.668-0.958-1.842-1.619-2.953-1.411c1.107,0.089,1.979,0.848,2.419,1.736c0.47,0.889,0.433,1.923,0.105,2.846
							c-0.675,1.896-2.409,3.153-4.27,4.145c-1.883,1.035-3.824,2.003-5.766,2.956L581.868,180.13z"/>
						<path style="fill:#DF8666;" d="M591.354,184.87c1.323-0.407,2.602-0.93,3.804-1.665c1.204-0.723,2.308-1.706,3.115-2.932
							c0.786-1.223,1.276-2.748,1.053-4.243c-0.186-1.459-1.038-2.889-2.331-3.468c0.953,1.013,1.334,2.303,1.34,3.541
							c-0.003,1.238-0.44,2.43-1.13,3.479c-0.675,1.067-1.6,1.975-2.619,2.816C593.564,183.236,592.433,183.997,591.354,184.87z"/>
						<path style="fill:#DF8666;" d="M612.079,160.739c-2.437,0.094-4.826-0.238-7.068-0.979c-2.234-0.75-4.328-1.889-6.09-3.416
							c-1.777-1.51-3.223-3.405-4.304-5.498c-1.075-2.102-1.768-4.412-2.048-6.835c-0.253,2.432,0.182,4.954,1.147,7.252
							c0.957,2.307,2.469,4.397,4.378,6.046c1.922,1.633,4.218,2.808,6.644,3.401C607.156,161.313,609.714,161.359,612.079,160.739z
							"/>
					</g>
				</g>
				<g>
					<g>
						<polygon style="fill:#E5F7F9;" points="645.333,134.333 621.667,139.667 624,182.333 652.667,179.333 						"/>
						<path style="fill:#24629F;" d="M643.333,133c0,0,115-44,146.333-63.667c0,0,16.333,54.333,15,78.333
							c0,0-102.333,30.333-157.667,33.333L643.333,133z"/>
					</g>
					<g style="opacity:0.5;">
						<g>
							<path style="fill:#24629F;" d="M651.667,131.333l2.88,19.805l2.802,19.815l-0.415-0.299
								c11.454-2.33,22.901-4.721,34.312-7.259c11.409-2.55,22.802-5.17,34.155-7.954c11.345-2.815,22.653-5.78,33.865-9.075
								c5.599-1.67,11.163-3.456,16.672-5.399c5.492-1.976,10.958-4.101,16.061-6.967c-5.04,2.977-10.473,5.227-15.93,7.324
								c-5.468,2.091-11.033,3.911-16.616,5.661c-5.592,1.723-11.21,3.359-16.85,4.916c-5.645,1.536-11.309,3.003-16.981,4.433
								c-5.675,1.419-11.361,2.794-17.055,4.135c-5.697,1.328-11.408,2.593-17.121,3.842c-11.432,2.482-22.88,4.882-34.381,7.034
								l-0.369,0.069l-0.047-0.368l-2.532-19.851L651.667,131.333z"/>
							<path style="fill:#24629F;" d="M669.333,155.333c0.048,2.105-1.72,4.151-4,4.249c-1.111,0.065-2.276-0.329-3.132-1.117
								c-0.858-0.785-1.365-1.953-1.368-3.132c0.002-1.179,0.507-2.348,1.366-3.133c0.855-0.791,2.022-1.183,3.133-1.118
								C667.615,151.18,669.381,153.229,669.333,155.333z M669.333,155.333c-0.004-1.049-0.455-2.084-1.221-2.779
								c-0.765-0.697-1.798-1.034-2.779-0.97c-2.012,0.105-3.54,1.912-3.501,3.749c-0.041,1.836,1.486,3.648,3.501,3.751
								c0.981,0.063,2.015-0.274,2.779-0.972C668.879,157.418,669.329,156.383,669.333,155.333z"/>
						</g>
					</g>
				</g>
			</g>
		</g>
		<g style="clip-path:url(#SVGID_00000011019113709704721990000002283377333998598797_);">
			<g>
				<path style="fill:#8EE4FD;" d="M436.333,505.333c0,0,21.333-130,79.333-141.333S449,507.333,449,507.333L436.333,505.333z"/>
				<path style="opacity:0.5;fill:#8EE4FD;" d="M451.333,478.667c4.497-9.813,9.285-19.491,14.217-29.095
					c4.937-9.602,10.097-19.089,15.452-28.469c2.696-4.679,5.477-9.31,8.323-13.901c2.845-4.591,5.776-9.133,8.882-13.556
					c3.102-4.424,6.316-8.779,9.853-12.874c0.893-1.016,1.822-2,2.731-3.001c0.958-0.955,1.911-1.916,2.903-2.835
					c2.023-1.789,4.167-3.49,6.639-4.604l-1.758,1c-0.594,0.317-1.091,0.788-1.64,1.174c-1.112,0.76-2.048,1.743-3.061,2.624
					c-0.96,0.941-1.882,1.924-2.807,2.899c-0.877,1.022-1.773,2.025-2.633,3.06c-3.444,4.139-6.578,8.53-9.593,12.993
					c-6.033,8.929-11.622,18.158-16.973,27.519c-5.419,9.324-10.561,18.808-15.639,28.325c-2.543,4.757-5.046,9.536-7.518,14.331
					C456.211,469.04,453.77,473.851,451.333,478.667z"/>
			</g>
			<g>
				<path style="fill:#B4EFFF;" d="M443,506.667c0,0,72-104,103.333-92.667C577.667,425.333,451,507.333,451,507.333L443,506.667z"
					/>
				<path style="opacity:0.5;fill:#B4EFFF;" d="M454,498.667c1.55-1.971,3.371-3.718,5.099-5.534l5.289-5.361
					c3.56-3.539,7.154-7.043,10.763-10.533c7.227-6.969,14.59-13.797,22.008-20.563c7.476-6.703,15.007-13.35,22.767-19.728
					c3.889-3.177,7.815-6.313,11.84-9.32c4.051-2.964,8.144-5.909,12.568-8.294c-4.307,2.58-8.326,5.593-12.271,8.684
					c-3.956,3.079-7.821,6.277-11.644,9.521c-7.646,6.49-15.173,13.123-22.59,19.878c-7.468,6.699-14.815,13.533-22.151,20.378
					c-3.671,3.42-7.321,6.862-10.95,10.326l-5.443,5.198l-2.691,2.63C455.715,496.841,454.77,497.682,454,498.667z"/>
			</g>
			<g>
				<path style="fill:#B4EFFF;" d="M323.667,503.333c0,0-30-136-98.667-136.667c-68.667-0.667,88,142.667,88,142.667
					L323.667,503.333z"/>
				<path style="opacity:0.5;fill:#B4EFFF;" d="M218.333,374c7.916,9.309,15.71,18.721,23.459,28.169
					c7.747,9.45,15.406,18.971,23.036,28.517c7.568,9.594,15.141,19.187,22.504,28.943c1.851,2.431,3.68,4.879,5.49,7.341
					c1.816,2.458,3.649,4.902,5.41,7.401c1.768,2.493,3.554,4.972,5.232,7.529c0.839,1.278,1.733,2.518,2.526,3.825l2.343,3.94
					l-2.47-3.858c-0.824-1.283-1.748-2.503-2.617-3.757c-1.737-2.51-3.582-4.944-5.41-7.391c-1.802-2.464-3.666-4.883-5.519-7.31
					c-1.845-2.433-3.709-4.851-5.596-7.253c-7.485-9.653-15.048-19.247-22.675-28.79c-7.562-9.595-15.231-19.105-22.849-28.657
					L218.333,374z"/>
			</g>
			<g>
				<path style="fill:#8EE4FD;" d="M310.333,505.333c0,0-73.525-91.1-94.667-75.333C176.333,459.333,303,510.667,303,510.667
					L310.333,505.333z"/>
				<path style="opacity:0.5;fill:#8EE4FD;" d="M215.333,438.333c7.607,4.871,15.119,9.886,22.6,14.947
					c7.48,5.063,14.881,10.241,22.269,15.438c7.336,5.27,14.664,10.556,21.833,16.059c3.576,2.762,7.132,5.552,10.607,8.443
					c1.726,1.459,3.444,2.93,5.096,4.474c1.647,1.539,3.318,3.1,4.594,4.972c-1.362-1.805-3.084-3.287-4.772-4.775
					c-1.697-1.484-3.459-2.893-5.229-4.291c-3.531-2.807-7.133-5.525-10.761-8.208c-7.255-5.368-14.571-10.655-21.948-15.859
					c-7.335-5.263-14.742-10.426-22.125-15.622L215.333,438.333z"/>
			</g>
		</g>
		<g style="clip-path:url(#SVGID_00000011019113709704721990000002283377333998598797_);">
			<g>
				<path style="fill:#24629F;" d="M312.891,370c0,0-7,16-7,23s4.667,112.333,4.667,112.333h137.333c0,0,5.667-105,4.667-112.333
					s-5.667-24.333-5.667-24.333L312.891,370z"/>
				<g style="opacity:0.5;">
					<g>
						<path style="fill:#24629F;" d="M311.482,378.224c11.089,3.53,22.442,6.185,33.933,7.885
							c11.489,1.697,23.11,2.514,34.719,2.315c11.61-0.118,23.204-1.245,34.643-3.255l8.549-1.681l8.473-2.042l8.393-2.365
							l8.293-2.711l-8.213,2.963l-8.344,2.586l-8.462,2.185l-8.55,1.821c-11.455,2.175-23.107,3.3-34.768,3.497
							c-11.662,0.116-23.34-0.69-34.85-2.557C333.79,385.001,322.442,382.146,311.482,378.224z"/>
						<path style="fill:#24629F;" d="M376.558,389.667c0.19,6.302,0.291,12.605,0.365,18.907c0.104,6.302,0.077,12.605,0.123,18.907
							l-0.787-0.385c3.049-2.374,6.473-4.075,9.44-6.343l-0.178,0.364c0.014-5.289,0.046-10.579,0.136-15.868
							c0.061-5.289,0.171-10.579,0.325-15.868c0.154,5.289,0.264,10.579,0.325,15.868c0.09,5.289,0.122,10.579,0.136,15.868
							l0.001,0.225l-0.178,0.139c-1.526,1.188-3.14,2.204-4.735,3.229c-1.591,1.029-3.194,2.031-4.673,3.155l-0.795,0.604
							l0.007-0.988c0.045-6.302,0.018-12.605,0.123-18.907C376.267,402.271,376.368,395.969,376.558,389.667z"/>
						<path style="fill:#24629F;" d="M445.229,378.579c1.125,10.547,1.74,21.151,1.939,31.764
							c0.201,10.613-0.087,21.234-0.723,31.831c-0.717,10.592-1.789,21.163-3.339,31.664l-1.245,7.862l-1.395,7.836l-1.583,7.798
							l-1.75,7.761l1.49-7.812l1.361-7.833l1.254-7.849l1.107-7.869c1.389-10.503,2.466-21.047,3.104-31.621
							c0.718-10.569,0.991-21.164,0.954-31.759C446.363,399.756,445.943,389.161,445.229,378.579z"/>
						<path style="fill:#24629F;" d="M315.793,379.953c-0.918,10.344-1.663,20.698-2.145,31.064
							c-0.48,10.365-0.769,20.739-0.729,31.114c-0.041,10.375,0.241,20.749,0.72,31.114l0.402,7.772l0.506,7.768l0.569,7.765
							l0.655,7.76l-0.919-7.735l-0.794-7.75l-0.647-7.765l-0.54-7.774c-0.639-10.371-0.913-20.764-0.951-31.156
							c0.044-10.392,0.318-20.784,0.963-31.155C313.526,400.605,314.465,390.254,315.793,379.953z"/>
						<path style="fill:#24629F;" d="M428.578,382.667c0.12,3.945,0.576,7.86,1.421,11.686c0.847,3.823,2.012,7.576,3.595,11.152
							c1.509,3.608,3.429,7.037,5.623,10.28l1.705,2.395l1.832,2.303l1.927,2.232c0.686,0.704,1.365,1.418,2.039,2.141
							c-0.748-0.642-1.492-1.293-2.228-1.954l-2.106-2.094l-1.96-2.236l-1.837-2.342c-2.358-3.198-4.306-6.692-5.913-10.329
							c-1.532-3.669-2.732-7.485-3.428-11.397C428.548,390.594,428.285,386.608,428.578,382.667z"/>
						<path style="fill:#24629F;" d="M334.203,384.668c0.075,1.089,0.141,2.181,0.195,3.276l-0.027,3.289l-0.27,3.282l-0.473,3.263
							c-0.772,4.334-2.161,8.552-3.996,12.558c-1.906,3.972-4.271,7.734-7.122,11.089l-2.22,2.439l-2.368,2.289l-2.532,2.1
							c-0.884,0.648-1.774,1.286-2.666,1.914c0.828-0.716,1.659-1.422,2.496-2.118l2.364-2.252l2.242-2.364l2.088-2.496
							c2.685-3.403,5.01-7.09,6.813-11.026c1.878-3.902,3.229-8.045,4.149-12.282C333.797,393.39,334.215,389.038,334.203,384.668z"
							/>
						<path style="fill:#24629F;" d="M317.391,426.167c0.512,6.379,0.914,12.763,1.299,19.148
							c0.388,6.385,0.686,12.774,1.033,19.161c0.266,6.391,0.576,12.78,0.802,19.172l0.319,9.59c0.07,3.198,0.174,6.395,0.214,9.595
							c-0.266-3.189-0.467-6.381-0.703-9.572l-0.598-9.577c-0.385-6.385-0.687-12.774-1.031-19.161
							c-0.264-6.391-0.577-12.78-0.8-19.172C317.7,438.959,317.491,432.565,317.391,426.167z"/>
						<path style="fill:#24629F;" d="M442.891,421.167c-0.488,6.816-1.127,13.618-1.81,20.415
							c-0.684,6.797-1.488,13.582-2.296,20.367c-0.892,6.774-1.78,13.55-2.883,20.297c-0.56,3.372-1.142,6.741-1.815,10.094
							c-0.358,1.673-0.724,3.344-1.154,5c-0.435,1.647-0.866,3.333-1.708,4.827c0.388-0.763,0.642-1.578,0.859-2.401
							c0.225-0.822,0.416-1.652,0.591-2.486c0.355-1.667,0.646-3.348,0.93-5.029c0.575-3.362,1.07-6.739,1.537-10.119
							c0.944-6.759,1.839-13.527,2.653-20.306l2.526-20.328l1.259-10.167L442.891,421.167z"/>
						<path style="fill:#24629F;" d="M379.224,504.667c-0.174-5.194-0.279-10.389-0.347-15.583
							c-0.103-5.194-0.094-10.389-0.129-15.583c-0.05-5.194,0.013-10.389,0.03-15.583c0.001-5.194,0.123-10.389,0.191-15.583
							l0.002-0.146l0.118-0.069c2.71-1.597,5.406-3.217,8.135-4.784c-2.604,1.766-5.242,3.479-7.865,5.215l0.119-0.215
							c0.069,5.194,0.19,10.389,0.191,15.583c0.017,5.195,0.081,10.389,0.03,15.583c-0.035,5.194-0.025,10.389-0.129,15.583
							C379.503,494.278,379.398,499.472,379.224,504.667z"/>
					</g>
				</g>
			</g>
			<g>
				<g>
					<g>
						<path style="fill:#E29579;" d="M396.117,197.941c4.639-0.857,8.939-2.311,12.964-4.432
							c-6.058-6.426-9.952-17.644-10.483-25.464l-1.241-18.276h-36.875l-1.241,18.276c-0.451,6.651-3.337,15.756-7.915,22.285
							C366.041,193.935,380.961,197.11,396.117,197.941z"/>
						<path style="fill:#2E2044;" d="M397.148,151.3c0,0-11.107,12.782-18.167,12.782h-0.16
							c-7.139,0.04-18.346-12.782-18.346-12.782c5.065,3.809,11.207,6.002,18.346,5.982h0.14
							C386.021,157.283,392.123,155.089,397.148,151.3z"/>
					</g>
					<g>
						<path style="fill:#FFA430;" d="M428.724,199.667c0,0-1.5-13.5-4-20.5s-26.719-19.573-26.719-19.573l0.552,10.906
							c0,0-17.5,14.167-21.5,14.167c0,0-9.794-1.41-17.814-16.622l0.699-10.326c0,0-19.385,12.781-21.552,18.448
							c-2.167,5.667-4.333,18.167-4.333,18.167s-37.167,21.333-43.5,33c-6.333,11.667,14.667,85.333,12,90
							c-2.667,4.667-1,42.333,9.667,55.333c0,0,84,17.333,136.333,0c0,0,4.667-37.333-0.333-54.667c0,0,17.333-85.333,16-91
							C462.891,221.333,428.724,199.667,428.724,199.667z"/>
						<g style="opacity:0.5;">
							<path style="fill:#FFA430;" d="M334.224,194.667c1.31,0.587,2.422,1.408,3.489,2.284c1.046,0.9,2.045,1.857,2.845,3.049
								c-1.311-0.586-2.424-1.407-3.489-2.284C336.025,196.814,335.026,195.857,334.224,194.667z"/>
							<path style="fill:#FFA430;" d="M427.987,197.335c0.383,0.751,0.23,1.639-0.163,2.338c-0.408,0.69-1.103,1.266-1.946,1.306
								c0.411-0.716,0.757-1.232,1.081-1.806C427.298,198.607,427.573,198.048,427.987,197.335z"/>
							<path style="fill:#FFA430;" d="M359.043,168.255c-0.46-0.613-1.355-0.503-1.901-0.119c-0.609,0.369-0.844,1.089-0.801,1.773
								c0.106,1.386,0.924,2.639,1.584,3.879c1.393,2.479,3.185,4.715,5.203,6.708c2.029,1.984,4.245,3.776,6.602,5.366
								c1.182,0.79,2.392,1.539,3.626,2.248c1.228,0.705,2.48,1.354,3.79,1.566c1.299,0.233,2.626-0.107,3.844-0.746
								c1.223-0.627,2.369-1.491,3.539-2.312c2.328-1.658,4.568-3.425,6.729-5.283c2.147-1.874,4.156-3.906,5.93-6.138
								c0.888-1.114,1.716-2.277,2.479-3.486c0.366-0.593,0.722-1.253,0.605-1.943c-0.055-0.33-0.285-0.629-0.582-0.807
								c-0.289-0.181-0.703-0.232-0.987,0.01c0.265-0.264,0.704-0.248,1.023-0.077c0.326,0.167,0.601,0.466,0.694,0.843
								c0.17,0.758-0.187,1.486-0.524,2.107c-0.704,1.257-1.478,2.475-2.318,3.65c-1.718,2.322-3.694,4.444-5.805,6.412
								c-2.109,1.974-4.394,3.741-6.71,5.448c-1.167,0.835-2.309,1.723-3.634,2.423c-1.297,0.704-2.89,1.153-4.444,0.883
								c-1.535-0.269-2.865-1.001-4.106-1.726c-1.245-0.733-2.466-1.507-3.66-2.322c-2.371-1.652-4.649-3.466-6.637-5.58
								c-1.992-2.1-3.756-4.438-5.085-7.011c-0.601-1.297-1.372-2.585-1.419-4.106c0.002-0.373,0.069-0.751,0.224-1.094
								c0.165-0.347,0.437-0.631,0.761-0.813C357.676,167.634,358.628,167.605,359.043,168.255z"/>
							<path style="fill:#FFA430;" d="M368.041,203.651c-0.253,1.164-0.922,2.21-1.719,3.093c-0.795,0.893-1.704,1.67-2.577,2.459
								c-1.761,1.554-3.372,3.269-4.758,5.148c-2.77,3.731-4.761,8.133-5.061,12.758c-0.377,4.589,0.837,9.368,3.719,12.992
								c0.706,0.898,1.552,1.693,2.522,2.281c0.964,0.584,2.09,0.938,3.2,0.785c0.552-0.069,1.096-0.246,1.523-0.59
								c0.427-0.335,0.706-0.857,0.606-1.403c-0.062-0.527-0.529-1.06-1.083-0.959c-0.52,0.083-1.04,0.741-0.703,1.283
								c-0.387-0.516,0.07-1.276,0.67-1.43c0.674-0.167,1.265,0.445,1.377,1.055c0.164,0.636-0.144,1.327-0.62,1.74
								c-0.473,0.433-1.084,0.672-1.694,0.788c-1.246,0.229-2.522-0.13-3.589-0.721c-1.077-0.597-2.012-1.413-2.802-2.34
								c-3.164-3.717-4.441-8.757-4.122-13.556c0.398-4.844,2.474-9.419,5.45-13.151c1.495-1.869,3.201-3.557,5.05-5.053
								c0.928-0.737,1.868-1.444,2.701-2.268C366.956,205.742,367.682,204.785,368.041,203.651z"/>
							<path style="fill:#FFA430;" d="M393.835,203.648c0.974,1.975,1.747,4.048,2.427,6.149c0.65,2.111,1.168,4.263,1.594,6.432
								c0.841,4.343,1.211,8.756,1.476,13.154c0.179,4.391,0.325,8.857-0.459,13.248c-0.194,1.095-0.452,2.179-0.771,3.245
								c-0.345,1.054-0.615,2.136-1.27,3.122c-0.336,0.478-0.809,0.888-1.372,1.091c-0.553,0.215-1.243,0.166-1.718-0.21
								c-0.474-0.338-0.781-1.015-0.496-1.572c0.262-0.514,0.943-0.829,1.438-0.524c-0.518-0.255-1.116,0.122-1.301,0.587
								c-0.205,0.482,0.089,1.033,0.511,1.292c0.425,0.288,0.969,0.285,1.427,0.076c0.463-0.205,0.837-0.573,1.103-1.011
								c0.532-0.88,0.783-1.979,1.069-3.019c0.269-1.053,0.476-2.121,0.621-3.199c0.61-4.311,0.477-8.699,0.221-13.076
								c-0.181-4.382-0.562-8.749-1.233-13.072C396.429,212.038,395.387,207.767,393.835,203.648z"/>
						</g>
					</g>
				</g>
				<g>
					<g>
						<g>
							<path style="fill:#EE8E72;" d="M384.884,334.21c-0.74-0.31-1.57-0.35-2.37-0.38c-5.26-0.22-10.52-0.43-15.78-0.64
								c3.66-0.49,7.31-0.98,10.97-1.47c0.9-0.12,1.82-0.25,2.6-0.66c0.78-0.41,1.39-1.17,1.31-2.01c-0.07-0.86-0.84-1.58-1.7-1.93
								c-0.87-0.34-1.82-0.39-2.75-0.42c-4.76-0.17-9.51-0.19-14.26-0.06c-1.12,0.03-2.49-0.06-3.03-0.99
								c-0.65-1.13,0.53-2.29,1.53-3.1c0.89-0.72,1.73-1.53,2.15-2.55c0.42-1.02,0.34-2.3-0.47-3.15c-0.92-0.95-2.5-1.13-3.78-0.77
								c-1.27,0.35-2.33,1.12-3.41,1.83c-3.75,2.45-8.04,4.23-12.57,5.2c-0.66,0.14-1.33,0.27-2,0.4
								c-4.621-1.023-11.87-2.665-21.057-4.86c-1.609,10.671-3.96,21.235-6.102,31.834c9.731-0.17,17.951-0.845,23.94-2.024
								c0.9,0.07,1.84,0.07,2.66,0.15c3.18,0.33,6.36,0.75,9.53,1.27c3.67,0.59,7.31,1.31,10.94,2.15c4.72,1.1,9.73,2.4,14.27,1.08
								c1.11-0.33,2.35-1.18,1.99-2.23c-0.22-0.64-0.96-1.01-1.62-1.3c-3.17-1.41-6.71-1.92-9.88-3.33
								c4.64,0.25,9.64-0.41,14.27-0.16c0.78,0.05,1.58,0.09,2.29-0.17c0.71-0.26,1.3-0.91,1.18-1.62c-0.15-1-1.43-1.47-2.49-1.73
								c-4.76-1.17-9.52-2.33-14.28-3.5c5.89,0.61,12.11,1.17,17.38-1.06c0.98-0.41,2.03-1.11,1.98-2.12
								C386.294,335.16,385.634,334.51,384.884,334.21z"/>
							<path style="fill:#FFA430;" d="M332.724,198.333c0,0-31.501,1.167-49.501,16.667s-72,69-74,103s57,44.5,128,33
								c0,0,3.5-23.5,2-33.5l-49-10.5l28.5-21C318.724,286,332.724,225.167,332.724,198.333z"/>
						</g>
						<g style="opacity:0.5;">
							<path style="fill:#FFA430;" d="M276.224,305c4.454,0.603,8.888,1.313,13.319,2.04c4.431,0.725,8.847,1.538,13.271,2.302
								c4.41,0.844,8.827,1.646,13.229,2.53l6.6,1.346c2.193,0.484,4.393,0.935,6.581,1.449c-2.229-0.291-4.446-0.646-6.669-0.967
								l-6.65-1.071c-4.431-0.727-8.847-1.537-13.271-2.304c-4.409-0.847-8.827-1.645-13.229-2.531
								C285.003,306.909,280.604,306.009,276.224,305z"/>
							<path style="fill:#FFA430;" d="M281.599,296.875c1.704,1.504,3.169,3.199,4.578,4.938c1.384,1.759,2.711,3.564,3.797,5.562
								c-1.706-1.503-3.171-3.198-4.578-4.938C284.014,300.676,282.687,298.871,281.599,296.875z"/>
							<path style="fill:#FFA430;" d="M325.474,290.5c-2.065,0.858-4.153,1.654-6.229,2.484l-6.265,2.382
								c-2.084,0.806-4.194,1.54-6.29,2.314l-6.299,2.287l-3.026,1.099l2.554-1.958l5.09-3.902c1.699-1.297,3.384-2.613,5.108-3.879
								c3.423-2.563,6.858-5.111,10.357-7.576c-3.251,2.785-6.566,5.487-9.893,8.174c-1.652,1.359-3.342,2.668-5.017,3.996
								l-5.035,3.973l-0.472-0.86l6.326-2.213c2.113-0.726,4.211-1.492,6.335-2.186l6.36-2.118
								C321.211,291.846,323.332,291.142,325.474,290.5z"/>
							<path style="fill:#FFA430;" d="M302.895,205.994c3.197,1.917,5.87,4.7,7.892,7.859c2.003,3.171,3.389,6.773,3.765,10.482
								c-1.152-3.532-2.643-6.874-4.609-9.945C307.999,211.304,305.606,208.535,302.895,205.994z"/>
							<path style="fill:#FFA430;" d="M316.558,230c0.642,0.515,1.001,1.148,1.295,1.808c0.264,0.672,0.46,1.373,0.372,2.192
								c-0.644-0.514-1.003-1.147-1.295-1.808C316.668,231.519,316.472,230.818,316.558,230z"/>
							<path style="fill:#FFA430;" d="M304.558,354.333c2.24-0.317,4.485-0.525,6.731-0.716c2.246-0.202,4.495-0.326,6.744-0.45
								c2.251-0.1,4.501-0.198,6.756-0.218l3.382-0.027c1.129,0.027,2.257,0.02,3.387,0.078c-1.119,0.169-2.242,0.273-3.363,0.411
								l-3.368,0.306c-2.246,0.202-4.495,0.326-6.744,0.448c-2.251,0.099-4.501,0.197-6.756,0.217
								C309.073,354.414,306.818,354.428,304.558,354.333z"/>
							<path style="fill:#FFA430;" d="M224.897,320.998c0.753,0.884,1.402,1.651,2.165,2.347c0.75,0.711,1.559,1.303,2.494,1.994
								c-1.177,0.073-2.317-0.475-3.175-1.263C225.536,323.273,224.91,322.177,224.897,320.998z"/>
						</g>
					</g>
					<g>
						<g>
							<path style="fill:#EE8E72;" d="M365.116,334.21c0.74-0.31,1.57-0.35,2.37-0.38c5.26-0.22,10.52-0.43,15.78-0.64
								c-3.66-0.49-7.31-0.98-10.97-1.47c-0.9-0.12-1.82-0.25-2.6-0.66c-0.78-0.41-1.39-1.17-1.31-2.01
								c0.07-0.86,0.84-1.58,1.7-1.93c0.87-0.34,1.82-0.39,2.75-0.42c4.76-0.17,9.51-0.19,14.26-0.06c1.12,0.03,2.49-0.06,3.03-0.99
								c0.65-1.13-0.53-2.29-1.53-3.1c-0.89-0.72-1.73-1.53-2.15-2.55c-0.42-1.02-0.34-2.3,0.47-3.15c0.92-0.95,2.5-1.13,3.78-0.77
								c1.27,0.35,2.33,1.12,3.41,1.83c3.75,2.45,8.04,4.23,12.57,5.2c0.66,0.14,1.33,0.27,2,0.4
								c4.621-1.023,11.87-2.665,21.057-4.86c1.609,10.671,3.96,21.235,6.102,31.834c-9.731-0.17-17.951-0.845-23.94-2.024
								c-0.9,0.07-1.84,0.07-2.66,0.15c-3.18,0.33-6.36,0.75-9.53,1.27c-3.67,0.59-7.31,1.31-10.94,2.15
								c-4.72,1.1-9.73,2.4-14.27,1.08c-1.11-0.33-2.35-1.18-1.99-2.23c0.22-0.64,0.96-1.01,1.62-1.3c3.17-1.41,6.71-1.92,9.88-3.33
								c-4.64,0.25-9.64-0.41-14.27-0.16c-0.78,0.05-1.58,0.09-2.29-0.17c-0.71-0.26-1.3-0.91-1.18-1.62c0.15-1,1.43-1.47,2.49-1.73
								c4.76-1.17,9.52-2.33,14.28-3.5c-5.89,0.61-12.11,1.17-17.38-1.06c-0.98-0.41-2.03-1.11-1.98-2.12
								C363.706,335.16,364.366,334.51,365.116,334.21z"/>
							<path style="fill:#FFA430;" d="M428.724,200.167c0,0,20.052-0.667,38.052,14.833s72,69,74,103s-57,44.5-128,33
								c0,0-3.5-23.5-2-33.5l49-10.5l-28.5-21C431.276,286,428.724,227,428.724,200.167z"/>
						</g>
						<g style="opacity:0.5;">
							<path style="fill:#FFA430;" d="M451.452,208.248c-1.727,2.764-3.259,5.568-4.45,8.535c-1.215,2.957-2.075,6.033-2.769,9.218
								c-0.095-3.268,0.618-6.549,1.844-9.594C447.326,213.371,449.105,210.524,451.452,208.248z"/>
							<path style="fill:#FFA430;" d="M443.558,233c0.394,0.833,0.483,1.667,0.5,2.5c-0.015,0.833-0.103,1.667-0.5,2.5
								c-0.397-0.833-0.485-1.667-0.5-2.5C443.075,234.667,443.163,233.833,443.558,233z"/>
							<path style="fill:#FFA430;" d="M435.891,285.667c1.34,1.16,2.667,2.333,3.956,3.544c1.288,1.212,2.599,2.401,3.861,3.639
								c2.546,2.454,5.046,4.954,7.501,7.499l2.057,2.133l-2.587-1.419c-1.547-0.849-3.063-1.757-4.592-2.638
								c-1.53-0.881-3.033-1.812-4.528-2.758c1.616,0.721,3.223,1.457,4.805,2.242c1.581,0.785,3.177,1.544,4.741,2.362l-0.53,0.714
								c-2.546-2.454-5.046-4.954-7.499-7.501c-1.238-1.262-2.427-2.573-3.639-3.861
								C438.224,288.334,437.051,287.007,435.891,285.667z"/>
							<path style="fill:#FFA430;" d="M422.891,313.667c4.047-0.925,8.114-1.743,12.183-2.544c4.069-0.803,8.154-1.518,12.23-2.281
								c4.09-0.684,8.173-1.41,12.27-2.054l6.149-0.946c2.056-0.279,4.106-0.592,6.168-0.842c-2.022,0.473-4.055,0.882-6.082,1.325
								l-6.101,1.221c-4.07,0.801-8.154,1.519-12.23,2.28c-4.091,0.681-8.173,1.411-12.27,2.052
								C431.111,312.52,427.01,313.147,422.891,313.667z"/>
							<path style="fill:#FFA430;" d="M468.558,299.667c-1.19,1.523-2.577,2.813-4.011,4.048c-1.454,1.211-2.956,2.366-4.656,3.285
								c1.188-1.525,2.576-2.815,4.011-4.048C465.357,301.742,466.859,300.588,468.558,299.667z"/>
							<path style="fill:#FFA430;" d="M421.224,350c2.347,0.168,4.676,0.452,7.001,0.756c2.328,0.293,4.642,0.669,6.955,1.055
								c2.309,0.408,4.617,0.828,6.908,1.342c2.284,0.525,4.599,0.996,6.802,1.846c-1.147-0.247-2.309-0.401-3.468-0.567
								l-3.474-0.523c-2.319-0.335-4.627-0.729-6.937-1.114c-2.306-0.41-4.614-0.811-6.911-1.285
								C425.802,351.049,423.505,350.576,421.224,350z"/>
							<path style="fill:#FFA430;" d="M526.558,318c0.487,0.862,0.568,1.835,0.467,2.767c-0.129,0.928-0.447,1.852-1.133,2.567
								c-0.062-0.982,0.047-1.826,0.142-2.691C526.156,319.781,526.258,318.936,526.558,318z"/>
						</g>
					</g>
					<path style="fill:#FFBD69;" d="M330.702,306.665c9.633-1.575,50.686-7.408,91.12,0.026c0.969,0.178,1.606,1.121,1.412,2.086
						c-1.287,6.411-5.18,29.383,0.003,51.137c0.207,0.871-0.253,1.756-1.091,2.072c-7.663,2.884-44.584,14.99-90.116-0.012
						c-0.912-0.301-1.421-1.283-1.135-2.2c1.826-5.86,7.095-26.76-1.568-50.784C328.954,307.958,329.619,306.842,330.702,306.665z"
						/>
				</g>
			</g>
			<g>
				<g>
					<path style="fill:#E29579;" d="M420.902,116.74c-2.535-1.534-5.104-0.626-6.842,0.432c0.497-4.613,0.549-9.363,0.12-14.104
						c-2.444-26.971-34.135-28.469-34.135-28.469h-2.449c0,0-31.692,1.498-34.135,28.469c-0.43,4.741-0.377,9.491,0.12,14.104
						c-1.738-1.058-4.307-1.966-6.842-0.432c-4.185,2.533,1.306,20.347,12.048,19.669c5.809,12.33,16.003,20.931,30.034,20.869
						l0-0.001v0.001c14.032,0.062,24.225-8.539,30.034-20.869C419.596,137.087,425.088,119.273,420.902,116.74z"/>
					<g>
						<path style="fill:#DF8666;" d="M383.809,121.424c0,0,2.363,1.222,2.404,3.463c0.041,2.241-1.508,2.282-1.508,2.282
							s-2.031,0.435-2.701,0.25c-0.465-0.128-1.373-0.943-1.373-0.943S378.39,121.016,383.809,121.424z"/>
						<g>
							<path style="fill:#2E2044;" d="M384.297,127.251c1.004-0.45,1.294-1.485,1.166-2.263c-0.144-0.838-0.632-1.594-1.298-2.275
								c-0.326-0.369-0.672-0.676-1.081-1.09c-0.516-0.557-0.688-1.285-0.647-1.889c0.067-1.223,0.63-2.213,1.322-3.04
								c-0.185,1.056-0.307,2.108-0.182,2.986c0.089,0.431,0.229,0.775,0.477,0.954c0.35,0.302,0.795,0.682,1.179,1.08
								c0.76,0.814,1.448,1.962,1.366,3.244C386.594,126.246,385.434,127.427,384.297,127.251z"/>
							<path style="fill:#2E2044;" d="M380.115,126.391c0.167-0.409,0.576-0.42,0.818-0.273c0.235,0.157,0.397,0.534,0.092,0.857
								c-0.429-0.046-0.529,0.017-0.62-0.035C380.321,126.878,380.335,126.759,380.115,126.391z"/>
						</g>
						<circle style="fill:#DF8666;" cx="359.668" cy="133.961" r="8.751"/>
						<circle style="fill:#DF8666;" cx="398.222" cy="133.961" r="8.751"/>
						<path style="fill:#2E2044;" d="M364.925,107.548c0.314-0.654,0.769-1.25,1.32-1.76c0.539-0.532,1.21-0.917,1.908-1.24
							c0.704-0.319,1.476-0.489,2.248-0.536c0.773-0.028,1.551,0.051,2.27,0.306c0.585,0.207,0.892,0.85,0.684,1.435
							c-0.17,0.48-0.634,0.773-1.118,0.748l-0.051-0.003c-0.571-0.03-1.121-0.073-1.668-0.037c-0.548,0.016-1.088,0.093-1.633,0.205
							c-0.551,0.108-1.065,0.339-1.601,0.576c-0.524,0.258-1.034,0.583-1.549,0.958l-0.015,0.011
							c-0.238,0.174-0.572,0.121-0.745-0.117C364.855,107.929,364.844,107.719,364.925,107.548z"/>
						<path style="fill:#2E2044;" d="M397.935,107.548c-0.314-0.654-0.769-1.25-1.32-1.76c-0.539-0.532-1.209-0.917-1.908-1.24
							c-0.704-0.319-1.476-0.489-2.248-0.536c-0.773-0.028-1.551,0.051-2.27,0.306c-0.585,0.207-0.892,0.85-0.684,1.435
							c0.17,0.48,0.634,0.773,1.118,0.748l0.051-0.003c0.571-0.03,1.121-0.073,1.668-0.037c0.548,0.016,1.088,0.093,1.633,0.205
							c0.551,0.108,1.065,0.339,1.601,0.576c0.524,0.258,1.034,0.583,1.549,0.958l0.015,0.011c0.238,0.174,0.572,0.121,0.745-0.117
							C398.005,107.929,398.017,107.719,397.935,107.548z"/>
						<path style="fill:#2E2044;" d="M376.582,137.203c0.627,0.176,1.02,0.338,1.452,0.507c0.423,0.191,0.811,0.361,1.374,0.693
							c-0.5,0.442-1.197,0.433-1.756,0.207C377.103,138.363,376.613,137.868,376.582,137.203z"/>
						<g>
							<path style="fill:#2E2044;" d="M373.301,118.816c0,2.363-1.005,4.278-2.244,4.278c-1.239,0-2.244-1.915-2.244-4.278
								c0-2.363,1.005-4.278,2.244-4.278C372.296,114.538,373.301,116.453,373.301,118.816z"/>
						</g>
						<g>
							<path style="fill:#2E2044;" d="M392.857,118.816c0,2.363-1.005,4.278-2.244,4.278c-1.239,0-2.244-1.915-2.244-4.278
								c0-2.363,1.005-4.278,2.244-4.278C391.852,114.538,392.857,116.453,392.857,118.816z"/>
						</g>
						<g>
							<path style="fill:#2E2044;" d="M338.465,123.256c-0.748-0.299-1.049-1.345-0.762-2.197c0.307-0.926,1.246-1.515,2.149-1.632
								c0.915-0.168,1.87,0.133,2.608,0.549c0.748,0.437,1.325,1.007,1.85,1.55c2.052,2.251,3.396,5.235,3.281,8.247
								c-1.433-2.613-2.885-4.899-4.746-6.896c-0.91-1.027-1.825-1.833-2.88-1.904c-0.519-0.03-1.062,0.105-1.385,0.512
								C338.236,121.905,338.048,122.62,338.465,123.256z"/>
							<path style="fill:#2E2044;" d="M342.641,130.23c-0.809-0.131-1.476-0.802-1.785-1.597c-0.334-0.8-0.309-1.767,0.087-2.62
								c0.426-0.84,1.172-1.456,2.008-1.688c0.817-0.248,1.758-0.135,2.36,0.423c-0.755,0.273-1.254,0.615-1.675,0.975
								c-0.403,0.375-0.72,0.755-0.9,1.163c-0.212,0.392-0.316,0.877-0.362,1.427C342.349,128.865,342.389,129.469,342.641,130.23z"
								/>
						</g>
						<g>
							<path style="fill:#2E2044;" d="M419.255,123.256c0.748-0.299,1.049-1.345,0.762-2.197c-0.307-0.926-1.246-1.515-2.149-1.632
								c-0.916-0.168-1.87,0.133-2.608,0.549c-0.748,0.437-1.325,1.007-1.85,1.55c-2.052,2.251-3.396,5.235-3.281,8.247
								c1.433-2.613,2.885-4.899,4.746-6.896c0.91-1.027,1.825-1.833,2.88-1.904c0.519-0.03,1.062,0.105,1.385,0.512
								C419.484,121.905,419.672,122.62,419.255,123.256z"/>
							<path style="fill:#2E2044;" d="M415.079,130.23c0.809-0.131,1.476-0.802,1.785-1.597c0.334-0.8,0.309-1.767-0.087-2.62
								c-0.426-0.84-1.172-1.456-2.007-1.688c-0.817-0.248-1.758-0.135-2.36,0.423c0.755,0.273,1.253,0.615,1.675,0.975
								c0.403,0.375,0.72,0.755,0.9,1.163c0.212,0.392,0.316,0.877,0.363,1.427C415.371,128.865,415.331,129.469,415.079,130.23z"/>
						</g>
						<path style="fill:#FFFFFF;" d="M372.658,126.802c1.686,0.673,7.915,3.017,12.23,2.752c0.249-0.015,0.408,0.245,0.273,0.455
							c-0.991,1.542-4.226,6.031-8.063,5.616c-3.959-0.428-4.712-6.717-4.847-8.52C372.235,126.883,372.452,126.72,372.658,126.802z
							"/>
					</g>
				</g>
				<g>
					<path style="fill:#2E2044;" d="M437.584,109.85c-1.16-3.61-4.83-5.69-8.11-7.61c-3.27-1.92-6.77-4.54-7.11-8.33
						c-0.26-2.8,1.33-5.39,2.57-7.92c1.25-2.53,2.17-5.65,0.69-8.06c-1.37-2.23-4.34-2.93-6.96-2.74c-2.62,0.2-5.16,1.07-7.78,1.14
						c-5.08,0.14-9.67-2.71-14.26-4.88c-8.66-4.1-18.57-6.02-27.95-4.08c-9.39,1.95-17.37,8.35-21.2,17.14
						c-5.07-0.8-10.41,1.31-13.89,5.09c-3.48,3.78-5.13,9.07-4.85,14.2c0.45,8.29,5.57,15.94,5.2,24.24
						c-0.14,3.3-1.16,6.5-1.57,9.79c-0.41,3.28-0.1,6.89,2.04,9.42c2.03,2.41,5.4,3.37,8.55,3.19c3.16-0.18,6.16-1.35,9.07-2.56
						c1.1-0.46,2.19-0.92,3.3-1.35c-2.58-2.93-4.76-6.35-6.54-10.12c-10.74,0.68-16.23-17.14-12.05-19.67
						c2.45-1.476,4.925-0.69,6.659,0.319c2.385,2.976,4.828,5.939,7.076,8.945c6.246-9.029,9.301-20.334,8.529-31.286
						c5.811,8.07,14.307,14.173,23.81,17.103c3.42,1.055,7.194,1.691,10.521,0.374c1.762-0.698,3.427-1.94,5.319-1.825
						c1.832,0.111,3.327,1.478,4.506,2.885c1.178,1.407,2.273,2.986,3.909,3.817c2.392,1.215,4.844,1.703,6.997,0.101
						c0.001-0.001,0.003-0.002,0.004-0.003c0,0,0,0.001,0,0.001c1.73-1.06,4.3-1.96,6.84-0.43c4.18,2.53-1.31,20.35-12.05,19.67
						c-2.79,5.93-6.6,10.99-11.35,14.64c5.89-0.18,11.99-2.43,15.37-7.24c2.68-3.8,3.38-8.74,6.17-12.45
						c3.03-4.05,8.01-6.03,12.18-8.89C435.394,119.61,439.134,114.67,437.584,109.85z"/>
					<g style="opacity:0.5;">
						<path style="fill:#2E2044;" d="M349.365,85.374c1.752,0.679,3.292,1.775,4.662,3.032c1.35,1.279,2.55,2.74,3.346,4.442
							c-1.425-1.218-2.695-2.487-4.028-3.712C352.033,87.89,350.679,86.709,349.365,85.374z"/>
						<path style="fill:#2E2044;" d="M424.145,77.462c-2.072,2.599-4.159,5.214-6.67,7.43c-2.486,2.217-5.483,3.983-8.815,4.654
							c-1.659,0.324-3.391,0.366-5.065,0.017c-1.676-0.349-3.248-1.078-4.658-2.012c-2.837-1.868-5.108-4.368-7.651-6.45
							c-5.069-4.167-11.693-6.328-18.236-6.083c-1.635,0.07-3.261,0.282-4.858,0.627c-1.583,0.39-3.16,0.861-4.636,1.536
							c-1.47,0.683-2.866,1.536-4.037,2.623c-1.163,1.088-2.095,2.414-2.56,3.912l-0.651-0.602c2.932-1.153,6.15-1.412,9.229-1.046
							c3.092,0.361,6.069,1.277,8.922,2.418c5.74,2.314,10.796,5.858,15.886,9.175c5.083,3.301,10.407,6.428,16.34,7.773
							c2.944,0.672,6.022,0.844,9.021,0.379c2.991-0.462,5.919-1.6,8.304-3.517c-2.334,1.978-5.253,3.204-8.265,3.748
							c-3.02,0.548-6.145,0.456-9.159-0.152c-6.059-1.253-11.493-4.37-16.643-7.602c-5.167-3.236-10.195-6.736-15.818-8.969
							c-2.807-1.108-5.718-1.985-8.694-2.316c-2.966-0.337-6.007-0.071-8.764,1.028l-0.949,0.378l0.298-0.98
							c0.515-1.696,1.556-3.185,2.829-4.353c1.278-1.174,2.763-2.066,4.31-2.776c1.557-0.702,3.185-1.18,4.831-1.577
							c1.658-0.35,3.341-0.561,5.032-0.625c6.753-0.209,13.606,2.013,18.773,6.396c2.568,2.17,4.787,4.677,7.504,6.518
							c1.349,0.922,2.836,1.634,4.421,1.989c1.584,0.354,3.243,0.341,4.851,0.05c3.236-0.573,6.224-2.215,8.743-4.351
							C419.854,82.567,422.008,80.007,424.145,77.462z"/>
						<path style="fill:#2E2044;" d="M409.395,109.367c0.528-0.096,1.061-0.185,1.598-0.261l1.624-0.113l1.631,0.056l1.626,0.182
							c2.163,0.325,4.263,1.046,6.215,2.041c1.941,1.016,3.744,2.311,5.261,3.888l1.089,1.221l0.989,1.298l0.847,1.39
							c0.248,0.482,0.484,0.968,0.711,1.455c-0.322-0.435-0.633-0.871-0.933-1.311l-1.013-1.236l-1.07-1.175l-1.151-1.088
							c-1.584-1.39-3.318-2.601-5.188-3.556c-1.86-0.975-3.851-1.688-5.901-2.177C413.674,109.506,411.547,109.313,409.395,109.367z
							"/>
						<path style="fill:#2E2044;" d="M348.264,88.967c-2.078,1.46-3.925,3.221-5.426,5.238c-1.523,1.995-2.715,4.235-3.495,6.603
							c-0.79,2.362-1.208,4.849-1.199,7.338c-0.002,2.49,0.435,4.965,1.205,7.323l-0.944,0.126
							c0.329-4.407,2.184-8.678,5.203-11.867c1.49-1.607,3.28-2.936,5.2-3.935c0.946-0.507,1.892-1.01,2.67-1.729
							c0.766-0.713,1.397-1.647,1.505-2.731c-0.007,1.091-0.576,2.124-1.332,2.906c-0.761,0.8-1.705,1.38-2.617,1.947
							c-1.841,1.094-3.513,2.414-4.889,4.028c-0.692,0.798-1.322,1.648-1.868,2.549c-0.571,0.885-1.052,1.826-1.462,2.794
							c-0.828,1.935-1.307,4.009-1.441,6.099l-0.152,2.36l-0.792-2.233c-0.868-2.448-1.238-5.055-1.217-7.641
							c0.033-2.587,0.47-5.175,1.365-7.602c0.904-2.423,2.222-4.676,3.857-6.654C344.093,91.927,346.057,90.229,348.264,88.967z"/>
						<path style="fill:#2E2044;" d="M355.857,104.086c-1.249,3.117-2.996,5.97-4.275,8.979c-1.292,2.993-2.171,6.173-1.963,9.523
							c-0.499-1.603-0.585-3.348-0.351-5.032c0.219-1.692,0.734-3.33,1.396-4.887C352.027,109.558,353.929,106.81,355.857,104.086z"
							/>
					</g>
				</g>
			</g>
		</g>
	</g>
</g>
</svg>
