<?xml version="1.0" encoding="utf-8"?>
<!-- Generator: Adobe Illustrator 27.5.0, SVG Export Plug-In . SVG Version: 6.00 Build 0)  -->
<svg version="1.1" xmlns="http://www.w3.org/2000/svg" xmlns:xlink="http://www.w3.org/1999/xlink" x="0px" y="0px"
	 viewBox="0 0 500 500" style="enable-background:new 0 0 500 500;" xml:space="preserve">
<g id="Background_Complete">
	<g>
		<rect x="416.779" y="398.494" style="fill:#EBEBEB;" width="33.122" height="0.25"/>
		<rect x="322.527" y="401.208" style="fill:#EBEBEB;" width="8.693" height="0.25"/>
		<rect x="396.586" y="389.208" style="fill:#EBEBEB;" width="19.192" height="0.25"/>
		<rect x="52.459" y="390.888" style="fill:#EBEBEB;" width="43.193" height="0.25"/>
		<rect x="104.556" y="390.888" style="fill:#EBEBEB;" width="6.333" height="0.25"/>
		<rect x="131.471" y="395.111" style="fill:#EBEBEB;" width="93.676" height="0.25"/>
		<g>
			<path style="fill:#EBEBEB;" d="M238.401,337.8H45.302c-3.147,0-5.708-2.561-5.708-5.708V60.66c0-3.147,2.561-5.708,5.708-5.708
				h193.099c3.146,0,5.707,2.561,5.707,5.708v271.432C244.108,335.239,241.547,337.8,238.401,337.8z M45.302,55.203
				c-3.01,0-5.458,2.448-5.458,5.458v271.432c0,3.01,2.448,5.458,5.458,5.458h193.099c3.009,0,5.457-2.448,5.457-5.458V60.66
				c0-3.009-2.448-5.458-5.457-5.458H45.302z"/>
			<path style="fill:#EBEBEB;" d="M454.698,337.8H261.599c-3.146,0-5.707-2.561-5.707-5.708V60.66c0-3.147,2.561-5.708,5.707-5.708
				h193.099c3.148,0,5.708,2.561,5.708,5.708v271.432C460.406,335.239,457.845,337.8,454.698,337.8z M261.599,55.203
				c-3.009,0-5.457,2.448-5.457,5.458v271.432c0,3.01,2.448,5.458,5.457,5.458h193.099c3.01,0,5.458-2.448,5.458-5.458V60.66
				c0-3.009-2.448-5.458-5.458-5.458H261.599z"/>
		</g>
		<rect y="382.398" style="fill:#EBEBEB;" width="500" height="0.25"/>
	</g>
	<path style="fill:#F5F5F5;" d="M225.818,293.942c3.459,0.205,5.842-4.095,4.864-7.419c-0.978-3.325-4.129-5.542-7.322-6.889
		c-5.732-2.419-13.132-3.39-19.136-1.763c3.548-5.608,4.321-12.883,2.03-19.112c-2.291-6.228-7.174-12.02-13.511-13.992
		c1.74-16.12-9.266-32.699-24.798-37.352c-15.532-4.653-34.441,4.291-41.851,18.713c-2.942-0.63-6.192,0.487-8.125,2.794
		c-1.933,2.306-3.359,5.727-2.225,8.514c-4.471-3.143-10.37-3.616-15.747-2.636c-7.857,1.431-15.142,5.807-20.097,12.071
		c-4.954,6.264-8.167,15.097-7.75,23.072c-3.85-0.311-7.771-0.617-11.539,0.231c-3.768,0.848-7.431,3.045-9.088,6.535
		c-1.304,2.747-1.196,6.122,0.283,8.779c1.479,2.658,5.092,4.923,8.114,5.262c26.102,2.931,52.134,1.69,78.397,2.101
		c6.797,9.438,18.102,15.47,29.726,15.859c11.624,0.39,23.298-6.271,30.712-15.233C207.316,293.806,217.266,293.434,225.818,293.942
		z"/>
	<path style="fill:#F5F5F5;" d="M405.309,262.257c0.422-12.257-5.392-22.337-15.068-28.379c-9.677-6.042-22.694-6.686-32.555-0.949
		S341.899,250,342.369,261.997c-10.139-1.835-21.516,1.745-27.382,10.216c-5.866,8.47-6.267,20.389-0.984,29.235
		c-2.792-1.819-7.135-1.192-9.784,0.83c-2.649,2.022-3.828,5.776-2.809,8.949h52.638c0,0,6.156,12.701,23.38,12.198
		c17.224-0.503,18.379-11.766,18.379-11.766h45.145c1.792,0,3.244-1.452,3.244-3.244l0,0c0-9.612-7.792-17.405-17.405-17.405h-4.338
		V279.66C422.453,270.149,414.819,262.4,405.309,262.257L405.309,262.257z"/>
	<g>
		<g>
			<rect x="48.082" y="365.702" style="fill:#E0E0E0;" width="41.377" height="16.697"/>
			<rect x="88.265" y="365.702" style="fill:#F5F5F5;" width="41.377" height="16.697"/>
			<rect x="128.651" y="365.702" style="fill:#E0E0E0;" width="41.377" height="16.697"/>
			<rect x="168.834" y="365.702" style="fill:#F5F5F5;" width="41.377" height="16.697"/>
			<rect x="209.22" y="365.702" style="fill:#E0E0E0;" width="41.377" height="16.697"/>
			<rect x="249.403" y="365.702" style="fill:#F5F5F5;" width="41.377" height="16.697"/>
			<rect x="289.789" y="365.702" style="fill:#E0E0E0;" width="41.377" height="16.697"/>
			<rect x="329.972" y="365.702" style="fill:#F5F5F5;" width="41.377" height="16.697"/>
			<rect x="370.358" y="365.702" style="fill:#E0E0E0;" width="41.377" height="16.697"/>
			<rect x="410.541" y="365.702" style="fill:#F5F5F5;" width="41.377" height="16.697"/>
		</g>
		<g>
			<g>
				<g>
					<path style="fill:#E6E6E6;" d="M92.152,365.615h-16.22c0,0-4.709-91.387,26.814-184.134h5.625
						C108.372,181.48,87.002,281.7,92.152,365.615z"/>
					<path style="fill:#EBEBEB;" d="M119.499,209.82c0,0,5.653,15.305-6.518,14.938c0,0,5.491-3.721,4.259-11.169
						c0,0-1.662,6.239-5.452,7.95c0,0,4.041-9.695,2.59-16.159c0,0-0.238,6.152-2.59,8.209c0,0,1.942-13.165,0-18.386l-0.871,6.382
						l-1.481-11.604l-0.814,5.221l-1.034-9.213l-0.845,5.007l-2.926-9.624c-0.477-1.568,1.145-2.974,2.811-2.447
						c3.131,0.992,7.756,3.804,11.913,11.593c0,0-2.496-3.869-5.613-4.339c0,0,10.426,6.783,9.956,20.351
						c0,0-1.89-8.057-5.849-11.328c0,0,8.59,14.653,5.219,25.342C122.254,220.545,122.472,214.4,119.499,209.82z"/>
					<path style="fill:#E0E0E0;" d="M75.809,199.995c0,0-12.303,10.716-1.449,16.233c0,0-3.033-5.899,1.622-11.843
						c0,0-1.535,6.271,0.969,9.591c0,0,1.107-10.445,5.481-15.42c0,0-2.743,5.511-1.667,8.445c0,0,4.614-12.482,8.822-16.132
						l-2.298,6.018l6.867-9.47l-1.791,4.971l5.328-7.587l-1.661,4.799l7.185-7.04c1.171-1.147,0.422-3.159-1.292-3.495
						c-3.222-0.632-8.63-0.384-16.014,4.455c0,0,4.046-2.197,7.007-1.114c0,0-12.402,0.949-18.5,13.079
						c0,0,5.524-6.163,10.567-7.133c0,0-14.568,8.734-16.739,19.731C68.246,208.083,71.003,202.587,75.809,199.995z"/>
					<path style="fill:#EBEBEB;" d="M71.799,176.227c0,0-16.311,0.386-11.484,11.564c0,0,1.435-6.475,8.813-8.075
						c0,0-5.187,3.844-5.381,7.998c0,0,7.524-7.329,14.067-8.363c0,0-5.631,2.488-6.676,5.433c0,0,11.523-6.657,17.092-6.777
						l-5.612,3.163l11.332-2.9l-4.553,2.681l8.946-2.435l-4.343,2.631l10.025-0.827c1.634-0.135,2.343-2.161,1.238-3.514
						c-2.076-2.544-6.395-5.808-15.167-6.802c0,0,4.517,0.894,6.103,3.619c0,0-10.148-7.192-22.588-1.755
						c0,0,8.187-1.213,12.686,1.262c0,0-16.788-2.585-25.482,4.489C60.814,177.619,66.446,175.151,71.799,176.227z"/>
					<path style="fill:#E0E0E0;" d="M139.066,194.463c0,0,14.426,7.621,5.12,15.473c0,0,1.604-6.436-4.286-11.159
						c0,0,2.928,5.755,1.248,9.559c0,0-3.464-9.916-8.859-13.76c0,0,3.93,4.739,3.552,7.841c0,0-7.344-11.098-12.275-13.689
						l3.612,5.334l-8.849-7.651l2.879,4.431l-6.92-6.169l2.714,4.292l-8.603-5.212c-1.402-0.849-1.133-2.979,0.459-3.698
						c2.993-1.351,8.314-2.346,16.609,0.678c0,0-4.441-1.214-7.076,0.517c0,0,12.29-1.91,20.999,8.505c0,0-6.786-4.737-11.917-4.529
						c0,0,16.178,5.175,20.804,15.384C148.277,200.609,144.338,195.888,139.066,194.463z"/>
					<path style="fill:#E0E0E0;" d="M84.261,155.306c0,0-11.941-11.118-16.296,0.253c0,0,5.55-3.631,11.948,0.378
						c0,0-6.398-0.873-9.438,1.964c0,0,10.504,0.011,15.908,3.842c0,0-5.768-2.153-8.572-0.776c0,0,12.896,3.286,16.964,7.09
						L88.55,166.4l10.135,5.841l-5.131-1.262l8.102,4.507l-4.946-1.151l7.751,6.411c1.263,1.045,3.186,0.09,3.341-1.65
						c0.292-3.271-0.518-8.623-6.102-15.462c0,0,2.607,3.795,1.839,6.852c0,0-2.237-12.235-14.937-17.034
						c0,0,6.705,4.851,8.196,9.765c0,0-10.207-13.577-21.369-14.589C75.428,148.628,81.182,150.796,84.261,155.306z"/>
					<path style="fill:#E0E0E0;" d="M136.763,164.401c0,0,15.03-6.348,15.221,5.827c0,0-3.968-5.315-11.352-3.743
						c0,0,6.309,1.375,8.191,5.082c0,0-9.87-3.592-16.261-1.847c0,0,6.156-0.044,8.319,2.211c0,0-13.241-1.337-18.367,0.842
						l6.416,0.578l-11.524,2.01l5.253,0.575l-9.156,1.454l5.041,0.615l-9.48,3.363c-1.545,0.548-3.023-1.008-2.573-2.696
						c0.847-3.173,3.445-7.922,11.035-12.431c0,0-3.75,2.67-4.078,5.806c0,0,6.298-10.725,19.874-10.877
						c0,0-7.962,2.257-11.048,6.361c0,0,14.244-9.252,25.077-6.374C147.35,161.158,141.202,161.221,136.763,164.401z"/>
					<path style="fill:#EBEBEB;" d="M118.843,154.026c0,0,8.837-13.715,15.857-3.766c0,0-6.273-2.153-11.487,3.307
						c0,0,5.986-2.421,9.631-0.419c0,0-10.178,2.596-14.472,7.64c0,0,5.06-3.507,8.118-2.862c0,0-11.69,6.359-14.697,11.048
						l5.626-3.139l-8.385,8.156l4.663-2.486l-6.743,6.362l4.51-2.333l-5.934,8.122c-0.967,1.324-3.066,0.872-3.645-0.777
						c-1.088-3.098-1.62-8.486,2.108-16.488c0,0-1.593,4.32-0.096,7.094c0,0-0.843-12.409,10.285-20.187
						c0,0-5.305,6.352-5.54,11.482c0,0,6.551-15.671,17.121-19.4C125.761,145.379,120.718,148.897,118.843,154.026z"/>
					<g>
						<path style="fill:#EBEBEB;" d="M105.174,198.114c-3.975,22.081-10.527,63.482-12.915,107.806l-14.054-5.473
							c0.14-1.501,0.288-3.019,0.444-4.556l6.852-8.256l7.393-32.531l-5.73,2.957L97.7,223.868l-3.882,0.897L105.174,198.114z"/>
						<path style="fill:#EBEBEB;" d="M76.541,322.722l15.175-4.63c-0.307,8.731-0.43,17.515-0.323,26.233l-15.501-6.223
							c0.029-1.014,0.061-2.05,0.097-3.111l10.437-4.473l-10.055-4.571C76.423,324.89,76.48,323.813,76.541,322.722z"/>
						<path style="fill:#EBEBEB;" d="M92.074,309.522c-0.112,2.309-0.21,4.626-0.298,6.946l-9.786-4.065L92.074,309.522z"/>
						<path style="fill:#EBEBEB;" d="M80.511,350.11l10.941-2.141c0.118,5.934,0.344,11.829,0.701,17.646H79.709
							C80.045,359.796,80.511,350.11,80.511,350.11z"/>
					</g>
				</g>
			</g>
			<g>
				<g>
					<path style="fill:#E6E6E6;" d="M197.784,365.098h12.665c0,0,3.677-71.358-20.937-143.778h-4.393
						C185.119,221.32,201.806,299.575,197.784,365.098z"/>
					<path style="fill:#EBEBEB;" d="M176.43,243.449c0,0-4.414,11.951,5.089,11.664c0,0-4.288-2.905-3.325-8.721
						c0,0,1.298,4.872,4.257,6.208c0,0-3.155-7.57-2.022-12.617c0,0,0.186,4.804,2.022,6.41c0,0-1.516-10.28,0-14.357l0.681,4.984
						l1.156-9.06l0.636,4.077l0.807-7.194l0.66,3.91l2.285-7.515c0.372-1.225-0.894-2.322-2.195-1.91
						c-2.444,0.774-6.056,2.97-9.302,9.052c0,0,1.949-3.021,4.383-3.388c0,0-8.141,5.296-7.774,15.891c0,0,1.476-6.291,4.567-8.845
						c0,0-6.708,11.442-4.076,19.788C174.279,251.823,174.109,247.025,176.43,243.449z"/>
					<path style="fill:#E0E0E0;" d="M210.545,235.777c0,0,9.607,8.368,1.131,12.676c0,0,2.368-4.606-1.267-9.247
						c0,0,1.199,4.897-0.756,7.489c0,0-0.864-8.156-4.28-12.04c0,0,2.142,4.304,1.301,6.594c0,0-3.602-9.747-6.888-12.596
						l1.794,4.699l-5.361-7.395l1.398,3.882l-4.16-5.924l1.297,3.747l-5.61-5.497c-0.914-0.896-0.33-2.466,1.009-2.729
						c2.516-0.493,6.739-0.3,12.504,3.479c0,0-3.159-1.715-5.471-0.87c0,0,9.684,0.741,14.445,10.212c0,0-4.313-4.812-8.251-5.569
						c0,0,11.375,6.82,13.07,15.406C216.451,242.092,214.298,237.801,210.545,235.777z"/>
					<path style="fill:#EBEBEB;" d="M213.676,217.218c0,0,12.736,0.301,8.967,9.03c0,0-1.12-5.056-6.882-6.305
						c0,0,4.05,3.002,4.202,6.245c0,0-5.875-5.723-10.984-6.53c0,0,4.397,1.943,5.213,4.242c0,0-8.998-5.198-13.346-5.291
						l4.382,2.469l-8.849-2.265l3.555,2.094l-6.985-1.901l3.391,2.054l-7.828-0.646c-1.276-0.105-1.829-1.687-0.967-2.744
						c1.621-1.987,4.993-4.535,11.843-5.311c0,0-3.527,0.698-4.765,2.826c0,0,7.924-5.616,17.637-1.37c0,0-6.392-0.947-9.906,0.985
						c0,0,13.108-2.019,19.897,3.505C222.254,218.305,217.856,216.378,213.676,217.218z"/>
					<path style="fill:#E0E0E0;" d="M161.152,231.457c0,0-11.264,5.951-3.998,12.082c0,0-1.253-5.025,3.346-8.713
						c0,0-2.286,4.493-0.975,7.464c0,0,2.705-7.743,6.918-10.744c0,0-3.069,3.7-2.773,6.122c0,0,5.734-8.666,9.584-10.689
						l-2.82,4.165l6.909-5.974l-2.248,3.46l5.404-4.817l-2.119,3.351l6.718-4.07c1.095-0.663,0.885-2.326-0.359-2.887
						c-2.337-1.055-6.492-1.832-12.969,0.529c0,0,3.468-0.948,5.525,0.403c0,0-9.597-1.492-16.397,6.641
						c0,0,5.299-3.699,9.305-3.537c0,0-12.632,4.041-16.245,12.012C153.96,236.256,157.036,232.57,161.152,231.457z"/>
					<path style="fill:#E0E0E0;" d="M203.945,200.882c0,0,9.324-8.681,12.724,0.197c0,0-4.334-2.835-9.329,0.295
						c0,0,4.995-0.682,7.369,1.534c0,0-8.202,0.009-12.421,3c0,0,4.503-1.681,6.694-0.606c0,0-10.069,2.566-13.246,5.537
						l4.861-1.294l-7.914,4.561l4.007-0.985l-6.326,3.519l3.862-0.899l-6.052,5.006c-0.986,0.816-2.487,0.071-2.609-1.288
						c-0.228-2.554,0.405-6.733,4.764-12.073c0,0-2.036,2.963-1.436,5.35c0,0,1.747-9.553,11.663-13.301c0,0-5.236,3.788-6.4,7.625
						c0,0,7.97-10.601,16.686-11.391C210.842,195.668,206.35,197.361,203.945,200.882z"/>
					<path style="fill:#E0E0E0;" d="M162.951,207.984c0,0-11.736-4.956-11.885,4.55c0,0,3.099-4.15,8.864-2.923
						c0,0-4.926,1.073-6.396,3.968c0,0,7.707-2.805,12.697-1.443c0,0-4.807-0.035-6.496,1.727c0,0,10.339-1.044,14.342,0.657
						l-5.01,0.452l8.998,1.57l-4.102,0.449l7.149,1.136l-3.936,0.48l7.402,2.626c1.206,0.428,2.361-0.787,2.009-2.105
						c-0.662-2.477-2.69-6.186-8.617-9.707c0,0,2.928,2.085,3.184,4.533c0,0-4.918-8.375-15.518-8.493c0,0,6.217,1.762,8.627,4.967
						c0,0-11.122-7.224-19.581-4.977C154.683,205.452,159.484,205.501,162.951,207.984z"/>
					<path style="fill:#EBEBEB;" d="M176.943,199.883c0,0-6.9-10.709-12.382-2.941c0,0,4.898-1.681,8.969,2.582
						c0,0-4.674-1.89-7.52-0.328c0,0,7.947,2.027,11.301,5.965c0,0-3.951-2.738-6.339-2.235c0,0,9.128,4.965,11.476,8.627
						l-4.393-2.451l6.548,6.368l-3.641-1.941l5.265,4.968l-3.522-1.822l4.634,6.342c0.755,1.034,2.394,0.681,2.846-0.606
						c0.85-2.419,1.265-6.626-1.646-12.875c0,0,1.244,3.373,0.075,5.539c0,0,0.658-9.689-8.031-15.763c0,0,4.142,4.96,4.326,8.966
						c0,0-5.115-12.237-13.368-15.148C171.541,193.131,175.479,195.878,176.943,199.883z"/>
					<g>
						<path style="fill:#EBEBEB;" d="M187.616,234.308c3.104,17.242,8.22,49.568,10.085,84.178l10.973-4.273
							c-0.109-1.172-0.225-2.357-0.346-3.557l-5.35-6.447l-5.773-25.401l4.474,2.309l-8.227-26.7l3.031,0.7L187.616,234.308z"/>
						<path style="fill:#EBEBEB;" d="M209.973,331.606l-11.849-3.615c0.24,6.818,0.336,13.676,0.252,20.483l12.104-4.859
							c-0.023-0.792-0.048-1.6-0.076-2.429l-8.15-3.493l7.852-3.569C210.066,333.298,210.021,332.457,209.973,331.606z"/>
						<path style="fill:#EBEBEB;" d="M197.845,321.299c0.087,1.803,0.164,3.612,0.233,5.424l7.642-3.174L197.845,321.299z"/>
						<path style="fill:#EBEBEB;" d="M206.874,352.991l-8.543-1.672c-0.092,4.633-0.268,9.237-0.547,13.778h9.717
							C207.238,360.554,206.874,352.991,206.874,352.991z"/>
					</g>
				</g>
			</g>
			<g>
				<g>
					<path style="fill:#E6E6E6;" d="M391.084,365.615h19.072c0,0,9.279-93.471-30.816-207.801h-7.972
						C371.368,157.814,398.99,280.429,391.084,365.615z"/>
					<path style="fill:#EBEBEB;" d="M356.198,195.179c0,0-7.331,19.243,9.113,18.789c0,0-7.492-4.624-5.945-13.992
						c0,0,2.364,7.857,7.529,9.993c0,0-5.625-12.21-3.72-20.493c0,0,0.405,7.886,3.649,10.499c0,0-2.814-16.93-0.168-23.78
						l1.267,8.363l1.986-15.291l1.167,6.928l1.416-12.28l1.199,6.705l4.131-12.954c0.682-2.137-1.62-4.06-3.987-3.338
						c-4.443,1.355-10.971,5.181-16.697,15.654c0,0,3.44-5.18,7.826-5.813c0,0-14.512,9.061-13.501,26.788
						c0,0,2.42-10.463,7.869-14.763c0,0-11.55,19.028-6.66,32.533C352.674,208.73,352.228,201.004,356.198,195.179z"/>
					<path style="fill:#E0E0E0;" d="M416.658,182.486c0,0,16.405,13.83,1.253,20.826c0,0,4.436-7.484-1.692-15.121
						c0,0,1.829,8.056-1.749,12.275c0,0-1.084-13.381-6.959-19.862c0,0,3.598,7.176,2,10.96c0,0-5.973-16.272-11.761-21.113
						l3.052,7.964l-9.398-12.58l2.418,6.637l-7.365-10.158l2.273,6.444l-10.063-9.478c-1.655-1.559-0.587-4.301,1.85-4.761
						c4.586-0.865,12.271-0.525,22.616,6.062c0,0-5.666-2.982-9.884-1.51c0,0,17.519,1.286,25.554,17.497
						c0,0-7.463-8.181-14.516-9.479c0,0,20.012,11.588,22.416,25.865C426.703,192.954,423.195,185.861,416.658,182.486z"/>
					<path style="fill:#EBEBEB;" d="M423.479,150.627c0,0,23.22,0.531,15.542,15.711c0,0-1.573-8.747-11.938-10.928
						c0,0,7.112,5.227,7.113,10.824c0,0-10.192-9.912-19.43-11.323c0,0,7.867,3.391,9.188,7.38c0,0-16.027-9.055-23.945-9.219
						l7.868,4.32l-16.011-3.96l6.406,3.662l-12.656-3.324l6.127,3.591l-14.209-1.127c-2.318-0.184-3.326-2.954-1.755-4.811
						c2.967-3.507,9.173-8.035,21.777-9.42c0,0-6.499,1.247-8.816,5.029c0,0,14.737-10.036,32.383-2.434
						c0,0-11.68-1.688-18.212,1.751c0,0,24.164-3.593,36.128,6.189C439.039,152.539,431.178,149.144,423.479,150.627z"/>
					<path style="fill:#E0E0E0;" d="M328.545,175.22c0,0-19.598,9.989-6.253,20.107c0,0-2.589-8.281,5.314-14.432
						c0,0-3.748,7.487-1.226,12.384c0,0,4.29-12.852,11.637-17.91c0,0-5.269,6.229-4.602,10.271c0,0,9.783-14.59,16.624-18.048
						l-4.901,7.097l12.217-10.206l-3.951,5.932l9.623-8.275l-3.756,5.769l12.069-7.012c1.98-1.15,1.594-4.045-0.667-5.025
						c-4.261-1.847-11.844-3.209-23.553,0.924c0,0,6.269-1.656,10.046,0.703c0,0-17.497-2.605-29.317,11.465
						c0,0,9.33-6.359,16.58-6.079c0,0-22.525,6.94-28.351,20.402C316.077,183.288,321.266,177.1,328.545,175.22z"/>
					<path style="fill:#E0E0E0;" d="M406.449,121.144c0,0,18.061-16.251,23.771,0.365c0,0-7.903-5.259-17.451,0.545
						c0,0,9.379-1.259,13.65,2.824c0,0-15.287,0.016-23.275,5.488c0,0,8.447-3.07,12.457-1.105c0,0-18.783,4.663-24.73,10.02
						l9.002-2.327l-14.674,8.164l7.372-1.755l-11.647,6.244l7.073-1.589l-11.085,8.797c-1.792,1.422-4.518,0.123-4.744-2.252
						c-0.428-4.489,0.715-11.906,8.77-21.514c0,0-3.778,5.35-2.683,9.627c0,0,3.298-17.295,21.911-24.212
						c0,0-9.893,6.991-12.134,13.995c0,0,15.198-19.543,31.651-21.024C419.684,111.433,411.13,114.603,406.449,121.144z"/>
					<path style="fill:#E0E0E0;" d="M330.281,134.133c0,0-22.197-9.037-21.548,8.182c0,0,5.328-7.458,16.079-5.243
						c0,0-9,1.931-11.45,7.108c0,0,13.95-5.016,23.22-2.574c0,0-8.842-0.062-11.819,3.08c0,0,18.918-1.86,26.331,1.168l-9.159,0.802
						l16.517,2.778l-7.479,0.792l13.074,2l-7.163,0.843l13.504,4.593c2.191,0.745,4.285-1.373,3.643-3.678
						c-1.213-4.357-4.951-10.94-15.924-17.254c0,0,5.442,3.747,5.952,8.118c0,0-9.266-15.081-28.953-15.298
						c0,0,11.618,3.205,16.192,8.992c0,0-20.974-13.122-36.534-9.01C314.764,129.533,323.682,129.623,330.281,134.133z"/>
					<path style="fill:#EBEBEB;" d="M355.942,119.295c0,0-13.433-20.168-23.365-5.475c0,0,9.128-3.152,16.963,4.81
						c0,0-8.851-3.517-14.105-0.608c0,0,14.967,3.754,21.339,10.983c0,0-7.443-5.017-11.874-4.093c0,0,17.109,9.056,21.499,15.65
						l-8.145-4.406l12.138,11.385l-6.695-3.448l9.676,8.786l-6.439-3.208l8.464,11.093c1.365,1.789,4.329,1.179,5.157-1.052
						c1.564-4.215,2.366-11.615-2.937-22.774c0,0,2.272,6.049,0.117,9.902c0,0,1.259-17.426-14.987-28.602
						c0,0,7.795,9.142,8.162,16.429c0,0-9.707-22.532-25.375-28.013C345.535,106.655,353.071,111.828,355.942,119.295z"/>
					<g>
						<path style="fill:#EBEBEB;" d="M375.886,180.026c5.383,28.267,13.647,77.822,15.996,126.427l17.674-5.772
							c-0.125-1.594-0.259-3.21-0.403-4.852l-8.403-8.906l-8.825-36.565l7.43,3.425l-13.376-40.918l5.237,1.111L375.886,180.026z"/>
						<path style="fill:#EBEBEB;" d="M410.857,323.792l-18.503-4.722c0.231,8.87,0.234,17.644-0.038,26.209l18.804-6.099
							c0-1.001-0.003-2.025-0.011-3.077l-12.53-4.455l12.377-4.592C410.927,325.988,410.893,324.898,410.857,323.792z"/>
						<path style="fill:#EBEBEB;" d="M392.053,310.218c0.101,2.4,0.184,4.797,0.254,7.187l12.17-4.194L392.053,310.218z"/>
						<path style="fill:#EBEBEB;" d="M405.204,350.885l-13.018-2.068c-0.235,5.71-0.594,11.322-1.102,16.797h14.632
							C405.483,360.137,405.204,350.885,405.204,350.885z"/>
					</g>
				</g>
			</g>
			<g>
				<g>
					<rect x="303.117" y="318.404" style="fill:#F0F0F0;" width="33.786" height="14.746"/>
					<path style="fill:#F0F0F0;" d="M303.117,328.13h-2.833c-1.035,0-1.873-0.839-1.873-1.873v-0.96
						c0-1.034,0.839-1.873,1.873-1.873h2.833V328.13z"/>
					<path style="fill:#F0F0F0;" d="M336.904,323.424h2.833c1.034,0,1.873,0.839,1.873,1.873v0.96c0,1.034-0.838,1.873-1.873,1.873
						h-2.833V323.424z"/>
					<rect x="300.764" y="316.364" style="fill:#E0E0E0;" width="4.707" height="18.826"/>
					<rect x="334.55" y="316.364" style="fill:#E0E0E0;" width="4.707" height="18.826"/>
					<g>
						<path style="fill:#E6E6E6;" d="M329.087,360.024h-18.154v-50.949c0-5.013,4.064-9.077,9.077-9.077l0,0
							c5.013,0,9.077,4.064,9.077,9.077V360.024z"/>
						<path style="fill:#E0E0E0;" d="M332.365,366.29h-24.709v-3.155c0-3.395,2.753-6.148,6.148-6.148h12.414
							c3.395,0,6.148,2.752,6.148,6.148V366.29z"/>
					</g>
					<path style="fill:#FAFAFA;" d="M327.778,325.748c0,4.29-3.478,7.768-7.768,7.768c-4.29,0-7.768-3.478-7.768-7.768
						c0-4.29,3.478-7.768,7.768-7.768C324.3,317.981,327.778,321.458,327.778,325.748z"/>
					<path style="fill:#EBEBEB;" d="M321.859,325.748c0,1.021-0.828,1.849-1.849,1.849c-1.021,0-1.849-0.828-1.849-1.849
						c0-1.021,0.828-1.849,1.849-1.849C321.032,323.899,321.859,324.727,321.859,325.748z"/>
					<path style="fill:#E0E0E0;" d="M307.656,311.658L307.656,311.658c0-1.3,1.054-2.353,2.353-2.353h20.003
						c1.3,0,2.353,1.053,2.353,2.353l0,0c0,1.3-1.054,2.353-2.353,2.353h-20.003C308.709,314.011,307.656,312.957,307.656,311.658z"
						/>
				</g>
				<g>
					<path style="fill:#F5F5F5;" d="M316.06,337.738L316.06,337.738c1.3,0,2.353,1.054,2.353,2.353v12.161
						c0,1.3-1.054,2.353-2.353,2.353l0,0c-1.3,0-2.353-1.054-2.353-2.353v-12.161C313.707,338.791,314.761,337.738,316.06,337.738z"
						/>
					<path style="fill:#F5F5F5;" d="M323.961,337.738L323.961,337.738c1.3,0,2.353,1.054,2.353,2.353v12.16
						c0,1.3-1.053,2.353-2.353,2.353l0,0c-1.3,0-2.353-1.054-2.353-2.353v-12.161C321.607,338.791,322.661,337.738,323.961,337.738z
						"/>
				</g>
			</g>
			<g>
				<path style="fill:none;stroke:#EBEBEB;stroke-miterlimit:10;" d="M83.804,293.726c0,0,23.026,54.243,73.537,54.243
					c50.512,0,42.939-39.419,42.939-39.419S181.22,356.61,83.804,293.726z"/>
				<path style="fill:none;stroke:#EBEBEB;stroke-miterlimit:10;" d="M97.639,302.945c7.218,15.173,18.177,28.549,31.632,38.613"/>
				<path style="fill:none;stroke:#EBEBEB;stroke-miterlimit:10;" d="M109.916,308.674c8.427,15.75,21.028,29.243,36.166,38.726"/>
				<path style="fill:none;stroke:#EBEBEB;stroke-miterlimit:10;" d="M159.619,347.941c-12.15-7.9-25.323-18.591-32.763-31.031
					c-0.09-0.14-0.17-0.29-0.26-0.43"/>
				<path style="fill:none;stroke:#EBEBEB;stroke-miterlimit:10;" d="M173.436,346.33c-12.99-5-24.57-13.59-33.11-24.57
					c-0.1-0.12-0.2-0.24-0.29-0.36"/>
				<path style="fill:none;stroke:#EBEBEB;stroke-miterlimit:10;" d="M154.144,324.708c8.104,8.349,18.803,15.06,28.965,18.656"/>
				<path style="fill:none;stroke:#EBEBEB;stroke-miterlimit:10;" d="M164.679,326.092c5.497,5.518,15.19,10.586,24.047,13.487"/>
				<path style="fill:none;stroke:#EBEBEB;stroke-miterlimit:10;" d="M172.701,325.613c7.066,3.54,14.296,6.751,21.66,9.62"/>
				<path style="fill:none;stroke:#EBEBEB;stroke-miterlimit:10;" d="M181.199,323.854c5.316,2.05,10.632,4.101,15.947,6.151
					c-0.233-0.025-0.466-0.05-0.698-0.074"/>
				<path style="fill:none;stroke:#EBEBEB;stroke-miterlimit:10;" d="M187.203,321.252c5.711,2.42,7.291,2.974,11.421,4.84"/>
				<path style="fill:none;stroke:#EBEBEB;stroke-miterlimit:10;" d="M84.275,294.769c0,0,40.565,43.12,78.418,41.345
					c35.961-1.686,37.434-26.123,37.434-26.123C164.561,361.375,85.184,295.208,84.275,294.769c0,0,35.899,50.58,80.286,47.472
					c38.015-2.662,35.565-32.25,35.565-32.25"/>
			</g>
		</g>
	</g>
</g>
<g id="Background_Simple" style="display:none;">
	<g style="display:inline;">
		<path style="fill:#407BFF;" d="M436.952,191.758v49.583C436.85,420.957,74.517,432.363,64.679,315.414
			c0,0-19.693-97.123,77.771-99.84h6.32c50.424,0,70.599-40.876,70.599-91.3v0C219.369,48.126,436.952,24.601,436.952,191.758z"/>
		<path style="opacity:0.9;fill:#FFFFFF;" d="M436.952,191.758v49.583C436.85,420.957,74.517,432.363,64.679,315.414
			c0,0-19.693-97.123,77.771-99.84h6.32c50.424,0,70.599-40.876,70.599-91.3v0C219.369,48.126,436.952,24.601,436.952,191.758z"/>
	</g>
</g>
<g id="Shadow">
	<ellipse id="_x3C_Path_x3E__1_" style="fill:#F5F5F5;" cx="250" cy="412.391" rx="193.889" ry="11.323"/>
</g>
<g id="Plant">
	<g>
		<g>
			<g>
				<path style="fill:#407BFF;" d="M412.28,364.125c0,0-4.093,0.289-6.708,4.92c-2.611,4.632-8.692,6.794-12.269,6.049
					c-1.441-0.301-2.908,0.171-4.66,0.842c-0.482,0.183-0.983,0.383-1.516,0.589c0.138-0.478,0.266-0.977,0.377-1.494
					c0.435-0.237,0.867-0.496,1.296-0.782c0.099-0.069,0.196-0.134,0.295-0.203c5.004-3.492,5.822-7.866,11.514-11.021
					C406.41,359.808,412.28,364.125,412.28,364.125z"/>
				<path style="fill:#407BFF;" d="M370.804,353.109c0,0,3.551,2.056,3.868,7.365c0.313,5.308,4.828,9.921,8.369,10.821
					c1.426,0.363,2.537,1.429,3.817,2.802c0.353,0.377,0.715,0.775,1.103,1.195c0.086-0.491,0.19-0.995,0.317-1.509
					c-0.286-0.404-0.562-0.826-0.821-1.271c-0.059-0.105-0.117-0.206-0.176-0.311c-2.963-5.334-1.779-9.623-5.508-14.957
					C377.972,351.806,370.804,353.109,370.804,353.109z"/>
				<path style="fill:#407BFF;" d="M386.857,374.097c-0.469,2.364-0.745,5.092-0.439,8.306c0.943,9.87,4.612,27.914,4.612,27.914
					s-3.816-30.793-3.069-35.025c0.086-0.491,0.19-0.995,0.317-1.509c0.412-1.714,1.046-3.543,2.011-5.354
					c3.75-7.05,9.264-8.539,12.559-16.216c3.294-7.677-2.854-14.48-2.854-14.48s0.156,5.167-5.315,9.025
					c-5.467,3.859-7.408,11.749-6.016,16.136c0.813,2.558-0.408,5.411-1.381,9.308C387.132,372.807,386.986,373.438,386.857,374.097
					z"/>
			</g>
			<g style="opacity:0.4;">
				<path style="fill:#FFFFFF;" d="M412.28,364.125c0,0-4.093,0.289-6.708,4.92c-2.611,4.632-8.692,6.794-12.269,6.049
					c-1.441-0.301-2.908,0.171-4.66,0.842c-0.482,0.183-0.983,0.383-1.516,0.589c0.138-0.478,0.266-0.977,0.377-1.494
					c0.435-0.237,0.867-0.496,1.296-0.782c0.099-0.069,0.196-0.134,0.295-0.203c5.004-3.492,5.822-7.866,11.514-11.021
					C406.41,359.808,412.28,364.125,412.28,364.125z"/>
				<path style="fill:#FFFFFF;" d="M370.804,353.109c0,0,3.551,2.056,3.868,7.365c0.313,5.308,4.828,9.921,8.369,10.821
					c1.426,0.363,2.537,1.429,3.817,2.802c0.353,0.377,0.715,0.775,1.103,1.195c0.086-0.491,0.19-0.995,0.317-1.509
					c-0.286-0.404-0.562-0.826-0.821-1.271c-0.059-0.105-0.117-0.206-0.176-0.311c-2.963-5.334-1.779-9.623-5.508-14.957
					C377.972,351.806,370.804,353.109,370.804,353.109z"/>
				<path style="fill:#FFFFFF;" d="M386.857,374.097c-0.469,2.364-0.745,5.092-0.439,8.306c0.943,9.87,4.612,27.914,4.612,27.914
					s-3.816-30.793-3.069-35.025c0.086-0.491,0.19-0.995,0.317-1.509c0.412-1.714,1.046-3.543,2.011-5.354
					c3.75-7.05,9.264-8.539,12.559-16.216c3.294-7.677-2.854-14.48-2.854-14.48s0.156,5.167-5.315,9.025
					c-5.467,3.859-7.408,11.749-6.016,16.136c0.813,2.558-0.408,5.411-1.381,9.308C387.132,372.807,386.986,373.438,386.857,374.097
					z"/>
			</g>
		</g>
		<g>
			<g>
				<g>
					<defs>
						<path id="XMLID_10_" d="M396.451,401.134c0,0,3.084-5.204,7.855-4.884c4.771,0.32,6.921-0.398,6.921-0.398
							S406.838,404.023,396.451,401.134z"/>
					</defs>
					<use xlink:href="#XMLID_10_"  style="overflow:visible;fill:#407BFF;"/>
					<clipPath id="XMLID_00000016070811534910972140000007919918250655695782_">
						<use xlink:href="#XMLID_10_"  style="overflow:visible;"/>
					</clipPath>
					<path style="opacity:0.2;clip-path:url(#XMLID_00000016070811534910972140000007919918250655695782_);fill:#FFFFFF;" d="
						M396.451,401.134c0,0,3.084-5.204,7.855-4.884c4.771,0.32,6.921-0.398,6.921-0.398S406.838,404.023,396.451,401.134z"/>
				</g>
				<g>
					<path style="fill:#407BFF;" d="M396.591,401.14c-0.073-0.026-0.138-0.077-0.178-0.151c-0.088-0.159-0.031-0.359,0.128-0.447
						c2.926-1.626,6.198-2.526,10.004-2.752c0.179-0.01,0.337,0.128,0.348,0.309c0.01,0.182-0.128,0.338-0.309,0.348
						c-3.705,0.22-6.885,1.093-9.723,2.67C396.775,401.165,396.677,401.17,396.591,401.14z"/>
				</g>
			</g>
			<g>
				<g>
					<g>
						<g>
							<defs>
								<path id="XMLID_9_" d="M395.401,405.34c0,0,3.481-8.799-1.485-14.392c-4.966-5.592-6.137-8.939-6.137-8.939
									S381.879,395.263,395.401,405.34z"/>
							</defs>
							<use xlink:href="#XMLID_9_"  style="overflow:visible;fill:#407BFF;"/>
							<clipPath id="XMLID_00000103226999489417920910000008924425998231171991_">
								<use xlink:href="#XMLID_9_"  style="overflow:visible;"/>
							</clipPath>
						</g>
						<g style="opacity:0.2;">
							<defs>
								<path id="XMLID_3_" style="opacity:0.2;" d="M395.401,405.34c0,0,3.481-8.799-1.485-14.392
									c-4.966-5.592-6.137-8.939-6.137-8.939S381.879,395.263,395.401,405.34z"/>
							</defs>
							<use xlink:href="#XMLID_3_"  style="overflow:visible;fill:#FFFFFF;"/>
							<clipPath id="XMLID_00000172421660509031476950000006938602158096473514_">
								<use xlink:href="#XMLID_3_"  style="overflow:visible;"/>
							</clipPath>
						</g>
					</g>
					<path style="fill:#407BFF;" d="M394.961,404.904c-0.11-0.039-0.195-0.134-0.216-0.257c-0.422-2.568-1.955-9.319-7.065-16.514
						c-0.105-0.148-0.071-0.354,0.078-0.459c0.148-0.105,0.354-0.071,0.459,0.078c5.19,7.307,6.749,14.175,7.178,16.789
						c0.03,0.179-0.092,0.349-0.271,0.378C395.067,404.928,395.011,404.922,394.961,404.904z"/>
				</g>
			</g>
			<g>
				<path style="fill:#407BFF;" d="M395.011,406.319c-0.166-0.058-0.257-0.238-0.205-0.408c4.466-14.468,6.307-17.46,6.383-17.58
					c0.097-0.153,0.299-0.195,0.453-0.103c0.153,0.097,0.199,0.3,0.103,0.454c-0.018,0.03-1.889,3.103-6.311,17.424
					c-0.053,0.173-0.238,0.271-0.411,0.217C395.02,406.322,395.016,406.32,395.011,406.319z"/>
			</g>
			<g>
				<g>
					<path style="fill:#407BFF;" d="M401.106,377.809c-0.194,1.157,0.055,5.426,1.212,5.62c1.157,0.193,2.783-3.761,2.976-4.918
						c0.194-1.156-0.587-2.251-1.744-2.445C402.394,375.872,401.3,376.653,401.106,377.809z"/>
					<path style="fill:#407BFF;" d="M403.1,391.615c0.193-1.157-0.055-5.425-1.212-5.619c-1.157-0.194-2.783,3.761-2.977,4.918
						c-0.194,1.157,0.587,2.251,1.744,2.445C401.812,393.552,402.907,392.772,403.1,391.615z"/>
					<path style="fill:#407BFF;" d="M395.2,385.709c1.157,0.194,5.425-0.055,5.619-1.212c0.194-1.156-3.761-2.783-4.918-2.976
						c-1.157-0.194-2.251,0.587-2.445,1.743C393.263,384.421,394.044,385.515,395.2,385.709z"/>
					<path style="fill:#407BFF;" d="M409.006,383.715c-1.157-0.194-5.425,0.055-5.619,1.212c-0.193,1.157,3.761,2.783,4.918,2.977
						c1.156,0.194,2.251-0.587,2.445-1.744C410.943,385.003,410.162,383.909,409.006,383.715z"/>
					<path style="fill:#407BFF;" d="M396.517,380.536c0.681,0.955,3.876,3.797,4.83,3.116c0.955-0.681-0.691-4.627-1.372-5.582
						c-0.681-0.955-2.007-1.177-2.962-0.496C396.058,378.255,395.836,379.581,396.517,380.536z"/>
					<path style="fill:#407BFF;" d="M407.689,388.888c-0.681-0.955-3.875-3.797-4.83-3.116c-0.955,0.681,0.692,4.627,1.373,5.582
						c0.681,0.955,2.007,1.177,2.962,0.496C408.148,391.169,408.37,389.843,407.689,388.888z"/>
					<path style="fill:#407BFF;" d="M397.927,390.298c0.955-0.681,3.797-3.876,3.116-4.83c-0.681-0.955-4.627,0.692-5.582,1.373
						c-0.955,0.681-1.177,2.007-0.496,2.962C395.646,390.757,396.972,390.979,397.927,390.298z"/>
					<path style="fill:#407BFF;" d="M406.279,379.126c-0.955,0.681-3.797,3.876-3.116,4.83c0.681,0.955,4.627-0.692,5.582-1.373
						c0.955-0.681,1.177-2.007,0.496-2.962C408.56,378.667,407.234,378.445,406.279,379.126z"/>
				</g>
				<g style="opacity:0.6;enable-background:new    ;">
					<path style="fill:#FFFFFF;" d="M401.106,377.809c-0.194,1.157,0.055,5.426,1.212,5.62c1.157,0.193,2.783-3.761,2.976-4.918
						c0.194-1.156-0.587-2.251-1.744-2.445C402.394,375.872,401.3,376.653,401.106,377.809z"/>
					<path style="fill:#FFFFFF;" d="M403.1,391.615c0.193-1.157-0.055-5.425-1.212-5.619c-1.157-0.194-2.783,3.761-2.977,4.918
						c-0.194,1.157,0.587,2.251,1.744,2.445C401.812,393.552,402.907,392.772,403.1,391.615z"/>
					<path style="fill:#FFFFFF;" d="M395.2,385.709c1.157,0.194,5.425-0.055,5.619-1.212c0.194-1.156-3.761-2.783-4.918-2.976
						c-1.157-0.194-2.251,0.587-2.445,1.743C393.263,384.421,394.044,385.515,395.2,385.709z"/>
					<path style="fill:#FFFFFF;" d="M409.006,383.715c-1.157-0.194-5.425,0.055-5.619,1.212c-0.193,1.157,3.761,2.783,4.918,2.977
						c1.156,0.194,2.251-0.587,2.445-1.744C410.943,385.003,410.162,383.909,409.006,383.715z"/>
					<path style="fill:#FFFFFF;" d="M396.517,380.536c0.681,0.955,3.876,3.797,4.83,3.116c0.955-0.681-0.691-4.627-1.372-5.582
						c-0.681-0.955-2.007-1.177-2.962-0.496C396.058,378.255,395.836,379.581,396.517,380.536z"/>
					<path style="fill:#FFFFFF;" d="M407.689,388.888c-0.681-0.955-3.875-3.797-4.83-3.116c-0.955,0.681,0.692,4.627,1.373,5.582
						c0.681,0.955,2.007,1.177,2.962,0.496C408.148,391.169,408.37,389.843,407.689,388.888z"/>
					<path style="fill:#FFFFFF;" d="M397.927,390.298c0.955-0.681,3.797-3.876,3.116-4.83c-0.681-0.955-4.627,0.692-5.582,1.373
						c-0.955,0.681-1.177,2.007-0.496,2.962C395.646,390.757,396.972,390.979,397.927,390.298z"/>
					<path style="fill:#FFFFFF;" d="M406.279,379.126c-0.955,0.681-3.797,3.876-3.116,4.83c0.681,0.955,4.627-0.692,5.582-1.373
						c0.955-0.681,1.177-2.007,0.496-2.962C408.56,378.667,407.234,378.445,406.279,379.126z"/>
				</g>
				<path style="fill:#407BFF;" d="M399.623,384.297c-0.229,1.37,0.695,2.666,2.065,2.896c1.37,0.229,2.666-0.695,2.896-2.065
					c0.229-1.37-0.695-2.667-2.065-2.896C401.148,382.002,399.852,382.927,399.623,384.297z"/>
			</g>
		</g>
		<g>
			<g>
				<path style="fill:#407BFF;" d="M391.888,412.37c1.071-9.074-2.194-19.763-8.62-26.258c1.604,1.996,2.865,4.616,3.137,7.163
					c-2.339-4.984-6.386-9.148-11.302-11.629c2.358,2.752,4.529,6.71,5.823,10.094c-2.132-2.615-5.1-4.619-8.305-5.673
					c5.616,6.705,9.516,14.836,11.228,23.413c0.064,0.32-0.117,1.877-0.037,2.194C386.665,412.046,389.033,411.997,391.888,412.37z"
					/>
				<path style="opacity:0.2;fill:#FFFFFF;" d="M391.888,412.37c1.071-9.074-2.194-19.763-8.62-26.258
					c1.604,1.996,2.865,4.616,3.137,7.163c-2.339-4.984-6.386-9.148-11.302-11.629c2.358,2.752,4.529,6.71,5.823,10.094
					c-2.132-2.615-5.1-4.619-8.305-5.673c5.616,6.705,9.516,14.836,11.228,23.413c0.064,0.32-0.117,1.877-0.037,2.194
					C386.665,412.046,389.033,411.997,391.888,412.37z"/>
			</g>
			<g>
				<path style="fill:#407BFF;" d="M391.524,412.37c-0.517-4.376,1.058-9.532,4.158-12.665c-0.774,0.963-1.382,2.227-1.513,3.455
					c1.128-2.404,3.08-4.412,5.451-5.609c-1.137,1.327-2.185,3.236-2.809,4.869c1.029-1.261,2.46-2.228,4.006-2.736
					c-2.709,3.234-4.59,7.156-5.415,11.293c-0.031,0.155,0.056,0.905,0.018,1.058C394.043,412.213,392.901,412.19,391.524,412.37z"
					/>
			</g>
		</g>
	</g>
</g>
<g id="Graphics">
	<g>
		<g>
			<g>
				<g>
					<path style="fill:#407BFF;" d="M314.147,175.831c-0.225,0-0.43-0.153-0.485-0.382c-9.974-41.126-31.717-90.538-78.665-92.384
						l-5.723-0.358c-49.142,1.771-73.893,51.085-85.994,92.143c-0.078,0.264-0.354,0.419-0.621,0.338
						c-0.265-0.078-0.416-0.356-0.338-0.621c12.194-41.372,37.18-91.066,86.966-92.858l5.76,0.358
						c47.56,1.869,69.531,51.686,79.586,93.148c0.065,0.268-0.1,0.539-0.368,0.604C314.226,175.826,314.186,175.831,314.147,175.831
						z"/>
				</g>
			</g>
			<g style="opacity:0.6;">
				<g>
					<path style="fill:#FFFFFF;" d="M314.147,175.831c-0.225,0-0.43-0.153-0.485-0.382c-9.974-41.126-31.717-90.538-78.665-92.384
						l-5.723-0.358c-49.142,1.771-73.893,51.085-85.994,92.143c-0.078,0.264-0.354,0.419-0.621,0.338
						c-0.265-0.078-0.416-0.356-0.338-0.621c12.194-41.372,37.18-91.066,86.966-92.858l5.76,0.358
						c47.56,1.869,69.531,51.686,79.586,93.148c0.065,0.268-0.1,0.539-0.368,0.604C314.226,175.826,314.186,175.831,314.147,175.831
						z"/>
				</g>
			</g>
		</g>
		<g>
			<g>
				<g>
					<g>
						<g>
							<path style="fill:#407BFF;" d="M323.545,189.278c-0.242,0-0.454-0.175-0.493-0.421c-2.784-17.5-6.683-33.785-11.59-48.4
								c-0.088-0.262,0.053-0.546,0.315-0.633c0.261-0.087,0.545,0.053,0.633,0.315c4.925,14.668,8.837,31.006,11.629,48.562
								c0.044,0.273-0.143,0.529-0.415,0.572C323.598,189.276,323.571,189.278,323.545,189.278z"/>
						</g>
						<g>
							<path style="fill:#407BFF;" d="M134.161,191.378c-0.022,0-0.044-0.001-0.067-0.004c-0.273-0.037-0.465-0.288-0.429-0.563
								c4.215-31.269,11.705-53.987,22.262-73.394c15.819-29.078,38.521-44.375,67.475-45.467l11.091,0
								c34.824,0,60.533,19.505,76.411,63.842c0.093,0.26-0.042,0.546-0.302,0.639c-0.259,0.091-0.546-0.042-0.639-0.302
								c-15.721-43.896-41.112-63.179-75.469-63.179H223.42c-28.558,1.078-50.977,16.2-66.615,44.946
								c-10.499,19.299-17.95,41.902-22.149,73.049C134.622,191.196,134.407,191.378,134.161,191.378z"/>
						</g>
						<g>
							<path style="fill:#407BFF;" d="M132.912,201.489c-0.019,0-0.038-0.001-0.057-0.003c-0.274-0.031-0.472-0.279-0.44-0.553
								c0.195-1.724,0.409-3.544,0.646-5.45c0.034-0.274,0.286-0.469,0.558-0.435c0.274,0.034,0.469,0.284,0.435,0.558
								c-0.236,1.902-0.45,3.719-0.644,5.439C133.379,201.301,133.163,201.489,132.912,201.489z"/>
						</g>
					</g>
				</g>
			</g>
			<g style="opacity:0.6;">
				<g>
					<g>
						<g>
							<path style="fill:#FFFFFF;" d="M323.545,189.278c-0.242,0-0.454-0.175-0.493-0.421c-2.784-17.5-6.683-33.785-11.59-48.4
								c-0.088-0.262,0.053-0.546,0.315-0.633c0.261-0.087,0.545,0.053,0.633,0.315c4.925,14.668,8.837,31.006,11.629,48.562
								c0.044,0.273-0.143,0.529-0.415,0.572C323.598,189.276,323.571,189.278,323.545,189.278z"/>
						</g>
						<g>
							<path style="fill:#FFFFFF;" d="M134.161,191.378c-0.022,0-0.044-0.001-0.067-0.004c-0.273-0.037-0.465-0.288-0.429-0.563
								c4.215-31.269,11.705-53.987,22.262-73.394c15.819-29.078,38.521-44.375,67.475-45.467l11.091,0
								c34.824,0,60.533,19.505,76.411,63.842c0.093,0.26-0.042,0.546-0.302,0.639c-0.259,0.091-0.546-0.042-0.639-0.302
								c-15.721-43.896-41.112-63.179-75.469-63.179H223.42c-28.558,1.078-50.977,16.2-66.615,44.946
								c-10.499,19.299-17.95,41.902-22.149,73.049C134.622,191.196,134.407,191.378,134.161,191.378z"/>
						</g>
						<g>
							<path style="fill:#FFFFFF;" d="M132.912,201.489c-0.019,0-0.038-0.001-0.057-0.003c-0.274-0.031-0.472-0.279-0.44-0.553
								c0.195-1.724,0.409-3.544,0.646-5.45c0.034-0.274,0.286-0.469,0.558-0.435c0.274,0.034,0.469,0.284,0.435,0.558
								c-0.236,1.902-0.45,3.719-0.644,5.439C133.379,201.301,133.163,201.489,132.912,201.489z"/>
						</g>
					</g>
				</g>
			</g>
		</g>
	</g>
</g>
<g id="Character_1_">
	<g>
		<g>
			<g>
				<path style="fill:#DD8C6A;" d="M243.594,166.769c0.517-7.515,9.486-11.32,15.155-6.36c0.039,0.034,0.078,0.069,0.117,0.103
					c3.867,3.46,6.022,8.391,8.063,13.162c2.833,6.618,2.063,5.417,4.896,12.035c0.579,1.352,3.152,8.71,3.599,10.111
					c8.16,5.666,18.355,15.061,27.098,19.463c-0.316,3.353,0.169,5.129-0.148,8.483c-14.368-1.828-24.853-4.761-32.043-8.759
					c-6.154-3.422-13.005-9.385-17.003-17.035c-3.999-7.651-6.565-15.953-9.11-24.202
					C243.511,171.481,243.431,169.137,243.594,166.769z"/>
				<path style="fill:#DD8C6A;" d="M302.269,215.254l8.493-1.143c1.931-0.26,3.871,0.4,5.243,1.783l2.765,2.788
					c1.43,1.441,1.646,3.69,0.517,5.377l-0.366,0.547c-1.159,1.732-3.398,2.374-5.298,1.518l-4.874-2.195l-6.628-0.192
					L302.269,215.254z"/>
			</g>
			<g>
				<g>
					<g id="Character_3_">
						<polygon style="fill:#DD8C6A;" points="258.208,356.027 244.048,355.791 245.233,382.984 255.546,383.887 						"/>
						<polygon style="opacity:0.2;enable-background:new    ;" points="258.2,356.036 244.039,355.799 244.553,366.262 
							257.284,366.595 						"/>
						<path style="fill:#263238;" d="M242.03,316.859c-5.799-21.144-19.127-57.149-10.31-77.714l39.498-0.675
							c0,0,1.939,52.983,0.709,72.804c-1.252,20.611-12.804,51.684-12.804,51.684l-16.219,0.267
							C242.904,363.226,239.67,340.025,242.03,316.859z"/>
						<path style="opacity:0.2;enable-background:new    ;" d="M228.648,274.511c0.75,1.948,10.969,31.493,10.969,31.493
							s2.891-11.804,2.832-26.359c-0.059-14.555-1.28-26.462-1.28-26.462l-17.358-5.947L228.648,274.511z"/>
						<g>
							<polygon style="fill:#DD8C6A;" points="210.725,357.475 197.381,352.731 192.726,368.839 200.151,381.146 							"/>
							<polygon style="opacity:0.2;enable-background:new    ;" points="210.715,357.48 197.37,352.736 194.766,361.754 
								206.887,366.076 							"/>
							<path style="fill:#263238;" d="M201.244,313.96c-1.349-21.883-10.104-59.962,2.737-78.287l44.441,8.522
								c0,0-11.51,51.268-16.77,70.418c-5.444,19.919-21.944,47.053-21.944,47.053l-15.931-3.058
								C193.776,358.607,194.193,336.152,201.244,313.96z"/>
							<g>
								<path style="fill:#407BFF;" d="M202.078,377.978c-0.069-0.082-0.083-0.197-0.035-0.293c0.05-0.096,0.155-0.15,0.262-0.135
									c0.19,0.027,4.494,0.641,5.616,2.143c0.212,0.276,0.309,0.624,0.269,0.969c-0.011,0.409-0.279,0.767-0.668,0.892
									c-0.707,0.183-1.956-0.476-3.018-1.302C203.63,379.566,202.818,378.805,202.078,377.978z M202.944,378.216
									c1.437,1.433,3.603,3.095,4.431,2.846c0.111-0.024,0.258-0.104,0.304-0.473c0.034-0.214-0.031-0.432-0.177-0.592
									c-0.099-0.133-0.215-0.251-0.348-0.351C205.854,378.908,204.426,378.423,202.944,378.216z"/>
								<path style="fill:#407BFF;" d="M201.98,377.883c-0.031-0.087-0.011-0.185,0.051-0.254c0.095-0.099,2.114-2.225,3.898-2.274
									c0.518-0.021,1.022,0.171,1.395,0.53c0.514,0.489,0.469,0.906,0.31,1.154c-0.565,1.103-4.058,1.359-5.432,1.018
									c-0.036-0.007-0.068-0.028-0.09-0.058C202.055,377.978,202.008,377.937,201.98,377.883z M206.891,376.164
									c-0.254-0.202-0.573-0.305-0.897-0.29c-1.21,0.241-2.317,0.848-3.171,1.738c1.546,0.197,4.018-0.206,4.417-0.826
									c0.025-0.064,0.115-0.229-0.225-0.542L206.891,376.164L206.891,376.164z"/>
								<path style="fill:#407BFF;" d="M202.135,376.103l-9.326-7.251c-0.351-0.273-0.845-0.267-1.189,0.016l-7.585,6.276
									c-0.677,0.552-0.778,1.548-0.227,2.225c0.071,0.087,0.151,0.166,0.238,0.236c3.407,2.555,6.54,4.695,10.721,7.955
									c4.938,3.842,3.226,3.458,8.968,8.056c3.463,2.766,7.195-0.713,5.864-2.062c-6.126-6.134-5.237-8.732-5.966-13.199
									C203.428,377.447,202.894,376.645,202.135,376.103z"/>
							</g>
						</g>
						<path style="fill:#407BFF;" d="M247.163,154.342c-13.114-1.245-26.326-1.034-39.394,0.63
							c-7.564,1.059-12.893,5.757-11.977,21.239c1.498,25.324-1.061,41.421-0.011,54.516c0.376,4.693,3.874,8.536,8.501,9.405
							c12.762,2.396,39.99,6.796,56.709,4.331c7.354-1.084,12.862-7.185,13.118-14.613c1.159-33.598-10.702-56.023-16.372-67.994
							C255.767,157.676,251.758,154.827,247.163,154.342z"/>
						<path style="fill:#DD8C6A;" d="M242.792,157.923c-1.504-1.479-3.076-0.622-3.807-2.841c-0.322-1.752-0.025-3.561,0.84-5.118
							l-17.928-9.666c0.353,6.589,0.614,11.767-2.303,14.423c-0.84,4.917,7.186,12.103,19.415,11.548
							C247.717,165.882,244.969,160.049,242.792,157.923z"/>
						<path style="opacity:0.2;enable-background:new    ;" d="M239.548,150.527l-14.154-3.538
							c3.572,5.623,10.019,8.708,13.448,7.346C238.749,153.025,238.992,151.715,239.548,150.527z"/>
						<path style="fill:#DD8C6A;" d="M220.032,129.876c0.555,9.245,1.126,15.583,6.505,19.516
							c10.691,7.825,17.138,2.774,19.331-6.522c2.017-8.405,0.782-22.147-8.321-25.786c-6.587-2.606-14.039,0.62-16.645,7.207
							C220.2,126.064,219.903,127.972,220.032,129.876z"/>
						<path style="fill:#263238;" d="M219.163,121.361c-0.318,4.393-0.637,8.785-0.955,13.177c1.649,0.695,2.979,1.967,4.629,2.662
							c0.796-4.444,1.438-8.704,2.234-13.149c6.454-1.344,13.172-2.419,19.365-0.158c-0.503-5.834-5.321-11.002-11.139-11.67
							C227.478,111.556,219.587,115.521,219.163,121.361z"/>
						<path style="fill:#DD8C6A;" d="M215.644,138.634c1.066,2.077,2.918,3.641,5.144,4.345c2.967,0.916,3.463-1.505,2.732-4.345
							c-0.664-2.521-1.908-6.32-4.925-5.993C215.577,132.969,214.358,136.079,215.644,138.634z"/>
						<path style="fill:#263238;" d="M233.152,132.971c0,0.757,0.403,1.362,0.899,1.362c0.496,0,0.899-0.622,0.899-1.378
							c0-0.756-0.404-1.362-0.899-1.362C233.555,131.593,233.16,132.215,233.152,132.971z"/>
						<path style="fill:#263238;" d="M241.439,132.929c0,0.757,0.403,1.362,0.899,1.362c0.496,0,0.899-0.622,0.899-1.378
							c0-0.756-0.403-1.37-0.899-1.362C241.842,131.559,241.447,132.173,241.439,132.929z"/>
						<path style="fill:#FF5652;" d="M238.533,132.921l1.513,6.351c1.474,0.516,3.114,0.128,4.2-0.996c0,0-2.161-1.633-2.92-2.379
							C239.562,134.162,238.533,132.921,238.533,132.921z"/>
						<path style="fill:#263238;" d="M230.958,130.265c-0.077-0.006-0.152-0.029-0.219-0.067c-0.209-0.13-0.273-0.405-0.143-0.614
							l0,0c0.737-1.237,2.021-2.046,3.454-2.177c0.246,0.001,0.445,0.2,0.445,0.446c-0.001,0.245-0.199,0.444-0.445,0.444l0,0
							c-1.133,0.113-2.143,0.764-2.715,1.748C231.255,130.178,231.113,130.26,230.958,130.265z"/>
						<path style="fill:#263238;" d="M244.961,130.351c-0.147-0.016-0.276-0.105-0.345-0.235c-0.482-1.011-1.42-1.73-2.521-1.933
							c-0.24,0.051-0.477-0.102-0.529-0.342c-0.052-0.241,0.102-0.477,0.342-0.529c0.094-0.02,0.192-0.009,0.279,0.031
							c1.411,0.223,2.626,1.12,3.253,2.404c0.11,0.218,0.024,0.485-0.193,0.597C245.155,130.376,245.055,130.379,244.961,130.351z"
							/>
						<path style="fill:#263238;" d="M239.237,142.484c-1.636,0.003-3.202-0.665-4.332-1.849c-0.075-0.086-0.067-0.215,0.018-0.291
							c0.09-0.07,0.218-0.058,0.294,0.026c1.249,1.271,3.018,1.888,4.786,1.67c0.113-0.022,0.222,0.052,0.243,0.165
							c0.022,0.113-0.052,0.222-0.165,0.244c-0.009,0.002-0.019,0.003-0.028,0.003C239.783,142.48,239.51,142.49,239.237,142.484z"
							/>
						<g>
							<path style="fill:#DD8C6A;" d="M213.059,165.325c-0.517-7.515-9.486-11.32-15.155-6.36c-0.039,0.034-0.078,0.069-0.117,0.103
								c-3.867,3.46-6.022,8.391-8.063,13.162c-2.833,6.618-2.063,5.417-4.896,12.035c-0.579,1.352-3.152,8.711-3.599,10.112
								c-8.16,5.666-16.349,16.504-25.092,20.907c0.316,3.353-0.169,5.129,0.148,8.483c14.368-1.828,24.853-4.761,32.043-8.759
								c6.154-3.422,10.998-10.828,14.997-18.479s6.565-15.953,9.11-24.202C213.141,170.037,213.222,167.694,213.059,165.325z"/>
							<path style="fill:#DD8C6A;" d="M156.39,215.254l-8.493-1.143c-1.93-0.26-3.871,0.4-5.243,1.783l-2.766,2.788
								c-1.43,1.441-1.646,3.69-0.517,5.377l0.366,0.547c1.158,1.732,3.398,2.374,5.298,1.518l4.874-2.195l6.628-0.192
								L156.39,215.254z"/>
						</g>
					</g>
					<g style="opacity:0.6;">
						<path style="fill:#FFFFFF;" d="M247.453,184.785c0,0,5.88,15.155,4.715,31.92l-0.242,3.378h-11.042l0.766-7.376
							c0.74-7.123,0.482-14.315-0.766-21.367l0,0h-7.06v-6.555H247.453z"/>
					</g>
				</g>
				<g>
					<path style="fill:#407BFF;" d="M256.091,382.495c-0.089-0.061-0.132-0.168-0.111-0.273c0.023-0.106,0.11-0.185,0.217-0.199
						c0.19-0.025,4.503-0.57,5.982,0.581c0.278,0.21,0.463,0.52,0.516,0.863c0.098,0.398-0.066,0.813-0.409,1.037
						c-0.634,0.364-2.013,0.058-3.255-0.457C258.008,383.616,257.024,383.097,256.091,382.495z M256.989,382.496
						c1.765,1.002,4.293,2.031,5.026,1.573c0.1-0.053,0.221-0.169,0.168-0.537c-0.023-0.216-0.144-0.408-0.327-0.524
						c-0.13-0.102-0.274-0.186-0.429-0.247C259.978,382.394,258.473,382.303,256.989,382.496z"/>
					<path style="fill:#407BFF;" d="M255.971,382.429c-0.053-0.076-0.059-0.175-0.017-0.258c0.065-0.12,1.45-2.705,3.158-3.224
						c0.494-0.157,1.031-0.106,1.486,0.142c0.625,0.336,0.692,0.75,0.604,1.031c-0.253,1.213-3.555,2.384-4.969,2.418
						c-0.037,0.002-0.073-0.009-0.102-0.032C256.069,382.502,256.012,382.474,255.971,382.429z M260.253,379.473
						c-0.298-0.128-0.633-0.143-0.942-0.042c-1.103,0.552-2.01,1.43-2.598,2.514c1.543-0.219,3.821-1.261,4.041-1.964
						c0.007-0.068,0.051-0.251-0.36-0.464L260.253,379.473L260.253,379.473z"/>
					<path style="fill:#407BFF;" d="M255.651,380.672l-10.912-4.526c-0.411-0.171-0.886-0.034-1.142,0.33l-5.654,8.059
						c-0.507,0.711-0.341,1.699,0.37,2.205c0.091,0.065,0.189,0.12,0.292,0.164c3.962,1.563,7.549,2.798,12.443,4.836
						c5.778,2.399,4.025,2.482,10.779,5.397c4.071,1.752,6.751-2.591,5.11-3.539c-7.53-4.295-7.36-7.036-9.245-11.151
						C257.252,381.626,256.526,380.994,255.651,380.672z"/>
				</g>
			</g>
		</g>
		<g>
			<g>
				<path style="fill:#407BFF;" d="M218.627,131.235c-0.351,0-0.708-0.074-1.047-0.231c-1.253-0.579-1.8-2.064-1.221-3.318
					c2.905-6.288,13.904-10.189,21.958-9.759c6.014,0.322,10.117,2.837,11.552,7.084c0.442,1.308-0.26,2.727-1.567,3.169
					c-1.309,0.441-2.727-0.259-3.169-1.567c-0.993-2.936-4.863-3.574-7.082-3.692c-6.875-0.374-15.382,3.03-17.153,6.862
					C220.476,130.697,219.571,131.235,218.627,131.235z"/>
				<g style="opacity:0.5;">
					<path style="fill:#FFFFFF;" d="M218.627,131.235c-0.351,0-0.708-0.074-1.047-0.231c-1.253-0.579-1.8-2.064-1.221-3.318
						c2.905-6.288,13.904-10.189,21.958-9.759c6.014,0.322,10.117,2.837,11.552,7.084c0.442,1.308-0.26,2.727-1.567,3.169
						c-1.309,0.441-2.727-0.259-3.169-1.567c-0.993-2.936-4.863-3.574-7.082-3.692c-6.875-0.374-15.382,3.03-17.153,6.862
						C220.476,130.697,219.571,131.235,218.627,131.235z"/>
				</g>
			</g>
		</g>
		<g>
			<g>
				<path style="fill:#263238;" d="M144.606,223.862l-4.488,1.513c-0.319,0.109-0.639,0.16-0.95,0.16
					c-1.236,0-2.379-0.782-2.799-2.009c-0.521-1.555,0.311-3.227,1.857-3.749l4.682-1.58
					C144.303,219.693,144.925,221.854,144.606,223.862z"/>
				<path style="fill:#263238;" d="M137.532,224.421l-0.781-2.314c-0.12-0.355-0.331-0.626-0.474-0.605l-5.166,0.784
					c-0.318,0.048-0.435,0.537-0.248,1.09l1.215,3.601c0.187,0.553,0.575,0.872,0.858,0.717l4.585-2.507
					C137.649,225.119,137.652,224.776,137.532,224.421z"/>
			</g>
			<g>
				<g>
					<path style="fill:#263238;" d="M313.422,223.674l4.488,1.513c0.319,0.109,0.639,0.16,0.95,0.16
						c1.236,0,2.378-0.782,2.799-2.009c0.521-1.555-0.311-3.227-1.858-3.749l-4.682-1.58
						C313.724,219.505,313.102,221.665,313.422,223.674z"/>
					<path style="fill:#263238;" d="M320.496,224.233l0.781-2.314c0.12-0.355,0.331-0.626,0.474-0.605l5.166,0.784
						c0.319,0.048,0.435,0.537,0.248,1.09l-1.216,3.602c-0.187,0.553-0.575,0.872-0.858,0.717l-4.585-2.507
						C320.379,224.931,320.375,224.588,320.496,224.233z"/>
				</g>
				<g>
					<path style="fill:none;stroke:#407BFF;stroke-linecap:round;stroke-linejoin:round;stroke-miterlimit:10;" d="M326.783,223.674
						c0,0,19.785,193.33-88.681,193.33H227.03c-111.094-2.118-94.97-193.33-94.97-193.33"/>
				</g>
			</g>
		</g>
	</g>
</g>
<g id="Dust">
	<g>
		<g>
			<path style="fill:#407BFF;" d="M178.846,416.36c-4.68-1.66-9.361-3.32-14.041-4.98c-2.717-0.964-5.514-1.975-7.636-3.926
				c-2.122-1.952-4.1-6.324-2.121-8.421c2.441-2.588,2.707-6.95,0.598-9.815c-2.109-2.865-6.113-3.672-9.309-2.109
				c2.731-5.987,1.717-13.501-2.503-18.551c-4.22-5.049-11.434-7.381-17.812-5.757c-6.377,1.624-10.862,6.551-12.152,13.004
				c-1.811-2.938-6.221-3.859-9.057-1.891c-2.836,1.967-3.155,5.945-1.037,8.671c-3.007-2.694-7.418-3.721-11.306-2.634
				c-3.887,1.087-7.125,4.255-8.298,8.118c-1.574,5.187,0.49,10.79,3.276,15.44c1.8,3.005,3.967,5.875,6.856,7.857
				c2.888,1.983,6.595,2.986,9.97,2.047C113.09,418.615,178.846,416.36,178.846,416.36z"/>
			<path style="opacity:0.8;fill:#FFFFFF;" d="M178.846,416.36c-4.68-1.66-9.361-3.32-14.041-4.98
				c-2.717-0.964-5.514-1.975-7.636-3.926c-2.122-1.952-4.1-6.324-2.121-8.421c2.441-2.588,2.707-6.95,0.598-9.815
				c-2.109-2.865-6.113-3.672-9.309-2.109c2.731-5.987,1.717-13.501-2.503-18.551c-4.22-5.049-11.434-7.381-17.812-5.757
				c-6.377,1.624-10.862,6.551-12.152,13.004c-1.811-2.938-6.221-3.859-9.057-1.891c-2.836,1.967-3.155,5.945-1.037,8.671
				c-3.007-2.694-7.418-3.721-11.306-2.634c-3.887,1.087-7.125,4.255-8.298,8.118c-1.574,5.187,0.49,10.79,3.276,15.44
				c1.8,3.005,3.967,5.875,6.856,7.857c2.888,1.983,6.595,2.986,9.97,2.047C113.09,418.615,178.846,416.36,178.846,416.36z"/>
		</g>
		<g>
			<path style="fill:#407BFF;" d="M348.592,383.443c-0.41-7.148-6.478-13.551-13.593-14.344
				c-7.116-0.793-14.444,4.118-16.417,11.001c-3.57,0.365-7.538,2.67-9.513,5.666c-1.974,2.997-2.521,6.892-1.447,10.316
				c-2.244-1.651-5.972,1.57-7.371,3.979c-1.399,2.41-1.634,5.313-2.684,7.894c-1.669,4.105-5.523,7.246-9.881,8.051
				c12.192-0.142,24.888-0.216,37.079-0.357c6.705-0.078,13.007-0.237,19.692-0.754c8.74-0.676,13.99-7.353,14.56-13.968
				C359.629,393.839,354.782,385.845,348.592,383.443z"/>
			<path style="opacity:0.8;fill:#FFFFFF;" d="M348.592,383.443c-0.41-7.148-6.478-13.551-13.593-14.344
				c-7.116-0.793-14.444,4.118-16.417,11.001c-3.57,0.365-7.538,2.67-9.513,5.666c-1.974,2.997-2.521,6.892-1.447,10.316
				c-2.244-1.651-5.972,1.57-7.371,3.979c-1.399,2.41-1.634,5.313-2.684,7.894c-1.669,4.105-5.523,7.246-9.881,8.051
				c12.192-0.142,24.888-0.216,37.079-0.357c6.705-0.078,13.007-0.237,19.692-0.754c8.74-0.676,13.99-7.353,14.56-13.968
				C359.629,393.839,354.782,385.845,348.592,383.443z"/>
		</g>
	</g>
</g>
</svg>
