<?xml version="1.0" encoding="UTF-8" standalone="no"?>
<!-- Created with Inkscape (http://www.inkscape.org/) -->

<svg
   version="1.1"
   id="svg2"
   width="666.66669"
   height="666.66669"
   viewBox="0 0 666.66669 666.66669"
   sodipodi:docname="10631703_4516863.ai"
   xmlns:inkscape="http://www.inkscape.org/namespaces/inkscape"
   xmlns:sodipodi="http://sodipodi.sourceforge.net/DTD/sodipodi-0.dtd"
   xmlns="http://www.w3.org/2000/svg"
   xmlns:svg="http://www.w3.org/2000/svg">
  <defs
     id="defs6">
    <clipPath
       clipPathUnits="userSpaceOnUse"
       id="clipPath18">
      <path
         d="M 0,500 H 500 V 0 H 0 Z"
         id="path16" />
    </clipPath>
    <clipPath
       clipPathUnits="userSpaceOnUse"
       id="clipPath30">
      <path
         d="M 0,500 H 500 V 0 H 0 Z"
         id="path28" />
    </clipPath>
    <clipPath
       clipPathUnits="userSpaceOnUse"
       id="clipPath38">
      <path
         d="M 45.8997,49.0805 H 454.1 V 40.4852 H 45.8997 Z"
         id="path36" />
    </clipPath>
    <clipPath
       clipPathUnits="userSpaceOnUse"
       id="clipPath58">
      <path
         d="m 149.851,416.07 c -37.761,0 -66.882,-33.257 -61.897,-70.687 v 0 L 127.817,46.091 h 129.38 L 215.14,361.87 c -4.133,31.027 -30.597,54.2 -61.897,54.2 v 0 z"
         id="path56" />
    </clipPath>
    <clipPath
       clipPathUnits="userSpaceOnUse"
       id="clipPath140">
      <path
         d="M 74.6961,342.571 H 259.574 V 143.001 H 74.6961 Z"
         id="path138" />
    </clipPath>
    <clipPath
       clipPathUnits="userSpaceOnUse"
       id="clipPath156">
      <path
         d="M 74.6961,284.807 H 259.574 V 122.873 H 74.6961 Z"
         id="path154" />
    </clipPath>
    <clipPath
       clipPathUnits="userSpaceOnUse"
       id="clipPath224">
      <path
         d="m 112.588,321.64 h 64.095 v -83.211 h -64.095 z"
         id="path222" />
    </clipPath>
    <clipPath
       clipPathUnits="userSpaceOnUse"
       id="clipPath244">
      <path
         d="m 145.189,230.288 h 31.704 V 78.8094 h -31.704 z"
         id="path242" />
    </clipPath>
    <clipPath
       clipPathUnits="userSpaceOnUse"
       id="clipPath264">
      <path
         d="m 106.076,246.87 h 32.969 V 78.89 h -32.969 z"
         id="path262" />
    </clipPath>
    <clipPath
       clipPathUnits="userSpaceOnUse"
       id="clipPath292">
      <path
         d="m 149.519,364.684 h 0.754 v -1.09 h -0.754 z"
         id="path290" />
    </clipPath>
    <clipPath
       clipPathUnits="userSpaceOnUse"
       id="clipPath324">
      <path
         d="m 161.75,361.21 h 0.755 v -1.089 h -0.755 z"
         id="path322" />
    </clipPath>
    <clipPath
       clipPathUnits="userSpaceOnUse"
       id="clipPath516">
      <path
         d="M 0,500 H 500 V 0 H 0 Z"
         id="path514" />
    </clipPath>
    <clipPath
       clipPathUnits="userSpaceOnUse"
       id="clipPath524">
      <path
         d="M 87.636,416.07 H 256.959 V 46.0911 H 87.636 Z"
         id="path522" />
    </clipPath>
    <clipPath
       clipPathUnits="userSpaceOnUse"
       id="clipPath540">
      <path
         d="M 87.3975,416.07 H 257.197 V 46.0911 H 87.3975 Z"
         id="path538" />
    </clipPath>
    <clipPath
       clipPathUnits="userSpaceOnUse"
       id="clipPath612">
      <path
         d="m 320.466,321.64 h 64.095 v -83.211 h -64.095 z"
         id="path610" />
    </clipPath>
    <clipPath
       clipPathUnits="userSpaceOnUse"
       id="clipPath632">
      <path
         d="M 320.256,230.288 H 351.96 V 78.8094 h -31.704 z"
         id="path630" />
    </clipPath>
    <clipPath
       clipPathUnits="userSpaceOnUse"
       id="clipPath652">
      <path
         d="m 358.104,246.87 h 32.968 V 78.89 h -32.968 z"
         id="path650" />
    </clipPath>
    <clipPath
       clipPathUnits="userSpaceOnUse"
       id="clipPath680">
      <path
         d="m 346.875,364.684 h 0.755 v -1.09 h -0.755 z"
         id="path678" />
    </clipPath>
    <clipPath
       clipPathUnits="userSpaceOnUse"
       id="clipPath712">
      <path
         d="m 334.644,361.21 h 0.755 v -1.089 h -0.755 z"
         id="path710" />
    </clipPath>
  </defs>
  <sodipodi:namedview
     id="namedview4"
     pagecolor="#ffffff"
     bordercolor="#000000"
     borderopacity="0.25"
     inkscape:showpageshadow="2"
     inkscape:pageopacity="0.0"
     inkscape:pagecheckerboard="0"
     inkscape:deskcolor="#d1d1d1" />
  <g
     id="g8"
     inkscape:groupmode="layer"
     inkscape:label="10631703_4516863"
     transform="matrix(1.3333333,0,0,-1.3333333,0,666.66667)">
    <path
       d="M 0,0 H 500 V 500 H 0 Z"
       style="fill:#ffffff;fill-opacity:1;fill-rule:nonzero;stroke:none"
       id="path10" />
    <g
       id="g12">
      <g
         id="g14"
         clip-path="url(#clipPath18)">
        <g
           id="g20"
           transform="translate(424.0264,371.6582)">
          <path
             d="m 0,0 c -27.562,40.404 -71.25,82.183 -123.87,83.707 -60.346,1.748 -102.173,-52.236 -150.361,-79.978 -45.538,-26.214 -94.647,-50.356 -105.13,-107.015 -9.252,-50.006 18.241,-83.77 58.359,-109.143 37.81,-23.914 73.916,-50.828 112.446,-73.546 52.96,-31.226 103.384,0.777 141.503,38.856 18.959,18.938 36.331,39.39 56.005,57.617 22.402,20.754 44.797,40.391 47.406,72.923 C 39.411,-78.507 24.642,-36.122 0,0"
             style="fill:#fae6ea;fill-opacity:1;fill-rule:nonzero;stroke:none"
             id="path22" />
        </g>
      </g>
    </g>
    <g
       id="g24">
      <g
         id="g26"
         clip-path="url(#clipPath30)">
        <g
           id="g32">
          <g
             id="g34" />
          <g
             id="g46">
            <g
               clip-path="url(#clipPath38)"
               id="g44">
              <g
                 transform="translate(454.1006,44.7832)"
                 id="g42">
                <path
                   d="m 0,0 c 0,2.373 -91.379,4.297 -204.101,4.297 -112.721,0 -204.1,-1.924 -204.1,-4.297 0,-2.374 91.379,-4.298 204.1,-4.298 C -91.379,-4.298 0,-2.374 0,0"
                   style="fill:#c2cbcc;fill-opacity:1;fill-rule:nonzero;stroke:none"
                   id="path40" />
              </g>
            </g>
          </g>
        </g>
      </g>
    </g>
    <g
       id="g48"
       transform="translate(186.6333,46.0098)">
      <path
         d="M 0,0 33.274,274.535 -90.021,274.536 -123.296,0"
         style="fill:none;stroke:#5e5d73;stroke-width:3;stroke-linecap:butt;stroke-linejoin:miter;stroke-miterlimit:10;stroke-dasharray:none;stroke-opacity:1"
         id="path50" />
    </g>
    <g
       id="g52">
      <g
         id="g54"
         clip-path="url(#clipPath58)">
        <g
           id="g60"
           transform="translate(127.8169,46.0908)">
          <path
             d="M 0,0 H 129.38 L 87.322,315.78 c -4.132,31.026 -30.596,54.199 -61.896,54.199 h -3.392 c -37.762,0 -66.882,-33.256 -61.896,-70.687 z"
             style="fill:#eaf1f7;fill-opacity:1;fill-rule:nonzero;stroke:none"
             id="path62" />
        </g>
        <g
           id="g64"
           transform="translate(204.5522,105.9414)">
          <path
             d="m 0,0 c -4.575,4.041 -15.653,8.243 -15.653,8.243 0,0 6.855,-8.042 11.782,-13.094 4.927,-5.051 9.678,-7.88 9.678,-7.88 0,0 -1.232,8.689 -5.807,12.731"
             style="fill:#3a7f75;fill-opacity:1;fill-rule:nonzero;stroke:none"
             id="path66" />
        </g>
        <g
           id="g68"
           transform="translate(210.9922,149.1602)">
          <path
             d="m 0,0 c -0.402,6.369 -5.85,16.396 -9.482,22.095 -3.631,5.698 -6.851,12.319 -6.851,12.319 0,0 2.061,-17.548 4.205,-26.046 2.144,-8.497 9.522,-16.09 12.032,-20.753 0,0 0.498,6.016 0.096,12.385"
             style="fill:#71b0a8;fill-opacity:1;fill-rule:nonzero;stroke:none"
             id="path70" />
        </g>
        <g
           id="g72"
           transform="translate(214.002,163.6602)">
          <path
             d="m 0,0 c -0.307,7.271 0.098,12.658 -5.701,26.183 -2.646,6.17 -15.15,21.313 -15.15,21.313 0,0 4.536,-18.144 8.166,-30.658 3.63,-12.514 10.042,-20.35 12.17,-27.988 0,0 0.659,7.754 0.515,11.15"
             style="fill:#4a9087;fill-opacity:1;fill-rule:nonzero;stroke:none"
             id="path74" />
        </g>
        <g
           id="g76"
           transform="translate(233.6743,125.6104)">
          <path
             d="m 0,0 c 2.604,3.71 13.814,10.813 13.814,10.813 0,0 -5.189,-11.515 -9.236,-19.3 -4.046,-7.784 -9.035,-10.909 -11.423,-15.69 0,0 -2.819,10.409 6.845,24.177"
             style="fill:#4a9087;fill-opacity:1;fill-rule:nonzero;stroke:none"
             id="path78" />
        </g>
        <g
           id="g80"
           transform="translate(217.7651,121.6074)">
          <path
             d="m 0,0 c 0,0 0.48,19.574 2.229,28.099 1.748,8.525 6.405,19.815 8.757,23.737 l 2.353,3.923 c 0,0 0.341,-23.311 -2.323,-31.854 C 8.351,15.362 0,0 0,0"
             style="fill:#3a7c74;fill-opacity:1;fill-rule:nonzero;stroke:none"
             id="path82" />
        </g>
        <g
           id="g84"
           transform="translate(199.8218,129.7383)">
          <path
             d="m 0,0 c -2.314,10.349 -2.229,18.794 -2.229,18.794 0,0 11.035,-16.704 14.003,-27.951 2.619,-9.918 2.583,-16.705 4.976,-22.237 0,0 -12.28,11.405 -16.75,31.394"
             style="fill:#55968e;fill-opacity:1;fill-rule:nonzero;stroke:none"
             id="path86" />
        </g>
        <g
           id="g88"
           transform="translate(224.4951,204.7295)">
          <path
             d="m 0,0 c 0,0 1.2,-16.847 -0.346,-27.115 -1.546,-10.269 -8.962,-24.44 -8.962,-24.44 0.796,8.18 -0.952,10.416 0.515,24.651 C -7.827,-17.52 0,0 0,0"
             style="fill:#6caba3;fill-opacity:1;fill-rule:nonzero;stroke:none"
             id="path90" />
        </g>
        <g
           id="g92"
           transform="translate(217.8501,85.0723)">
          <path
             d="M 0,0 C -2.377,69.06 -5.963,86.795 -17.173,110.967"
             style="fill:none;stroke:#366962;stroke-width:0.75;stroke-linecap:butt;stroke-linejoin:miter;stroke-miterlimit:10;stroke-dasharray:none;stroke-opacity:1"
             id="path94" />
        </g>
        <g
           id="g96"
           transform="translate(222.9624,122.002)">
          <path
             d="m 0,0 c 0.233,6.357 -0.225,11.045 5.429,23.058 2.578,5.479 14.91,19.146 14.91,19.146 0,0 -4.346,-16 -7.844,-27.053 C 8.997,4.099 2.674,-2.97 0.626,-9.714 0.626,-9.714 -0.109,-2.97 0,0"
             style="fill:#6caba3;fill-opacity:1;fill-rule:nonzero;stroke:none"
             id="path98" />
        </g>
        <g
           id="g100"
           transform="translate(219.9126,53.2695)">
          <path
             d="M 0,0 C 1.677,60.363 5.079,75.972 16.027,97.472"
             style="fill:none;stroke:#366962;stroke-width:0.75;stroke-linecap:butt;stroke-linejoin:miter;stroke-miterlimit:10;stroke-dasharray:none;stroke-opacity:1"
             id="path102" />
        </g>
        <g
           id="g104"
           transform="translate(215.9165,126.6152)">
          <path
             d="M 0,0 C -3.548,6.824 -12.829,31.116 -16.377,39.851"
             style="fill:none;stroke:#366962;stroke-width:0.75;stroke-linecap:butt;stroke-linejoin:miter;stroke-miterlimit:10;stroke-dasharray:none;stroke-opacity:1"
             id="path106" />
        </g>
        <g
           id="g108"
           transform="translate(214.7139,140.5596)">
          <path
             d="M 0,0 C -1.071,11.563 3.62,31.674 4.438,36.041"
             style="fill:none;stroke:#366962;stroke-width:0.75;stroke-linecap:butt;stroke-linejoin:miter;stroke-miterlimit:10;stroke-dasharray:none;stroke-opacity:1"
             id="path110" />
        </g>
        <g
           id="g112"
           transform="translate(216.7485,109.6885)">
          <path
             d="M 0,0 C 0.427,14.502 5.927,34.185 7.895,40.307"
             style="fill:none;stroke:#366962;stroke-width:0.75;stroke-linecap:butt;stroke-linejoin:miter;stroke-miterlimit:10;stroke-dasharray:none;stroke-opacity:1"
             id="path114" />
        </g>
        <g
           id="g116"
           transform="translate(205.6772,125.9473)">
          <path
             d="M 0,0 C 3.15,-10.311 10.539,-25.877 11.827,-34.005"
             style="fill:none;stroke:#366962;stroke-width:0.75;stroke-linecap:butt;stroke-linejoin:miter;stroke-miterlimit:10;stroke-dasharray:none;stroke-opacity:1"
             id="path118" />
        </g>
        <g
           id="g120"
           transform="translate(235.8618,121.2529)">
          <path
             d="M 0,0 C -4.397,-6.935 -12.146,-22.326 -14.543,-38.719"
             style="fill:none;stroke:#366962;stroke-width:0.75;stroke-linecap:butt;stroke-linejoin:miter;stroke-miterlimit:10;stroke-dasharray:none;stroke-opacity:1"
             id="path122" />
        </g>
        <g
           id="g124"
           transform="translate(217.5742,71.3271)">
          <path
             d="M 0,0 C -3.355,17.692 -6.534,23.088 -18.296,35.721"
             style="fill:none;stroke:#366962;stroke-width:0.75;stroke-linecap:butt;stroke-linejoin:miter;stroke-miterlimit:10;stroke-dasharray:none;stroke-opacity:1"
             id="path126" />
        </g>
        <g
           id="g128"
           transform="translate(232.1235,45.4141)">
          <path
             d="m 0,0 h -28.547 l -4.712,53.508 h 37.97 z"
             style="fill:#9ba9bd;fill-opacity:1;fill-rule:nonzero;stroke:none"
             id="path130" />
        </g>
        <path
           d="m 240.435,92.157 h -45.169 v 7.594 h 45.169 z"
           style="fill:#c8d5e8;fill-opacity:1;fill-rule:nonzero;stroke:none"
           id="path132" />
        <g
           id="g134">
          <g
             id="g136" />
          <g
             id="g148">
            <g
               clip-path="url(#clipPath140)"
               opacity="0.259995"
               id="g146">
              <g
                 transform="translate(259.5742,192.1006)"
                 id="g144">
                <path
                   d="m 0,0 -184.878,150.471 v -49.1 L 0,-49.099 Z"
                   style="fill:#ffffff;fill-opacity:1;fill-rule:nonzero;stroke:none"
                   id="path142" />
              </g>
            </g>
          </g>
        </g>
        <g
           id="g150">
          <g
             id="g152" />
          <g
             id="g164">
            <g
               clip-path="url(#clipPath156)"
               opacity="0.259995"
               id="g162">
              <g
                 transform="translate(259.5742,134.3369)"
                 id="g160">
                <path
                   d="M 0,0 -184.878,150.471 V 139.006 L 0,-11.464 Z"
                   style="fill:#ffffff;fill-opacity:1;fill-rule:nonzero;stroke:none"
                   id="path158" />
              </g>
            </g>
          </g>
        </g>
        <g
           id="g166"
           transform="translate(175.8096,326.1343)">
          <path
             d="m 0,0 c 9.638,-13.248 21.067,-43.207 23.73,-48.534 2.664,-5.327 -4.64,-22.113 -4.64,-22.113 l -10.507,9.386 c 0,0 -1.5,9.303 -2.092,12.559 -0.592,3.255 -20.715,20.046 -20.715,20.046 l 9.193,24.513 z"
             style="fill:#fec1b2;fill-opacity:1;fill-rule:nonzero;stroke:none"
             id="path168" />
        </g>
        <g
           id="g170"
           transform="translate(156.3677,269.2983)">
          <path
             d="M 0,0 C -1.295,10.466 -2.027,33.055 -0.726,41.829 0.846,52.432 12.896,61.163 12.896,61.163 18.21,59.022 20.898,56.334 24.529,48.14 26.945,42.687 23.175,32.632 21.916,27.262 20.327,20.486 17.561,11.123 16.429,7.359 11.031,4.798 5.569,2.212 0,0"
             style="fill:#fec1b2;fill-opacity:1;fill-rule:nonzero;stroke:none"
             id="path172" />
        </g>
        <g
           id="g174"
           transform="translate(118.0166,290.4565)">
          <path
             d="m 0,0 c 0,0 -6.315,15.788 -9.971,24.098 -1.154,2.623 9.259,16.48 9.259,16.48 0,0 15.799,5.81 16.719,6.73 4.514,4.513 4.186,25.341 4.186,25.341 l 17.267,-1.82 c 0,0 -6.541,-17.766 -1.407,-24.041 1.228,-1.501 14.342,-6.553 14.342,-6.553 L 54.505,22.343 50.62,0.049 Z"
             style="fill:#fec1b2;fill-opacity:1;fill-rule:nonzero;stroke:none"
             id="path176" />
        </g>
        <g
           id="g178"
           transform="translate(152.4253,340.8828)">
          <path
             d="m 0,0 c -9.096,-0.795 -15.654,2.308 -15.61,2.754 0.765,7.652 1.394,19.469 1.394,19.469 L 3.052,20.402 C 3.052,20.402 -0.712,7.878 0,0"
             style="fill:#e38168;fill-opacity:1;fill-rule:nonzero;stroke:none"
             id="path180" />
        </g>
        <g
           id="g182"
           transform="translate(148.6631,391.4019)">
          <path
             d="m 0,0 c 1.798,4.237 1.625,12.504 -6.624,12.74 -8.249,0.236 -13.358,-6.91 -11.472,-11.585 1.887,-4.674 9.648,-8.313 9.648,-8.313 z"
             style="fill:#5d100a;fill-opacity:1;fill-rule:nonzero;stroke:none"
             id="path184" />
        </g>
        <g
           id="g186"
           transform="translate(142.7495,349.9473)">
          <path
             d="M 0,0 C 0,0 -12.688,3.655 -12.984,16.065 -13.28,28.475 -6.087,40.113 1.26,40.557 10.446,41.112 14.864,4.516 0,0"
             style="fill:#5d100a;fill-opacity:1;fill-rule:nonzero;stroke:none"
             id="path188" />
        </g>
        <g
           id="g190"
           transform="translate(157.5762,329.4214)">
          <path
             d="m 0,0 9.711,-0.327 c 0,0 7.882,-19.336 11.504,-23.993 3.622,-4.658 0.397,-12.844 -3.051,-18.017 -2.214,-3.321 13.481,-18.023 17.103,-28.89 7.024,-21.069 4.082,-27.106 -4.096,-48.914 l -75.155,2.162 c 0,0 -2.394,32.488 -0.174,47.712 2.174,14.912 7.936,24.731 4.314,33.528 -3.622,8.797 0.517,34.152 0.517,34.152 0,0 26.39,4.657 39.327,2.587"
             style="fill:#fec1b2;fill-opacity:1;fill-rule:nonzero;stroke:none"
             id="path192" />
        </g>
        <g
           id="g194"
           transform="translate(117.4565,277.0093)">
          <path
             d="m 0,0 c 6.362,0.018 12.737,0.106 19.124,0.003 15.295,-0.247 30.539,-1.111 45.806,-0.694 4.748,-5.625 8.55,-12.405 10.457,-18.123 7.023,-21.07 4.082,-27.107 -4.096,-48.915 l -75.155,2.162 c 0,0 -2.395,32.488 -0.175,47.712 C -3.03,-10.94 -1.258,-5.13 0,0"
             style="fill:#fa577a;fill-opacity:1;fill-rule:nonzero;stroke:none"
             id="path196" />
        </g>
        <g
           id="g198"
           transform="translate(169.6943,62.2012)">
          <path
             d="m 0,0 c -0.139,2.322 -0.471,9.521 -1.095,12.901 -0.769,4.168 -2.094,10.188 -3.67,17.141 5.63,-1.88 11.069,-1.963 16.462,-1.345 C 11.758,20.594 11.855,8.095 12.029,0.617 11.679,0.589 3.663,0.113 0,0"
             style="fill:#fec1b2;fill-opacity:1;fill-rule:nonzero;stroke:none"
             id="path200" />
        </g>
        <g
           id="g202"
           transform="translate(119.0166,61.0938)">
          <path
             d="m 0,0 c -0.139,2.321 -0.471,10.628 -1.095,14.009 -0.769,4.168 -2.094,10.187 -3.67,17.14 C 0.864,29.27 6.303,29.187 11.697,29.805 11.758,21.701 11.855,8.094 12.029,0.616 11.679,0.588 3.663,0.112 0,0"
             style="fill:#fec1b2;fill-opacity:1;fill-rule:nonzero;stroke:none"
             id="path204" />
        </g>
        <g
           id="g206"
           transform="translate(138.6294,368.5483)">
          <path
             d="m 0,0 c 0,0 -3.13,2.288 -4.482,-0.957 -1.127,-2.704 -0.045,-3.841 0.935,-6.967 0.666,-2.121 2.699,-1.916 2.699,-1.916 z"
             style="fill:#fec1b2;fill-opacity:1;fill-rule:nonzero;stroke:none"
             id="path208" />
        </g>
        <g
           id="g210"
           transform="translate(138.0352,366.8018)">
          <path
             d="m 0,0 c -0.636,1.254 -1.919,0.857 -2.652,0.017 -0.733,-0.841 -0.117,-0.454 0.9,-0.232 1.016,0.223 1.166,-1.611 0.666,-2.523 -0.689,-1.259 -0.933,-3.099 0.17,-3.686 1.103,-0.587 0.681,0.067 1.13,1.526 0.45,1.458 0.07,-0.019 0.311,1.494 C 0.767,-1.893 0.548,-1.079 0,0"
             style="fill:#e38168;fill-opacity:1;fill-rule:nonzero;stroke:none"
             id="path212" />
        </g>
        <g
           id="g214"
           transform="translate(113.1729,251.46)">
          <path
             d="M 0,0 C 0,0 11.58,3.43 29.34,6.35 37.08,7.63 42.577,9.437 56.521,8.762 70.475,8.086 79.669,6.73 79.669,6.73 74.943,18.659 66.3,31.76 63.32,34.86 c -0.01,0.01 -0.02,0.02 -0.03,0.03 -0.46,0.48 -0.72,0.73 -0.72,0.73 0,0 9.05,7.67 6.01,16.52 C 65.54,61 57.53,76.461 56.09,79.001 l -5.34,2.002 C 52.48,78.514 55.05,71.91 54.63,66.28 53.8,55.21 31.061,57.642 24.69,63.182 18.331,68.711 12.26,82.53 12.26,82.53 L 8.6,81.08 c 0,0 1.05,-4.93 1.59,-10.9 C 10.54,66.2 10.68,61.76 10.12,58 8.74,48.6 2.68,45.07 2.68,45.07 2.68,45.07 3.56,33.35 2.42,29.13 -2.21,12.02 0,0 0,0"
             style="fill:#fa577a;fill-opacity:1;fill-rule:nonzero;stroke:none"
             id="path216" />
        </g>
        <g
           id="g218">
          <g
             id="g220" />
          <g
             id="g232">
            <g
               clip-path="url(#clipPath224)"
               opacity="0.5"
               id="g230">
              <g
                 transform="translate(113.063,246.8701)"
                 id="g228">
                <path
                   d="M 0,0 C 0,0 13.846,-15.521 24.895,-4.472 31.009,1.643 20.79,24.17 20.03,35.86 c 5.72,0.1 13.15,0.75 21.78,5.61 4.11,2.32 7.45,-2.01 13.33,-3.24 4.15,-0.87 7.43,0.75 8.29,1.22 0.09,0.06 0.16,0.1 0.19,0.12 C 63.59,39.56 63.51,39.53 63.4,39.48 62.46,39.1 58.88,37.95 53.82,39.72 47.89,41.8 47.3,46 39.77,42.95 34.46,40.8 25.23,40.77 17.48,42.66 c -1.46,2.61 -4.57,7.85 -3.92,14.23 0.5,4.91 -1.09,9.82 -3.26,17.88 0.35,-3.98 0.49,-8.42 -0.07,-12.18 C 8.85,53.19 2.79,49.66 2.79,49.66 2.79,49.66 3.67,37.94 2.53,33.72 -2.1,16.61 0,0 0,0"
                   style="fill:#a7becc;fill-opacity:1;fill-rule:nonzero;stroke:none"
                   id="path226" />
              </g>
            </g>
          </g>
        </g>
        <g
           id="g234"
           transform="translate(149.5928,177.4697)">
          <path
             d="M 0,0 C 9.8,-22.81 8.94,-32.93 8.69,-33.569 8.43,-34.21 5.02,-51.05 7.12,-61.729 9.09,-71.77 15.01,-89.93 17.4,-97.96 c 2.37,-0.59 6.5,-0.71 9.9,-0.7 3.08,0.02 5.55,0.15 5.55,0.15 0.18,12.231 1.17,24.95 1.6,32.06 1.34,22.19 12.02,56.801 14.54,75.89 2.51,19.1 0.561,47.65 -3.04,60.253 0,0 -18.28,-4.342 -46.15,-3.943 0,0 -2.2,-9.87 -3.42,-22.649 C -4.94,29.21 -5.1,11.88 0,0"
             style="fill:#346e94;fill-opacity:1;fill-rule:nonzero;stroke:none"
             id="path236" />
        </g>
        <g
           id="g238">
          <g
             id="g240" />
          <g
             id="g252">
            <g
               clip-path="url(#clipPath244)"
               opacity="0.5"
               id="g250">
              <g
                 transform="translate(149.5928,177.4697)"
                 id="g248">
                <path
                   d="M 0,0 C 9.8,-22.81 8.94,-32.93 8.69,-33.569 8.43,-34.21 5.02,-51.05 7.12,-61.729 9.09,-71.77 15.01,-89.93 17.4,-97.96 c 2.37,-0.59 6.5,-0.71 9.9,-0.7 -1.8,4.1 -3.69,8.15 -5.27,12.181 -2.68,6.839 -4.86,13.969 -4.63,21.389 0.27,8.76 4.47,16.93 4.28,25.72 -0.23,10.25 -1.292,18.73 -2.812,28.751 -1.85,12.21 -0.74,31.284 0,43.614 0.34,5.74 -6.637,13.274 -6.928,11.305 C 11.1,38.617 4.22,54.19 -1.34,52.721 -1.97,49.48 -2.74,46.28 -3.62,43.101 -4.94,29.21 -5.1,11.88 0,0"
                   style="fill:#a7becc;fill-opacity:1;fill-rule:nonzero;stroke:none"
                   id="path246" />
              </g>
            </g>
          </g>
        </g>
        <g
           id="g254"
           transform="translate(114.7627,143.9004)">
          <path
             d="m 0,0 c -0.32,-0.641 -6.62,-17.48 -5.72,-28.16 0.84,-10.04 5.83,-28.2 7.33,-36.231 1.75,-0.45 3.89,-0.589 6.13,-0.62 3.38,-0.05 6.96,0.181 9.62,0.071 0,0 3.49,24.95 4.72,32.059 3.82,22.191 18.39,56.801 23.05,75.891 2.723,11.184 0.648,19.424 10.471,32.563 4.776,6.389 2.717,15.725 0.732,24.394 0,0 -19.758,-1.61 -36.014,0.184 -7.334,0.81 -13.969,1.748 -22.019,2.819 0,0 -13.29,-20.271 -3.21,-69.401 C -2.31,20.859 0.33,0.64 0,0"
             style="fill:#346e94;fill-opacity:1;fill-rule:nonzero;stroke:none"
             id="path256" />
        </g>
        <g
           id="g258">
          <g
             id="g260" />
          <g
             id="g272">
            <g
               clip-path="url(#clipPath264)"
               opacity="0.5"
               id="g270">
              <g
                 transform="translate(114.7627,143.9004)"
                 id="g268">
                <path
                   d="m 0,0 c -0.32,-0.641 -6.62,-17.48 -5.72,-28.16 0.84,-10.04 5.83,-28.2 7.33,-36.231 1.75,-0.45 3.89,-0.589 6.13,-0.62 -3.79,12.41 -5.31,25.611 -2.67,38.261 1.22,5.88 3.32,11.54 5,17.31 1.47,5.07 2.62,10.219 3.77,15.37 2.23,9.95 4.45,19.91 6.68,29.86 1.91,8.579 3.84,17.27 3.58,26.06 -0.23,7.62 -2.13,15.03 -2.81,22.599 -0.45,4.92 1.063,10.905 2.992,15.246 0.034,0.076 -17.932,2.204 -25.982,3.275 0,0 -13.29,-20.271 -3.21,-69.401 C -2.31,20.859 0.33,0.64 0,0"
                   style="fill:#a7becc;fill-opacity:1;fill-rule:nonzero;stroke:none"
                   id="path266" />
              </g>
            </g>
          </g>
        </g>
        <g
           id="g274"
           transform="translate(136.4668,353.8301)">
          <path
             d="m 0,0 c 0.635,-2.132 5.779,-11.878 13.65,-12.819 6.567,-0.784 10.853,3.764 13.078,7.046 1.41,2.08 1.62,3.733 2.866,7.296 1.25,3.556 3.268,8.167 3.869,11.022 0.931,4.417 -3.901,10.462 -6.88,12.485 C 18.475,30.537 5.512,25.749 4.616,22.716 3.773,19.858 1.884,14.296 0.941,10.512 0.23,7.661 -1.062,3.562 0,0"
             style="fill:#fec1b2;fill-opacity:1;fill-rule:nonzero;stroke:none"
             id="path276" />
        </g>
        <g
           id="g278"
           transform="translate(146.5957,365.5444)">
          <path
             d="m 0,0 c 0,0 -0.221,-1.381 1.226,-2.111 0.334,-0.16 0.644,-0.299 0.95,-0.402 0.962,-0.329 1.768,-0.384 2.38,-0.335 0.911,0.072 1.425,0.379 1.425,0.379 L 5.859,-2.077 C 5.526,-1.018 4.686,-0.203 3.622,0.099 L 1.807,0.617 Z"
             style="fill:#ffffff;fill-opacity:1;fill-rule:nonzero;stroke:none"
             id="path280" />
        </g>
        <g
           id="g282"
           transform="translate(148.7178,363.9346)">
          <path
             d="m 0,0 c -0.085,-0.314 -0.067,-0.623 0.054,-0.903 0.962,-0.329 1.768,-0.385 2.38,-0.335 0.109,0.135 0.192,0.307 0.243,0.482 C 2.89,-0.015 2.458,0.748 1.716,0.96 0.975,1.173 0.212,0.741 0,0"
             style="fill:#006f9a;fill-opacity:1;fill-rule:nonzero;stroke:none"
             id="path284" />
        </g>
        <g
           id="g286">
          <g
             id="g288" />
          <g
             id="g300">
            <g
               clip-path="url(#clipPath292)"
               opacity="0.699997"
               id="g298">
              <g
                 transform="translate(149.5508,364.2373)"
                 id="g296">
                <path
                   d="M 0,0 C -0.084,-0.296 0.002,-0.58 0.193,-0.634 0.384,-0.688 0.606,-0.492 0.69,-0.196 0.774,0.1 0.688,0.384 0.498,0.438 0.307,0.492 0.084,0.296 0,0"
                   style="fill:#ffffff;fill-opacity:1;fill-rule:nonzero;stroke:none"
                   id="path294" />
              </g>
            </g>
          </g>
        </g>
        <g
           id="g302"
           transform="translate(152.6787,363.0454)">
          <path
             d="m 0,0 c 0,0 -1.191,3.417 -4.462,3.48 -1.822,0.035 -1.537,-0.67 -2.782,0.048 0,0 0.342,-0.909 0.887,-1.141 0.865,-0.367 1.093,0.291 2.624,0.108 C -1.367,2.212 0,0 0,0"
             style="fill:#2e353d;fill-opacity:1;fill-rule:nonzero;stroke:none"
             id="path304" />
        </g>
        <g
           id="g306"
           transform="translate(154.3389,366.8086)">
          <path
             d="M 0,0 C 0,0 -0.415,1.815 -0.941,2.128 -2.414,3.005 -3.862,3.118 -5.156,3.48 -6.45,3.844 -8.107,2.913 -8.952,2.075 c 0,0 1.744,0.717 3.299,0.211 C -4.289,1.841 -3.301,1.555 0,0"
             style="fill:#2e353d;fill-opacity:1;fill-rule:nonzero;stroke:none"
             id="path308" />
        </g>
        <g
           id="g310"
           transform="translate(157.9087,361.563)">
          <path
             d="m 0,0 c 0,0 0.759,-1.098 2.473,-1.779 0.32,-0.142 0.666,-0.254 1.056,-0.342 0.498,-0.117 0.911,-0.161 1.246,-0.155 1.65,0.015 1.605,1.235 1.605,1.235 L 5.168,0.431 3.354,0.949 C 2.289,1.251 1.144,0.992 0.309,0.273 Z"
             style="fill:#ffffff;fill-opacity:1;fill-rule:nonzero;stroke:none"
             id="path312" />
        </g>
        <g
           id="g314"
           transform="translate(160.3467,360.6333)">
          <path
             d="m 0,0 c -0.085,-0.292 -0.062,-0.591 0.035,-0.849 0.32,-0.143 0.666,-0.254 1.056,-0.342 0.498,-0.118 0.911,-0.161 1.246,-0.156 0.154,0.159 0.272,0.358 0.34,0.591 C 2.885,-0.023 2.458,0.748 1.717,0.961 0.976,1.173 0.212,0.741 0,0"
             style="fill:#006f9a;fill-opacity:1;fill-rule:nonzero;stroke:none"
             id="path316" />
        </g>
        <g
           id="g318">
          <g
             id="g320" />
          <g
             id="g332">
            <g
               clip-path="url(#clipPath324)"
               opacity="0.699997"
               id="g330">
              <g
                 transform="translate(162.4727,360.5679)"
                 id="g328">
                <path
                   d="m 0,0 c -0.084,-0.296 -0.307,-0.493 -0.498,-0.438 -0.19,0.054 -0.276,0.338 -0.192,0.634 0.084,0.296 0.306,0.492 0.497,0.438 C -0.002,0.58 0.084,0.296 0,0"
                   style="fill:#ffffff;fill-opacity:1;fill-rule:nonzero;stroke:none"
                   id="path326" />
              </g>
            </g>
          </g>
        </g>
        <g
           id="g334"
           transform="translate(157.8003,361.5908)">
          <path
             d="m 0,0 c 0,0 2.81,2.281 5.626,0.615 1.567,-0.928 0.954,-1.378 2.392,-1.421 0,0 -0.77,-0.594 -1.355,-0.505 C 5.733,-1.168 5.886,-0.489 4.488,0.16 2.326,1.163 0,0 0,0"
             style="fill:#2e353d;fill-opacity:1;fill-rule:nonzero;stroke:none"
             id="path336" />
        </g>
        <g
           id="g338"
           transform="translate(158.3774,365.7446)">
          <path
             d="M 0,0 C 0,0 1.329,1.304 1.941,1.283 3.654,1.227 4.934,0.54 6.219,0.146 c 1.285,-0.393 2.177,-2.071 2.436,-3.232 0,0 -1.081,1.545 -2.662,1.958 C 4.604,-0.766 3.618,-0.473 0,0"
             style="fill:#2e353d;fill-opacity:1;fill-rule:nonzero;stroke:none"
             id="path340" />
        </g>
        <g
           id="g342"
           transform="translate(162.4482,357.3726)">
          <path
             d="m 0,0 c 0,0 -1.38,-0.156 -2.817,0.675 0,0 0.779,-2.477 2.817,-0.675"
             style="fill:#fdaf99;fill-opacity:1;fill-rule:nonzero;stroke:none"
             id="path344" />
        </g>
        <g
           id="g346"
           transform="translate(146.541,361.9697)">
          <path
             d="M 0,0 C 0,0 1.029,-0.908 2.695,-1.045 2.695,-1.045 0.579,-2.619 0,0"
             style="fill:#fdaf99;fill-opacity:1;fill-rule:nonzero;stroke:none"
             id="path348" />
        </g>
        <g
           id="g350"
           transform="translate(155.0312,349.9116)">
          <path
             d="m 0,0 c 0.213,-0.326 0.841,-0.795 1.121,-0.877 0,0 -1.152,-0.053 -2.431,0.078 -0.99,0.102 -1.711,0.502 -2.516,0.858 -1.291,0.571 -2.156,1.43 -2.156,1.43 0,0 1.555,-0.18 2.629,0.081 C -2.28,1.831 0,0 0,0"
             style="fill:#ee6191;fill-opacity:1;fill-rule:nonzero;stroke:none"
             id="path352" />
        </g>
        <g
           id="g354"
           transform="translate(154.8779,350.5654)">
          <path
             d="m 0,0 c -0.453,0.722 -0.935,0.883 -1.244,0.989 -0.35,0.022 -0.669,0.115 -0.981,0.27 -0.561,0.333 -1.236,0.27 -1.599,0.122 -1.257,-0.515 -2.005,-0.546 -2.005,-0.546 0,0 0.526,-0.214 1.248,-0.283 0.655,-0.063 0.67,-0.008 1.227,-0.072 0.442,-0.05 0.661,-0.006 1.206,-0.16 0.818,-0.231 0.866,-0.286 1.544,-0.767 0.721,-0.51 1.253,-0.871 1.878,-1.084 0,0 -0.428,0.181 -1.274,1.531"
             style="fill:#ee6191;fill-opacity:1;fill-rule:nonzero;stroke:none"
             id="path356" />
        </g>
        <g
           id="g358"
           transform="translate(155.3999,349.1665)">
          <path
             d="m 0,0 c -0.474,0.157 -0.895,0.436 -1.729,0.817 -0.896,0.411 -1.511,0.562 -2.017,0.635 -0.804,0.116 -1.733,0.541 -1.733,0.541 0,0 0.884,-0.305 1.998,-0.25 C -2.606,1.785 -1.81,1.559 -0.837,0.59 -0.433,0.187 0,0 0,0"
             style="fill:#ca5072;fill-opacity:1;fill-rule:nonzero;stroke:none"
             id="path360" />
        </g>
        <g
           id="g362"
           transform="translate(155.3374,361.79)">
          <path
             d="M 0,0 C 0.365,-3.515 0.535,-4.782 1.321,-6.548 2.107,-8.315 1.28,-8.242 0.352,-8.629 c -0.484,-0.202 -1.551,-0.309 -1.494,-0.04 0,0 1.276,0.874 1.372,1.212 0.192,0.676 -0.225,1.607 -0.417,2.799 C -0.378,-3.467 0,0 0,0"
             style="fill:#fda086;fill-opacity:1;fill-rule:nonzero;stroke:none"
             id="path364" />
        </g>
        <g
           id="g366"
           transform="translate(162.8486,374.3525)">
          <path
             d="m 0,0 c 0,0 -9.54,-7.978 -24.219,-5.804 0,0 -3.698,5.636 0.622,16.321 4.321,10.684 15.513,5.637 17.184,4.832 C -4.741,14.544 0,0 0,0"
             style="fill:#5d100a;fill-opacity:1;fill-rule:nonzero;stroke:none"
             id="path368" />
        </g>
        <g
           id="g370"
           transform="translate(155.4893,379.1016)">
          <path
             d="m 0,0 7.359,-4.749 c 0,0 3.704,-11.265 5.759,-12.748 0,0 2.973,4.477 1.707,12.577 C 13.84,1.381 7.595,9.514 0.947,10.6 -5.702,11.687 0,0 0,0"
             style="fill:#5d100a;fill-opacity:1;fill-rule:nonzero;stroke:none"
             id="path372" />
        </g>
        <g
           id="g374"
           transform="translate(134.3237,361.3687)">
          <path
             d="m 0,0 c -0.988,-0.231 -1.73,-1.23 -1.73,-2.427 0,-1.368 0.97,-2.477 2.167,-2.477 1.197,0 2.167,1.109 2.167,2.477 0,1.106 -0.634,2.043 -1.51,2.361"
             style="fill:none;stroke:#fda059;stroke-width:0.5;stroke-linecap:round;stroke-linejoin:round;stroke-miterlimit:10;stroke-dasharray:none;stroke-opacity:1"
             id="path376" />
        </g>
        <g
           id="g378"
           transform="translate(149.1597,391.5356)">
          <path
             d="M 0,0 C -4.825,0.458 -9.504,-2.134 -13.507,-5.388"
             style="fill:none;stroke:#fda059;stroke-width:0.75;stroke-linecap:round;stroke-linejoin:round;stroke-miterlimit:10;stroke-dasharray:none;stroke-opacity:1"
             id="path380" />
        </g>
        <g
           id="g382"
           transform="translate(134.1084,387.9575)">
          <path
             d="m 0,0 c 2.474,-0.09 5.496,0.896 8.095,1.552 2.422,0.612 5.731,1.924 7.587,3.882"
             style="fill:none;stroke:#fda059;stroke-width:0.75;stroke-linecap:round;stroke-linejoin:round;stroke-miterlimit:10;stroke-dasharray:none;stroke-opacity:1"
             id="path384" />
        </g>
        <g
           id="g386"
           transform="translate(163.936,375.3491)">
          <path
             d="M 0,0 C 0,0 -6.828,-11.679 -24.705,-6.738"
             style="fill:none;stroke:#5d100a;stroke-width:0.25;stroke-linecap:butt;stroke-linejoin:miter;stroke-miterlimit:10;stroke-dasharray:none;stroke-opacity:1"
             id="path388" />
        </g>
        <g
           id="g390"
           transform="translate(143.4849,240.7393)">
          <path
             d="m 0,0 c -0.09,-4.654 -1.475,-6.366 -1.85,-8.151 -0.376,-1.786 -5.426,-6.125 -6.991,-7.293 -1.566,-1.168 -4.409,-1.1 -6.239,-0.416 -1.829,0.684 -8.526,3.597 -10.128,5.627 -1.601,2.028 -9.673,12.528 -9.673,12.528 2.513,0.043 12.534,-2.501 15.069,-3.715 2.534,-1.213 6.634,-2.361 7.25,-3.376 0.617,-1.014 1.718,-4.321 2.709,-4.652 0.992,-0.331 3.573,2.555 4.565,3.326 0.992,0.771 1.224,2.727 2.08,4.879 C -2.353,0.909 0.04,2.068 0,0"
             style="fill:#fec1b2;fill-opacity:1;fill-rule:nonzero;stroke:none"
             id="path392" />
        </g>
        <g
           id="g394"
           transform="translate(117.3042,331.0342)">
          <path
             d="m 0,0 c -4.381,-0.839 -7.234,-2.75 -13.201,-11.655 -5.546,-8.277 -16.255,-33.411 -18.232,-41.277 -1.978,-7.865 1.138,-8.068 7.277,-16.545 6.139,-8.477 22.431,-25.876 23.117,-28.196 l 6.646,7.874 c 0,0 -9.827,15.236 -12.338,22.364 -2.511,7.128 -6.921,15.995 -6.921,15.995 0,0 9.108,9.958 14.66,16.916 3.441,4.312 6.015,14.893 6.196,20.855 C 7.389,-7.574 7.191,1.376 0,0"
             style="fill:#fec1b2;fill-opacity:1;fill-rule:nonzero;stroke:none"
             id="path396" />
        </g>
        <g
           id="g398"
           transform="translate(195.3047,253.2773)">
          <path
             d="m 0,0 c 0.336,-1.518 1.024,-5.041 0.708,-7.359 -0.235,-1.725 -0.073,-5.857 -1.264,-6.533 -1.192,-0.675 -4.844,-2.611 -6.312,-3.276 -1.468,-0.665 -7.043,-1.112 -8.151,-1.07 -1.108,0.043 -0.746,2.249 1.502,2.995 2.249,0.746 5.082,0.632 5.421,0.786 0.339,0.153 2.644,3.193 3.22,3.727 0.575,0.532 -0.161,5.145 -0.672,6.275 -0.512,1.129 2.718,7.221 2.718,7.221 z"
             style="fill:#fec1b2;fill-opacity:1;fill-rule:nonzero;stroke:none"
             id="path400" />
        </g>
        <g
           id="g402"
           transform="translate(135.124,235.0469)">
          <path
             d="M 0,0 57.577,22.791 56.119,27.157 -1.458,3.366 Z"
             style="fill:#ffd913;fill-opacity:1;fill-rule:nonzero;stroke:none"
             id="path404" />
        </g>
        <g
           id="g406"
           transform="translate(182.7793,231.9941)">
          <path
             d="m 0,0 -71.206,30.605 1.472,4.883 L 2.355,3.958 C 1.47,2.681 0.692,1.363 0,0"
             style="fill:#ffd913;fill-opacity:1;fill-rule:nonzero;stroke:none"
             id="path408" />
        </g>
        <g
           id="g410"
           transform="translate(120.1982,241.3916)">
          <path
             d="m 0,0 c 4.233,-0.215 10.019,2.053 12.114,1.936 2.094,-0.118 5.114,0.175 7.624,-0.345 1.924,-0.4 3.887,-0.876 3.549,-2.243 -0.199,-0.802 -1.851,-1.564 -3.209,-1.244 -1.358,0.322 -3.11,-0.898 -4.982,-1.588 -1.872,-0.691 -2.898,-3.012 -6.584,-4.03 -3.685,-1.016 -9.079,3.58 -9.079,3.58 z"
             style="fill:#fec1b2;fill-opacity:1;fill-rule:nonzero;stroke:none"
             id="path412" />
        </g>
        <g
           id="g414"
           transform="translate(180.8164,239.4941)">
          <path
             d="m 0,0 c 0.459,2.071 2.382,5.236 2.667,8.518 0.271,3.11 0.709,4.939 2.029,7.167 1.32,2.228 2.744,2.476 2.434,6.761 -0.211,2.908 -1.931,13.429 -1.234,17.138 0,0 11.35,-9.806 12.399,-11.654 -0.455,-3.639 -3.807,-14.147 -3.807,-14.147 0,0 -1.823,-6.579 -4.518,-8.375 C 8.347,4.326 6.484,3.17 5.288,1.696 4.092,0.223 3.385,-3.358 1.664,-3.673 -0.058,-3.986 -0.459,-2.072 0,0"
             style="fill:#fec1b2;fill-opacity:1;fill-rule:nonzero;stroke:none"
             id="path416" />
        </g>
        <g
           id="g418"
           transform="translate(180.5459,236.2783)">
          <path
             d="M 0,0 C 1.439,-0.547 3.354,1.123 4.229,-0.397 5.104,-1.917 5.768,-5.662 5.594,-14.342 5.46,-21.065 3.803,-50.137 3.803,-50.137 l -4.349,0.774 c 0,0 2.336,32.426 2.365,37.015 C 1.848,-7.758 0,0 0,0"
             style="fill:#ffd913;fill-opacity:1;fill-rule:nonzero;stroke:none"
             id="path420" />
        </g>
        <g
           id="g422"
           transform="translate(191.0908,54.2715)">
          <path
             d="m 0,0 c -1.242,1.423 -6.808,7.195 -7.859,9.045 -1.052,1.849 -2.282,2.741 -4.671,2.884 -2.389,0.141 -4.26,-0.482 -3.017,-4.038 1.242,-3.556 4.652,-6.895 6.181,-8.175 C -7.836,-1.564 0,0 0,0"
             style="fill:#1e4057;fill-opacity:1;fill-rule:nonzero;stroke:none"
             id="path424" />
        </g>
        <g
           id="g426"
           transform="translate(165.998,53.2959)">
          <path
             d="m 0,0 c 2.414,2.012 10.262,-1.046 15.671,-1.108 10.047,-0.117 20.658,-3.167 20.658,-3.167 0,0 0.97,-2.327 -2.018,-2.327 H -0.164 c 0,0 -3.825,3.277 0.164,6.602"
             style="fill:#1e4057;fill-opacity:1;fill-rule:nonzero;stroke:none"
             id="path428" />
        </g>
        <g
           id="g430"
           transform="translate(167.9927,62.9541)">
          <path
             d="m 0,0 c 0.617,2.321 3.384,-2.101 8.055,-0.082 1.63,-2.244 5.497,-6.778 5.921,-6.417 1.114,0.952 8.944,1.683 14.66,-2.367 4.558,-3.232 5.698,-5.068 5.698,-5.068 0,0 -17.883,1.086 -23.879,1.434 -11.268,0.653 -12.45,2.842 -12.45,2.842 0,0 -1.016,1.369 0.46,5.837 C -1.316,-3.158 -0.241,-0.907 0,0"
             style="fill:#346e94;fill-opacity:1;fill-rule:nonzero;stroke:none"
             id="path432" />
        </g>
        <g
           id="g434"
           transform="translate(190.1138,54.9258)">
          <path
             d="M 0,0 C -1.333,1.479 -4.89,5.176 -6.135,6.531 -7.379,7.888 -8.18,9.243 -8.18,9.243 l 1.423,0.493 c 0,0 1.956,-2.465 3.734,-4.56 1.778,-2.095 4.89,-4.56 4.89,-4.56 z"
             style="fill:#346e94;fill-opacity:1;fill-rule:nonzero;stroke:none"
             id="path436" />
        </g>
        <g
           id="g438"
           transform="translate(178.4961,57.209)">
          <path
             d="M 0,0 C 2.242,2.891 5.571,4.592 8.871,3.6"
             style="fill:none;stroke:#ffffff;stroke-width:0.5;stroke-linecap:round;stroke-linejoin:round;stroke-miterlimit:10;stroke-dasharray:none;stroke-opacity:1"
             id="path440" />
        </g>
        <g
           id="g442"
           transform="translate(181.0879,54.7598)">
          <path
             d="M 0,0 C 2.011,2.589 4.887,4.256 7.894,3.818"
             style="fill:none;stroke:#ffffff;stroke-width:0.5;stroke-linecap:round;stroke-linejoin:round;stroke-miterlimit:10;stroke-dasharray:none;stroke-opacity:1"
             id="path444" />
        </g>
        <g
           id="g446"
           transform="translate(175.5889,59.5195)">
          <path
             d="M 0,0 C 2.894,3.738 6.858,4.89 10.306,2.991"
             style="fill:none;stroke:#ffffff;stroke-width:0.5;stroke-linecap:round;stroke-linejoin:round;stroke-miterlimit:10;stroke-dasharray:none;stroke-opacity:1"
             id="path448" />
        </g>
        <g
           id="g450"
           transform="translate(174.2153,62.9385)">
          <path
             d="M 0,0 C -0.328,-0.158 -0.66,-0.341 -0.911,-0.663 -1.162,-0.986 -1.315,-1.481 -1.209,-1.924 -1.09,-2.425 -0.671,-2.713 -0.276,-2.727 0.12,-2.741 0.5,-2.54 0.866,-2.342 2.683,-1.36 6.636,0.86 6.636,0.86 6.636,0.86 1.938,1.003 0,0 Z"
             style="fill:none;stroke:#ffffff;stroke-width:0.5;stroke-linecap:round;stroke-linejoin:round;stroke-miterlimit:10;stroke-dasharray:none;stroke-opacity:1"
             id="path452" />
        </g>
        <g
           id="g454"
           transform="translate(184.0703,65.1953)">
          <path
             d="m 0,0 c 0.381,0.123 0.851,0.183 1.101,-0.219 0.336,-0.54 -0.055,-1.369 -0.523,-1.692 -0.514,-0.355 -3.595,0.514 -3.595,0.514 0,0 2.478,1.223 3.017,1.397 z"
             style="fill:none;stroke:#ffffff;stroke-width:0.5;stroke-linecap:round;stroke-linejoin:round;stroke-miterlimit:10;stroke-dasharray:none;stroke-opacity:1"
             id="path456" />
        </g>
        <g
           id="g458"
           transform="translate(180.5112,63.0645)">
          <path
             d="M 0,0 C -1.363,-2.77 -2.035,-6.13 -1.886,-9.435"
             style="fill:none;stroke:#ffffff;stroke-width:0.5;stroke-linecap:round;stroke-linejoin:round;stroke-miterlimit:10;stroke-dasharray:none;stroke-opacity:1"
             id="path460" />
        </g>
        <g
           id="g462"
           transform="translate(182.2407,57.4443)">
          <path
             d="M 0,0 C 0.132,1.362 -0.682,5.354 -1.389,6.354"
             style="fill:none;stroke:#ffffff;stroke-width:0.5;stroke-linecap:round;stroke-linejoin:round;stroke-miterlimit:10;stroke-dasharray:none;stroke-opacity:1"
             id="path464" />
        </g>
        <g
           id="g466"
           transform="translate(140.605,54.2715)">
          <path
             d="m 0,0 c -1.243,1.423 -6.808,7.195 -7.859,9.045 -1.052,1.849 -2.282,2.741 -4.671,2.884 -2.389,0.141 -4.26,-0.482 -3.017,-4.038 1.242,-3.556 4.652,-6.895 6.181,-8.175 C -7.837,-1.564 0,0 0,0"
             style="fill:#1e4057;fill-opacity:1;fill-rule:nonzero;stroke:none"
             id="path468" />
        </g>
        <g
           id="g470"
           transform="translate(115.5122,53.2959)">
          <path
             d="m 0,0 c 2.413,2.012 10.262,-1.046 15.671,-1.108 10.047,-0.117 20.658,-3.167 20.658,-3.167 0,0 0.97,-2.327 -2.018,-2.327 H -0.164 c 0,0 -3.825,3.277 0.164,6.602"
             style="fill:#1e4057;fill-opacity:1;fill-rule:nonzero;stroke:none"
             id="path472" />
        </g>
        <g
           id="g474"
           transform="translate(117.5068,62.9541)">
          <path
             d="m 0,0 c 0.617,2.321 3.384,-2.101 8.055,-0.082 1.63,-2.244 5.497,-6.778 5.921,-6.417 1.114,0.952 8.944,1.683 14.659,-2.367 4.559,-3.232 5.699,-5.068 5.699,-5.068 0,0 -17.883,1.086 -23.879,1.434 -11.268,0.653 -12.45,2.842 -12.45,2.842 0,0 -1.016,1.369 0.46,5.837 C -1.316,-3.158 -0.241,-0.907 0,0"
             style="fill:#346e94;fill-opacity:1;fill-rule:nonzero;stroke:none"
             id="path476" />
        </g>
        <g
           id="g478"
           transform="translate(139.6279,54.9258)">
          <path
             d="M 0,0 C -1.333,1.479 -4.89,5.176 -6.135,6.531 -7.379,7.888 -8.18,9.243 -8.18,9.243 l 1.423,0.493 c 0,0 1.956,-2.465 3.734,-4.56 1.778,-2.095 4.89,-4.56 4.89,-4.56 z"
             style="fill:#346e94;fill-opacity:1;fill-rule:nonzero;stroke:none"
             id="path480" />
        </g>
        <g
           id="g482"
           transform="translate(128.0103,57.209)">
          <path
             d="M 0,0 C 2.242,2.891 5.571,4.592 8.871,3.6"
             style="fill:none;stroke:#ffffff;stroke-width:0.5;stroke-linecap:round;stroke-linejoin:round;stroke-miterlimit:10;stroke-dasharray:none;stroke-opacity:1"
             id="path484" />
        </g>
        <g
           id="g486"
           transform="translate(130.6021,54.7598)">
          <path
             d="M 0,0 C 2.011,2.589 4.887,4.256 7.894,3.818"
             style="fill:none;stroke:#ffffff;stroke-width:0.5;stroke-linecap:round;stroke-linejoin:round;stroke-miterlimit:10;stroke-dasharray:none;stroke-opacity:1"
             id="path488" />
        </g>
        <g
           id="g490"
           transform="translate(125.103,59.5195)">
          <path
             d="M 0,0 C 2.894,3.738 6.858,4.89 10.306,2.991"
             style="fill:none;stroke:#ffffff;stroke-width:0.5;stroke-linecap:round;stroke-linejoin:round;stroke-miterlimit:10;stroke-dasharray:none;stroke-opacity:1"
             id="path492" />
        </g>
        <g
           id="g494"
           transform="translate(123.7295,62.9385)">
          <path
             d="M 0,0 C -0.328,-0.158 -0.66,-0.341 -0.911,-0.663 -1.162,-0.986 -1.315,-1.481 -1.209,-1.924 -1.09,-2.425 -0.671,-2.713 -0.276,-2.727 0.12,-2.741 0.5,-2.54 0.866,-2.342 2.683,-1.36 6.636,0.86 6.636,0.86 6.636,0.86 1.938,1.003 0,0 Z"
             style="fill:none;stroke:#ffffff;stroke-width:0.5;stroke-linecap:round;stroke-linejoin:round;stroke-miterlimit:10;stroke-dasharray:none;stroke-opacity:1"
             id="path496" />
        </g>
        <g
           id="g498"
           transform="translate(133.5845,65.1953)">
          <path
             d="m 0,0 c 0.381,0.123 0.851,0.183 1.101,-0.219 0.336,-0.54 -0.056,-1.369 -0.523,-1.692 -0.514,-0.355 -3.595,0.514 -3.595,0.514 0,0 2.478,1.223 3.017,1.397 z"
             style="fill:none;stroke:#ffffff;stroke-width:0.5;stroke-linecap:round;stroke-linejoin:round;stroke-miterlimit:10;stroke-dasharray:none;stroke-opacity:1"
             id="path500" />
        </g>
        <g
           id="g502"
           transform="translate(130.0254,63.0645)">
          <path
             d="M 0,0 C -1.363,-2.77 -2.035,-6.13 -1.886,-9.435"
             style="fill:none;stroke:#ffffff;stroke-width:0.5;stroke-linecap:round;stroke-linejoin:round;stroke-miterlimit:10;stroke-dasharray:none;stroke-opacity:1"
             id="path504" />
        </g>
        <g
           id="g506"
           transform="translate(131.7549,57.4443)">
          <path
             d="M 0,0 C 0.132,1.362 -0.682,5.354 -1.389,6.354"
             style="fill:none;stroke:#ffffff;stroke-width:0.5;stroke-linecap:round;stroke-linejoin:round;stroke-miterlimit:10;stroke-dasharray:none;stroke-opacity:1"
             id="path508" />
        </g>
      </g>
    </g>
    <g
       id="g510">
      <g
         id="g512"
         clip-path="url(#clipPath516)">
        <g
           id="g518">
          <g
             id="g520" />
          <g
             id="g532">
            <g
               clip-path="url(#clipPath524)"
               opacity="0.25"
               id="g530">
              <g
                 transform="translate(129.2891,46.0908)"
                 id="g528">
                <path
                   d="m 0,0 h 125.988 c 1.017,0 1.801,0.896 1.667,1.903 L 86.044,314.321 c -4.243,31.861 -31.419,55.658 -63.562,55.658 h -10e-4 c -38.777,0 -68.682,-34.151 -63.562,-72.59 L -1.667,1.46 C -1.556,0.624 -0.843,0 0,0"
                   style="fill:#ffffff;fill-opacity:1;fill-rule:nonzero;stroke:none"
                   id="path526" />
              </g>
            </g>
          </g>
        </g>
        <g
           id="g534">
          <g
             id="g536" />
          <g
             id="g548">
            <g
               clip-path="url(#clipPath540)"
               opacity="0.699997"
               id="g546">
              <g
                 transform="translate(153.2432,416.0698)"
                 id="g544">
                <path
                   d="m 0,0 h -3.393 c -37.761,0 -66.881,-33.256 -61.896,-70.687 l 39.862,-299.292 H 103.954 L 61.896,-54.199 C 57.764,-23.173 31.3,0 0,0 m 0,-5 c 13.926,0 27.365,-5.053 37.842,-14.227 10.477,-9.173 17.259,-21.828 19.098,-35.632 l 41.304,-310.12 H -21.048 l -39.285,294.952 c -2.186,16.412 2.816,32.969 13.724,45.426 C -35.701,-12.144 -19.95,-5 -3.393,-5 H 0"
                   style="fill:#000000;fill-opacity:1;fill-rule:nonzero;stroke:none"
                   id="path542" />
              </g>
            </g>
          </g>
        </g>
        <g
           id="g550"
           transform="translate(127.8169,46.0908)">
          <path
             d="M 0,0 H 129.38 L 87.322,315.78 c -4.132,31.026 -30.596,54.199 -61.896,54.199 h -3.392 c -37.762,0 -66.882,-33.256 -61.896,-70.687 z"
             style="fill:none;stroke:#5e5d73;stroke-width:4;stroke-linecap:butt;stroke-linejoin:miter;stroke-miterlimit:10;stroke-dasharray:none;stroke-opacity:1"
             id="path552" />
        </g>
        <g
           id="g554"
           transform="translate(321.3389,326.1343)">
          <path
             d="m 0,0 c -9.638,-13.248 -21.066,-43.207 -23.73,-48.534 -2.664,-5.327 4.641,-22.113 4.641,-22.113 l 10.507,9.386 c 0,0 1.5,9.303 2.092,12.559 0.592,3.255 20.714,20.046 20.714,20.046 L 5.031,-4.143 Z"
             style="fill:#fec1b2;fill-opacity:1;fill-rule:nonzero;stroke:none"
             id="path556" />
        </g>
        <g
           id="g558"
           transform="translate(340.7812,269.2983)">
          <path
             d="m 0,0 c 1.295,10.466 2.027,33.055 0.727,41.829 -1.573,10.603 -13.623,19.334 -13.623,19.334 -5.314,-2.141 -8.002,-4.829 -11.632,-13.023 -2.417,-5.453 1.352,-15.508 2.612,-20.878 1.589,-6.776 4.354,-16.139 5.486,-19.903 C -11.031,4.798 -5.569,2.212 0,0"
             style="fill:#fec1b2;fill-opacity:1;fill-rule:nonzero;stroke:none"
             id="path560" />
        </g>
        <g
           id="g562"
           transform="translate(379.1318,290.4565)">
          <path
             d="m 0,0 c 0,0 6.315,15.788 9.972,24.098 1.154,2.623 -9.259,16.48 -9.259,16.48 0,0 -15.8,5.81 -16.72,6.73 -4.514,4.513 -4.185,25.341 -4.185,25.341 l -17.268,-1.82 c 0,0 6.542,-17.766 1.407,-24.041 -1.227,-1.501 -14.342,-6.553 -14.342,-6.553 l -4.11,-17.892 3.886,-22.294 z"
             style="fill:#fec1b2;fill-opacity:1;fill-rule:nonzero;stroke:none"
             id="path564" />
        </g>
        <g
           id="g566"
           transform="translate(344.7236,340.8828)">
          <path
             d="m 0,0 c 9.096,-0.795 15.654,2.308 15.609,2.754 -0.764,7.652 -1.393,19.469 -1.393,19.469 L -3.052,20.402 C -3.052,20.402 0.712,7.878 0,0"
             style="fill:#e38168;fill-opacity:1;fill-rule:nonzero;stroke:none"
             id="path568" />
        </g>
        <g
           id="g570"
           transform="translate(348.4863,391.4019)">
          <path
             d="M 0,0 C -1.799,4.237 -1.626,12.504 6.623,12.74 14.872,12.976 19.981,5.83 18.095,1.155 16.208,-3.519 8.447,-7.158 8.447,-7.158 Z"
             style="fill:#5d100a;fill-opacity:1;fill-rule:nonzero;stroke:none"
             id="path572" />
        </g>
        <g
           id="g574"
           transform="translate(354.3994,349.9473)">
          <path
             d="M 0,0 C 0,0 12.688,3.655 12.984,16.065 13.28,28.475 6.087,40.113 -1.261,40.557 -10.446,41.112 -14.864,4.516 0,0"
             style="fill:#5d100a;fill-opacity:1;fill-rule:nonzero;stroke:none"
             id="path576" />
        </g>
        <g
           id="g578"
           transform="translate(339.5732,329.4214)">
          <path
             d="m 0,0 -9.712,-0.327 c 0,0 -7.882,-19.336 -11.504,-23.993 -3.622,-4.658 -0.397,-12.844 3.052,-18.017 2.213,-3.321 -13.482,-18.023 -17.104,-28.89 -7.023,-21.069 -4.082,-27.106 4.096,-48.914 l 75.155,2.162 c 0,0 2.395,32.488 0.174,47.712 -2.174,14.912 -7.935,24.731 -4.313,33.528 3.622,8.797 -0.518,34.152 -0.518,34.152 0,0 -26.39,4.657 -39.326,2.587"
             style="fill:#fec1b2;fill-opacity:1;fill-rule:nonzero;stroke:none"
             id="path580" />
        </g>
        <g
           id="g582"
           transform="translate(379.6924,277.0093)">
          <path
             d="m 0,0 c -6.362,0.018 -12.737,0.106 -19.124,0.003 -15.296,-0.247 -30.539,-1.111 -45.806,-0.694 -4.749,-5.625 -8.55,-12.405 -10.457,-18.123 -7.023,-21.07 -4.082,-27.107 4.096,-48.915 l 75.155,2.162 c 0,0 2.395,32.488 0.174,47.712 C 3.03,-10.94 1.258,-5.13 0,0"
             style="fill:#fa577a;fill-opacity:1;fill-rule:nonzero;stroke:none"
             id="path584" />
        </g>
        <g
           id="g586"
           transform="translate(327.4541,62.2012)">
          <path
             d="M 0,0 C 0.139,2.322 0.471,9.521 1.095,12.901 1.864,17.069 3.189,23.089 4.765,30.042 -0.864,28.162 -6.303,28.079 -11.697,28.697 -11.758,20.594 -11.855,8.095 -12.029,0.617 -11.679,0.589 -3.663,0.113 0,0"
             style="fill:#fec1b2;fill-opacity:1;fill-rule:nonzero;stroke:none"
             id="path588" />
        </g>
        <g
           id="g590"
           transform="translate(378.1318,61.0938)">
          <path
             d="m 0,0 c 0.139,2.321 0.472,10.628 1.095,14.009 0.769,4.168 2.094,10.187 3.67,17.14 C -0.864,29.27 -6.303,29.187 -11.697,29.805 -11.757,21.701 -11.855,8.094 -12.029,0.616 -11.679,0.588 -3.663,0.112 0,0"
             style="fill:#fec1b2;fill-opacity:1;fill-rule:nonzero;stroke:none"
             id="path592" />
        </g>
        <g
           id="g594"
           transform="translate(358.5195,368.5483)">
          <path
             d="M 0,0 C 0,0 3.13,2.288 4.482,-0.957 5.609,-3.661 4.527,-4.798 3.547,-7.924 2.881,-10.045 0.848,-9.84 0.848,-9.84 Z"
             style="fill:#fec1b2;fill-opacity:1;fill-rule:nonzero;stroke:none"
             id="path596" />
        </g>
        <g
           id="g598"
           transform="translate(359.1133,366.8018)">
          <path
             d="M 0,0 C 0.637,1.254 1.919,0.857 2.652,0.017 3.385,-0.824 2.769,-0.437 1.753,-0.215 0.736,0.008 0.587,-1.826 1.086,-2.738 1.775,-3.997 2.02,-5.837 0.916,-6.424 -0.187,-7.011 0.235,-6.357 -0.214,-4.898 -0.663,-3.44 -0.283,-4.917 -0.525,-3.404 -0.767,-1.893 -0.547,-1.079 0,0"
             style="fill:#e38168;fill-opacity:1;fill-rule:nonzero;stroke:none"
             id="path600" />
        </g>
        <g
           id="g602"
           transform="translate(383.9756,251.46)">
          <path
             d="M 0,0 C 0,0 -11.58,3.43 -29.34,6.35 -37.08,7.63 -42.576,9.437 -56.521,8.762 -70.475,8.086 -79.669,6.73 -79.669,6.73 c 4.727,11.929 13.369,25.03 16.35,28.13 0.009,0.01 0.019,0.02 0.029,0.03 0.46,0.48 0.721,0.73 0.721,0.73 0,0 -9.05,7.67 -6.011,16.52 3.04,8.86 11.05,24.321 12.49,26.861 l 5.34,2.002 c -1.729,-2.489 -4.3,-9.093 -3.88,-14.723 0.83,-11.07 23.569,-8.638 29.94,-3.098 6.36,5.529 12.43,19.348 12.43,19.348 l 3.66,-1.45 c 0,0 -1.049,-4.93 -1.589,-10.9 -0.351,-3.98 -0.491,-8.42 0.07,-12.18 1.38,-9.4 7.439,-12.93 7.439,-12.93 0,0 -0.88,-11.72 0.26,-15.94 C 2.21,12.02 0,0 0,0"
             style="fill:#fa577a;fill-opacity:1;fill-rule:nonzero;stroke:none"
             id="path604" />
        </g>
        <g
           id="g606">
          <g
             id="g608" />
          <g
             id="g620">
            <g
               clip-path="url(#clipPath612)"
               opacity="0.5"
               id="g618">
              <g
                 transform="translate(384.0859,246.8701)"
                 id="g616">
                <path
                   d="m 0,0 c 0,0 -13.846,-15.521 -24.895,-4.472 -6.115,6.115 4.105,28.642 4.865,40.332 -5.72,0.1 -13.15,0.75 -21.78,5.61 -4.11,2.32 -7.45,-2.01 -13.33,-3.24 -4.15,-0.87 -7.43,0.75 -8.29,1.22 -0.09,0.06 -0.16,0.1 -0.19,0.12 0.03,-0.01 0.11,-0.04 0.22,-0.09 0.94,-0.38 4.52,-1.53 9.58,0.24 5.93,2.08 6.52,6.28 14.05,3.23 5.31,-2.15 14.541,-2.18 22.291,-0.29 1.459,2.61 4.569,7.85 3.919,14.23 -0.5,4.91 1.09,9.82 3.26,17.88 -0.35,-3.98 -0.49,-8.42 0.071,-12.18 1.379,-9.4 7.439,-12.93 7.439,-12.93 0,0 -0.88,-11.72 0.26,-15.94 C 2.1,16.61 0,0 0,0"
                   style="fill:#a7becc;fill-opacity:1;fill-rule:nonzero;stroke:none"
                   id="path614" />
              </g>
            </g>
          </g>
        </g>
        <g
           id="g622"
           transform="translate(347.5557,177.4697)">
          <path
             d="m 0,0 c -9.8,-22.81 -8.939,-32.93 -8.689,-33.569 0.259,-0.641 3.669,-17.481 1.569,-28.16 -1.97,-10.041 -7.89,-28.201 -10.279,-36.231 -2.371,-0.59 -6.5,-0.71 -9.901,-0.7 -3.08,0.02 -5.55,0.15 -5.55,0.15 -0.179,12.231 -1.17,24.95 -1.599,32.06 -1.341,22.19 -12.021,56.801 -14.54,75.89 -2.511,19.1 -0.562,47.65 3.039,60.253 0,0 18.28,-4.342 46.15,-3.943 0,0 2.2,-9.87 3.42,-22.649 C 4.94,29.21 5.101,11.88 0,0"
             style="fill:#346e94;fill-opacity:1;fill-rule:nonzero;stroke:none"
             id="path624" />
        </g>
        <g
           id="g626">
          <g
             id="g628" />
          <g
             id="g640">
            <g
               clip-path="url(#clipPath632)"
               opacity="0.5"
               id="g638">
              <g
                 transform="translate(347.5557,177.4697)"
                 id="g636">
                <path
                   d="m 0,0 c -9.8,-22.81 -8.939,-32.93 -8.689,-33.569 0.259,-0.641 3.669,-17.481 1.569,-28.16 -1.97,-10.041 -7.89,-28.201 -10.279,-36.231 -2.371,-0.59 -6.5,-0.71 -9.901,-0.7 1.8,4.1 3.691,8.15 5.271,12.181 2.679,6.839 4.859,13.969 4.63,21.389 -0.271,8.76 -4.471,16.93 -4.281,25.72 0.231,10.25 1.292,18.73 2.813,28.751 1.849,12.21 0.739,31.284 0,43.614 -0.34,5.74 6.637,13.274 6.928,11.305 C -11.1,38.617 -4.22,54.19 1.34,52.721 1.971,49.48 2.74,46.28 3.62,43.101 4.94,29.21 5.101,11.88 0,0"
                   style="fill:#a7becc;fill-opacity:1;fill-rule:nonzero;stroke:none"
                   id="path634" />
              </g>
            </g>
          </g>
        </g>
        <g
           id="g642"
           transform="translate(382.3857,143.9004)">
          <path
             d="m 0,0 c 0.32,-0.641 6.62,-17.48 5.721,-28.16 -0.841,-10.04 -5.83,-28.2 -7.33,-36.231 -1.75,-0.45 -3.891,-0.589 -6.131,-0.62 -3.38,-0.05 -6.96,0.181 -9.619,0.071 0,0 -3.491,24.95 -4.721,32.059 -3.819,22.191 -18.39,56.801 -23.05,75.891 -3.056,12.553 -3.753,35.852 -11.361,36.601 -6.567,0.646 -1.484,13.185 0.158,20.356 0,0 19.758,-1.61 36.015,0.184 7.333,0.81 13.968,1.748 22.018,2.819 0,0 13.29,-20.271 3.21,-69.401 C 2.311,20.859 -0.33,0.64 0,0"
             style="fill:#346e94;fill-opacity:1;fill-rule:nonzero;stroke:none"
             id="path644" />
        </g>
        <g
           id="g646">
          <g
             id="g648" />
          <g
             id="g660">
            <g
               clip-path="url(#clipPath652)"
               opacity="0.5"
               id="g658">
              <g
                 transform="translate(382.3857,143.9004)"
                 id="g656">
                <path
                   d="m 0,0 c 0.32,-0.641 6.62,-17.48 5.721,-28.16 -0.841,-10.04 -5.83,-28.2 -7.33,-36.231 -1.75,-0.45 -3.891,-0.589 -6.131,-0.62 3.79,12.41 5.31,25.611 2.671,38.261 -1.221,5.88 -3.321,11.54 -5,17.31 -1.471,5.07 -2.62,10.219 -3.771,15.37 -2.229,9.95 -4.45,19.91 -6.68,29.86 -1.91,8.579 -3.839,17.27 -3.58,26.06 0.23,7.62 2.13,15.03 2.81,22.599 0.45,4.92 -1.063,10.905 -2.992,15.246 -0.033,0.076 17.932,2.204 25.982,3.275 0,0 13.29,-20.271 3.21,-69.401 C 2.311,20.859 -0.33,0.64 0,0"
                   style="fill:#a7becc;fill-opacity:1;fill-rule:nonzero;stroke:none"
                   id="path654" />
              </g>
            </g>
          </g>
        </g>
        <g
           id="g662"
           transform="translate(360.6816,353.8301)">
          <path
             d="m 0,0 c -0.635,-2.132 -5.778,-11.878 -13.65,-12.819 -6.567,-0.784 -10.853,3.764 -13.078,7.046 -1.41,2.08 -1.62,3.733 -2.866,7.296 -1.25,3.556 -3.268,8.167 -3.869,11.022 -0.931,4.417 3.901,10.462 6.88,12.485 8.108,5.507 21.071,0.719 21.968,-2.314 0.843,-2.858 2.731,-8.42 3.675,-12.204 C -0.23,7.661 1.062,3.562 0,0"
             style="fill:#fec1b2;fill-opacity:1;fill-rule:nonzero;stroke:none"
             id="path664" />
        </g>
        <g
           id="g666"
           transform="translate(350.5527,365.5444)">
          <path
             d="m 0,0 c 0,0 0.221,-1.381 -1.226,-2.111 -0.333,-0.16 -0.644,-0.299 -0.95,-0.402 -0.962,-0.329 -1.767,-0.384 -2.38,-0.335 -0.911,0.072 -1.425,0.379 -1.425,0.379 l 0.123,0.392 c 0.333,1.059 1.172,1.874 2.237,2.176 l 1.814,0.518 z"
             style="fill:#ffffff;fill-opacity:1;fill-rule:nonzero;stroke:none"
             id="path668" />
        </g>
        <g
           id="g670"
           transform="translate(348.4307,363.9346)">
          <path
             d="m 0,0 c 0.085,-0.314 0.067,-0.623 -0.054,-0.903 -0.962,-0.329 -1.767,-0.385 -2.38,-0.335 -0.109,0.135 -0.192,0.307 -0.243,0.482 -0.212,0.741 0.22,1.504 0.961,1.716 C -0.975,1.173 -0.212,0.741 0,0"
             style="fill:#006f9a;fill-opacity:1;fill-rule:nonzero;stroke:none"
             id="path672" />
        </g>
        <g
           id="g674">
          <g
             id="g676" />
          <g
             id="g688">
            <g
               clip-path="url(#clipPath680)"
               opacity="0.699997"
               id="g686">
              <g
                 transform="translate(347.5977,364.2373)"
                 id="g684">
                <path
                   d="M 0,0 C 0.084,-0.296 -0.002,-0.58 -0.192,-0.634 -0.383,-0.688 -0.605,-0.492 -0.69,-0.196 -0.774,0.1 -0.687,0.384 -0.497,0.438 -0.307,0.492 -0.084,0.296 0,0"
                   style="fill:#ffffff;fill-opacity:1;fill-rule:nonzero;stroke:none"
                   id="path682" />
              </g>
            </g>
          </g>
        </g>
        <g
           id="g690"
           transform="translate(344.4697,363.0454)">
          <path
             d="m 0,0 c 0,0 1.191,3.417 4.463,3.48 1.821,0.035 1.536,-0.67 2.781,0.048 0,0 -0.342,-0.909 -0.887,-1.141 C 5.492,2.02 5.265,2.678 3.733,2.495 1.367,2.212 0,0 0,0"
             style="fill:#2e353d;fill-opacity:1;fill-rule:nonzero;stroke:none"
             id="path692" />
        </g>
        <g
           id="g694"
           transform="translate(342.8105,366.8086)">
          <path
             d="m 0,0 c 0,0 0.414,1.815 0.94,2.128 1.473,0.877 2.921,0.99 4.215,1.352 1.294,0.364 2.951,-0.567 3.796,-1.405 0,0 -1.744,0.717 -3.299,0.211 C 4.288,1.841 3.3,1.555 0,0"
             style="fill:#2e353d;fill-opacity:1;fill-rule:nonzero;stroke:none"
             id="path696" />
        </g>
        <g
           id="g698"
           transform="translate(339.2402,361.563)">
          <path
             d="m 0,0 c 0,0 -0.759,-1.098 -2.474,-1.779 -0.319,-0.142 -0.665,-0.254 -1.055,-0.342 -0.498,-0.117 -0.91,-0.161 -1.246,-0.155 -1.651,0.015 -1.605,1.235 -1.605,1.235 l 1.211,1.472 1.815,0.518 c 1.065,0.302 2.21,0.043 3.044,-0.676 z"
             style="fill:#ffffff;fill-opacity:1;fill-rule:nonzero;stroke:none"
             id="path700" />
        </g>
        <g
           id="g702"
           transform="translate(336.8018,360.6333)">
          <path
             d="m 0,0 c 0.085,-0.292 0.062,-0.591 -0.035,-0.849 -0.319,-0.143 -0.665,-0.254 -1.056,-0.342 -0.498,-0.118 -0.91,-0.161 -1.246,-0.156 -0.154,0.159 -0.271,0.358 -0.34,0.591 -0.208,0.733 0.22,1.504 0.961,1.717 C -0.976,1.173 -0.212,0.741 0,0"
             style="fill:#006f9a;fill-opacity:1;fill-rule:nonzero;stroke:none"
             id="path704" />
        </g>
        <g
           id="g706">
          <g
             id="g708" />
          <g
             id="g720">
            <g
               clip-path="url(#clipPath712)"
               opacity="0.699997"
               id="g718">
              <g
                 transform="translate(334.6758,360.5679)"
                 id="g716">
                <path
                   d="M 0,0 C 0.085,-0.296 0.308,-0.493 0.498,-0.438 0.688,-0.384 0.774,-0.1 0.69,0.196 0.606,0.492 0.384,0.688 0.193,0.634 0.003,0.58 -0.084,0.296 0,0"
                   style="fill:#ffffff;fill-opacity:1;fill-rule:nonzero;stroke:none"
                   id="path714" />
              </g>
            </g>
          </g>
        </g>
        <g
           id="g722"
           transform="translate(339.3486,361.5908)">
          <path
             d="m 0,0 c 0,0 -2.81,2.281 -5.626,0.615 -1.567,-0.928 -0.954,-1.378 -2.392,-1.421 0,0 0.77,-0.594 1.355,-0.505 0.93,0.143 0.777,0.822 2.175,1.471 C -2.326,1.163 0,0 0,0"
             style="fill:#2e353d;fill-opacity:1;fill-rule:nonzero;stroke:none"
             id="path724" />
        </g>
        <g
           id="g726"
           transform="translate(338.7715,365.7446)">
          <path
             d="M 0,0 C 0,0 -1.329,1.304 -1.941,1.283 -3.654,1.227 -4.934,0.54 -6.219,0.146 c -1.285,-0.393 -2.177,-2.071 -2.436,-3.232 0,0 1.081,1.545 2.662,1.958 C -4.604,-0.766 -3.618,-0.473 0,0"
             style="fill:#2e353d;fill-opacity:1;fill-rule:nonzero;stroke:none"
             id="path728" />
        </g>
        <g
           id="g730"
           transform="translate(334.7002,357.3726)">
          <path
             d="M 0,0 C 0,0 1.38,-0.156 2.817,0.675 2.817,0.675 2.038,-1.802 0,0"
             style="fill:#fdaf99;fill-opacity:1;fill-rule:nonzero;stroke:none"
             id="path732" />
        </g>
        <g
           id="g734"
           transform="translate(350.6084,361.9697)">
          <path
             d="m 0,0 c 0,0 -1.03,-0.908 -2.695,-1.045 0,0 2.116,-1.574 2.695,1.045"
             style="fill:#fdaf99;fill-opacity:1;fill-rule:nonzero;stroke:none"
             id="path736" />
        </g>
        <g
           id="g738"
           transform="translate(342.1172,349.9116)">
          <path
             d="m 0,0 c -0.213,-0.326 -0.841,-0.795 -1.121,-0.877 0,0 1.152,-0.053 2.431,0.078 0.991,0.102 1.711,0.502 2.516,0.858 1.291,0.571 2.156,1.43 2.156,1.43 0,0 -1.555,-0.18 -2.628,0.081 C 2.28,1.831 0,0 0,0"
             style="fill:#ee6191;fill-opacity:1;fill-rule:nonzero;stroke:none"
             id="path740" />
        </g>
        <g
           id="g742"
           transform="translate(342.2705,350.5654)">
          <path
             d="m 0,0 c 0.453,0.722 0.935,0.883 1.244,0.989 0.35,0.022 0.669,0.115 0.981,0.27 0.561,0.333 1.237,0.27 1.599,0.122 1.257,-0.515 2.005,-0.546 2.005,-0.546 0,0 -0.526,-0.214 -1.248,-0.283 C 3.927,0.489 3.911,0.544 3.354,0.48 2.912,0.43 2.693,0.474 2.148,0.32 1.33,0.089 1.282,0.034 0.604,-0.447 c -0.72,-0.51 -1.253,-0.871 -1.878,-1.084 0,0 0.428,0.181 1.274,1.531"
             style="fill:#ee6191;fill-opacity:1;fill-rule:nonzero;stroke:none"
             id="path744" />
        </g>
        <g
           id="g746"
           transform="translate(341.749,349.1665)">
          <path
             d="m 0,0 c 0.474,0.157 0.895,0.436 1.729,0.817 0.896,0.411 1.51,0.562 2.017,0.635 0.804,0.116 1.733,0.541 1.733,0.541 0,0 -0.884,-0.305 -1.999,-0.25 C 2.605,1.785 1.81,1.559 0.837,0.59 0.433,0.187 0,0 0,0"
             style="fill:#ca5072;fill-opacity:1;fill-rule:nonzero;stroke:none"
             id="path748" />
        </g>
        <g
           id="g750"
           transform="translate(341.8115,361.79)">
          <path
             d="m 0,0 c -0.365,-3.515 -0.535,-4.782 -1.321,-6.548 -0.786,-1.767 0.041,-1.694 0.969,-2.081 0.484,-0.202 1.551,-0.309 1.494,-0.04 0,0 -1.276,0.874 -1.372,1.212 -0.192,0.676 0.225,1.607 0.417,2.799 C 0.378,-3.467 0,0 0,0"
             style="fill:#fda086;fill-opacity:1;fill-rule:nonzero;stroke:none"
             id="path752" />
        </g>
        <g
           id="g754"
           transform="translate(334.2998,374.3525)">
          <path
             d="m 0,0 c 0,0 9.54,-7.978 24.22,-5.804 0,0 3.697,5.636 -0.623,16.321 C 19.276,21.201 8.085,16.154 6.413,15.349 4.741,14.544 0,0 0,0"
             style="fill:#5d100a;fill-opacity:1;fill-rule:nonzero;stroke:none"
             id="path756" />
        </g>
        <g
           id="g758"
           transform="translate(341.6602,379.1016)">
          <path
             d="m 0,0 -7.36,-4.749 c 0,0 -3.703,-11.265 -5.758,-12.748 0,0 -2.974,4.477 -1.707,12.577 C -13.84,1.381 -7.596,9.514 -0.947,10.6 5.701,11.687 0,0 0,0"
             style="fill:#5d100a;fill-opacity:1;fill-rule:nonzero;stroke:none"
             id="path760" />
        </g>
        <g
           id="g762"
           transform="translate(362.8252,361.3687)">
          <path
             d="m 0,0 c 0.987,-0.231 1.73,-1.23 1.73,-2.427 0,-1.368 -0.97,-2.477 -2.167,-2.477 -1.197,0 -2.167,1.109 -2.167,2.477 0,1.106 0.634,2.043 1.51,2.361"
             style="fill:none;stroke:#fda059;stroke-width:0.5;stroke-linecap:round;stroke-linejoin:round;stroke-miterlimit:10;stroke-dasharray:none;stroke-opacity:1"
             id="path764" />
        </g>
        <g
           id="g766"
           transform="translate(347.9893,391.5356)">
          <path
             d="M 0,0 C 4.824,0.458 9.504,-2.134 13.507,-5.388"
             style="fill:none;stroke:#fda059;stroke-width:0.75;stroke-linecap:round;stroke-linejoin:round;stroke-miterlimit:10;stroke-dasharray:none;stroke-opacity:1"
             id="path768" />
        </g>
        <g
           id="g770"
           transform="translate(363.041,387.9575)">
          <path
             d="m 0,0 c -2.475,-0.09 -5.497,0.896 -8.096,1.552 -2.422,0.612 -5.73,1.924 -7.587,3.882"
             style="fill:none;stroke:#fda059;stroke-width:0.75;stroke-linecap:round;stroke-linejoin:round;stroke-miterlimit:10;stroke-dasharray:none;stroke-opacity:1"
             id="path772" />
        </g>
        <g
           id="g774"
           transform="translate(333.2129,375.3491)">
          <path
             d="M 0,0 C 0,0 6.827,-11.679 24.704,-6.738"
             style="fill:none;stroke:#5d100a;stroke-width:0.25;stroke-linecap:butt;stroke-linejoin:miter;stroke-miterlimit:10;stroke-dasharray:none;stroke-opacity:1"
             id="path776" />
        </g>
        <g
           id="g778"
           transform="translate(353.6641,240.7393)">
          <path
             d="m 0,0 c 0.09,-4.654 1.475,-6.366 1.85,-8.151 0.376,-1.786 5.425,-6.125 6.991,-7.293 1.566,-1.168 4.409,-1.1 6.238,-0.416 1.83,0.684 8.526,3.597 10.128,5.627 1.602,2.028 9.674,12.528 9.674,12.528 C 32.368,2.338 22.347,-0.206 19.812,-1.42 17.277,-2.633 13.179,-3.781 12.562,-4.796 11.944,-5.81 10.844,-9.117 9.853,-9.448 8.86,-9.779 6.28,-6.893 5.288,-6.122 4.296,-5.351 4.063,-3.395 3.208,-1.243 2.353,0.909 -0.04,2.068 0,0"
             style="fill:#fec1b2;fill-opacity:1;fill-rule:nonzero;stroke:none"
             id="path780" />
        </g>
        <g
           id="g782"
           transform="translate(379.8447,331.0342)">
          <path
             d="M 0,0 C 4.381,-0.839 7.234,-2.75 13.201,-11.655 18.746,-19.932 29.456,-45.066 31.434,-52.932 33.41,-60.797 30.295,-61 24.156,-69.477 18.017,-77.954 1.725,-95.353 1.039,-97.673 l -6.646,7.874 c 0,0 9.827,15.236 12.337,22.364 2.511,7.128 6.922,15.995 6.922,15.995 0,0 -9.108,9.958 -14.66,16.916 -3.441,4.312 -6.015,14.893 -6.196,20.855 C -7.389,-7.574 -7.191,1.376 0,0"
             style="fill:#fec1b2;fill-opacity:1;fill-rule:nonzero;stroke:none"
             id="path784" />
        </g>
        <g
           id="g786"
           transform="translate(301.8437,253.2773)">
          <path
             d="m 0,0 c -0.336,-1.518 -1.023,-5.041 -0.708,-7.359 0.235,-1.725 0.073,-5.857 1.265,-6.533 1.191,-0.675 4.843,-2.611 6.311,-3.276 1.469,-0.665 7.043,-1.112 8.152,-1.07 1.107,0.043 0.746,2.249 -1.503,2.995 -2.248,0.746 -5.081,0.632 -5.42,0.786 -0.339,0.153 -2.645,3.193 -3.221,3.727 -0.575,0.532 0.161,5.145 0.673,6.275 C 6.061,-3.326 2.83,2.766 2.83,2.766 Z"
             style="fill:#fec1b2;fill-opacity:1;fill-rule:nonzero;stroke:none"
             id="path788" />
        </g>
        <g
           id="g790"
           transform="translate(362.0244,235.0469)">
          <path
             d="m 0,0 -57.577,22.791 1.459,4.366 L 1.459,3.366 Z"
             style="fill:#ffd913;fill-opacity:1;fill-rule:nonzero;stroke:none"
             id="path792" />
        </g>
        <g
           id="g794"
           transform="translate(314.3691,231.9941)">
          <path
             d="M 0,0 71.206,30.605 69.734,35.488 -2.354,3.958 C -1.47,2.681 -0.692,1.363 0,0"
             style="fill:#ffd913;fill-opacity:1;fill-rule:nonzero;stroke:none"
             id="path796" />
        </g>
        <g
           id="g798"
           transform="translate(376.9502,241.3916)">
          <path
             d="m 0,0 c -4.232,-0.215 -10.019,2.053 -12.113,1.936 -2.095,-0.118 -5.115,0.175 -7.624,-0.345 -1.924,-0.4 -3.887,-0.876 -3.549,-2.243 0.198,-0.802 1.85,-1.564 3.208,-1.244 1.358,0.322 3.11,-0.898 4.982,-1.588 1.872,-0.691 2.898,-3.012 6.584,-4.03 3.686,-1.016 9.079,3.58 9.079,3.58 z"
             style="fill:#fec1b2;fill-opacity:1;fill-rule:nonzero;stroke:none"
             id="path800" />
        </g>
        <g
           id="g802"
           transform="translate(316.332,239.4941)">
          <path
             d="m 0,0 c -0.459,2.071 -2.382,5.236 -2.667,8.518 -0.271,3.11 -0.709,4.939 -2.028,7.167 -1.321,2.228 -2.745,2.476 -2.435,6.761 0.211,2.908 1.932,13.429 1.234,17.138 0,0 -11.349,-9.806 -12.399,-11.654 0.455,-3.639 3.807,-14.147 3.807,-14.147 0,0 1.824,-6.579 4.518,-8.375 1.623,-1.082 3.487,-2.238 4.682,-3.712 1.196,-1.473 1.903,-5.054 3.625,-5.369 C 0.059,-3.986 0.46,-2.072 0,0"
             style="fill:#fec1b2;fill-opacity:1;fill-rule:nonzero;stroke:none"
             id="path804" />
        </g>
        <g
           id="g806"
           transform="translate(316.6035,236.2783)">
          <path
             d="m 0,0 c -1.439,-0.547 -3.355,1.123 -4.229,-0.397 -0.875,-1.52 -1.54,-5.265 -1.366,-13.945 0.134,-6.723 1.791,-35.795 1.791,-35.795 l 4.349,0.774 c 0,0 -2.336,32.426 -2.364,37.015 C -1.849,-7.758 0,0 0,0"
             style="fill:#ffd913;fill-opacity:1;fill-rule:nonzero;stroke:none"
             id="path808" />
        </g>
        <g
           id="g810"
           transform="translate(306.0576,54.2715)">
          <path
             d="m 0,0 c 1.243,1.423 6.809,7.195 7.859,9.045 1.052,1.849 2.282,2.741 4.671,2.884 2.389,0.141 4.26,-0.482 3.018,-4.038 C 14.306,4.335 10.896,0.996 9.366,-0.284 7.837,-1.564 0,0 0,0"
             style="fill:#1e4057;fill-opacity:1;fill-rule:nonzero;stroke:none"
             id="path812" />
        </g>
        <g
           id="g814"
           transform="translate(331.1504,53.2959)">
          <path
             d="m 0,0 c -2.413,2.012 -10.262,-1.046 -15.671,-1.108 -10.047,-0.117 -20.657,-3.167 -20.657,-3.167 0,0 -0.971,-2.327 2.017,-2.327 H 0.164 c 0,0 3.825,3.277 -0.164,6.602"
             style="fill:#1e4057;fill-opacity:1;fill-rule:nonzero;stroke:none"
             id="path816" />
        </g>
        <g
           id="g818"
           transform="translate(329.1562,62.9541)">
          <path
             d="m 0,0 c -0.617,2.321 -3.385,-2.101 -8.055,-0.082 -1.631,-2.244 -5.497,-6.778 -5.921,-6.417 -1.114,0.952 -8.945,1.683 -14.66,-2.367 -4.558,-3.232 -5.698,-5.068 -5.698,-5.068 0,0 17.883,1.086 23.879,1.434 11.268,0.653 12.449,2.842 12.449,2.842 0,0 1.017,1.369 -0.459,5.837 C 1.316,-3.158 0.24,-0.907 0,0"
             style="fill:#346e94;fill-opacity:1;fill-rule:nonzero;stroke:none"
             id="path820" />
        </g>
        <g
           id="g822"
           transform="translate(307.0352,54.9258)">
          <path
             d="M 0,0 C 1.333,1.479 4.89,5.176 6.135,6.531 7.379,7.888 8.18,9.243 8.18,9.243 L 6.757,9.736 c 0,0 -1.956,-2.465 -3.735,-4.56 -1.778,-2.095 -4.889,-4.56 -4.889,-4.56 z"
             style="fill:#346e94;fill-opacity:1;fill-rule:nonzero;stroke:none"
             id="path824" />
        </g>
        <g
           id="g826"
           transform="translate(318.6523,57.209)">
          <path
             d="M 0,0 C -2.242,2.891 -5.57,4.592 -8.87,3.6"
             style="fill:none;stroke:#ffffff;stroke-width:0.5;stroke-linecap:round;stroke-linejoin:round;stroke-miterlimit:10;stroke-dasharray:none;stroke-opacity:1"
             id="path828" />
        </g>
        <g
           id="g830"
           transform="translate(316.0605,54.7598)">
          <path
             d="M 0,0 C -2.011,2.589 -4.887,4.256 -7.894,3.818"
             style="fill:none;stroke:#ffffff;stroke-width:0.5;stroke-linecap:round;stroke-linejoin:round;stroke-miterlimit:10;stroke-dasharray:none;stroke-opacity:1"
             id="path832" />
        </g>
        <g
           id="g834"
           transform="translate(321.5596,59.5195)">
          <path
             d="M 0,0 C -2.894,3.738 -6.858,4.89 -10.306,2.991"
             style="fill:none;stroke:#ffffff;stroke-width:0.5;stroke-linecap:round;stroke-linejoin:round;stroke-miterlimit:10;stroke-dasharray:none;stroke-opacity:1"
             id="path836" />
        </g>
        <g
           id="g838"
           transform="translate(322.9336,62.9385)">
          <path
             d="M 0,0 C 0.328,-0.158 0.66,-0.341 0.911,-0.663 1.161,-0.986 1.315,-1.481 1.209,-1.924 1.09,-2.425 0.671,-2.713 0.275,-2.727 -0.12,-2.741 -0.5,-2.54 -0.866,-2.342 -2.683,-1.36 -6.637,0.86 -6.637,0.86 -6.637,0.86 -1.938,1.003 0,0 Z"
             style="fill:none;stroke:#ffffff;stroke-width:0.5;stroke-linecap:round;stroke-linejoin:round;stroke-miterlimit:10;stroke-dasharray:none;stroke-opacity:1"
             id="path840" />
        </g>
        <g
           id="g842"
           transform="translate(313.0781,65.1953)">
          <path
             d="m 0,0 c -0.381,0.123 -0.851,0.183 -1.101,-0.219 -0.336,-0.54 0.056,-1.369 0.524,-1.692 0.514,-0.355 3.594,0.514 3.594,0.514 0,0 -2.478,1.223 -3.017,1.397 z"
             style="fill:none;stroke:#ffffff;stroke-width:0.5;stroke-linecap:round;stroke-linejoin:round;stroke-miterlimit:10;stroke-dasharray:none;stroke-opacity:1"
             id="path844" />
        </g>
        <g
           id="g846"
           transform="translate(316.6377,63.0645)">
          <path
             d="M 0,0 C 1.362,-2.77 2.034,-6.13 1.886,-9.435"
             style="fill:none;stroke:#ffffff;stroke-width:0.5;stroke-linecap:round;stroke-linejoin:round;stroke-miterlimit:10;stroke-dasharray:none;stroke-opacity:1"
             id="path848" />
        </g>
        <g
           id="g850"
           transform="translate(314.9082,57.4443)">
          <path
             d="M 0,0 C -0.133,1.362 0.682,5.354 1.389,6.354"
             style="fill:none;stroke:#ffffff;stroke-width:0.5;stroke-linecap:round;stroke-linejoin:round;stroke-miterlimit:10;stroke-dasharray:none;stroke-opacity:1"
             id="path852" />
        </g>
        <g
           id="g854"
           transform="translate(356.5439,54.2715)">
          <path
             d="m 0,0 c 1.242,1.423 6.808,7.195 7.859,9.045 1.051,1.849 2.282,2.741 4.67,2.884 2.39,0.141 4.261,-0.482 3.018,-4.038 C 14.305,4.335 10.895,0.996 9.365,-0.284 7.837,-1.564 0,0 0,0"
             style="fill:#1e4057;fill-opacity:1;fill-rule:nonzero;stroke:none"
             id="path856" />
        </g>
        <g
           id="g858"
           transform="translate(381.6367,53.2959)">
          <path
             d="m 0,0 c -2.413,2.012 -10.262,-1.046 -15.672,-1.108 -10.046,-0.117 -20.657,-3.167 -20.657,-3.167 0,0 -0.97,-2.327 2.018,-2.327 H 0.164 c 0,0 3.824,3.277 -0.164,6.602"
             style="fill:#1e4057;fill-opacity:1;fill-rule:nonzero;stroke:none"
             id="path860" />
        </g>
        <g
           id="g862"
           transform="translate(379.6416,62.9541)">
          <path
             d="m 0,0 c -0.616,2.321 -3.384,-2.101 -8.055,-0.082 -1.63,-2.244 -5.497,-6.778 -5.921,-6.417 -1.114,0.952 -8.944,1.683 -14.659,-2.367 -4.559,-3.232 -5.699,-5.068 -5.699,-5.068 0,0 17.884,1.086 23.88,1.434 11.268,0.653 12.449,2.842 12.449,2.842 0,0 1.016,1.369 -0.46,5.837 C 1.316,-3.158 0.241,-0.907 0,0"
             style="fill:#346e94;fill-opacity:1;fill-rule:nonzero;stroke:none"
             id="path864" />
        </g>
        <g
           id="g866"
           transform="translate(357.5205,54.9258)">
          <path
             d="M 0,0 C 1.334,1.479 4.891,5.176 6.135,6.531 7.38,7.888 8.18,9.243 8.18,9.243 L 6.758,9.736 c 0,0 -1.956,-2.465 -3.735,-4.56 -1.778,-2.095 -4.89,-4.56 -4.89,-4.56 z"
             style="fill:#346e94;fill-opacity:1;fill-rule:nonzero;stroke:none"
             id="path868" />
        </g>
        <g
           id="g870"
           transform="translate(369.1387,57.209)">
          <path
             d="M 0,0 C -2.242,2.891 -5.571,4.592 -8.871,3.6"
             style="fill:none;stroke:#ffffff;stroke-width:0.5;stroke-linecap:round;stroke-linejoin:round;stroke-miterlimit:10;stroke-dasharray:none;stroke-opacity:1"
             id="path872" />
        </g>
        <g
           id="g874"
           transform="translate(366.5469,54.7598)">
          <path
             d="M 0,0 C -2.012,2.589 -4.887,4.256 -7.894,3.818"
             style="fill:none;stroke:#ffffff;stroke-width:0.5;stroke-linecap:round;stroke-linejoin:round;stroke-miterlimit:10;stroke-dasharray:none;stroke-opacity:1"
             id="path876" />
        </g>
        <g
           id="g878"
           transform="translate(372.0459,59.5195)">
          <path
             d="M 0,0 C -2.894,3.738 -6.858,4.89 -10.306,2.991"
             style="fill:none;stroke:#ffffff;stroke-width:0.5;stroke-linecap:round;stroke-linejoin:round;stroke-miterlimit:10;stroke-dasharray:none;stroke-opacity:1"
             id="path880" />
        </g>
        <g
           id="g882"
           transform="translate(373.4189,62.9385)">
          <path
             d="M 0,0 C 0.328,-0.158 0.66,-0.341 0.911,-0.663 1.162,-0.986 1.315,-1.481 1.21,-1.924 1.09,-2.425 0.672,-2.713 0.276,-2.727 -0.119,-2.741 -0.499,-2.54 -0.865,-2.342 -2.683,-1.36 -6.636,0.86 -6.636,0.86 -6.636,0.86 -1.938,1.003 0,0 Z"
             style="fill:none;stroke:#ffffff;stroke-width:0.5;stroke-linecap:round;stroke-linejoin:round;stroke-miterlimit:10;stroke-dasharray:none;stroke-opacity:1"
             id="path884" />
        </g>
        <g
           id="g886"
           transform="translate(363.5645,65.1953)">
          <path
             d="m 0,0 c -0.381,0.123 -0.851,0.183 -1.102,-0.219 -0.335,-0.54 0.056,-1.369 0.524,-1.692 0.514,-0.355 3.595,0.514 3.595,0.514 0,0 -2.479,1.223 -3.017,1.397 z"
             style="fill:none;stroke:#ffffff;stroke-width:0.5;stroke-linecap:round;stroke-linejoin:round;stroke-miterlimit:10;stroke-dasharray:none;stroke-opacity:1"
             id="path888" />
        </g>
        <g
           id="g890"
           transform="translate(367.123,63.0645)">
          <path
             d="M 0,0 C 1.363,-2.77 2.035,-6.13 1.887,-9.435"
             style="fill:none;stroke:#ffffff;stroke-width:0.5;stroke-linecap:round;stroke-linejoin:round;stroke-miterlimit:10;stroke-dasharray:none;stroke-opacity:1"
             id="path892" />
        </g>
        <g
           id="g894"
           transform="translate(365.3936,57.4443)">
          <path
             d="M 0,0 C -0.132,1.362 0.683,5.354 1.39,6.354"
             style="fill:none;stroke:#ffffff;stroke-width:0.5;stroke-linecap:round;stroke-linejoin:round;stroke-miterlimit:10;stroke-dasharray:none;stroke-opacity:1"
             id="path896" />
        </g>
        <g
           id="g898"
           transform="translate(419.0762,105.8584)">
          <path
             d="m 0,0 c 4.568,4.036 15.632,8.232 15.632,8.232 0,0 -6.847,-8.03 -11.767,-13.076 -4.92,-5.045 -9.664,-7.87 -9.664,-7.87 0,0 1.23,8.678 5.799,12.714"
             style="fill:#3a7f75;fill-opacity:1;fill-rule:nonzero;stroke:none"
             id="path900" />
        </g>
        <g
           id="g902"
           transform="translate(412.6445,149.0186)">
          <path
             d="m 0,0 c 0.401,6.36 5.843,16.373 9.469,22.064 3.627,5.691 6.842,12.303 6.842,12.303 0,0 -2.059,-17.524 -4.2,-26.01 C 9.971,-0.129 2.603,-7.711 0.096,-12.368 0.096,-12.368 -0.401,-6.36 0,0"
             style="fill:#71b0a8;fill-opacity:1;fill-rule:nonzero;stroke:none"
             id="path904" />
        </g>
        <g
           id="g906"
           transform="translate(409.6387,163.499)">
          <path
             d="m 0,0 c 0.307,7.261 -0.098,12.641 5.693,26.147 2.642,6.161 15.129,21.285 15.129,21.285 0,0 -4.529,-18.12 -8.154,-30.618 C 9.043,4.317 2.64,-3.507 0.515,-11.136 0.515,-11.136 -0.143,-3.393 0,0"
             style="fill:#4a9087;fill-opacity:1;fill-rule:nonzero;stroke:none"
             id="path908" />
        </g>
        <g
           id="g910"
           transform="translate(389.9932,125.501)">
          <path
             d="m 0,0 c -2.601,3.705 -13.795,10.798 -13.795,10.798 0,0 5.183,-11.499 9.224,-19.274 4.041,-7.774 9.022,-10.894 11.407,-15.668 0,0 2.814,10.395 -6.836,24.144"
             style="fill:#4a9087;fill-opacity:1;fill-rule:nonzero;stroke:none"
             id="path912" />
        </g>
        <g
           id="g914"
           transform="translate(405.8809,121.5029)">
          <path
             d="m 0,0 c 0,0 -0.479,19.548 -2.226,28.061 -1.745,8.513 -6.396,19.788 -8.746,23.705 l -2.348,3.918 c 0,0 -0.341,-23.28 2.32,-31.811 C -8.339,15.342 0,0 0,0"
             style="fill:#3a7c74;fill-opacity:1;fill-rule:nonzero;stroke:none"
             id="path916" />
        </g>
        <g
           id="g918"
           transform="translate(423.7998,129.623)">
          <path
             d="m 0,0 c 2.312,10.334 2.227,18.769 2.227,18.769 0,0 -11.021,-16.681 -13.986,-27.914 -2.614,-9.904 -2.578,-16.682 -4.968,-22.206 0,0 12.263,11.389 16.727,31.351"
             style="fill:#55968e;fill-opacity:1;fill-rule:nonzero;stroke:none"
             id="path920" />
        </g>
        <g
           id="g922"
           transform="translate(399.1602,204.5117)">
          <path
             d="M 0,0 C 0,0 -1.198,-16.823 0.346,-27.078 1.889,-37.332 9.295,-51.484 9.295,-51.484 8.5,-43.315 10.246,-41.083 8.782,-26.867 7.816,-17.495 0,0 0,0"
             style="fill:#6caba3;fill-opacity:1;fill-rule:nonzero;stroke:none"
             id="path924" />
        </g>
        <g
           id="g926"
           transform="translate(405.7959,85.0186)">
          <path
             d="M 0,0 C 2.374,68.965 5.955,86.677 17.149,110.814"
             style="fill:none;stroke:#366962;stroke-width:0.75;stroke-linecap:butt;stroke-linejoin:miter;stroke-miterlimit:10;stroke-dasharray:none;stroke-opacity:1"
             id="path928" />
        </g>
        <g
           id="g930"
           transform="translate(400.6904,121.8975)">
          <path
             d="m 0,0 c -0.232,6.349 0.226,11.029 -5.421,23.026 -2.575,5.472 -14.89,19.12 -14.89,19.12 0,0 4.34,-15.978 7.833,-27.016 3.494,-11.037 9.808,-18.096 11.853,-24.831 0,0 0.734,6.735 0.625,9.701"
             style="fill:#6caba3;fill-opacity:1;fill-rule:nonzero;stroke:none"
             id="path932" />
        </g>
        <g
           id="g934"
           transform="translate(403.7363,53.2588)">
          <path
             d="M 0,0 C -1.675,60.28 -5.071,75.868 -16.005,97.338"
             style="fill:none;stroke:#366962;stroke-width:0.75;stroke-linecap:butt;stroke-linejoin:miter;stroke-miterlimit:10;stroke-dasharray:none;stroke-opacity:1"
             id="path936" />
        </g>
        <g
           id="g938"
           transform="translate(407.7275,126.5049)">
          <path
             d="M 0,0 C 3.543,6.813 12.811,31.073 16.354,39.796"
             style="fill:none;stroke:#366962;stroke-width:0.75;stroke-linecap:butt;stroke-linejoin:miter;stroke-miterlimit:10;stroke-dasharray:none;stroke-opacity:1"
             id="path940" />
        </g>
        <g
           id="g942"
           transform="translate(408.9277,140.4297)">
          <path
             d="M 0,0 C 1.069,11.548 -3.614,31.631 -4.432,35.992"
             style="fill:none;stroke:#366962;stroke-width:0.75;stroke-linecap:butt;stroke-linejoin:miter;stroke-miterlimit:10;stroke-dasharray:none;stroke-opacity:1"
             id="path944" />
        </g>
        <g
           id="g946"
           transform="translate(406.8965,109.6006)">
          <path
             d="M 0,0 C -0.427,14.482 -5.919,34.138 -7.885,40.252"
             style="fill:none;stroke:#366962;stroke-width:0.75;stroke-linecap:butt;stroke-linejoin:miter;stroke-miterlimit:10;stroke-dasharray:none;stroke-opacity:1"
             id="path948" />
        </g>
        <g
           id="g950"
           transform="translate(417.9521,125.8369)">
          <path
             d="M 0,0 C -3.146,-10.297 -10.524,-25.842 -11.811,-33.958"
             style="fill:none;stroke:#366962;stroke-width:0.75;stroke-linecap:butt;stroke-linejoin:miter;stroke-miterlimit:10;stroke-dasharray:none;stroke-opacity:1"
             id="path952" />
        </g>
        <g
           id="g954"
           transform="translate(387.8096,121.1494)">
          <path
             d="M 0,0 C 4.391,-6.925 12.129,-22.296 14.522,-38.666"
             style="fill:none;stroke:#366962;stroke-width:0.75;stroke-linecap:butt;stroke-linejoin:miter;stroke-miterlimit:10;stroke-dasharray:none;stroke-opacity:1"
             id="path956" />
        </g>
        <g
           id="g958"
           transform="translate(406.0723,71.292)">
          <path
             d="M 0,0 C 3.351,17.668 6.524,23.056 18.271,35.672"
             style="fill:none;stroke:#366962;stroke-width:0.75;stroke-linecap:butt;stroke-linejoin:miter;stroke-miterlimit:10;stroke-dasharray:none;stroke-opacity:1"
             id="path960" />
        </g>
        <g
           id="g962"
           transform="translate(391.542,45.4141)">
          <path
             d="m 0,0 h 28.509 l 4.705,53.435 H -4.705 Z"
             style="fill:#9ba9bd;fill-opacity:1;fill-rule:nonzero;stroke:none"
             id="path964" />
        </g>
        <path
           d="m 383.242,92.093 h 45.108 v 7.584 h -45.108 z"
           style="fill:#c8d5e8;fill-opacity:1;fill-rule:nonzero;stroke:none"
           id="path966" />
      </g>
    </g>
  </g>
</svg>
