<?xml version="1.0" encoding="utf-8"?>
<!-- Generator: Adobe Illustrator 27.5.0, SVG Export Plug-In . SVG Version: 6.00 Build 0)  -->
<svg version="1.1" xmlns="http://www.w3.org/2000/svg" xmlns:xlink="http://www.w3.org/1999/xlink" x="0px" y="0px"
	 viewBox="0 0 500 500" style="enable-background:new 0 0 500 500;" xml:space="preserve">
<g id="Background_Simple">
	<g>
		<path style="fill:#92E3A9;" d="M428.881,54.509c0,0-72.065-57.898-186.014-45.58S116.219,147.938,86.844,180.68
			c-29.375,32.742-81.73,90.025-65.715,168.249c16.015,78.225,114.565,155.833,245.761,130.58s110.972-88.389,141.77-140.129
			C439.455,287.641,556.997,185.705,428.881,54.509z"/>
		<path style="opacity:0.7;fill:#FFFFFF;" d="M428.881,54.509c0,0-72.065-57.898-186.014-45.58S116.219,147.938,86.844,180.68
			c-29.375,32.742-81.73,90.025-65.715,168.249c16.015,78.225,114.565,155.833,245.761,130.58s110.972-88.389,141.77-140.129
			C439.455,287.641,556.997,185.705,428.881,54.509z"/>
	</g>
</g>
<g id="Floor_1_">
	
		<line style="fill:none;stroke:#263238;stroke-linecap:round;stroke-linejoin:round;stroke-miterlimit:10;" x1="31.586" y1="429.582" x2="464.958" y2="429.582"/>
</g>
<g id="Tiles">
	<g>
		<g style="opacity:0.15;">
			<path style="fill:none;stroke:#000000;stroke-linecap:round;stroke-linejoin:round;stroke-miterlimit:10;" d="M86.72,85.666
				H65.927c-2.698,0-4.885-2.187-4.885-4.885V58.717c0-2.698,2.187-4.885,4.885-4.885H86.72c2.698,0,4.885,2.187,4.885,4.885v22.064
				C91.605,83.479,89.418,85.666,86.72,85.666z"/>
			<path style="fill:none;stroke:#000000;stroke-linecap:round;stroke-linejoin:round;stroke-miterlimit:10;" d="M119.081,85.666
				H98.288c-2.698,0-4.885-2.187-4.885-4.885V58.717c0-2.698,2.187-4.885,4.885-4.885h20.793c2.698,0,4.885,2.187,4.885,4.885
				v22.064C123.966,83.479,121.779,85.666,119.081,85.666z"/>
			<path style="fill:none;stroke:#000000;stroke-linecap:round;stroke-linejoin:round;stroke-miterlimit:10;" d="M151.443,85.666
				h-20.794c-2.698,0-4.885-2.187-4.885-4.885V58.717c0-2.698,2.187-4.885,4.885-4.885h20.794c2.698,0,4.885,2.187,4.885,4.885
				v22.064C156.328,83.479,154.141,85.666,151.443,85.666z"/>
			<path style="fill:none;stroke:#000000;stroke-linecap:round;stroke-linejoin:round;stroke-miterlimit:10;" d="M183.804,85.666
				H163.01c-2.698,0-4.885-2.187-4.885-4.885V58.717c0-2.698,2.187-4.885,4.885-4.885h20.794c2.698,0,4.885,2.187,4.885,4.885
				v22.064C188.689,83.479,186.502,85.666,183.804,85.666z"/>
			<path style="fill:none;stroke:#000000;stroke-linecap:round;stroke-linejoin:round;stroke-miterlimit:10;" d="M216.165,85.666
				h-20.794c-2.698,0-4.885-2.187-4.885-4.885V58.717c0-2.698,2.187-4.885,4.885-4.885h20.794c2.698,0,4.885,2.187,4.885,4.885
				v22.064C221.05,83.479,218.863,85.666,216.165,85.666z"/>
			<path style="fill:none;stroke:#000000;stroke-linecap:round;stroke-linejoin:round;stroke-miterlimit:10;" d="M248.526,85.666
				h-20.793c-2.698,0-4.885-2.187-4.885-4.885V58.717c0-2.698,2.187-4.885,4.885-4.885h20.793c2.698,0,4.885,2.187,4.885,4.885
				v22.064C253.411,83.479,251.224,85.666,248.526,85.666z"/>
			<path style="fill:none;stroke:#000000;stroke-linecap:round;stroke-linejoin:round;stroke-miterlimit:10;" d="M280.888,85.666
				h-20.794c-2.698,0-4.885-2.187-4.885-4.885V58.717c0-2.698,2.187-4.885,4.885-4.885h20.794c2.698,0,4.885,2.187,4.885,4.885
				v22.064C285.773,83.479,283.586,85.666,280.888,85.666z"/>
			<path style="fill:none;stroke:#000000;stroke-linecap:round;stroke-linejoin:round;stroke-miterlimit:10;" d="M313.249,85.666
				h-20.793c-2.698,0-4.885-2.187-4.885-4.885V58.717c0-2.698,2.187-4.885,4.885-4.885h20.793c2.698,0,4.885,2.187,4.885,4.885
				v22.064C318.134,83.479,315.947,85.666,313.249,85.666z"/>
			<path style="fill:none;stroke:#000000;stroke-linecap:round;stroke-linejoin:round;stroke-miterlimit:10;" d="M345.61,85.666
				h-20.794c-2.698,0-4.885-2.187-4.885-4.885V58.717c0-2.698,2.187-4.885,4.885-4.885h20.794c2.698,0,4.885,2.187,4.885,4.885
				v22.064C350.495,83.479,348.308,85.666,345.61,85.666z"/>
			<path style="fill:none;stroke:#000000;stroke-linecap:round;stroke-linejoin:round;stroke-miterlimit:10;" d="M377.971,85.666
				h-20.793c-2.698,0-4.885-2.187-4.885-4.885V58.717c0-2.698,2.187-4.885,4.885-4.885h20.793c2.698,0,4.885,2.187,4.885,4.885
				v22.064C382.856,83.479,380.669,85.666,377.971,85.666z"/>
			<path style="fill:none;stroke:#000000;stroke-linecap:round;stroke-linejoin:round;stroke-miterlimit:10;" d="M410.333,85.666
				h-20.794c-2.698,0-4.885-2.187-4.885-4.885V58.717c0-2.698,2.187-4.885,4.885-4.885h20.794c2.698,0,4.885,2.187,4.885,4.885
				v22.064C415.218,83.479,413.031,85.666,410.333,85.666z"/>
			<path style="fill:none;stroke:#000000;stroke-linecap:round;stroke-linejoin:round;stroke-miterlimit:10;" d="M442.694,85.666
				H421.9c-2.698,0-4.885-2.187-4.885-4.885V58.717c0-2.698,2.187-4.885,4.885-4.885h20.794c2.698,0,4.885,2.187,4.885,4.885v22.064
				C447.579,83.479,445.392,85.666,442.694,85.666z"/>
		</g>
		<g style="opacity:0.15;">
			<path style="fill:none;stroke:#000000;stroke-linecap:round;stroke-linejoin:round;stroke-miterlimit:10;" d="M86.72,119.825
				H65.927c-2.698,0-4.885-2.187-4.885-4.885V92.876c0-2.698,2.187-4.885,4.885-4.885H86.72c2.698,0,4.885,2.187,4.885,4.885v22.064
				C91.605,117.638,89.418,119.825,86.72,119.825z"/>
			<path style="fill:none;stroke:#000000;stroke-linecap:round;stroke-linejoin:round;stroke-miterlimit:10;" d="M119.081,119.825
				H98.288c-2.698,0-4.885-2.187-4.885-4.885V92.876c0-2.698,2.187-4.885,4.885-4.885h20.793c2.698,0,4.885,2.187,4.885,4.885
				v22.064C123.966,117.638,121.779,119.825,119.081,119.825z"/>
			<path style="fill:none;stroke:#000000;stroke-linecap:round;stroke-linejoin:round;stroke-miterlimit:10;" d="M151.443,119.825
				h-20.794c-2.698,0-4.885-2.187-4.885-4.885V92.876c0-2.698,2.187-4.885,4.885-4.885h20.794c2.698,0,4.885,2.187,4.885,4.885
				v22.064C156.328,117.638,154.141,119.825,151.443,119.825z"/>
			<path style="fill:none;stroke:#000000;stroke-linecap:round;stroke-linejoin:round;stroke-miterlimit:10;" d="M183.804,119.825
				H163.01c-2.698,0-4.885-2.187-4.885-4.885V92.876c0-2.698,2.187-4.885,4.885-4.885h20.794c2.698,0,4.885,2.187,4.885,4.885
				v22.064C188.689,117.638,186.502,119.825,183.804,119.825z"/>
			<path style="fill:none;stroke:#000000;stroke-linecap:round;stroke-linejoin:round;stroke-miterlimit:10;" d="M216.165,119.825
				h-20.794c-2.698,0-4.885-2.187-4.885-4.885V92.876c0-2.698,2.187-4.885,4.885-4.885h20.794c2.698,0,4.885,2.187,4.885,4.885
				v22.064C221.05,117.638,218.863,119.825,216.165,119.825z"/>
			<path style="fill:none;stroke:#000000;stroke-linecap:round;stroke-linejoin:round;stroke-miterlimit:10;" d="M248.526,119.825
				h-20.793c-2.698,0-4.885-2.187-4.885-4.885V92.876c0-2.698,2.187-4.885,4.885-4.885h20.793c2.698,0,4.885,2.187,4.885,4.885
				v22.064C253.411,117.638,251.224,119.825,248.526,119.825z"/>
			<path style="fill:none;stroke:#000000;stroke-linecap:round;stroke-linejoin:round;stroke-miterlimit:10;" d="M280.888,119.825
				h-20.794c-2.698,0-4.885-2.187-4.885-4.885V92.876c0-2.698,2.187-4.885,4.885-4.885h20.794c2.698,0,4.885,2.187,4.885,4.885
				v22.064C285.773,117.638,283.586,119.825,280.888,119.825z"/>
			<path style="fill:none;stroke:#000000;stroke-linecap:round;stroke-linejoin:round;stroke-miterlimit:10;" d="M313.249,119.825
				h-20.793c-2.698,0-4.885-2.187-4.885-4.885V92.876c0-2.698,2.187-4.885,4.885-4.885h20.793c2.698,0,4.885,2.187,4.885,4.885
				v22.064C318.134,117.638,315.947,119.825,313.249,119.825z"/>
			<path style="fill:none;stroke:#000000;stroke-linecap:round;stroke-linejoin:round;stroke-miterlimit:10;" d="M345.61,119.825
				h-20.794c-2.698,0-4.885-2.187-4.885-4.885V92.876c0-2.698,2.187-4.885,4.885-4.885h20.794c2.698,0,4.885,2.187,4.885,4.885
				v22.064C350.495,117.638,348.308,119.825,345.61,119.825z"/>
			<path style="fill:none;stroke:#000000;stroke-linecap:round;stroke-linejoin:round;stroke-miterlimit:10;" d="M377.971,119.825
				h-20.793c-2.698,0-4.885-2.187-4.885-4.885V92.876c0-2.698,2.187-4.885,4.885-4.885h20.793c2.698,0,4.885,2.187,4.885,4.885
				v22.064C382.856,117.638,380.669,119.825,377.971,119.825z"/>
			<path style="fill:none;stroke:#000000;stroke-linecap:round;stroke-linejoin:round;stroke-miterlimit:10;" d="M410.333,119.825
				h-20.794c-2.698,0-4.885-2.187-4.885-4.885V92.876c0-2.698,2.187-4.885,4.885-4.885h20.794c2.698,0,4.885,2.187,4.885,4.885
				v22.064C415.218,117.638,413.031,119.825,410.333,119.825z"/>
			<path style="fill:none;stroke:#000000;stroke-linecap:round;stroke-linejoin:round;stroke-miterlimit:10;" d="M442.694,119.825
				H421.9c-2.698,0-4.885-2.187-4.885-4.885V92.876c0-2.698,2.187-4.885,4.885-4.885h20.794c2.698,0,4.885,2.187,4.885,4.885v22.064
				C447.579,117.638,445.392,119.825,442.694,119.825z"/>
		</g>
		<g style="opacity:0.15;">
			<path style="fill:none;stroke:#000000;stroke-linecap:round;stroke-linejoin:round;stroke-miterlimit:10;" d="M86.72,153.984
				H65.927c-2.698,0-4.885-2.187-4.885-4.885v-22.064c0-2.698,2.187-4.885,4.885-4.885H86.72c2.698,0,4.885,2.187,4.885,4.885
				v22.064C91.605,151.797,89.418,153.984,86.72,153.984z"/>
			<path style="fill:none;stroke:#000000;stroke-linecap:round;stroke-linejoin:round;stroke-miterlimit:10;" d="M119.081,153.984
				H98.288c-2.698,0-4.885-2.187-4.885-4.885v-22.064c0-2.698,2.187-4.885,4.885-4.885h20.793c2.698,0,4.885,2.187,4.885,4.885
				v22.064C123.966,151.797,121.779,153.984,119.081,153.984z"/>
			<path style="fill:none;stroke:#000000;stroke-linecap:round;stroke-linejoin:round;stroke-miterlimit:10;" d="M151.443,153.984
				h-20.794c-2.698,0-4.885-2.187-4.885-4.885v-22.064c0-2.698,2.187-4.885,4.885-4.885h20.794c2.698,0,4.885,2.187,4.885,4.885
				v22.064C156.328,151.797,154.141,153.984,151.443,153.984z"/>
			<path style="fill:none;stroke:#000000;stroke-linecap:round;stroke-linejoin:round;stroke-miterlimit:10;" d="M183.804,153.984
				H163.01c-2.698,0-4.885-2.187-4.885-4.885v-22.064c0-2.698,2.187-4.885,4.885-4.885h20.794c2.698,0,4.885,2.187,4.885,4.885
				v22.064C188.689,151.797,186.502,153.984,183.804,153.984z"/>
			<path style="fill:none;stroke:#000000;stroke-linecap:round;stroke-linejoin:round;stroke-miterlimit:10;" d="M216.165,153.984
				h-20.794c-2.698,0-4.885-2.187-4.885-4.885v-22.064c0-2.698,2.187-4.885,4.885-4.885h20.794c2.698,0,4.885,2.187,4.885,4.885
				v22.064C221.05,151.797,218.863,153.984,216.165,153.984z"/>
			<path style="fill:none;stroke:#000000;stroke-linecap:round;stroke-linejoin:round;stroke-miterlimit:10;" d="M248.526,153.984
				h-20.793c-2.698,0-4.885-2.187-4.885-4.885v-22.064c0-2.698,2.187-4.885,4.885-4.885h20.793c2.698,0,4.885,2.187,4.885,4.885
				v22.064C253.411,151.797,251.224,153.984,248.526,153.984z"/>
			<path style="fill:none;stroke:#000000;stroke-linecap:round;stroke-linejoin:round;stroke-miterlimit:10;" d="M280.888,153.984
				h-20.794c-2.698,0-4.885-2.187-4.885-4.885v-22.064c0-2.698,2.187-4.885,4.885-4.885h20.794c2.698,0,4.885,2.187,4.885,4.885
				v22.064C285.773,151.797,283.586,153.984,280.888,153.984z"/>
			<path style="fill:none;stroke:#000000;stroke-linecap:round;stroke-linejoin:round;stroke-miterlimit:10;" d="M313.249,153.984
				h-20.793c-2.698,0-4.885-2.187-4.885-4.885v-22.064c0-2.698,2.187-4.885,4.885-4.885h20.793c2.698,0,4.885,2.187,4.885,4.885
				v22.064C318.134,151.797,315.947,153.984,313.249,153.984z"/>
			<path style="fill:none;stroke:#000000;stroke-linecap:round;stroke-linejoin:round;stroke-miterlimit:10;" d="M345.61,153.984
				h-20.794c-2.698,0-4.885-2.187-4.885-4.885v-22.064c0-2.698,2.187-4.885,4.885-4.885h20.794c2.698,0,4.885,2.187,4.885,4.885
				v22.064C350.495,151.797,348.308,153.984,345.61,153.984z"/>
			<path style="fill:none;stroke:#000000;stroke-linecap:round;stroke-linejoin:round;stroke-miterlimit:10;" d="M377.971,153.984
				h-20.793c-2.698,0-4.885-2.187-4.885-4.885v-22.064c0-2.698,2.187-4.885,4.885-4.885h20.793c2.698,0,4.885,2.187,4.885,4.885
				v22.064C382.856,151.797,380.669,153.984,377.971,153.984z"/>
			<path style="fill:none;stroke:#000000;stroke-linecap:round;stroke-linejoin:round;stroke-miterlimit:10;" d="M410.333,153.984
				h-20.794c-2.698,0-4.885-2.187-4.885-4.885v-22.064c0-2.698,2.187-4.885,4.885-4.885h20.794c2.698,0,4.885,2.187,4.885,4.885
				v22.064C415.218,151.797,413.031,153.984,410.333,153.984z"/>
			<path style="fill:none;stroke:#000000;stroke-linecap:round;stroke-linejoin:round;stroke-miterlimit:10;" d="M442.694,153.984
				H421.9c-2.698,0-4.885-2.187-4.885-4.885v-22.064c0-2.698,2.187-4.885,4.885-4.885h20.794c2.698,0,4.885,2.187,4.885,4.885
				v22.064C447.579,151.797,445.392,153.984,442.694,153.984z"/>
		</g>
		<g style="opacity:0.15;">
			<path style="fill:none;stroke:#000000;stroke-linecap:round;stroke-linejoin:round;stroke-miterlimit:10;" d="M86.72,188.143
				H65.927c-2.698,0-4.885-2.187-4.885-4.885v-22.064c0-2.698,2.187-4.885,4.885-4.885H86.72c2.698,0,4.885,2.187,4.885,4.885
				v22.064C91.605,185.956,89.418,188.143,86.72,188.143z"/>
			<path style="fill:none;stroke:#000000;stroke-linecap:round;stroke-linejoin:round;stroke-miterlimit:10;" d="M119.081,188.143
				H98.288c-2.698,0-4.885-2.187-4.885-4.885v-22.064c0-2.698,2.187-4.885,4.885-4.885h20.793c2.698,0,4.885,2.187,4.885,4.885
				v22.064C123.966,185.956,121.779,188.143,119.081,188.143z"/>
			<path style="fill:none;stroke:#000000;stroke-linecap:round;stroke-linejoin:round;stroke-miterlimit:10;" d="M151.443,188.143
				h-20.794c-2.698,0-4.885-2.187-4.885-4.885v-22.064c0-2.698,2.187-4.885,4.885-4.885h20.794c2.698,0,4.885,2.187,4.885,4.885
				v22.064C156.328,185.956,154.141,188.143,151.443,188.143z"/>
			<path style="fill:none;stroke:#000000;stroke-linecap:round;stroke-linejoin:round;stroke-miterlimit:10;" d="M183.804,188.143
				H163.01c-2.698,0-4.885-2.187-4.885-4.885v-22.064c0-2.698,2.187-4.885,4.885-4.885h20.794c2.698,0,4.885,2.187,4.885,4.885
				v22.064C188.689,185.956,186.502,188.143,183.804,188.143z"/>
			<path style="fill:none;stroke:#000000;stroke-linecap:round;stroke-linejoin:round;stroke-miterlimit:10;" d="M216.165,188.143
				h-20.794c-2.698,0-4.885-2.187-4.885-4.885v-22.064c0-2.698,2.187-4.885,4.885-4.885h20.794c2.698,0,4.885,2.187,4.885,4.885
				v22.064C221.05,185.956,218.863,188.143,216.165,188.143z"/>
			<path style="fill:none;stroke:#000000;stroke-linecap:round;stroke-linejoin:round;stroke-miterlimit:10;" d="M248.526,188.143
				h-20.793c-2.698,0-4.885-2.187-4.885-4.885v-22.064c0-2.698,2.187-4.885,4.885-4.885h20.793c2.698,0,4.885,2.187,4.885,4.885
				v22.064C253.411,185.956,251.224,188.143,248.526,188.143z"/>
			<path style="fill:none;stroke:#000000;stroke-linecap:round;stroke-linejoin:round;stroke-miterlimit:10;" d="M280.888,188.143
				h-20.794c-2.698,0-4.885-2.187-4.885-4.885v-22.064c0-2.698,2.187-4.885,4.885-4.885h20.794c2.698,0,4.885,2.187,4.885,4.885
				v22.064C285.773,185.956,283.586,188.143,280.888,188.143z"/>
			<path style="fill:none;stroke:#000000;stroke-linecap:round;stroke-linejoin:round;stroke-miterlimit:10;" d="M313.249,188.143
				h-20.793c-2.698,0-4.885-2.187-4.885-4.885v-22.064c0-2.698,2.187-4.885,4.885-4.885h20.793c2.698,0,4.885,2.187,4.885,4.885
				v22.064C318.134,185.956,315.947,188.143,313.249,188.143z"/>
			<path style="fill:none;stroke:#000000;stroke-linecap:round;stroke-linejoin:round;stroke-miterlimit:10;" d="M345.61,188.143
				h-20.794c-2.698,0-4.885-2.187-4.885-4.885v-22.064c0-2.698,2.187-4.885,4.885-4.885h20.794c2.698,0,4.885,2.187,4.885,4.885
				v22.064C350.495,185.956,348.308,188.143,345.61,188.143z"/>
			<path style="fill:none;stroke:#000000;stroke-linecap:round;stroke-linejoin:round;stroke-miterlimit:10;" d="M377.971,188.143
				h-20.793c-2.698,0-4.885-2.187-4.885-4.885v-22.064c0-2.698,2.187-4.885,4.885-4.885h20.793c2.698,0,4.885,2.187,4.885,4.885
				v22.064C382.856,185.956,380.669,188.143,377.971,188.143z"/>
			<path style="fill:none;stroke:#000000;stroke-linecap:round;stroke-linejoin:round;stroke-miterlimit:10;" d="M410.333,188.143
				h-20.794c-2.698,0-4.885-2.187-4.885-4.885v-22.064c0-2.698,2.187-4.885,4.885-4.885h20.794c2.698,0,4.885,2.187,4.885,4.885
				v22.064C415.218,185.956,413.031,188.143,410.333,188.143z"/>
			<path style="fill:none;stroke:#000000;stroke-linecap:round;stroke-linejoin:round;stroke-miterlimit:10;" d="M442.694,188.143
				H421.9c-2.698,0-4.885-2.187-4.885-4.885v-22.064c0-2.698,2.187-4.885,4.885-4.885h20.794c2.698,0,4.885,2.187,4.885,4.885
				v22.064C447.579,185.956,445.392,188.143,442.694,188.143z"/>
		</g>
		<g style="opacity:0.15;">
			<path style="fill:none;stroke:#000000;stroke-linecap:round;stroke-linejoin:round;stroke-miterlimit:10;" d="M86.72,222.302
				H65.927c-2.698,0-4.885-2.187-4.885-4.885v-22.064c0-2.698,2.187-4.885,4.885-4.885H86.72c2.698,0,4.885,2.187,4.885,4.885
				v22.064C91.605,220.115,89.418,222.302,86.72,222.302z"/>
			<path style="fill:none;stroke:#000000;stroke-linecap:round;stroke-linejoin:round;stroke-miterlimit:10;" d="M119.081,222.302
				H98.288c-2.698,0-4.885-2.187-4.885-4.885v-22.064c0-2.698,2.187-4.885,4.885-4.885h20.793c2.698,0,4.885,2.187,4.885,4.885
				v22.064C123.966,220.115,121.779,222.302,119.081,222.302z"/>
			<path style="fill:none;stroke:#000000;stroke-linecap:round;stroke-linejoin:round;stroke-miterlimit:10;" d="M151.443,222.302
				h-20.794c-2.698,0-4.885-2.187-4.885-4.885v-22.064c0-2.698,2.187-4.885,4.885-4.885h20.794c2.698,0,4.885,2.187,4.885,4.885
				v22.064C156.328,220.115,154.141,222.302,151.443,222.302z"/>
			<path style="fill:none;stroke:#000000;stroke-linecap:round;stroke-linejoin:round;stroke-miterlimit:10;" d="M183.804,222.302
				H163.01c-2.698,0-4.885-2.187-4.885-4.885v-22.064c0-2.698,2.187-4.885,4.885-4.885h20.794c2.698,0,4.885,2.187,4.885,4.885
				v22.064C188.689,220.115,186.502,222.302,183.804,222.302z"/>
			<path style="fill:none;stroke:#000000;stroke-linecap:round;stroke-linejoin:round;stroke-miterlimit:10;" d="M216.165,222.302
				h-20.794c-2.698,0-4.885-2.187-4.885-4.885v-22.064c0-2.698,2.187-4.885,4.885-4.885h20.794c2.698,0,4.885,2.187,4.885,4.885
				v22.064C221.05,220.115,218.863,222.302,216.165,222.302z"/>
			<path style="fill:none;stroke:#000000;stroke-linecap:round;stroke-linejoin:round;stroke-miterlimit:10;" d="M248.526,222.302
				h-20.793c-2.698,0-4.885-2.187-4.885-4.885v-22.064c0-2.698,2.187-4.885,4.885-4.885h20.793c2.698,0,4.885,2.187,4.885,4.885
				v22.064C253.411,220.115,251.224,222.302,248.526,222.302z"/>
			<path style="fill:none;stroke:#000000;stroke-linecap:round;stroke-linejoin:round;stroke-miterlimit:10;" d="M280.888,222.302
				h-20.794c-2.698,0-4.885-2.187-4.885-4.885v-22.064c0-2.698,2.187-4.885,4.885-4.885h20.794c2.698,0,4.885,2.187,4.885,4.885
				v22.064C285.773,220.115,283.586,222.302,280.888,222.302z"/>
			<path style="fill:none;stroke:#000000;stroke-linecap:round;stroke-linejoin:round;stroke-miterlimit:10;" d="M313.249,222.302
				h-20.793c-2.698,0-4.885-2.187-4.885-4.885v-22.064c0-2.698,2.187-4.885,4.885-4.885h20.793c2.698,0,4.885,2.187,4.885,4.885
				v22.064C318.134,220.115,315.947,222.302,313.249,222.302z"/>
			<path style="fill:none;stroke:#000000;stroke-linecap:round;stroke-linejoin:round;stroke-miterlimit:10;" d="M345.61,222.302
				h-20.794c-2.698,0-4.885-2.187-4.885-4.885v-22.064c0-2.698,2.187-4.885,4.885-4.885h20.794c2.698,0,4.885,2.187,4.885,4.885
				v22.064C350.495,220.115,348.308,222.302,345.61,222.302z"/>
			<path style="fill:none;stroke:#000000;stroke-linecap:round;stroke-linejoin:round;stroke-miterlimit:10;" d="M377.971,222.302
				h-20.793c-2.698,0-4.885-2.187-4.885-4.885v-22.064c0-2.698,2.187-4.885,4.885-4.885h20.793c2.698,0,4.885,2.187,4.885,4.885
				v22.064C382.856,220.115,380.669,222.302,377.971,222.302z"/>
			<path style="fill:none;stroke:#000000;stroke-linecap:round;stroke-linejoin:round;stroke-miterlimit:10;" d="M410.333,222.302
				h-20.794c-2.698,0-4.885-2.187-4.885-4.885v-22.064c0-2.698,2.187-4.885,4.885-4.885h20.794c2.698,0,4.885,2.187,4.885,4.885
				v22.064C415.218,220.115,413.031,222.302,410.333,222.302z"/>
			<path style="fill:none;stroke:#000000;stroke-linecap:round;stroke-linejoin:round;stroke-miterlimit:10;" d="M442.694,222.302
				H421.9c-2.698,0-4.885-2.187-4.885-4.885v-22.064c0-2.698,2.187-4.885,4.885-4.885h20.794c2.698,0,4.885,2.187,4.885,4.885
				v22.064C447.579,220.115,445.392,222.302,442.694,222.302z"/>
		</g>
		<g style="opacity:0.15;">
			<path style="fill:none;stroke:#000000;stroke-linecap:round;stroke-linejoin:round;stroke-miterlimit:10;" d="M86.72,256.461
				H65.927c-2.698,0-4.885-2.187-4.885-4.885v-22.064c0-2.698,2.187-4.885,4.885-4.885H86.72c2.698,0,4.885,2.187,4.885,4.885
				v22.064C91.605,254.274,89.418,256.461,86.72,256.461z"/>
			<path style="fill:none;stroke:#000000;stroke-linecap:round;stroke-linejoin:round;stroke-miterlimit:10;" d="M119.081,256.461
				H98.288c-2.698,0-4.885-2.187-4.885-4.885v-22.064c0-2.698,2.187-4.885,4.885-4.885h20.793c2.698,0,4.885,2.187,4.885,4.885
				v22.064C123.966,254.274,121.779,256.461,119.081,256.461z"/>
			<path style="fill:none;stroke:#000000;stroke-linecap:round;stroke-linejoin:round;stroke-miterlimit:10;" d="M151.443,256.461
				h-20.794c-2.698,0-4.885-2.187-4.885-4.885v-22.064c0-2.698,2.187-4.885,4.885-4.885h20.794c2.698,0,4.885,2.187,4.885,4.885
				v22.064C156.328,254.274,154.141,256.461,151.443,256.461z"/>
			<path style="fill:none;stroke:#000000;stroke-linecap:round;stroke-linejoin:round;stroke-miterlimit:10;" d="M183.804,256.461
				H163.01c-2.698,0-4.885-2.187-4.885-4.885v-22.064c0-2.698,2.187-4.885,4.885-4.885h20.794c2.698,0,4.885,2.187,4.885,4.885
				v22.064C188.689,254.274,186.502,256.461,183.804,256.461z"/>
			<path style="fill:none;stroke:#000000;stroke-linecap:round;stroke-linejoin:round;stroke-miterlimit:10;" d="M216.165,256.461
				h-20.794c-2.698,0-4.885-2.187-4.885-4.885v-22.064c0-2.698,2.187-4.885,4.885-4.885h20.794c2.698,0,4.885,2.187,4.885,4.885
				v22.064C221.05,254.274,218.863,256.461,216.165,256.461z"/>
			<path style="fill:none;stroke:#000000;stroke-linecap:round;stroke-linejoin:round;stroke-miterlimit:10;" d="M248.526,256.461
				h-20.793c-2.698,0-4.885-2.187-4.885-4.885v-22.064c0-2.698,2.187-4.885,4.885-4.885h20.793c2.698,0,4.885,2.187,4.885,4.885
				v22.064C253.411,254.274,251.224,256.461,248.526,256.461z"/>
			<path style="fill:none;stroke:#000000;stroke-linecap:round;stroke-linejoin:round;stroke-miterlimit:10;" d="M280.888,256.461
				h-20.794c-2.698,0-4.885-2.187-4.885-4.885v-22.064c0-2.698,2.187-4.885,4.885-4.885h20.794c2.698,0,4.885,2.187,4.885,4.885
				v22.064C285.773,254.274,283.586,256.461,280.888,256.461z"/>
			<path style="fill:none;stroke:#000000;stroke-linecap:round;stroke-linejoin:round;stroke-miterlimit:10;" d="M313.249,256.461
				h-20.793c-2.698,0-4.885-2.187-4.885-4.885v-22.064c0-2.698,2.187-4.885,4.885-4.885h20.793c2.698,0,4.885,2.187,4.885,4.885
				v22.064C318.134,254.274,315.947,256.461,313.249,256.461z"/>
			<path style="fill:none;stroke:#000000;stroke-linecap:round;stroke-linejoin:round;stroke-miterlimit:10;" d="M345.61,256.461
				h-20.794c-2.698,0-4.885-2.187-4.885-4.885v-22.064c0-2.698,2.187-4.885,4.885-4.885h20.794c2.698,0,4.885,2.187,4.885,4.885
				v22.064C350.495,254.274,348.308,256.461,345.61,256.461z"/>
			<path style="fill:none;stroke:#000000;stroke-linecap:round;stroke-linejoin:round;stroke-miterlimit:10;" d="M377.971,256.461
				h-20.793c-2.698,0-4.885-2.187-4.885-4.885v-22.064c0-2.698,2.187-4.885,4.885-4.885h20.793c2.698,0,4.885,2.187,4.885,4.885
				v22.064C382.856,254.274,380.669,256.461,377.971,256.461z"/>
			<path style="fill:none;stroke:#000000;stroke-linecap:round;stroke-linejoin:round;stroke-miterlimit:10;" d="M410.333,256.461
				h-20.794c-2.698,0-4.885-2.187-4.885-4.885v-22.064c0-2.698,2.187-4.885,4.885-4.885h20.794c2.698,0,4.885,2.187,4.885,4.885
				v22.064C415.218,254.274,413.031,256.461,410.333,256.461z"/>
			<path style="fill:none;stroke:#000000;stroke-linecap:round;stroke-linejoin:round;stroke-miterlimit:10;" d="M442.694,256.461
				H421.9c-2.698,0-4.885-2.187-4.885-4.885v-22.064c0-2.698,2.187-4.885,4.885-4.885h20.794c2.698,0,4.885,2.187,4.885,4.885
				v22.064C447.579,254.274,445.392,256.461,442.694,256.461z"/>
		</g>
		<g style="opacity:0.15;">
			<path style="fill:none;stroke:#000000;stroke-linecap:round;stroke-linejoin:round;stroke-miterlimit:10;" d="M86.72,290.62
				H65.927c-2.698,0-4.885-2.187-4.885-4.885v-22.064c0-2.698,2.187-4.885,4.885-4.885H86.72c2.698,0,4.885,2.187,4.885,4.885
				v22.064C91.605,288.433,89.418,290.62,86.72,290.62z"/>
			<path style="fill:none;stroke:#000000;stroke-linecap:round;stroke-linejoin:round;stroke-miterlimit:10;" d="M119.081,290.62
				H98.288c-2.698,0-4.885-2.187-4.885-4.885v-22.064c0-2.698,2.187-4.885,4.885-4.885h20.793c2.698,0,4.885,2.187,4.885,4.885
				v22.064C123.966,288.433,121.779,290.62,119.081,290.62z"/>
			<path style="fill:none;stroke:#000000;stroke-linecap:round;stroke-linejoin:round;stroke-miterlimit:10;" d="M151.443,290.62
				h-20.794c-2.698,0-4.885-2.187-4.885-4.885v-22.064c0-2.698,2.187-4.885,4.885-4.885h20.794c2.698,0,4.885,2.187,4.885,4.885
				v22.064C156.328,288.433,154.141,290.62,151.443,290.62z"/>
			<path style="fill:none;stroke:#000000;stroke-linecap:round;stroke-linejoin:round;stroke-miterlimit:10;" d="M183.804,290.62
				H163.01c-2.698,0-4.885-2.187-4.885-4.885v-22.064c0-2.698,2.187-4.885,4.885-4.885h20.794c2.698,0,4.885,2.187,4.885,4.885
				v22.064C188.689,288.433,186.502,290.62,183.804,290.62z"/>
			<path style="fill:none;stroke:#000000;stroke-linecap:round;stroke-linejoin:round;stroke-miterlimit:10;" d="M216.165,290.62
				h-20.794c-2.698,0-4.885-2.187-4.885-4.885v-22.064c0-2.698,2.187-4.885,4.885-4.885h20.794c2.698,0,4.885,2.187,4.885,4.885
				v22.064C221.05,288.433,218.863,290.62,216.165,290.62z"/>
			<path style="fill:none;stroke:#000000;stroke-linecap:round;stroke-linejoin:round;stroke-miterlimit:10;" d="M248.526,290.62
				h-20.793c-2.698,0-4.885-2.187-4.885-4.885v-22.064c0-2.698,2.187-4.885,4.885-4.885h20.793c2.698,0,4.885,2.187,4.885,4.885
				v22.064C253.411,288.433,251.224,290.62,248.526,290.62z"/>
			<path style="fill:none;stroke:#000000;stroke-linecap:round;stroke-linejoin:round;stroke-miterlimit:10;" d="M280.888,290.62
				h-20.794c-2.698,0-4.885-2.187-4.885-4.885v-22.064c0-2.698,2.187-4.885,4.885-4.885h20.794c2.698,0,4.885,2.187,4.885,4.885
				v22.064C285.773,288.433,283.586,290.62,280.888,290.62z"/>
			<path style="fill:none;stroke:#000000;stroke-linecap:round;stroke-linejoin:round;stroke-miterlimit:10;" d="M313.249,290.62
				h-20.793c-2.698,0-4.885-2.187-4.885-4.885v-22.064c0-2.698,2.187-4.885,4.885-4.885h20.793c2.698,0,4.885,2.187,4.885,4.885
				v22.064C318.134,288.433,315.947,290.62,313.249,290.62z"/>
			<path style="fill:none;stroke:#000000;stroke-linecap:round;stroke-linejoin:round;stroke-miterlimit:10;" d="M345.61,290.62
				h-20.794c-2.698,0-4.885-2.187-4.885-4.885v-22.064c0-2.698,2.187-4.885,4.885-4.885h20.794c2.698,0,4.885,2.187,4.885,4.885
				v22.064C350.495,288.433,348.308,290.62,345.61,290.62z"/>
			<path style="fill:none;stroke:#000000;stroke-linecap:round;stroke-linejoin:round;stroke-miterlimit:10;" d="M377.971,290.62
				h-20.793c-2.698,0-4.885-2.187-4.885-4.885v-22.064c0-2.698,2.187-4.885,4.885-4.885h20.793c2.698,0,4.885,2.187,4.885,4.885
				v22.064C382.856,288.433,380.669,290.62,377.971,290.62z"/>
			<path style="fill:none;stroke:#000000;stroke-linecap:round;stroke-linejoin:round;stroke-miterlimit:10;" d="M410.333,290.62
				h-20.794c-2.698,0-4.885-2.187-4.885-4.885v-22.064c0-2.698,2.187-4.885,4.885-4.885h20.794c2.698,0,4.885,2.187,4.885,4.885
				v22.064C415.218,288.433,413.031,290.62,410.333,290.62z"/>
			<path style="fill:none;stroke:#000000;stroke-linecap:round;stroke-linejoin:round;stroke-miterlimit:10;" d="M442.694,290.62
				H421.9c-2.698,0-4.885-2.187-4.885-4.885v-22.064c0-2.698,2.187-4.885,4.885-4.885h20.794c2.698,0,4.885,2.187,4.885,4.885
				v22.064C447.579,288.433,445.392,290.62,442.694,290.62z"/>
		</g>
		<g style="opacity:0.15;">
			<path style="fill:none;stroke:#000000;stroke-linecap:round;stroke-linejoin:round;stroke-miterlimit:10;" d="M86.72,324.779
				H65.927c-2.698,0-4.885-2.187-4.885-4.885V297.83c0-2.698,2.187-4.885,4.885-4.885H86.72c2.698,0,4.885,2.187,4.885,4.885v22.064
				C91.605,322.592,89.418,324.779,86.72,324.779z"/>
			<path style="fill:none;stroke:#000000;stroke-linecap:round;stroke-linejoin:round;stroke-miterlimit:10;" d="M119.081,324.779
				H98.288c-2.698,0-4.885-2.187-4.885-4.885V297.83c0-2.698,2.187-4.885,4.885-4.885h20.793c2.698,0,4.885,2.187,4.885,4.885
				v22.064C123.966,322.592,121.779,324.779,119.081,324.779z"/>
			<path style="fill:none;stroke:#000000;stroke-linecap:round;stroke-linejoin:round;stroke-miterlimit:10;" d="M151.443,324.779
				h-20.794c-2.698,0-4.885-2.187-4.885-4.885V297.83c0-2.698,2.187-4.885,4.885-4.885h20.794c2.698,0,4.885,2.187,4.885,4.885
				v22.064C156.328,322.592,154.141,324.779,151.443,324.779z"/>
			<path style="fill:none;stroke:#000000;stroke-linecap:round;stroke-linejoin:round;stroke-miterlimit:10;" d="M183.804,324.779
				H163.01c-2.698,0-4.885-2.187-4.885-4.885V297.83c0-2.698,2.187-4.885,4.885-4.885h20.794c2.698,0,4.885,2.187,4.885,4.885
				v22.064C188.689,322.592,186.502,324.779,183.804,324.779z"/>
			<path style="fill:none;stroke:#000000;stroke-linecap:round;stroke-linejoin:round;stroke-miterlimit:10;" d="M216.165,324.779
				h-20.794c-2.698,0-4.885-2.187-4.885-4.885V297.83c0-2.698,2.187-4.885,4.885-4.885h20.794c2.698,0,4.885,2.187,4.885,4.885
				v22.064C221.05,322.592,218.863,324.779,216.165,324.779z"/>
			<path style="fill:none;stroke:#000000;stroke-linecap:round;stroke-linejoin:round;stroke-miterlimit:10;" d="M248.526,324.779
				h-20.793c-2.698,0-4.885-2.187-4.885-4.885V297.83c0-2.698,2.187-4.885,4.885-4.885h20.793c2.698,0,4.885,2.187,4.885,4.885
				v22.064C253.411,322.592,251.224,324.779,248.526,324.779z"/>
			<path style="fill:none;stroke:#000000;stroke-linecap:round;stroke-linejoin:round;stroke-miterlimit:10;" d="M280.888,324.779
				h-20.794c-2.698,0-4.885-2.187-4.885-4.885V297.83c0-2.698,2.187-4.885,4.885-4.885h20.794c2.698,0,4.885,2.187,4.885,4.885
				v22.064C285.773,322.592,283.586,324.779,280.888,324.779z"/>
			<path style="fill:none;stroke:#000000;stroke-linecap:round;stroke-linejoin:round;stroke-miterlimit:10;" d="M313.249,324.779
				h-20.793c-2.698,0-4.885-2.187-4.885-4.885V297.83c0-2.698,2.187-4.885,4.885-4.885h20.793c2.698,0,4.885,2.187,4.885,4.885
				v22.064C318.134,322.592,315.947,324.779,313.249,324.779z"/>
			<path style="fill:none;stroke:#000000;stroke-linecap:round;stroke-linejoin:round;stroke-miterlimit:10;" d="M345.61,324.779
				h-20.794c-2.698,0-4.885-2.187-4.885-4.885V297.83c0-2.698,2.187-4.885,4.885-4.885h20.794c2.698,0,4.885,2.187,4.885,4.885
				v22.064C350.495,322.592,348.308,324.779,345.61,324.779z"/>
			<path style="fill:none;stroke:#000000;stroke-linecap:round;stroke-linejoin:round;stroke-miterlimit:10;" d="M377.971,324.779
				h-20.793c-2.698,0-4.885-2.187-4.885-4.885V297.83c0-2.698,2.187-4.885,4.885-4.885h20.793c2.698,0,4.885,2.187,4.885,4.885
				v22.064C382.856,322.592,380.669,324.779,377.971,324.779z"/>
			<path style="fill:none;stroke:#000000;stroke-linecap:round;stroke-linejoin:round;stroke-miterlimit:10;" d="M410.333,324.779
				h-20.794c-2.698,0-4.885-2.187-4.885-4.885V297.83c0-2.698,2.187-4.885,4.885-4.885h20.794c2.698,0,4.885,2.187,4.885,4.885
				v22.064C415.218,322.592,413.031,324.779,410.333,324.779z"/>
			<path style="fill:none;stroke:#000000;stroke-linecap:round;stroke-linejoin:round;stroke-miterlimit:10;" d="M442.694,324.779
				H421.9c-2.698,0-4.885-2.187-4.885-4.885V297.83c0-2.698,2.187-4.885,4.885-4.885h20.794c2.698,0,4.885,2.187,4.885,4.885v22.064
				C447.579,322.592,445.392,324.779,442.694,324.779z"/>
		</g>
		<g style="opacity:0.15;">
			<path style="fill:none;stroke:#000000;stroke-linecap:round;stroke-linejoin:round;stroke-miterlimit:10;" d="M86.72,358.938
				H65.927c-2.698,0-4.885-2.187-4.885-4.885V331.99c0-2.698,2.187-4.885,4.885-4.885H86.72c2.698,0,4.885,2.187,4.885,4.885v22.064
				C91.605,356.751,89.418,358.938,86.72,358.938z"/>
			<path style="fill:none;stroke:#000000;stroke-linecap:round;stroke-linejoin:round;stroke-miterlimit:10;" d="M119.081,358.938
				H98.288c-2.698,0-4.885-2.187-4.885-4.885V331.99c0-2.698,2.187-4.885,4.885-4.885h20.793c2.698,0,4.885,2.187,4.885,4.885
				v22.064C123.966,356.751,121.779,358.938,119.081,358.938z"/>
			<path style="fill:none;stroke:#000000;stroke-linecap:round;stroke-linejoin:round;stroke-miterlimit:10;" d="M151.443,358.938
				h-20.794c-2.698,0-4.885-2.187-4.885-4.885V331.99c0-2.698,2.187-4.885,4.885-4.885h20.794c2.698,0,4.885,2.187,4.885,4.885
				v22.064C156.328,356.751,154.141,358.938,151.443,358.938z"/>
			<path style="fill:none;stroke:#000000;stroke-linecap:round;stroke-linejoin:round;stroke-miterlimit:10;" d="M183.804,358.938
				H163.01c-2.698,0-4.885-2.187-4.885-4.885V331.99c0-2.698,2.187-4.885,4.885-4.885h20.794c2.698,0,4.885,2.187,4.885,4.885
				v22.064C188.689,356.751,186.502,358.938,183.804,358.938z"/>
			<path style="fill:none;stroke:#000000;stroke-linecap:round;stroke-linejoin:round;stroke-miterlimit:10;" d="M216.165,358.938
				h-20.794c-2.698,0-4.885-2.187-4.885-4.885V331.99c0-2.698,2.187-4.885,4.885-4.885h20.794c2.698,0,4.885,2.187,4.885,4.885
				v22.064C221.05,356.751,218.863,358.938,216.165,358.938z"/>
			<path style="fill:none;stroke:#000000;stroke-linecap:round;stroke-linejoin:round;stroke-miterlimit:10;" d="M248.526,358.938
				h-20.793c-2.698,0-4.885-2.187-4.885-4.885V331.99c0-2.698,2.187-4.885,4.885-4.885h20.793c2.698,0,4.885,2.187,4.885,4.885
				v22.064C253.411,356.751,251.224,358.938,248.526,358.938z"/>
			<path style="fill:none;stroke:#000000;stroke-linecap:round;stroke-linejoin:round;stroke-miterlimit:10;" d="M280.888,358.938
				h-20.794c-2.698,0-4.885-2.187-4.885-4.885V331.99c0-2.698,2.187-4.885,4.885-4.885h20.794c2.698,0,4.885,2.187,4.885,4.885
				v22.064C285.773,356.751,283.586,358.938,280.888,358.938z"/>
			<path style="fill:none;stroke:#000000;stroke-linecap:round;stroke-linejoin:round;stroke-miterlimit:10;" d="M313.249,358.938
				h-20.793c-2.698,0-4.885-2.187-4.885-4.885V331.99c0-2.698,2.187-4.885,4.885-4.885h20.793c2.698,0,4.885,2.187,4.885,4.885
				v22.064C318.134,356.751,315.947,358.938,313.249,358.938z"/>
			<path style="fill:none;stroke:#000000;stroke-linecap:round;stroke-linejoin:round;stroke-miterlimit:10;" d="M345.61,358.938
				h-20.794c-2.698,0-4.885-2.187-4.885-4.885V331.99c0-2.698,2.187-4.885,4.885-4.885h20.794c2.698,0,4.885,2.187,4.885,4.885
				v22.064C350.495,356.751,348.308,358.938,345.61,358.938z"/>
			<path style="fill:none;stroke:#000000;stroke-linecap:round;stroke-linejoin:round;stroke-miterlimit:10;" d="M377.971,358.938
				h-20.793c-2.698,0-4.885-2.187-4.885-4.885V331.99c0-2.698,2.187-4.885,4.885-4.885h20.793c2.698,0,4.885,2.187,4.885,4.885
				v22.064C382.856,356.751,380.669,358.938,377.971,358.938z"/>
			<path style="fill:none;stroke:#000000;stroke-linecap:round;stroke-linejoin:round;stroke-miterlimit:10;" d="M410.333,358.938
				h-20.794c-2.698,0-4.885-2.187-4.885-4.885V331.99c0-2.698,2.187-4.885,4.885-4.885h20.794c2.698,0,4.885,2.187,4.885,4.885
				v22.064C415.218,356.751,413.031,358.938,410.333,358.938z"/>
			<path style="fill:none;stroke:#000000;stroke-linecap:round;stroke-linejoin:round;stroke-miterlimit:10;" d="M442.694,358.938
				H421.9c-2.698,0-4.885-2.187-4.885-4.885V331.99c0-2.698,2.187-4.885,4.885-4.885h20.794c2.698,0,4.885,2.187,4.885,4.885v22.064
				C447.579,356.751,445.392,358.938,442.694,358.938z"/>
		</g>
		<g style="opacity:0.15;">
			<path style="fill:none;stroke:#000000;stroke-linecap:round;stroke-linejoin:round;stroke-miterlimit:10;" d="M86.72,393.098
				H65.927c-2.698,0-4.885-2.187-4.885-4.885v-22.064c0-2.698,2.187-4.885,4.885-4.885H86.72c2.698,0,4.885,2.187,4.885,4.885
				v22.064C91.605,390.91,89.418,393.098,86.72,393.098z"/>
			<path style="fill:none;stroke:#000000;stroke-linecap:round;stroke-linejoin:round;stroke-miterlimit:10;" d="M119.081,393.098
				H98.288c-2.698,0-4.885-2.187-4.885-4.885v-22.064c0-2.698,2.187-4.885,4.885-4.885h20.793c2.698,0,4.885,2.187,4.885,4.885
				v22.064C123.966,390.91,121.779,393.098,119.081,393.098z"/>
			<path style="fill:none;stroke:#000000;stroke-linecap:round;stroke-linejoin:round;stroke-miterlimit:10;" d="M151.443,393.098
				h-20.794c-2.698,0-4.885-2.187-4.885-4.885v-22.064c0-2.698,2.187-4.885,4.885-4.885h20.794c2.698,0,4.885,2.187,4.885,4.885
				v22.064C156.328,390.91,154.141,393.098,151.443,393.098z"/>
			<path style="fill:none;stroke:#000000;stroke-linecap:round;stroke-linejoin:round;stroke-miterlimit:10;" d="M183.804,393.098
				H163.01c-2.698,0-4.885-2.187-4.885-4.885v-22.064c0-2.698,2.187-4.885,4.885-4.885h20.794c2.698,0,4.885,2.187,4.885,4.885
				v22.064C188.689,390.91,186.502,393.098,183.804,393.098z"/>
			<path style="fill:none;stroke:#000000;stroke-linecap:round;stroke-linejoin:round;stroke-miterlimit:10;" d="M216.165,393.098
				h-20.794c-2.698,0-4.885-2.187-4.885-4.885v-22.064c0-2.698,2.187-4.885,4.885-4.885h20.794c2.698,0,4.885,2.187,4.885,4.885
				v22.064C221.05,390.91,218.863,393.098,216.165,393.098z"/>
			<path style="fill:none;stroke:#000000;stroke-linecap:round;stroke-linejoin:round;stroke-miterlimit:10;" d="M248.526,393.098
				h-20.793c-2.698,0-4.885-2.187-4.885-4.885v-22.064c0-2.698,2.187-4.885,4.885-4.885h20.793c2.698,0,4.885,2.187,4.885,4.885
				v22.064C253.411,390.91,251.224,393.098,248.526,393.098z"/>
			<path style="fill:none;stroke:#000000;stroke-linecap:round;stroke-linejoin:round;stroke-miterlimit:10;" d="M280.888,393.098
				h-20.794c-2.698,0-4.885-2.187-4.885-4.885v-22.064c0-2.698,2.187-4.885,4.885-4.885h20.794c2.698,0,4.885,2.187,4.885,4.885
				v22.064C285.773,390.91,283.586,393.098,280.888,393.098z"/>
			<path style="fill:none;stroke:#000000;stroke-linecap:round;stroke-linejoin:round;stroke-miterlimit:10;" d="M313.249,393.098
				h-20.793c-2.698,0-4.885-2.187-4.885-4.885v-22.064c0-2.698,2.187-4.885,4.885-4.885h20.793c2.698,0,4.885,2.187,4.885,4.885
				v22.064C318.134,390.91,315.947,393.098,313.249,393.098z"/>
			<path style="fill:none;stroke:#000000;stroke-linecap:round;stroke-linejoin:round;stroke-miterlimit:10;" d="M345.61,393.098
				h-20.794c-2.698,0-4.885-2.187-4.885-4.885v-22.064c0-2.698,2.187-4.885,4.885-4.885h20.794c2.698,0,4.885,2.187,4.885,4.885
				v22.064C350.495,390.91,348.308,393.098,345.61,393.098z"/>
			<path style="fill:none;stroke:#000000;stroke-linecap:round;stroke-linejoin:round;stroke-miterlimit:10;" d="M377.971,393.098
				h-20.793c-2.698,0-4.885-2.187-4.885-4.885v-22.064c0-2.698,2.187-4.885,4.885-4.885h20.793c2.698,0,4.885,2.187,4.885,4.885
				v22.064C382.856,390.91,380.669,393.098,377.971,393.098z"/>
			<path style="fill:none;stroke:#000000;stroke-linecap:round;stroke-linejoin:round;stroke-miterlimit:10;" d="M410.333,393.098
				h-20.794c-2.698,0-4.885-2.187-4.885-4.885v-22.064c0-2.698,2.187-4.885,4.885-4.885h20.794c2.698,0,4.885,2.187,4.885,4.885
				v22.064C415.218,390.91,413.031,393.098,410.333,393.098z"/>
			<path style="fill:none;stroke:#000000;stroke-linecap:round;stroke-linejoin:round;stroke-miterlimit:10;" d="M442.694,393.098
				H421.9c-2.698,0-4.885-2.187-4.885-4.885v-22.064c0-2.698,2.187-4.885,4.885-4.885h20.794c2.698,0,4.885,2.187,4.885,4.885
				v22.064C447.579,390.91,445.392,393.098,442.694,393.098z"/>
		</g>
		<g style="opacity:0.15;">
			<path style="fill:none;stroke:#000000;stroke-linecap:round;stroke-linejoin:round;stroke-miterlimit:10;" d="M86.72,427.257
				H65.927c-2.698,0-4.885-2.187-4.885-4.885v-22.064c0-2.698,2.187-4.885,4.885-4.885H86.72c2.698,0,4.885,2.187,4.885,4.885
				v22.064C91.605,425.07,89.418,427.257,86.72,427.257z"/>
			<path style="fill:none;stroke:#000000;stroke-linecap:round;stroke-linejoin:round;stroke-miterlimit:10;" d="M119.081,427.257
				H98.288c-2.698,0-4.885-2.187-4.885-4.885v-22.064c0-2.698,2.187-4.885,4.885-4.885h20.793c2.698,0,4.885,2.187,4.885,4.885
				v22.064C123.966,425.07,121.779,427.257,119.081,427.257z"/>
			<path style="fill:none;stroke:#000000;stroke-linecap:round;stroke-linejoin:round;stroke-miterlimit:10;" d="M151.443,427.257
				h-20.794c-2.698,0-4.885-2.187-4.885-4.885v-22.064c0-2.698,2.187-4.885,4.885-4.885h20.794c2.698,0,4.885,2.187,4.885,4.885
				v22.064C156.328,425.07,154.141,427.257,151.443,427.257z"/>
			<path style="fill:none;stroke:#000000;stroke-linecap:round;stroke-linejoin:round;stroke-miterlimit:10;" d="M183.804,427.257
				H163.01c-2.698,0-4.885-2.187-4.885-4.885v-22.064c0-2.698,2.187-4.885,4.885-4.885h20.794c2.698,0,4.885,2.187,4.885,4.885
				v22.064C188.689,425.07,186.502,427.257,183.804,427.257z"/>
			<path style="fill:none;stroke:#000000;stroke-linecap:round;stroke-linejoin:round;stroke-miterlimit:10;" d="M216.165,427.257
				h-20.794c-2.698,0-4.885-2.187-4.885-4.885v-22.064c0-2.698,2.187-4.885,4.885-4.885h20.794c2.698,0,4.885,2.187,4.885,4.885
				v22.064C221.05,425.07,218.863,427.257,216.165,427.257z"/>
			<path style="fill:none;stroke:#000000;stroke-linecap:round;stroke-linejoin:round;stroke-miterlimit:10;" d="M248.526,427.257
				h-20.793c-2.698,0-4.885-2.187-4.885-4.885v-22.064c0-2.698,2.187-4.885,4.885-4.885h20.793c2.698,0,4.885,2.187,4.885,4.885
				v22.064C253.411,425.07,251.224,427.257,248.526,427.257z"/>
			<path style="fill:none;stroke:#000000;stroke-linecap:round;stroke-linejoin:round;stroke-miterlimit:10;" d="M280.888,427.257
				h-20.794c-2.698,0-4.885-2.187-4.885-4.885v-22.064c0-2.698,2.187-4.885,4.885-4.885h20.794c2.698,0,4.885,2.187,4.885,4.885
				v22.064C285.773,425.07,283.586,427.257,280.888,427.257z"/>
			<path style="fill:none;stroke:#000000;stroke-linecap:round;stroke-linejoin:round;stroke-miterlimit:10;" d="M313.249,427.257
				h-20.793c-2.698,0-4.885-2.187-4.885-4.885v-22.064c0-2.698,2.187-4.885,4.885-4.885h20.793c2.698,0,4.885,2.187,4.885,4.885
				v22.064C318.134,425.07,315.947,427.257,313.249,427.257z"/>
			<path style="fill:none;stroke:#000000;stroke-linecap:round;stroke-linejoin:round;stroke-miterlimit:10;" d="M345.61,427.257
				h-20.794c-2.698,0-4.885-2.187-4.885-4.885v-22.064c0-2.698,2.187-4.885,4.885-4.885h20.794c2.698,0,4.885,2.187,4.885,4.885
				v22.064C350.495,425.07,348.308,427.257,345.61,427.257z"/>
			<path style="fill:none;stroke:#000000;stroke-linecap:round;stroke-linejoin:round;stroke-miterlimit:10;" d="M377.971,427.257
				h-20.793c-2.698,0-4.885-2.187-4.885-4.885v-22.064c0-2.698,2.187-4.885,4.885-4.885h20.793c2.698,0,4.885,2.187,4.885,4.885
				v22.064C382.856,425.07,380.669,427.257,377.971,427.257z"/>
			<path style="fill:none;stroke:#000000;stroke-linecap:round;stroke-linejoin:round;stroke-miterlimit:10;" d="M410.333,427.257
				h-20.794c-2.698,0-4.885-2.187-4.885-4.885v-22.064c0-2.698,2.187-4.885,4.885-4.885h20.794c2.698,0,4.885,2.187,4.885,4.885
				v22.064C415.218,425.07,413.031,427.257,410.333,427.257z"/>
			<path style="fill:none;stroke:#000000;stroke-linecap:round;stroke-linejoin:round;stroke-miterlimit:10;" d="M442.694,427.257
				H421.9c-2.698,0-4.885-2.187-4.885-4.885v-22.064c0-2.698,2.187-4.885,4.885-4.885h20.794c2.698,0,4.885,2.187,4.885,4.885
				v22.064C447.579,425.07,445.392,427.257,442.694,427.257z"/>
		</g>
	</g>
</g>
<g id="Toilet">
	<g>
		<polygon style="opacity:0.12;" points="161.793,261.065 180.835,351.795 201.331,371.212 201.331,430.003 144.564,434.661 
			125.764,388.213 		"/>
		<g>
			<path style="fill:#FFFFFF;stroke:#263238;stroke-linecap:round;stroke-linejoin:round;stroke-miterlimit:10;" d="
				M150.469,352.917H83.322c-6.254,0-11.324-5.07-11.324-11.324v-80.528h89.795v80.528
				C161.793,347.847,156.723,352.917,150.469,352.917z"/>
			
				<rect x="71.998" y="261.065" style="fill:#FFFFFF;stroke:#263238;stroke-linecap:round;stroke-linejoin:round;stroke-miterlimit:10;" width="89.795" height="20.191"/>
			<polygon style="fill:#FFFFFF;stroke:#263238;stroke-linecap:round;stroke-linejoin:round;stroke-miterlimit:10;" points="
				144.564,434.661 90.598,434.661 97.344,384.038 137.818,384.038 			"/>
			<path style="fill:#FFFFFF;stroke:#263238;stroke-linecap:round;stroke-linejoin:round;stroke-miterlimit:10;" d="
				M117.581,402.199L117.581,402.199c-25.175,0-45.583-20.408-45.583-45.583v-15.023h91.166v15.023
				C163.164,381.791,142.756,402.199,117.581,402.199z"/>
			
				<rect x="71.998" y="341.593" style="fill:#FFFFFF;stroke:#263238;stroke-linecap:round;stroke-linejoin:round;stroke-miterlimit:10;" width="91.166" height="8.582"/>
		</g>
	</g>
</g>
<g id="Picture_1_">
	<g>
		
			<rect x="67.672" y="44.538" style="fill:#263238;stroke:#263238;stroke-linecap:round;stroke-linejoin:round;stroke-miterlimit:10;" width="95.114" height="123.238"/>
		
			<rect x="74.13" y="52.906" style="fill:#FFFFFF;stroke:#263238;stroke-linecap:round;stroke-linejoin:round;stroke-miterlimit:10;" width="82.198" height="106.503"/>
		
			<rect x="95.644" y="80.781" style="fill:#C7C7C7;stroke:#263238;stroke-linecap:round;stroke-linejoin:round;stroke-miterlimit:10;" width="39.17" height="50.753"/>
	</g>
</g>
<g id="Vase">
	<g>
		<g>
			<path style="fill:#92E3A9;stroke:#263238;stroke-linecap:round;stroke-linejoin:round;stroke-miterlimit:10;" d="
				M428.311,196.746c0,0,1.869-9.103,5.635-12.49c3.767-3.387,6.834-4.313,6.834-4.313L428.311,196.746z"/>
			<path style="fill:#92E3A9;stroke:#263238;stroke-linecap:round;stroke-linejoin:round;stroke-miterlimit:10;" d="
				M428.311,196.746c0,0,2.24-8.638,2.159-19.23c-0.081-10.592-1.608-15.843-1.608-15.843s-4.565,10.494-3.178,16.999
				C427.07,185.177,428.311,196.746,428.311,196.746z"/>
			<path style="fill:#92E3A9;stroke:#263238;stroke-linecap:round;stroke-linejoin:round;stroke-miterlimit:10;" d="
				M428.311,196.746c0,0-1.015-6.04-4.867-9.436c-3.852-3.396-8.634-6.049-8.634-6.049s0.367,4.274,3.383,7.576
				C421.209,192.139,428.311,196.746,428.311,196.746z"/>
		</g>
		<path style="fill:#FFFFFF;stroke:#263238;stroke-linecap:round;stroke-linejoin:round;stroke-miterlimit:10;" d="M433.395,196.708
			v-0.382h-9.318v0.382c0,6.311-2.176,12.323-5.628,17.606c-1.007,1.542-1.593,3.383-1.593,5.364v10.135
			c0,5.435,4.406,9.841,9.841,9.841h4.079c5.435,0,9.841-4.406,9.841-9.841v-10.135c0-1.98-0.586-3.822-1.593-5.364
			C435.57,209.031,433.395,203.019,433.395,196.708z"/>
	</g>
</g>
<g id="Sink">
	<g>
		<polygon style="opacity:0.12;" points="285.226,333.634 302.852,343.022 454.741,343.022 454.741,248.299 444.568,238.795 		"/>
		<g>
			
				<rect x="285.226" y="238.795" style="fill:#C7C7C7;stroke:#263238;stroke-linecap:round;stroke-linejoin:round;stroke-miterlimit:10;" width="159.342" height="94.839"/>
			
				<rect x="285.226" y="238.795" style="fill:#FFFFFF;stroke:#263238;stroke-linecap:round;stroke-linejoin:round;stroke-miterlimit:10;" width="159.342" height="9.851"/>
			<g>
				<path style="fill:#FFFFFF;stroke:#263238;stroke-linecap:round;stroke-linejoin:round;stroke-miterlimit:10;" d="
					M369.758,231.863h-5.142v-23.784c0-1.42,1.151-2.571,2.571-2.571l0,0c1.42,0,2.571,1.151,2.571,2.571V231.863z"/>
				<path style="fill:#FFFFFF;stroke:#263238;stroke-linecap:round;stroke-linejoin:round;stroke-miterlimit:10;" d="
					M369.758,220.974h-5.142v-12.895c0-1.42,1.151-2.571,2.571-2.571l0,0c1.42,0,2.571,1.151,2.571,2.571V220.974z"/>
			</g>
			<polygon style="fill:#FFFFFF;stroke:#263238;stroke-linecap:round;stroke-linejoin:round;stroke-miterlimit:10;" points="
				409.768,238.645 320.026,238.645 317.664,231.185 412.13,231.185 			"/>
			
				<line style="fill:none;stroke:#263238;stroke-linecap:round;stroke-linejoin:round;stroke-miterlimit:10;" x1="366.211" y1="248.825" x2="366.211" y2="332.452"/>
		</g>
	</g>
</g>
<g id="Scale">
	<g>
		<path style="fill:#FFFFFF;stroke:#263238;stroke-linecap:round;stroke-linejoin:round;stroke-miterlimit:10;" d="M268.908,467.981
			h-87.465c-2.849,0-4.401-2.317-3.5-5.079l10.947-33.526c0.515-1.577,2.592-2.822,4.653-2.822h63.266
			c2.061,0,4.138,1.246,4.652,2.822l10.947,33.526C273.309,465.664,271.757,467.981,268.908,467.981z"/>
		<path style="fill:#FFFFFF;stroke:#263238;stroke-linecap:round;stroke-linejoin:round;stroke-miterlimit:10;" d="M268.908,464.983
			h-87.465c-2.849,0-4.401-2.317-3.5-5.079l10.947-33.526c0.515-1.577,2.592-2.822,4.653-2.822h63.266
			c2.061,0,4.138,1.246,4.652,2.822l10.947,33.526C273.309,462.666,271.757,464.983,268.908,464.983z"/>
		<path style="fill:#263238;stroke:#263238;stroke-linecap:round;stroke-linejoin:round;stroke-miterlimit:10;" d="M258.475,453.883
			h-66.598c-2.169,0-3.514-1.384-3.017-3.049l6.489-21.725c0.327-1.096,1.969-1.967,3.672-1.967h52.309
			c1.704,0,3.345,0.871,3.672,1.967l6.489,21.725C261.989,452.499,260.644,453.883,258.475,453.883z"/>
		<g>
			<path style="fill:#FFFFFF;stroke:#263238;stroke-linecap:round;stroke-linejoin:round;stroke-miterlimit:10;" d="
				M232.917,444.262h-15.595l-8.874,8.173c2.881,5.515,9.129,9.472,16.728,9.472c7.571,0,13.8-3.928,16.696-9.411L232.917,444.262z"
				/>
			
				<line style="fill:none;stroke:#263238;stroke-linecap:round;stroke-linejoin:round;stroke-miterlimit:10;" x1="224.549" y1="455.513" x2="224.534" y2="458.827"/>
			
				<line style="fill:none;stroke:#263238;stroke-linecap:round;stroke-linejoin:round;stroke-miterlimit:10;" x1="220.441" y1="454.441" x2="218.799" y2="457.705"/>
			
				<line style="fill:none;stroke:#263238;stroke-linecap:round;stroke-linejoin:round;stroke-miterlimit:10;" x1="229.781" y1="454.845" x2="230.936" y2="458.216"/>
			
				<line style="fill:none;stroke:#263238;stroke-linecap:round;stroke-linejoin:round;stroke-miterlimit:10;" x1="234.34" y1="452.935" x2="235.924" y2="455.234"/>
			
				<line style="fill:none;stroke:#263238;stroke-linecap:round;stroke-linejoin:round;stroke-miterlimit:10;" x1="215.261" y1="452.747" x2="213.039" y2="455.234"/>
		</g>
	</g>
</g>
<g id="Character">
	<g>
		<g>
			<path style="fill:#D9D9D9;stroke:#263238;stroke-linecap:round;stroke-linejoin:round;stroke-miterlimit:10;" d="
				M190.108,285.949c0,0-2.026,16.459,2.026,30.892c4.051,14.433,6.583,21.016,5.317,28.36c-1.266,7.343-1.266,24.815,1.266,34.69
				c2.532,9.875,5.824,32.411,6.33,35.703c0.506,3.292-8.609,12.914-12.407,16.712c-3.798,3.798-4.811,6.33-2.532,7.596
				c2.279,1.266,10.128,2.532,14.433,1.013c4.305-1.519,6.077-3.798,7.596-5.317c1.519-1.519,7.596-1.266,7.09-9.369
				c-0.506-8.103,0-18.738,0.253-23.802c0.253-5.064,3.292-22.283,3.545-31.651c0.253-9.369-0.76-23.802-0.76-23.802
				s1.519-12.154,1.266-21.523c-0.253-9.369,0.253-29.119,0.253-29.119L190.108,285.949z"/>
			<path style="fill:#FFFFFF;stroke:#263238;stroke-linecap:round;stroke-linejoin:round;stroke-miterlimit:10;" d="
				M219.227,426.228c-0.268-4.284-0.251-9.271-0.14-13.774c-7.554,2.852-12.355,0.947-14.589-0.491
				c0.264,1.738,0.455,3.018,0.549,3.63c0.506,3.292-8.609,12.914-12.407,16.712c-3.798,3.798-4.811,6.33-2.532,7.596
				c2.279,1.266,10.128,2.532,14.433,1.013c4.305-1.519,6.077-3.798,7.596-5.318C213.657,434.077,219.734,434.33,219.227,426.228z"
				/>
		</g>
		<g>
			<path style="fill:#D9D9D9;stroke:#263238;stroke-linecap:round;stroke-linejoin:round;stroke-miterlimit:10;" d="
				M262.587,285.949c0,0,2.026,16.459-2.026,30.892c-4.051,14.433-6.584,21.016-5.318,28.36c1.266,7.343,1.266,24.815-1.266,34.69
				c-2.532,9.875-5.824,32.411-6.33,35.703c-0.506,3.292,8.609,12.914,12.407,16.712c3.798,3.798,4.811,6.33,2.532,7.596
				c-2.279,1.266-10.128,2.532-14.433,1.013c-4.305-1.519-6.077-3.798-7.596-5.317c-1.519-1.519-7.596-1.266-7.09-9.369
				c0.506-8.103,0-18.738-0.253-23.802c-0.253-5.064-3.292-22.283-3.545-31.651c-0.253-9.369,0.76-23.802,0.76-23.802
				s-1.519-12.154-1.266-21.523c0.253-9.369-0.253-29.119-0.253-29.119L262.587,285.949z"/>
			<path style="fill:#FFFFFF;stroke:#263238;stroke-linecap:round;stroke-linejoin:round;stroke-miterlimit:10;" d="
				M233.468,426.228c0.268-4.284,0.251-9.271,0.14-13.774c7.554,2.852,12.355,0.947,14.589-0.491
				c-0.264,1.738-0.455,3.018-0.549,3.63c-0.506,3.292,8.609,12.914,12.407,16.712c3.798,3.798,4.811,6.33,2.532,7.596
				c-2.279,1.266-10.128,2.532-14.433,1.013c-4.305-1.519-6.077-3.798-7.596-5.318C239.039,434.077,232.962,434.33,233.468,426.228z
				"/>
		</g>
		<g>
			<path style="fill:#263238;stroke:#263238;stroke-linecap:round;stroke-linejoin:round;stroke-miterlimit:10;" d="
				M187.829,235.053c0,0-5.571,21.27-7.85,28.613c-1.323,4.262-0.994,10.562-3.798,13.927c-1.266,1.519-1.013,3.798-1.013,3.798
				s15.446,12.407,26.587,15.193c11.141,2.785,23.549,6.077,23.549,6.077c1.773-2.785,1.773-2.785,1.773-2.785
				s0.253,3.039,1.266,3.039c1.013,0,3.038-0.76,3.038-0.76s38.235-10.128,41.273-12.154c3.038-2.026,6.077-3.798,5.571-6.077
				c-0.506-2.279-3.545-6.33-3.545-6.33s-2.785-27.6-13.673-43.806c0,0-15.392,9.018-42.286,3.292
				C191.826,231.353,188.496,232.433,187.829,235.053z"/>
			<g>
				<path style="fill:none;stroke:#D9D9D9;stroke-linecap:round;stroke-linejoin:round;stroke-miterlimit:10;" d="M251.395,263.094
					c0,0-12.857,9.964-16.714,12.857"/>
				
					<line style="fill:none;stroke:#D9D9D9;stroke-linecap:round;stroke-linejoin:round;stroke-miterlimit:10;" x1="251.074" y1="258.594" x2="242.717" y2="266.951"/>
				<path style="fill:none;stroke:#D9D9D9;stroke-linecap:round;stroke-linejoin:round;stroke-miterlimit:10;" d="M203.503,261.487
					c0,0,7.071,9.321,9.643,11.571"/>
				<path style="fill:none;stroke:#D9D9D9;stroke-linecap:round;stroke-linejoin:round;stroke-miterlimit:10;" d="M204.146,256.665
					c0,0,5.464,7.714,7.071,9"/>
			</g>
			<g>
				<path style="fill:#FFFFFF;stroke:#263238;stroke-linecap:round;stroke-linejoin:round;stroke-miterlimit:10;" d="
					M228.343,302.914c1.013,0,3.038-0.76,3.038-0.76s38.235-10.128,41.273-12.154c3.038-2.026,6.077-3.798,5.571-6.077
					c-0.507-2.279-3.545-6.33-3.545-6.33s-2.785-27.6-13.673-43.806c0,0-0.957,0.56-2.808,1.312
					c0.852,2.828,3.688,6.046,7.782,16.282c4.181,10.452,5.749,27.437,5.749,27.437s2.613,2.352,2.352,3.397
					c-0.261,1.045-4.703,3.136-11.759,5.749c-7.055,2.613-29.266,10.714-31.618,10.191c-2.352-0.523-3.628,1.72-3.628,1.72
					S227.33,302.914,228.343,302.914z"/>
				<path style="fill:#FFFFFF;stroke:#263238;stroke-linecap:round;stroke-linejoin:round;stroke-miterlimit:10;" d="
					M179.98,263.666c-1.323,4.262-0.994,10.562-3.798,13.927c-1.266,1.519-1.013,3.798-1.013,3.798s15.446,12.407,26.587,15.193
					c11.141,2.785,23.549,6.077,23.549,6.077c1.773-2.785,1.773-2.785,1.773-2.785s0,0-1.337-1.72
					c-1.337-1.72-2.874,0.784-2.874,0.784s-7.316-2.352-20.905-7.578c-13.588-5.226-22.995-14.111-22.995-14.111l8.863-42.198
					C187.829,235.053,182.259,256.323,179.98,263.666z"/>
			</g>
		</g>
		<path style="fill:#D9D9D9;stroke:#263238;stroke-linecap:round;stroke-linejoin:round;stroke-miterlimit:10;" d="M211.793,136.586
			c0,0-13.341-3.079-21.808,3.849c-8.467,6.927-43.103,41.307-45.412,44.643c-2.309,3.335,5.645,9.75,8.98,10.263
			c3.335,0.513,43.617-29.249,43.617-29.249l4.105-4.105c0,0-1.796,36.946-3.335,45.669c-1.539,8.723-6.671,14.881-8.98,16.42
			c-2.309,1.539-7.954,4.105-6.671,8.467c1.283,4.362,12.315,8.467,18.729,10.263s23.861,6.927,36.433,4.875
			c12.572-2.053,22.835-6.414,23.861-10.519c1.026-4.105-4.618-15.394-4.875-20.269c-0.257-4.875,0-11.802,0.257-14.624
			c0.257-2.822,3.079-28.223,3.079-28.223s17.19,25.4,19.499,30.018c2.309,4.618,14.881,9.237,19.243,5.645
			c4.362-3.592,5.131-7.184,2.822-13.341c-2.309-6.158-18.216-29.249-25.913-40.538c-7.697-11.289-7.184-12.315-18.986-17.19
			c-11.802-4.875-25.4-3.335-25.4-3.335L211.793,136.586z"/>
		<path style="fill:#92E3A9;stroke:#263238;stroke-linecap:round;stroke-linejoin:round;stroke-miterlimit:10;" d="M213.589,134.533
			c0.257-0.77-11.289,32.584,9.75,36.176c21.039,3.592,20.782-35.663,20.782-35.663l8.21,1.796c0,0,0.77,17.19,4.875,27.966
			c4.105,10.776,6.158,23.861,1.796,32.071c-4.362,8.21-15.394,7.697-23.604,7.697c-8.21,0-32.584-1.796-36.433-5.388
			c-3.848-3.592-9.75-9.75-5.645-22.065c4.105-12.315,8.723-18.73,11.032-26.683c2.309-7.954,3.849-15.651,3.849-15.651
			L213.589,134.533z"/>
		<path style="fill:#263238;stroke:#263238;stroke-linecap:round;stroke-linejoin:round;stroke-miterlimit:10;" d="M214.211,86.944
			c0,0-13.229-2.3-19.44,2.929c-6.211,5.229-9.398,15.617-6.731,19.352c2.667,3.735,7.207,5.867,6.462,9.665
			c-0.745,3.799-10.844,3.454-7.753,13.953c3.091,10.5,8.103,8.951,9.764,13.756c1.661,4.805-3.304,6.175-4.663,4.871
			c-1.359-1.304,0.521,5.459,5.376,8.242c4.855,2.784,14.462,1.29,16.445-4.468c1.983-5.758-1.566-17.061-1.267-22.877
			c0.3-5.816-1.143-17.294,4.358-26.319c5.501-9.026,7.647-10.749,5.661-14.307C220.439,88.183,214.211,86.944,214.211,86.944z"/>
		<g>
			<path style="fill:#D9D9D9;stroke:#263238;stroke-linecap:round;stroke-linejoin:round;stroke-miterlimit:10;" d="M209.851,89.978
				c0,0-5.122,9.36-4.945,14.659c0.177,5.298,0.706,13.069,0.53,17.661c-0.177,4.592,1.413,8.83,4.592,13.776
				s7.594,10.243,10.773,10.95c3.179,0.707,6.888-0.177,9.007-2.296c2.119-2.119,8.83-7.771,10.243-11.126
				s2.649-19.604,2.649-19.604s-10.42-19.604-17.484-23.489C218.151,86.622,214.266,84.856,209.851,89.978z"/>
			<path style="fill:none;stroke:#263238;stroke-linecap:round;stroke-linejoin:round;stroke-miterlimit:10;" d="M216.739,113.114
				c0,0,1.06,4.592,1.06,6.358c0,0-0.177,5.475-1.06,7.948"/>
			<path style="fill:none;stroke:#263238;stroke-linecap:round;stroke-linejoin:round;stroke-miterlimit:10;" d="M216.385,131.835
				c0,0,1.943,1.589,3.356,1.236s3.002-0.883,3.532-1.589"/>
			<path style="fill:none;stroke:#263238;stroke-linecap:round;stroke-linejoin:round;stroke-miterlimit:10;" d="M216.385,137.31
				c0,0,4.062-0.353,6.358,1.06"/>
			<path style="fill:none;stroke:#263238;stroke-linecap:round;stroke-linejoin:round;stroke-miterlimit:10;" d="M224.863,119.119
				c0,0,4.415,2.826,8.301-0.177"/>
			<path style="fill:none;stroke:#263238;stroke-linecap:round;stroke-linejoin:round;stroke-miterlimit:10;" d="M208.085,117.882
				c0,0,3.179,2.649,6.711,0.883"/>
			<path style="fill:none;stroke:#263238;stroke-linecap:round;stroke-linejoin:round;stroke-miterlimit:10;" d="M214.443,111.524
				c0,0-5.298-0.177-7.241,3.179"/>
			<path style="fill:none;stroke:#263238;stroke-linecap:round;stroke-linejoin:round;stroke-miterlimit:10;" d="M221.86,111.878
				c0,0,5.652-1.766,10.243,2.826"/>
		</g>
		<path style="fill:#263238;stroke:#263238;stroke-linecap:round;stroke-linejoin:round;stroke-miterlimit:10;" d="M209.851,89.978
			c0,0,9.89-0.883,11.833,6.711c1.943,7.594,4.415,10.597,9.007,11.833c4.592,1.236,9.184,3.532,9.184,7.771
			c0,4.239-4.768,10.243-1.236,16.778c3.532,6.535,4.415,5.298,4.239,7.594c-0.177,2.296-3.885,5.652-2.119,10.243
			c1.766,4.592,6.358,2.296,7.594,4.768c1.236,2.473,0.883,3.886-1.413,4.062c-2.296,0.177-2.296,0.177-2.296,0.177
			s-0.353,4.945,6.888,4.945c7.241,0,12.893-5.828,13.599-11.303c0.706-5.475-2.473-10.597-2.119-14.129s8.124-7.241,7.948-16.778
			c-0.177-9.537-5.475-7.771-5.298-13.069c0.177-5.298,3.885-13.069,1.59-16.601c-2.296-3.532-14.305-12.186-24.549-18.544
			c-10.243-6.358-27.198-7.064-32.32-1.766c-5.122,5.298-5.298,10.243-5.298,10.243S203.493,88.212,209.851,89.978z"/>
		<path style="fill:#D9D9D9;stroke:#263238;stroke-linecap:round;stroke-linejoin:round;stroke-miterlimit:10;" d="M152.525,176.867
			c0,0-7.44,5.388-7.954,8.21c-0.513,2.822-2.053,8.723,1.539,17.447c3.592,8.723,11.289,16.934,16.42,21.039
			c5.131,4.105,5.388,4.105,6.671,6.414c1.283,2.309,6.414,7.697,8.723,7.954c2.309,0.257,5.901,2.566,7.184,3.335
			c1.283,0.77,3.335,0,4.875-0.513c1.539-0.513,1.796-0.77,1.796-0.77l-4.618-2.309c0,0-3.335-3.079-4.875-5.131
			c-1.539-2.053-0.77-7.184-0.77-7.184s3.848,2.052,5.901,3.592c2.053,1.539,3.335,2.053,6.158,0.77
			c2.822-1.283,0.513-1.283-1.283-2.822c-1.796-1.539-9.493-8.723-9.493-8.723l-8.21-0.257c0,0-7.954-6.158-8.98-8.723
			c-1.026-2.566-0.513-21.552-4.362-26.17"/>
		<path style="fill:none;stroke:#263238;stroke-linecap:round;stroke-linejoin:round;stroke-miterlimit:10;" d="M191.826,231.353
			c0,0,2.919,0.584,5.721,0.467"/>
		<path style="fill:none;stroke:#263238;stroke-linecap:round;stroke-linejoin:round;stroke-miterlimit:10;" d="M193.461,232.871
			c0,0,3.736,1.518,8.757,1.985"/>
		<g>
			<path style="fill:#D9D9D9;stroke:#263238;stroke-linecap:round;stroke-linejoin:round;stroke-miterlimit:10;" d="M272.63,191.933
				c0,0-8.973-12.819-11.377-14.421c-2.404-1.602-10.587,0.653-13.78,1.763c-2.52,0.876-5.258,0.217-9.774,0.641
				c-3.146,0.296-0.961,2.884,1.602,3.205c2.564,0.321,5.929-0.32,7.691,0.481c1.763,0.801,8.332,8.012,8.813,8.492
				c0.481,0.481-2.404,0.481-4.967-0.481c-2.564-0.961-6.249-2.884-7.05-1.763c-0.801,1.122,0.321,3.205,2.083,3.685
				c1.762,0.481,5.288,3.365,9.294,4.006c4.006,0.641,6.73,0.16,6.73,0.16l4.807,0.801c0,0,10.415,12.018,20.67,15.703
				c10.255,3.685,14.101,2.243,16.825-0.961c2.724-3.205,3.365-10.095,0.961-13.46c-2.403-3.365-2.724-3.205-10.736-4.647
				C286.41,193.696,272.63,191.933,272.63,191.933z"/>
			<path style="fill:#D9D9D9;stroke:#263238;stroke-linecap:round;stroke-linejoin:round;stroke-miterlimit:10;" d="
				M253.562,179.755c0,0-4.326-4.487-5.608-4.166c-1.282,0.32-5.608,7.05-5.288,8.172c0.32,1.122,1.762,0.801,3.044-0.641
				c1.282-1.442,3.365-3.205,3.365-3.205"/>
			<path style="fill:#D9D9D9;stroke:#263238;stroke-linecap:round;stroke-linejoin:round;stroke-miterlimit:10;" d="
				M258.048,177.993c0,0-4.487-3.365-6.409-1.923c-1.923,1.442-4.967,8.973-3.846,9.133c1.122,0.16,1.824-0.221,3.365-1.762
				c3.365-3.365,1.282-1.763,1.282-1.763"/>
			<path style="fill:#D9D9D9;stroke:#263238;stroke-linecap:round;stroke-linejoin:round;stroke-miterlimit:10;" d="
				M263.016,178.954c0,0-4.006-3.525-5.608-3.205c-1.602,0.32-5.288,8.813-4.807,9.934c0.481,1.122,3.045-0.32,4.006-1.762
				c0.961-1.442,2.243-3.525,2.243-3.525s2.083,7.211,3.205,8.653"/>
			<path style="fill:#FFFFFF;stroke:#263238;stroke-linecap:round;stroke-linejoin:round;stroke-miterlimit:10;" d="
				M266.701,198.503c0,0,2.404,0.961,4.326-2.083"/>
		</g>
	</g>
</g>
<g id="Mirror">
	<g>
		<ellipse style="opacity:0.12;" cx="371.191" cy="125.779" rx="59.605" ry="77.451"/>
		
			<ellipse style="fill:#FFFFFF;stroke:#263238;stroke-linecap:round;stroke-linejoin:round;stroke-miterlimit:10;" cx="369.077" cy="122.961" rx="59.605" ry="77.451"/>
		<g>
			
				<line style="fill:none;stroke:#263238;stroke-linecap:round;stroke-linejoin:round;stroke-miterlimit:10;" x1="363.669" y1="65.621" x2="331.508" y2="97.783"/>
			
				<line style="fill:none;stroke:#263238;stroke-linecap:round;stroke-linejoin:round;stroke-miterlimit:10;" x1="348.497" y1="86.699" x2="326.316" y2="108.879"/>
			
				<line style="fill:none;stroke:#263238;stroke-linecap:round;stroke-linejoin:round;stroke-miterlimit:10;" x1="358.478" y1="76.718" x2="352.048" y2="83.147"/>
		</g>
		<g>
			
				<line style="fill:none;stroke:#263238;stroke-linecap:round;stroke-linejoin:round;stroke-miterlimit:10;" x1="403.564" y1="112.067" x2="353.452" y2="162.179"/>
			
				<line style="fill:none;stroke:#263238;stroke-linecap:round;stroke-linejoin:round;stroke-miterlimit:10;" x1="417.016" y1="98.616" x2="408.084" y2="107.547"/>
			
				<line style="fill:none;stroke:#263238;stroke-linecap:round;stroke-linejoin:round;stroke-miterlimit:10;" x1="351.615" y1="175.687" x2="343.191" y2="184.11"/>
			
				<line style="fill:none;stroke:#263238;stroke-linecap:round;stroke-linejoin:round;stroke-miterlimit:10;" x1="406.755" y1="120.547" x2="356.134" y2="171.167"/>
		</g>
	</g>
</g>
</svg>
