<?xml version="1.0" encoding="utf-8"?>
<!-- Generator: Adobe Illustrator 27.5.0, SVG Export Plug-In . SVG Version: 6.00 Build 0)  -->
<svg version="1.1" xmlns="http://www.w3.org/2000/svg" xmlns:xlink="http://www.w3.org/1999/xlink" x="0px" y="0px"
	 viewBox="0 0 500 500" style="enable-background:new 0 0 500 500;" xml:space="preserve">
<g id="BACKGROUND">
	<rect style="fill:#FFFFFF;" width="500" height="500"/>
	<rect style="fill:#FFFFFF;" width="500" height="500"/>
</g>
<g id="OBJECTS">
	<g>
		<g>
			<g>
				<g>
					<path style="fill:#CEE5F3;" d="M452.018,469.637H35.986c-8.221-18.512-18.324-40.184-16.552-60.368
						c1.772-20.184,17.634-40.668,37.842-39.938c-18.095-30.259-28.146-65.298-28.851-100.566
						c-0.262-13.118,0.879-26.735,7.194-38.229c6.315-11.494,18.891-20.34,31.899-18.829
						c-23.225-41.749-14.971-98.635,19.157-132.03c14.25-13.943,33.413-24.122,53.301-23.032
						c16.656,0.913,32.215,9.69,43.843,21.673c11.629,11.983,19.694,26.989,26.167,42.393c15.239-18.159,36.818-33.712,60.44-32.087
						c20.228,1.391,37.884,15.401,48.881,32.468c10.997,17.067,16.435,37.037,21.718,56.65
						c10.848-14.026,28.413-20.232,45.918-17.54c19.595,3.015,34.59,20.278,40.873,39.118c6.283,18.84,5.502,39.21,4.653,59.056
						c9.106-4.731,19.583,1.475,25.509,9.863c5.926,8.388,7.199,19.179,7.276,29.456c0.233,30.772-8.802,61.555-25.622,87.303
						c4.723-6.286,15.994-5.306,21.394,0.406c5.4,5.712,6.781,14.103,7.06,21.966C468.851,428.917,463.338,451.301,452.018,469.637z
						"/>
				</g>
				<g>
					
						<rect x="213.104" y="79.662" transform="matrix(0.7071 -0.7071 0.7071 0.7071 9.8932 185.1158)" style="fill:#CEE5F3;" width="30.594" height="1.907"/>
				</g>
				<g>
					
						<rect x="425.137" y="49.23" transform="matrix(0.7074 -0.7068 0.7068 0.7074 93.4146 326.0052)" style="fill:#CEE5F3;" width="30.594" height="1.907"/>
				</g>
				<g>
					
						<rect x="430.625" y="149.01" transform="matrix(0.7073 -0.7069 0.7069 0.7073 24.4979 359.0968)" style="fill:#CEE5F3;" width="30.594" height="1.907"/>
				</g>
				<g>
					
						<rect x="407.176" y="368.027" transform="matrix(0.7071 -0.7071 0.7071 0.7071 -137.1687 406.8054)" style="fill:#FFFFFF;" width="30.595" height="1.906"/>
				</g>
				<g>
					
						<rect x="224.976" y="279.705" transform="matrix(0.7068 -0.7074 0.7074 0.7068 -128.0909 252.2386)" style="fill:#FFFFFF;" width="30.595" height="1.906"/>
				</g>
				<g>
					
						<rect x="83.328" y="123.057" transform="matrix(0.7071 -0.7071 0.7071 0.7071 -58.8017 106.0543)" style="fill:#FFFFFF;" width="30.594" height="1.907"/>
				</g>
				<g>
					
						<rect x="58.331" y="283.037" transform="matrix(0.7068 -0.7074 0.7074 0.7068 -179.3073 135.3449)" style="fill:#FFFFFF;" width="30.595" height="1.907"/>
				</g>
				<g>
					
						<rect x="30.506" y="58.708" transform="matrix(0.7071 -0.7071 0.7071 0.7071 -28.7717 49.8627)" style="fill:#CEE5F3;" width="30.594" height="1.907"/>
				</g>
				<g>
					
						<rect x="17.598" y="191.845" transform="matrix(0.7071 -0.7071 0.7071 0.7071 -126.6947 79.73)" style="fill:#CEE5F3;" width="30.594" height="1.907"/>
				</g>
				<g>
					<path style="fill:#CEE5F3;" d="M336.616,46.037c-3.289,0-5.965-2.676-5.965-5.965c0-3.29,2.676-5.965,5.965-5.965
						c3.29,0,5.966,2.676,5.966,5.965C342.582,43.361,339.906,46.037,336.616,46.037z M336.616,35.487
						c-2.527,0-4.584,2.057-4.584,4.584c0,2.528,2.057,4.584,4.584,4.584c2.528,0,4.585-2.057,4.585-4.584
						C341.201,37.544,339.145,35.487,336.616,35.487z"/>
				</g>
				<g>
					<path style="fill:#FFFFFF;" d="M234.931,142.356c-3.29,0-5.965-2.676-5.965-5.965c0-3.289,2.676-5.965,5.965-5.965
						c3.289,0,5.965,2.676,5.965,5.965C240.896,139.68,238.221,142.356,234.931,142.356z M234.931,131.806
						c-2.528,0-4.585,2.057-4.585,4.584c0,2.528,2.057,4.585,4.585,4.585c2.528,0,4.584-2.057,4.584-4.585
						C239.516,133.863,237.459,131.806,234.931,131.806z"/>
				</g>
				<g>
					<path style="fill:#FFFFFF;" d="M317.822,394.546c-3.29,0-5.966-2.676-5.966-5.965c0-3.29,2.676-5.966,5.966-5.966
						c3.289,0,5.965,2.676,5.965,5.966C323.787,391.87,321.111,394.546,317.822,394.546z M317.822,383.996
						c-2.528,0-4.585,2.057-4.585,4.585c0,2.527,2.057,4.584,4.585,4.584c2.527,0,4.584-2.057,4.584-4.584
						C322.406,386.053,320.35,383.996,317.822,383.996z"/>
				</g>
				<g>
					<path style="fill:#CEE5F3;" d="M26.447,135.825c-3.29,0-5.965-2.676-5.965-5.965c0-3.29,2.676-5.965,5.965-5.965
						c3.289,0,5.965,2.676,5.965,5.965C32.413,133.149,29.737,135.825,26.447,135.825z M26.447,125.275
						c-2.528,0-4.584,2.057-4.584,4.584c0,2.528,2.057,4.584,4.584,4.584c2.528,0,4.584-2.057,4.584-4.584
						C31.032,127.332,28.975,125.275,26.447,125.275z"/>
				</g>
				<g>
					<path style="fill:#CEE5F3;" d="M462.505,208.418c-3.289,0-5.965-2.676-5.965-5.965c0-3.29,2.676-5.965,5.965-5.965
						c3.289,0,5.965,2.676,5.965,5.965C468.47,205.742,465.794,208.418,462.505,208.418z M462.505,197.868
						c-2.527,0-4.584,2.057-4.584,4.584c0,2.528,2.057,4.584,4.584,4.584c2.527,0,4.584-2.057,4.584-4.584
						C467.089,199.925,465.032,197.868,462.505,197.868z"/>
				</g>
			</g>
			<g>
				<defs>
					<path id="SVGID_1_" d="M461.027,385.405c-5.4-5.712-16.672-6.692-21.394-0.406c11.255-17.228,19.017-36.712,22.857-56.938
						H38.522c4.701,14.397,10.983,28.274,18.754,41.269c-20.209-0.73-36.071,19.754-37.842,39.938
						c-1.772,20.184,8.332,41.856,16.552,60.368h416.032c11.32-18.335,16.833-40.72,16.068-62.266
						C467.808,399.508,466.427,391.117,461.027,385.405z"/>
				</defs>
				<clipPath id="SVGID_00000160162115213088316280000009775853239145711751_">
					<use xlink:href="#SVGID_1_"  style="overflow:visible;"/>
				</clipPath>
				<g style="clip-path:url(#SVGID_00000160162115213088316280000009775853239145711751_);">
					<g>
						<g>
							<g>
								<path style="fill:#A9D0E8;" d="M196.508,457.564H84.943c-4.197,0-8.293-0.809-12.176-2.404l-4.429-1.819
									c-0.909-0.373-1.344-1.414-0.97-2.325c0.374-0.908,1.413-1.343,2.325-0.97l4.429,1.819c3.45,1.418,7.091,2.137,10.822,2.137
									h111.565c3.861,0,7.617-0.768,11.167-2.282l5.158-2.197c0.902-0.387,1.95,0.035,2.336,0.94
									c0.386,0.904-0.036,1.951-0.94,2.336l-5.157,2.197C205.078,456.7,200.851,457.564,196.508,457.564z"/>
							</g>
						</g>
						<g>
							<g>
								<g>
									<rect x="91.339" y="455.559" style="fill:#A9D0E8;" width="2.764" height="8.609"/>
								</g>
							</g>
							<g>
								<g>
									<path style="fill:#A9D0E8;" d="M98.418,464.107c0,3.16-2.562,5.722-5.722,5.722s-5.722-2.562-5.722-5.722
										c0-3.16,2.562-5.722,5.722-5.722S98.418,460.947,98.418,464.107z"/>
								</g>
								<g>
									<path style="fill:#CEE5F3;" d="M95.373,464.107c0,1.478-1.198,2.676-2.676,2.676c-1.478,0-2.676-1.198-2.676-2.676
										c0-1.478,1.198-2.676,2.676-2.676C94.175,461.43,95.373,462.629,95.373,464.107z"/>
								</g>
							</g>
						</g>
						<g>
							<g>
								<g>
									<rect x="189.672" y="455.559" style="fill:#A9D0E8;" width="2.764" height="8.609"/>
								</g>
							</g>
							<g>
								<g>
									<path style="fill:#A9D0E8;" d="M196.752,464.107c0,3.16-2.562,5.722-5.722,5.722c-3.16,0-5.722-2.562-5.722-5.722
										c0-3.16,2.562-5.722,5.722-5.722C194.19,458.385,196.752,460.947,196.752,464.107z"/>
								</g>
								<g>
									<path style="fill:#CEE5F3;" d="M193.706,464.107c0,1.478-1.198,2.676-2.676,2.676c-1.478,0-2.676-1.198-2.676-2.676
										c0-1.478,1.198-2.676,2.676-2.676C192.508,461.43,193.706,462.629,193.706,464.107z"/>
								</g>
							</g>
						</g>
					</g>
					<g>
						<path style="fill:#A9D0E8;" d="M296.159,396.878H20.196v-10.245c0-13.791,11.18-24.971,24.971-24.971h226.021
							c13.791,0,24.971,11.18,24.971,24.971V396.878z"/>
					</g>
					<g>
						<path style="fill:#A9D0E8;" d="M297.122,407.763H19.233c-3.006,0-5.442-2.437-5.442-5.442l0,0
							c0-3.006,2.437-5.442,5.442-5.442h277.889c3.006,0,5.442,2.437,5.442,5.442l0,0
							C302.565,405.326,300.128,407.763,297.122,407.763z"/>
					</g>
					<g>
						<g>
							<rect x="42.226" y="403.903" style="fill:#A9D0E8;" width="16.81" height="65.33"/>
						</g>
						<g>
							<rect x="257.319" y="403.903" style="fill:#A9D0E8;" width="16.81" height="65.33"/>
						</g>
					</g>
					<g>
						<path style="fill:#A9D0E8;" d="M106.452,351.905H52.999c-2.9,0-5.251,2.351-5.251,5.251l0,0c0,2.9,2.351,5.251,5.251,5.251
							h53.453c2.9,0,5.252-2.351,5.252-5.251l0,0C111.703,354.256,109.352,351.905,106.452,351.905z"/>
					</g>
					<g>
						<path style="fill:#A9D0E8;" d="M100.075,341.777H46.622c-2.9,0-5.251,2.351-5.251,5.251l0,0c0,2.9,2.351,5.252,5.251,5.252
							h53.453c2.9,0,5.252-2.351,5.252-5.252l0,0C105.326,344.128,102.975,341.777,100.075,341.777z"/>
					</g>
					<g>
						<path style="fill:#A9D0E8;" d="M262.387,352.115h-52.383c-2.842,0-5.146,2.304-5.146,5.147l0,0
							c0,2.842,2.304,5.146,5.146,5.146h52.383c2.842,0,5.146-2.304,5.146-5.146l0,0
							C267.534,354.419,265.23,352.115,262.387,352.115z"/>
					</g>
					<g>
						<path style="fill:#A9D0E8;" d="M255.219,342.006h-52.383c-2.842,0-5.146,2.304-5.146,5.146l0,0
							c0,2.842,2.304,5.146,5.146,5.146h52.383c2.842,0,5.146-2.304,5.146-5.146l0,0
							C260.365,344.31,258.061,342.006,255.219,342.006z"/>
					</g>
					<g>
						<path style="fill:#A9D0E8;" d="M263.674,331.713h-52.383c-2.842,0-5.146,2.304-5.146,5.146l0,0
							c0,2.842,2.304,5.146,5.146,5.146h52.383c2.842,0,5.146-2.304,5.146-5.146l0,0
							C268.82,334.017,266.516,331.713,263.674,331.713z"/>
					</g>
					<g>
						<defs>
							
								<ellipse id="SVGID_00000107582179244731200870000001524153087202678928_" transform="matrix(0.7071 -0.7071 0.7071 0.7071 -205.811 371.4118)" cx="345.428" cy="434.142" rx="35.446" ry="35.446"/>
						</defs>
						<clipPath id="SVGID_00000057129197405383822950000014465966220575528588_">
							<use xlink:href="#SVGID_00000107582179244731200870000001524153087202678928_"  style="overflow:visible;"/>
						</clipPath>
						<g style="clip-path:url(#SVGID_00000057129197405383822950000014465966220575528588_);">
							
								<ellipse transform="matrix(0.7071 -0.7071 0.7071 0.7071 -205.811 371.4118)" style="fill:#A9D0E8;" cx="345.428" cy="434.142" rx="35.446" ry="35.446"/>
						</g>
						<g style="clip-path:url(#SVGID_00000057129197405383822950000014465966220575528588_);">
							<g>
								<path style="fill:#CEE5F3;" d="M303.118,447.909c-5.92,0-11.782-1.459-17.147-4.334c-17.69-9.48-24.37-31.587-14.89-49.277
									c9.482-17.691,31.589-24.369,49.276-14.89c17.69,9.481,24.37,31.587,14.89,49.277c-4.593,8.57-12.248,14.838-21.555,17.65
									C310.212,447.388,306.654,447.909,303.118,447.909z M303.223,377.004c-12.315,0-24.247,6.603-30.459,18.194
									c-8.984,16.765-2.655,37.712,14.108,46.695c8.121,4.354,17.448,5.28,26.27,2.617c8.819-2.665,16.073-8.605,20.425-16.726
									c8.984-16.764,2.654-37.711-14.108-46.695C314.287,378.318,308.716,377.004,303.223,377.004z"/>
							</g>
							<g>
								<path style="fill:#CEE5F3;" d="M387.631,493.186c-5.798,0-11.675-1.387-17.133-4.311c-17.69-9.48-24.37-31.587-14.89-49.277
									c9.481-17.689,31.587-24.369,49.277-14.89c17.69,9.48,24.37,31.587,14.89,49.277
									C413.219,486.218,400.626,493.186,387.631,493.186z M387.749,422.304c-12.314,0-24.247,6.602-30.459,18.194
									c-8.984,16.765-2.655,37.712,14.108,46.695c8.121,4.354,17.449,5.281,26.271,2.617c8.819-2.665,16.073-8.605,20.425-16.725
									c8.984-16.765,2.655-37.712-14.108-46.695C398.813,423.618,393.243,422.304,387.749,422.304z"/>
							</g>
						</g>
						<g style="clip-path:url(#SVGID_00000057129197405383822950000014465966220575528588_);">
							
								<rect x="345.064" y="384.211" transform="matrix(0.4724 -0.8814 0.8814 0.4724 -199.1136 533.472)" style="fill:#CEE5F3;" width="1.908" height="97.662"/>
						</g>
						<g style="clip-path:url(#SVGID_00000057129197405383822950000014465966220575528588_);">
							
								<rect x="297.187" y="432.088" transform="matrix(0.472 -0.8816 0.8816 0.472 -199.0733 533.6868)" style="fill:#CEE5F3;" width="97.662" height="1.907"/>
						</g>
					</g>
				</g>
			</g>
		</g>
		<g>
			<g>
				<polygon style="fill:#A9D0E8;" points="441.434,469.258 414.044,469.258 404.054,433.216 451.423,433.216 				"/>
				<rect x="401.068" y="430.539" style="fill:#A9D0E8;" width="53.341" height="7.414"/>
			</g>
			<g>
				<g>
					<path style="fill:#A9D0E8;" d="M439.718,437.101c-3.481-4.223-2.55-11.332,1.9-14.517c2.439-1.745,5.499-2.302,8.347-3.243
						c2.848-0.941,5.789-2.552,6.847-5.358c1.165-3.09-0.337-6.513-2.058-9.332c-1.721-2.819-3.768-5.713-3.761-9.015
						c0.008-3.652,2.61-6.859,5.684-8.832c3.074-1.973,6.638-3.006,9.993-4.449c4.241-1.824,8.284-4.419,10.962-8.179
						c2.679-3.76,3.802-8.827,2.091-13.115c-2.294-5.75-9.241-8.701-15.356-7.733c-6.115,0.968-11.33,5.117-15.097,10.03
						c-7.217,9.414-9.907,22.146-7.116,33.674c0.684,2.826,1.683,5.743,1.007,8.57c-0.883,3.696-4.311,6.101-6.798,8.974
						c-5.671,6.553-6.417,16.891-1.745,24.19C436.083,438.357,438.254,437.51,439.718,437.101z"/>
					<path style="fill:none;stroke:#CEE5F3;stroke-miterlimit:10;" d="M435.052,430.324c-1.295-4.098,0.364-8.949,3.898-11.396
						c3.18-2.202,7.65-2.641,9.919-5.773c1.834-2.532,1.565-6.048,0.531-8.999s-2.733-5.647-3.613-8.647
						c-2.024-6.901,0.667-14.526,5.334-19.997c4.668-5.471,11.07-9.141,17.499-12.363"/>
				</g>
				<g>
					<path style="fill:#A9D0E8;" d="M417.897,437.594c2.39-4.198,0.508-10.242-3.844-12.34c-2.385-1.15-5.131-1.172-7.75-1.561
						c-2.619-0.389-5.421-1.346-6.764-3.627c-1.48-2.512-0.69-5.716,0.382-8.428c1.071-2.711,2.415-5.538,1.91-8.409
						c-0.558-3.176-3.306-5.572-6.277-6.824c-2.971-1.252-6.228-1.613-9.364-2.361c-3.965-0.946-7.872-2.594-10.77-5.46
						c-2.898-2.866-4.639-7.104-3.799-11.092c1.127-5.348,6.725-8.963,12.19-9.044c5.465-0.081,10.627,2.74,14.645,6.445
						c7.698,7.099,11.961,17.767,11.273,28.216c-0.168,2.561-0.597,5.249,0.417,7.607c1.326,3.082,4.671,4.656,7.268,6.78
						c5.922,4.844,8.132,13.723,5.169,20.777C421.249,438.138,419.232,437.729,417.897,437.594z"/>
					<path style="fill:none;stroke:#CEE5F3;stroke-width:0.8828;stroke-miterlimit:10;" d="M420.933,430.995
						c0.508-3.76-1.667-7.729-5.11-9.324c-3.098-1.435-7.053-1.142-9.499-3.524c-1.977-1.926-2.274-5.024-1.82-7.747
						s1.525-5.324,1.838-8.067c0.718-6.308-2.773-12.535-7.658-16.589c-4.886-4.054-11.009-6.28-17.087-8.111"/>
				</g>
				<g>
					<path style="fill:#A9D0E8;" d="M432.003,435.487c0.625-6.04-2.243-11.816-4.732-17.355c-2.489-5.539-4.696-11.808-2.756-17.562
						c2.011-5.964,7.9-9.678,11.313-14.967c3.761-5.828,4.247-13.402,2.214-20.033c-1.582-5.16-4.728-9.976-9.319-12.814
						c-4.591-2.838-10.701-3.431-15.423-0.817c-4.722,2.614-7.503,8.655-5.735,13.755c2.647,7.635,13.014,9.956,16.578,17.207
						c1.532,3.117,1.551,6.937,0.05,10.069c-1.604,3.346-4.721,5.742-6.528,8.982c-2.042,3.661-2.198,8.313-0.404,12.102
						c1.716,3.627,4.951,6.254,7.603,9.266c2.651,3.012,2.962,7.471,1.933,11.35C427.759,435.22,431.042,434.938,432.003,435.487z"
						/>
					<path style="fill:none;stroke:#CEE5F3;stroke-miterlimit:10;" d="M429.735,432.078c-0.122-4.618-2.732-8.746-5.178-12.665
						c-2.446-3.919-4.894-8.204-4.634-12.816c0.201-3.575,2.025-6.855,4.111-9.766s4.49-5.622,6.135-8.802
						c2.75-5.316,3.143-11.799,1.053-17.408c-2.089-5.609-6.628-10.256-12.186-12.477"/>
				</g>
			</g>
		</g>
		<g>
			<g>
				<g>
					<path style="fill:#D8E9F3;" d="M392.53,347.606h-88.416c-14.187,0-25.689-11.501-25.689-25.689V85.344
						c0-14.187,11.501-25.689,25.689-25.689h88.416c14.187,0,25.689,11.501,25.689,25.689v236.573
						C418.218,336.105,406.717,347.606,392.53,347.606z"/>
				</g>
				<g style="opacity:0.7;">
					<defs>
						<path id="SVGID_00000181788293456215793080000003194403898432296111_" style="opacity:0.7;" d="M392.53,347.606h-88.416
							c-14.187,0-25.689-11.501-25.689-25.689V85.344c0-14.187,11.501-25.689,25.689-25.689h88.416
							c14.187,0,25.689,11.501,25.689,25.689v236.573C418.218,336.105,406.717,347.606,392.53,347.606z"/>
					</defs>
					<clipPath id="SVGID_00000088816998926630044280000016369881460476002237_">
						<use xlink:href="#SVGID_00000181788293456215793080000003194403898432296111_"  style="overflow:visible;"/>
					</clipPath>
					<g style="clip-path:url(#SVGID_00000088816998926630044280000016369881460476002237_);">
						<g>
							<path style="fill:#1E92F7;" d="M366.036,445.823c-0.089-1.412,1.362-2.614,4.312-3.572c2.483-0.807,5.801-1.372,9.341-1.592
								c5.168-0.323,13.975,0.041,14.187,3.434l-1.922,0.121c0,0.008,0.002,0.014,0.002,0.015c-0.23-0.67-4.182-2.137-12.147-1.647
								c-7.964,0.495-11.704,2.444-11.85,3.138L366.036,445.823z"/>
						</g>
						<g>
							<path style="fill:#141332;" d="M288.475,248.471c2.839,3.36,5.921,5.424,6.885,4.61c0.964-0.814-0.556-4.198-3.395-7.559
								c-2.839-3.36-5.921-5.424-6.885-4.61C284.117,241.726,285.637,245.111,288.475,248.471z"/>
						</g>
						<g>
							<g>
								<path style="fill:#FA5855;" d="M370.176,347.304c7.081,0.361,14.151,0.911,21.219,1.5c-0.393,6.674-0.813,13.351-0.711,20
									l0.125,87.49c0.013,5.175-3.847,9.66-9.111,10.298c-5.679,0.688-10.841-3.357-11.529-9.036l-10.547-86.986
									c-0.837-7.971-2.257-15.912-3.528-23.862C360.789,346.884,365.484,347.066,370.176,347.304z"/>
							</g>
						</g>
						<g>
							<path style="fill:#B23632;" d="M384.303,374.24c-0.171,2.044-0.599,4.109-1.652,5.889c-1.053,1.78-2.804,3.249-4.886,3.632
								c-2.5,0.46-5.099-0.718-6.833-2.52c-1.734-1.802-2.732-4.148-3.493-6.498c-0.929-2.87-1.56-5.895-1.183-8.88
								c0.377-2.985,1.882-5.942,4.487-7.583c2.823-1.778,8.296-1.768,10.38,1.177C383.964,363.473,384.699,369.521,384.303,374.24z
								"/>
						</g>
						<g>
							<path style="fill:#141332;" d="M331.811,90.59c-3.365,1.135-6.996,1.47-10.511,0.972c-1.155-0.164-2.43-0.508-3.017-1.516
								c-0.511-0.879-0.331-1.988-0.035-2.961c0.856-2.819,2.599-5.619,4.88-7.484c-0.981,0.002-1.983-0.039-2.9-0.39
								c-0.916-0.351-1.744-1.062-1.999-2.01c-0.215-0.8,0.003-1.671,0.436-2.377c0.433-0.706,1.063-1.269,1.718-1.775
								c2.181-1.685,4.535-3.622,7.235-4.17c-2.555-1.083-4.705-3.092-5.959-5.567c-0.4-0.789-0.716-1.692-0.493-2.548
								c0.379-1.454,2.066-2.089,3.541-2.375c5.016-0.975,10.491-0.525,15.242,1.358c-1.98-2.277-3.401-5.037-4.104-7.972
								c-0.251-1.049-0.396-2.218,0.138-3.156c0.486-0.853,1.463-1.341,2.439-1.447c0.976-0.106,1.957,0.119,2.895,0.409
								c5.598,1.731,10.346,5.645,12.802,10.964c-0.365-2.198-0.725-4.489-0.076-6.62c0.649-2.131,2.637-4.033,4.852-3.798
								c2.099,0.222,3.555,2.152,4.601,3.986c2.445,4.288,4.336,8.864,5.155,13.732c0.228-1.271,0.468-2.574,1.128-3.684
								c0.661-1.11,1.842-2.004,3.133-1.948c1.881,0.082,3.1,2.003,3.747,3.771c1.859,5.085,1.477,10.784-0.604,15.782
								c0.528-0.958,1.068-1.933,1.862-2.685c0.794-0.752,1.898-1.26,2.976-1.076c2.018,0.344,2.908,2.744,3.091,4.784
								c0.411,4.572-0.8,9.203-2.962,13.252c-2.162,4.05-5.241,7.553-8.653,10.625C360.514,95.863,345.804,85.871,331.811,90.59z"/>
						</g>
						<g>
							<rect x="336.965" y="117.529" style="fill:#FA5855;" width="23.89" height="32.21"/>
						</g>
						<g>
							<path style="fill:#BB2B2B;" d="M336.965,117.529v9.963c5.441,0.226,17.922-0.347,23.001-9.918l-3.497-0.045H336.965z"/>
						</g>
						<g>
							<g>
								<path style="fill:#FA5855;" d="M301.633,358.478c0.221-4.535,0.391-9.076,0.568-13.617
									c9.191,0.337,18.388,0.514,27.589,0.619c2.879,0.193,5.759,0.365,8.641,0.507c-0.207,0.886-0.405,1.774-0.621,2.66
									c-1.788,7.306-3.626,14.605-5.2,21.941l0.082-2.353l-0.148,2.652c0.021-0.1,0.045-0.199,0.066-0.299l-2.954,85.142
									c-0.176,5.248-4.314,9.651-9.729,9.982c-5.649,0.345-10.46-4.123-10.974-9.76l-6.812-74.636
									c3.991-2.022,5.686-5.534,6.565-9.049C309.418,367.274,306.395,361.215,301.633,358.478z"/>
							</g>
							<g>
								<path style="fill:#FA5855;" d="M332.691,368.236l-0.082,2.353c-0.021,0.1-0.045,0.199-0.066,0.299L332.691,368.236z"/>
							</g>
							<g>
								<path style="fill:#B23632;" d="M301.134,367.073l0.041-0.597c0.184-2.661,0.327-5.328,0.457-7.997
									c4.762,2.737,7.785,8.796,7.072,13.789c-0.879,3.515-2.574,7.027-6.565,9.049l-0.966-10.579
									C301.161,369.514,301.148,368.296,301.134,367.073z"/>
							</g>
						</g>
						<g>
							<path style="fill:#FA5855;" d="M316.21,245.066h65.401l2.605-88.761c0.234-7.989-4.123-15.096-10.697-17.326l-23.532-7.984
								l-25.454,8.131c-6.689,2.137-11.159,9.306-10.921,17.395L316.21,245.066z"/>
						</g>
						<g>
							<path style="fill:#FA5855;" d="M323.274,297.808h51.271c7.007,0,12.19-9.098,11.104-19.313l-4.215-39.623h-65.05
								l-4.215,39.623C311.084,288.71,316.267,297.808,323.274,297.808z"/>
						</g>
						<g>
							<path style="fill:#BB2B2B;" d="M432.301,194.245c0.32,0.39,0.648,0.772,0.965,1.165l1.815,2.242
								c3.791,4.685,3.836,11.549-0.211,16.306l-1.368,1.608c-0.975-0.787-1.86-1.664-2.741-2.544
								C427.376,206.927,428.801,199.872,432.301,194.245z"/>
						</g>
						<g>
							<path style="fill:#FA5855;" d="M357.67,144.985c5.006-6.751,14.537-8.167,21.288-3.161c5.149,3.818,9.957,7.99,14.69,12.24
								c4.711,4.273,9.29,8.683,13.776,13.19c4.492,4.5,8.916,9.071,13.24,13.747c3.967,4.323,7.895,8.688,11.638,13.243
								c-3.5,5.628-4.925,12.682-1.539,18.777c0.881,0.881,1.766,1.757,2.741,2.544l-37.947,44.609
								c-0.88,3.849-1.438,7.771-1.649,11.713c-0.118,2.197-0.136,4.432-0.787,6.534c-0.65,2.102-2.061,4.102-4.135,4.836
								c-1.219-6.274-2.302-12.488-3.158-18.733c-1.261-0.193-2.505-0.631-3.655-1.35c-4.519-2.828-5.889-8.783-3.062-13.301
								l25.699-41.066c-2.027-1.671-4.039-3.359-6.039-5.059c-4.837-4.141-9.574-8.388-14.243-12.704
								c-4.675-4.31-9.257-8.717-13.707-13.261c-4.429-4.566-8.781-9.211-12.793-14.211
								C353.802,158.309,353.462,150.661,357.67,144.985z"/>
						</g>
						<g>
							<path style="fill:#FA5855;" d="M263.288,214.827c4.704-5.247,4.556-13.614,1.051-19.643c3.973-4.9,8.176-9.561,12.417-14.183
								c4.323-4.675,8.748-9.246,13.24-13.747c4.486-4.507,9.065-8.917,13.776-13.19c4.732-4.251,9.541-8.423,14.69-12.24
								c5.422-4.019,13.078-4.067,18.589,0.356c6.555,5.26,7.605,14.839,2.344,21.394c-4.012,4.999-8.365,9.645-12.794,14.211
								c-4.45,4.544-9.032,8.951-13.707,13.261c-4.669,4.316-9.406,8.563-14.243,12.704c-2,1.699-4.012,3.387-6.039,5.059
								l25.699,41.066c2.505,3.994,1.769,9.326-1.928,12.471c-1.415,1.204-3.077,1.917-4.788,2.178
								c-0.856,6.246-1.939,12.461-3.158,18.735c-2.074-0.735-3.484-2.734-4.135-4.836c-0.65-2.102-0.669-4.337-0.787-6.534
								c-0.212-3.942-0.769-7.865-1.65-11.713L263.288,214.827z"/>
						</g>
						<g>
							<path style="fill:#FA5855;" d="M324.911,94.704c0-15.784,10.557-28.579,23.579-28.579c13.023,0,23.579,12.795,23.579,28.579
								c0,4.936-1.044,9.884-3.187,14.339c-1.927,4.005-4.754,7.62-8.377,10.224c-2.251,1.618-4.891,2.858-7.607,3.435
								c-1.805,0.384-3.752,0.301-5.59,0.326c-2.016,0.028-4.033,0.002-6.048-0.078c-2.344-0.093-4.82-0.209-7.059-0.975
								c-1.982-0.678-3.803-1.88-5.227-3.412c-2.451-2.637-3.801-6.171-3.801-9.765V98.757
								C325.019,97.43,324.911,96.084,324.911,94.704z"/>
						</g>
						<g>
							<g>
								<path style="fill:#FA5855;" d="M366.821,94.505c0.846-1.505,2.889-2.371,4.819-2.229c1.93,0.142,3.685,1.191,4.744,2.592
									c1.059,1.401,1.467,3.118,1.404,4.791c-0.065,1.726-0.636,3.471-1.856,4.838c-1.221,1.368-3.135,2.316-5.135,2.31
									c-1.999-0.006-4.006-1.067-4.702-2.686L366.821,94.505z"/>
							</g>
							<g>
								<g>
									<path style="fill:#BB2B2B;" d="M371.389,104.309c-0.184,0-0.361-0.099-0.455-0.272c-1.616-3.005-1.381-6.642,0.613-9.492
										c0.163-0.235,0.485-0.291,0.719-0.127c0.234,0.164,0.291,0.486,0.127,0.719c-1.769,2.529-1.979,5.752-0.549,8.411
										c0.135,0.251,0.041,0.564-0.21,0.7C371.556,104.289,371.472,104.309,371.389,104.309z"/>
								</g>
								<g>
									<path style="fill:#BB2B2B;" d="M374.229,102.585c-0.206,0-0.4-0.124-0.48-0.328c-0.505-1.283-1.647-2.394-3.134-3.047
										c-0.261-0.115-0.38-0.419-0.265-0.681c0.114-0.262,0.42-0.38,0.681-0.265c1.733,0.762,3.075,2.079,3.679,3.614
										c0.104,0.265-0.025,0.565-0.291,0.669C374.356,102.573,374.293,102.585,374.229,102.585z"/>
								</g>
							</g>
						</g>
						<g>
							<path style="fill:#F7931E;" d="M346.772,300.491c1.528,0.382,2.431,0.575,3.959,0.957
								c0.243,19.993,2.083,39.875,5.016,59.716c12.522-0.608,25.216-1.563,37.647-2.265c0.735-39.91-4.157-78.664-11.113-117.542
								h-66.936c-2.678,14.369-6.06,29.404-8.738,43.773c-4.356,23.373-4.705,42.305-6.518,70.732
								c11.905,1.484,25.056,4.034,36.961,5.518C342.521,341.147,344.931,321.003,346.772,300.491z"/>
						</g>
						<g>
							<g>
								<g>
									<path style="fill:#FA5855;" d="M380.4,451.769L380.4,451.769c7.316,0,13.246,5.93,13.246,13.246v2.475h-26.492v-2.475
										C367.154,457.7,373.084,451.769,380.4,451.769z"/>
								</g>
							</g>
							<g>
								<g>
									<path style="fill:#141332;" d="M366.753,469.634l27.279-0.056c0.623-0.001,1.127-0.507,1.126-1.13l0-0.056
										c-0.001-0.623-0.507-1.127-1.129-1.125l-27.281,0.056c-0.622,0.001-1.126,0.507-1.125,1.129l0,0.056
										C365.624,469.131,366.13,469.636,366.753,469.634z"/>
								</g>
							</g>
							<g>
								<path style="fill:#141332;" d="M370.673,454.805c0.101-0.002,0.201-0.003,0.301-0.003c4.603,0,6.928,2.449,7.98,4.109
									c1.316-2.006,4.489-4.989,11.422-3.87c0.449,0.072,0.754,0.495,0.68,0.944c-0.072,0.45-0.502,0.759-0.944,0.68
									c-8.079-1.296-10.099,3.484-10.366,4.253v6.746c0,0.455-0.368,0.823-0.823,0.823c-0.455,0-0.823-0.368-0.823-0.823v-6.854
									c-0.219-0.589-1.864-4.434-7.389-4.359c-0.479,0.053-0.833-0.349-0.843-0.804
									C369.86,455.193,370.22,454.816,370.673,454.805z"/>
							</g>
						</g>
						<g>
							<g>
								<path style="fill:#FA5855;" d="M321.14,446.787l-9.152,3.419c0,0-17.015,6.764-20.466,11.722c0,0-6.04-1.115-5.857,2.979
									c0.164,3.667,26.779,2.846,38.365,2.557c2.92-0.073,5.317-2.317,5.583-5.226c0.304-3.315,0.25-7.855,0.168-10.433
									L321.14,446.787z"/>
							</g>
							<g>
								<path style="fill:#141332;" d="M283.34,469.698l46.213-0.058c0.625-0.001,1.13-0.508,1.13-1.133l0,0
									c-0.001-0.625-0.508-1.13-1.133-1.13l-46.213,0.058c-0.625,0.001-1.13,0.508-1.13,1.133l0,0
									C282.208,469.193,282.715,469.699,283.34,469.698z"/>
							</g>
							<g>
								<g>
									<path style="fill:#141332;" d="M306.086,468.673c0.103,0.083,0.226,0.143,0.365,0.167c0.438,0.079,0.857-0.213,0.934-0.65
										c1.912-10.667-6.806-13.966-6.892-13.997c-0.418-0.152-0.878,0.064-1.031,0.48c-0.152,0.418,0.059,0.88,0.479,1.033
										c0.306,0.115,7.522,2.898,5.859,12.2C305.748,468.204,305.866,468.494,306.086,468.673z"/>
								</g>
							</g>
						</g>
						<g>
							<path style="fill:#1E92F7;" d="M308.468,270.255c2.674-23.018,5.659-53.781,4.812-74.064
								c8.367-6.638,13.599-16.676,15.854-27.116c2.255-10.439,1.332-21.734-0.256-32.295l4.18-1.432
								c0.368,4.086,1.258,8.193,3.261,11.773s5.219,6.604,9.156,7.757c5.24,1.535,11.153-0.534,14.903-4.503
								c3.75-3.969,5.479-9.564,5.478-15.024l4.639,1.34c-0.879,10.54-1.495,21.084,0.218,31.521
								c1.713,10.437,5.944,20.739,13.542,28.096c-0.335,19.956,2.177,50.143,3.896,71.633
								C363.22,271.239,333.604,270.981,308.468,270.255z"/>
						</g>
						<g>
							<path style="fill:#141332;" d="M324.705,81.283c0.155-1.354,0.862-2.58,1.636-3.701l1.324-1.109
								c3.611-4.539,7.429-9.242,12.727-11.604c5.363-2.392,11.745-2.011,17.091,0.42c5.346,2.43,9.691,6.766,12.743,11.783
								c3.052,5.017,5.135,11.016,6.289,16.774c-2.782,3.046-7.592,4.021-11.341,2.298c-1.101-0.506-2.194-1.351-2.377-2.549
								c-0.221-1.449,0.946-2.701,2.018-3.7c-2.236,0.84-4.366,1.03-6.752,0.928c-0.55-0.023-1.109-0.075-1.616-0.288
								c-0.507-0.214-0.96-0.614-1.117-1.141c-0.177-0.597,0.048-1.237,0.334-1.791c0.676-1.307,1.72-2.422,2.98-3.183
								c-2.923,1.148-5.844,1.893-8.964,2.253c-0.778,0.09-1.617,0.142-2.293-0.254c-0.98-0.574-1.255-1.933-0.928-3.021
								c0.327-1.088,1.112-1.969,1.875-2.811c-2.061,2.434-4.931,4.142-8.088,4.595c-0.868,0.124-1.819,0.144-2.548-0.345
								c-1.034-0.694-1.23-2.207-0.78-3.368c0.45-1.161,1.389-2.053,2.299-2.903c-2.573,2.126-5.151,3.972-8.094,5.547
								c-1.51,0.808-3.371,1.538-4.865,0.699C325.07,84.146,324.551,82.637,324.705,81.283z"/>
						</g>
						<g>
							<g>
								<g>
									<circle style="fill:#1F1B21;" cx="349.337" cy="99.329" r="2.23"/>
								</g>
							</g>
							<g>
								<g>
									<circle style="fill:#1F1B21;" cx="333.125" cy="99.329" r="2.23"/>
								</g>
							</g>
							<g>
								<path style="fill:#1F1B21;" d="M340.303,117.929c-0.198,0-0.379-0.132-0.433-0.332c-0.064-0.239,0.077-0.485,0.316-0.549
									c0.811-0.217,1.67-0.223,2.48-0.018c0.24,0.061,0.386,0.304,0.325,0.544c-0.061,0.24-0.306,0.385-0.544,0.324
									c-0.664-0.167-1.365-0.162-2.029,0.015C340.38,117.924,340.341,117.929,340.303,117.929z"/>
							</g>
							<g>
								<path style="fill:#1F1B21;" d="M346.529,91.259c3.794,0.443,7.371,1.949,10.262,4.248c0.427,0.34,0.498,0.962,0.159,1.389
									c-0.313,0.394-0.867,0.485-1.286,0.23l-0.006-0.004c-2.84-1.721-6.125-2.599-9.318-2.557
									c-0.917,0.012-1.669-0.722-1.681-1.638c-0.012-0.917,0.721-1.669,1.638-1.681c0.069-0.001,0.137,0.002,0.204,0.01
									L346.529,91.259z"/>
							</g>
							<g>
								<path style="fill:#1F1B21;" d="M336.065,94.45c-3.194,0.033-6.458,0.986-9.257,2.772l-0.006,0.004
									c-0.46,0.294-1.071,0.159-1.365-0.302c-0.271-0.424-0.177-0.977,0.2-1.291c2.837-2.365,6.378-3.953,10.161-4.484
									l0.019-0.003c0.908-0.127,1.747,0.506,1.874,1.413c0.127,0.908-0.506,1.747-1.413,1.874
									C336.21,94.443,336.132,94.448,336.065,94.45z"/>
							</g>
							<g>
								<path style="fill:#B23632;" d="M347.678,105.742c0,1.074,1.703,1.944,3.804,1.944c2.101,0,3.804-0.87,3.804-1.944
									c0-1.074-1.703-1.944-3.804-1.944C349.381,103.798,347.678,104.668,347.678,105.742z"/>
							</g>
							<g>
								<path style="fill:#B23632;" d="M326.416,105.742c0,1.074,1.703,1.944,3.804,1.944c2.101,0,3.804-0.87,3.804-1.944
									c0-1.074-1.703-1.944-3.804-1.944C328.119,103.798,326.416,104.668,326.416,105.742z"/>
							</g>
							<g>
								<path style="fill:#1F1B21;" d="M346.586,115.444c-0.081,0-0.162-0.021-0.236-0.063c-3.148-1.8-7.103-1.898-10.319-0.255
									c-0.232,0.118-0.521,0.027-0.642-0.208c-0.119-0.234-0.026-0.521,0.208-0.642c3.498-1.786,7.8-1.681,11.226,0.277
									c0.228,0.131,0.309,0.422,0.178,0.651C346.912,115.358,346.751,115.444,346.586,115.444z"/>
							</g>
							<g>
								<path style="fill:#1F1B21;" d="M341.333,110.139c-0.891,0-1.844-0.214-2.511-0.941c-0.548-0.596-0.812-1.494-0.726-2.463
									c0.074-0.822,0.363-1.573,0.643-2.299l2.309-5.999c0.089-0.232,0.349-0.348,0.579-0.257c0.23,0.089,0.346,0.348,0.257,0.579
									l-2.309,5.998c-0.257,0.67-0.523,1.361-0.586,2.059c-0.065,0.718,0.115,1.366,0.493,1.777
									c0.706,0.769,2.023,0.689,2.747,0.575c0.234-0.037,0.474,0.126,0.513,0.372c0.039,0.244-0.127,0.474-0.372,0.513
									C342.051,110.103,341.697,110.139,341.333,110.139z"/>
							</g>
						</g>
						<g>
							<g>
								<path style="fill:#141332;" d="M290.744,248.902l18.042-14.561c0.6-0.484,0.694-1.363,0.209-1.963l-1.841-2.28
									c-0.484-0.6-1.363-0.694-1.962-0.21l-18.042,14.561L290.744,248.902z"/>
							</g>
						</g>
						<g>
							<path style="fill:#1E92F7;" d="M377.101,449.355c-2.364,0-4.549-0.177-6.344-0.522c-3.045-0.586-4.634-1.599-4.721-3.011
								l1.922-0.119c0-0.008-0.002-0.014-0.002-0.016c0.23,0.669,4.181,2.138,12.146,1.647c7.965-0.495,11.705-2.445,11.851-3.138
								l1.922-0.103c0.211,3.393-8.483,4.843-13.653,5.163C379.159,449.323,378.113,449.355,377.101,449.355z"/>
						</g>
						<g>
							<polygon style="fill:#C77618;" points="394.855,356.913 354.215,359.365 355.617,364.883 394.592,361.73 							"/>
						</g>
						<g>
							<polygon style="fill:#C77618;" points="298.909,353.683 339.073,360.348 337.106,365.69 298.67,358.501 							"/>
						</g>
						<g>
							<path style="fill:#C77618;" d="M358.025,356.919c-0.232,0-0.435-0.169-0.471-0.404c0,0-0.13-0.852-0.346-2.359
								c-0.038-0.261,0.143-0.502,0.404-0.539c0.255-0.042,0.502,0.144,0.539,0.404c0.216,1.5,0.345,2.349,0.346,2.35
								c0.039,0.261-0.14,0.504-0.399,0.544C358.074,356.917,358.05,356.919,358.025,356.919z"/>
							<path style="fill:#C77618;" d="M353.615,304.519c-0.007,0-0.014,0-0.021,0c-0.263-0.012-0.467-0.235-0.455-0.498
								c0.038-0.833,0.089-1.635,0.152-2.398c0.022-0.263,0.257-0.452,0.516-0.435c0.262,0.022,0.457,0.253,0.436,0.516
								c-0.064,0.751-0.114,1.539-0.15,2.36C354.08,304.319,353.869,304.519,353.615,304.519z"/>
						</g>
						<g>
							<path style="fill:#C77618;" d="M334.897,357.649c-0.033,0-0.067-0.003-0.103-0.011c-0.257-0.057-0.42-0.311-0.363-0.568
								c0.001-0.001,0.383-1.745,0.984-4.682c0.053-0.259,0.31-0.423,0.563-0.371c0.258,0.053,0.424,0.305,0.371,0.563
								c-0.603,2.946-0.986,4.695-0.986,4.695C335.314,357.498,335.117,357.649,334.897,357.649z M336.822,348.275
								c-0.031,0-0.062-0.003-0.093-0.009c-0.259-0.051-0.427-0.301-0.376-0.56c0.283-1.442,0.585-3.014,0.9-4.686
								c0.049-0.26,0.304-0.431,0.557-0.381c0.259,0.049,0.43,0.298,0.381,0.557c-0.315,1.677-0.619,3.25-0.902,4.694
								C337.244,348.118,337.045,348.275,336.822,348.275z M338.586,338.889c-0.028,0-0.057-0.002-0.085-0.007
								c-0.26-0.047-0.432-0.295-0.386-0.554c0.273-1.52,0.548-3.091,0.822-4.699c0.044-0.261,0.291-0.435,0.55-0.39
								c0.26,0.044,0.435,0.29,0.39,0.55c-0.275,1.61-0.55,3.186-0.822,4.707C339.013,338.727,338.811,338.889,338.586,338.889z
								 M340.186,329.475c-0.025,0-0.051-0.002-0.076-0.006c-0.26-0.041-0.438-0.286-0.396-0.546
								c0.249-1.556,0.491-3.131,0.726-4.713c0.038-0.262,0.283-0.447,0.541-0.402c0.261,0.039,0.44,0.281,0.402,0.541
								c-0.234,1.586-0.479,3.165-0.728,4.725C340.619,329.308,340.416,329.475,340.186,329.475z M341.58,320.027
								c-0.021,0-0.043-0.001-0.064-0.004c-0.261-0.035-0.444-0.275-0.409-0.536c0.213-1.587,0.412-3.167,0.595-4.729
								c0.03-0.261,0.262-0.442,0.529-0.418c0.261,0.03,0.448,0.268,0.418,0.529c-0.183,1.566-0.384,3.152-0.597,4.745
								C342.02,319.853,341.814,320.027,341.58,320.027z M342.682,310.544c-0.016,0-0.031,0-0.046-0.002
								c-0.263-0.025-0.455-0.258-0.43-0.52c0.158-1.66,0.288-3.257,0.387-4.744c0.017-0.262,0.222-0.469,0.507-0.444
								c0.263,0.018,0.462,0.244,0.444,0.507c-0.099,1.497-0.229,3.103-0.389,4.772
								C343.132,310.359,342.924,310.544,342.682,310.544z M343.287,301.017c-0.004,0-0.008,0-0.012,0
								c-0.264-0.007-0.472-0.226-0.465-0.488l0.01-0.448l0.953,0.009l-0.01,0.463C343.757,300.811,343.545,301.017,343.287,301.017
								z"/>
						</g>
						<g>
							<path style="fill:#C77618;" d="M351.339,293.369c-0.019,0-0.036-0.001-0.055-0.004c-0.239-0.029-0.41-0.248-0.38-0.487
								l2.493-20.182c0.03-0.241,0.252-0.419,0.487-0.38c0.239,0.029,0.41,0.248,0.38,0.487l-2.493,20.182
								C351.744,293.207,351.556,293.369,351.339,293.369z"/>
						</g>
						<g>
							<path style="fill:#C77618;" d="M352.009,287.989c-0.016,0-0.031-0.001-0.048-0.003l-4.582-0.49
								c-0.195-0.021-0.352-0.17-0.385-0.364l-2.292-14.078c-0.039-0.238,0.123-0.463,0.361-0.502
								c0.23-0.042,0.463,0.122,0.502,0.361l2.238,13.749l4.251,0.455c0.239,0.025,0.413,0.241,0.388,0.481
								C352.419,287.822,352.228,287.989,352.009,287.989z"/>
						</g>
						<g>
							<path style="fill:#C77618;" d="M386.528,287.513c-0.064,0-0.127-0.014-0.188-0.042c-6.866-3.253-12.496-9.133-15.447-16.134
								c-0.094-0.223,0.01-0.479,0.232-0.572c0.222-0.093,0.478,0.01,0.572,0.233c2.869,6.806,8.343,12.521,15.018,15.683
								c0.218,0.104,0.311,0.364,0.208,0.583C386.849,287.42,386.691,287.513,386.528,287.513z"/>
						</g>
						<g>
							<path style="fill:#C77618;" d="M308.259,287.513c-0.163,0-0.32-0.093-0.396-0.25c-0.103-0.219-0.01-0.479,0.208-0.583
								c6.675-3.161,12.148-8.878,15.018-15.683c0.094-0.223,0.349-0.325,0.572-0.233c0.223,0.094,0.326,0.35,0.232,0.572
								c-2.95,7-8.581,12.881-15.447,16.134C308.386,287.499,308.322,287.513,308.259,287.513z"/>
						</g>
						<g>
							<path style="fill:#135D9E;" d="M330.875,136.096c0.505,4.158,1.545,8.277,3.585,11.92c2.308,4.129,6.027,7.628,10.575,8.954
								c6.055,1.774,12.883-0.61,17.212-5.197c3.938-4.177,5.95-9.898,6.275-15.648l-2.67-0.772c0,5.454-1.726,11.052-5.474,15.019
								c-3.747,3.976-9.669,6.046-14.904,4.51c-3.938-1.154-7.152-4.177-9.154-7.762c-2.003-3.576-2.899-7.686-3.261-11.777
								L330.875,136.096z"/>
						</g>
						<g>
							<path style="fill:#135D9E;" d="M308.466,270.254c25.136,0.725,54.754,0.982,79.68-2.317
								c-0.067-0.791-0.124-1.592-0.191-2.412c-25.003,2.994-53.982,2.861-79.194,2.184
								C308.667,268.567,308.562,269.415,308.466,270.254z"/>
						</g>
						<g>
							<g>
								<path style="fill:#135D9E;" d="M375.993,198.022c0,7.53,0,15.061,0,22.591c-1.38-0.622-2.774-1.195-4.18-1.719
									c0-1.824,0-3.648,0-5.472c-1.135-0.181-2.278-0.349-3.427-0.503c0-1.601,0-3.201,0-4.802
									c1.149-0.051,2.291-0.107,3.427-0.167c0-0.73,0-1.459,0-2.189c-1.405,0.195-2.822,0.371-4.248,0.529
									c0-1.708,0-3.416,0-5.125C370.418,200.314,373.233,199.266,375.993,198.022z"/>
							</g>
							<g>
								<path style="fill:#135D9E;" d="M354.71,214.988c0.956-1.371,1.91-2.788,2.863-4.3c0.001-0.008-1.515-0.893-1.515-3.279
									c-0.002-2.397,1.692-4.148,5.37-4.918c2.508-0.507,4.819-0.953,4.819-0.948c0,5.183,0,10.366,0,15.549
									c-1.431-0.395-2.871-0.741-4.318-1.037c0-1.476,0-2.951,0-4.427c-0.056-0.004-0.111-0.008-0.167-0.012
									c-0.668,1.422-1.337,2.759-2.007,4.031C358.079,215.362,356.396,215.142,354.71,214.988z M361.929,208.162
									c0-0.706,0-1.411,0-2.117c-0.167,0.016-0.334,0.033-0.501,0.049c-0.585,0.059-1.003,0.555-1.003,1.105
									c0,0.55,0.418,0.997,1.003,0.981C361.595,208.174,361.762,208.168,361.929,208.162z"/>
							</g>
							<g>
								<path style="fill:#135D9E;" d="M349.641,210.862c-1.466-0.006-2.932,0.003-4.396,0.025c0-1.046,0-2.093,0-3.139
									c1.464,0.022,2.93,0.031,4.396,0.025c0-0.257,0-0.515,0-0.772c-1.578,0.009-3.157-0.006-4.734-0.046c0-1.05,0-2.1,0-3.15
									c3.041,0.179,6.09,0.146,9.128-0.1c0,3.742,0,7.483,0,11.225c-3.15-0.255-6.313-0.281-9.465-0.08c0-1.054,0-2.108,0-3.162
									c1.689-0.046,3.381-0.065,5.072-0.055C349.641,211.376,349.641,211.119,349.641,210.862z"/>
							</g>
							<g>
								<path style="fill:#135D9E;" d="M339.429,212.091c1.681-0.123,2.862-1.225,2.862-1.221c0.534,0.803,1.068,1.584,1.603,2.353
									c0.002,0.013-1.525,1.928-5.22,2.538c-2.937,0.552-4.762-1.195-4.763-3.604c-0.006-4.56,4.506-4.258,4.511-5.15
									c0-0.266-0.252-0.55-0.671-0.584c-1.173-0.106-2.174,0.863-2.174,0.872c-0.529-0.995-1.056-2.038-1.583-3.139
									c0.001-0.044,1.492-1.885,4.512-1.312c2.937,0.516,4.798,2.385,4.797,4.221c-0.003,3.484-4.55,3.633-4.546,4.541
									C338.757,211.873,339.009,212.119,339.429,212.091z"/>
							</g>
							<g>
								<path style="fill:#135D9E;" d="M328.299,200.652c1.419,0.463,2.847,0.877,4.284,1.242c0,4.949,0,9.899,0,14.848
									c-1.436,0.365-2.865,0.779-4.284,1.242c0-1.981,0-3.961,0-5.942c-0.873,0.09-1.742,0.185-2.607,0.286
									c0,2.189,0,4.378,0,6.567c-1.405,0.524-2.799,1.097-4.18,1.719c0-7.53,0-15.061,0-22.591c1.38,0.622,2.774,1.195,4.18,1.719
									c0,2.189,0,4.378,0,6.567c0.865,0.101,1.734,0.197,2.607,0.286C328.299,204.613,328.299,202.633,328.299,200.652z"/>
							</g>
						</g>
						<g>
							<path style="fill:#B23632;" d="M262.343,197.649l1.81-2.24c0.061-0.076,0.125-0.149,0.186-0.225
								c3.505,6.029,3.653,14.395-1.051,19.643l-0.739-0.869C258.641,209.37,258.418,202.507,262.343,197.649z"/>
						</g>
					</g>
				</g>
				<g style="opacity:0.3;">
					<defs>
						<path id="SVGID_00000055704028792316679350000014639919105958245816_" style="opacity:0.3;" d="M392.53,347.606h-88.416
							c-14.187,0-25.689-11.501-25.689-25.689V85.344c0-14.187,11.501-25.689,25.689-25.689h88.416
							c14.187,0,25.689,11.501,25.689,25.689v236.573C418.218,336.105,406.717,347.606,392.53,347.606z"/>
					</defs>
					<clipPath id="SVGID_00000139296087434715371270000001073575595855092099_">
						<use xlink:href="#SVGID_00000055704028792316679350000014639919105958245816_"  style="overflow:visible;"/>
					</clipPath>
					<g style="clip-path:url(#SVGID_00000139296087434715371270000001073575595855092099_);">
						<g>
							
								<rect x="299.7" y="-25.757" transform="matrix(0.7071 0.7071 -0.7071 0.7071 170.431 -195.7695)" style="fill:#FFFFFF;" width="43.661" height="267.202"/>
						</g>
						<g>
							
								<rect x="340.307" y="4.367" transform="matrix(0.7071 0.7071 -0.7071 0.7071 200.5548 -208.2472)" style="fill:#FFFFFF;" width="22.695" height="267.202"/>
						</g>
					</g>
					<g style="clip-path:url(#SVGID_00000139296087434715371270000001073575595855092099_);">
						<g>
							
								<rect x="347.645" y="134.48" transform="matrix(0.7071 0.7071 -0.7071 0.7071 297.7786 -182.7396)" style="fill:#FFFFFF;" width="43.661" height="267.202"/>
						</g>
						<g>
							
								<rect x="388.251" y="164.603" transform="matrix(0.7071 0.7071 -0.7071 0.7071 327.9001 -195.2168)" style="fill:#FFFFFF;" width="22.695" height="267.202"/>
						</g>
					</g>
				</g>
				<g>
					<path style="fill:#135D9E;" d="M392.529,349.513h-88.416c-15.216,0-27.596-12.38-27.596-27.596V85.344
						c0-15.216,12.38-27.596,27.596-27.596h88.416c15.216,0,27.596,12.379,27.596,27.596v236.573
						C420.125,337.133,407.745,349.513,392.529,349.513z M304.113,61.563c-13.113,0-23.781,10.668-23.781,23.781v236.573
						c0,13.113,10.668,23.781,23.781,23.781h88.416c13.113,0,23.781-10.668,23.781-23.781V85.344
						c0-13.113-10.668-23.781-23.781-23.781H304.113z"/>
				</g>
			</g>
			<g>
				<g>
					<path style="fill:none;stroke:#1E92F7;stroke-width:1.926;stroke-miterlimit:10;" d="M112.098,444.153
						c0.114-1.843,6.009-2.978,13.166-2.533c7.157,0.444,12.866,2.299,12.751,4.142"/>
					<path style="fill:#141332;" d="M216.536,248.471c-2.839,3.36-5.921,5.424-6.885,4.61s0.556-4.198,3.395-7.559
						c2.839-3.36,5.921-5.424,6.885-4.61C220.895,241.726,219.375,245.111,216.536,248.471z"/>
					<g>
						<path style="fill:#FA5855;" d="M134.836,347.304c-7.081,0.361-14.151,0.911-21.219,1.5c0.393,6.674,0.813,13.351,0.711,20
							l-0.125,87.49c-0.013,5.175,3.846,9.66,9.111,10.298c5.679,0.688,10.841-3.357,11.529-9.036l10.547-86.986
							c0.837-7.971,2.257-15.912,3.528-23.862C144.223,346.884,139.528,347.066,134.836,347.304z"/>
					</g>
					<path style="fill:#B23632;" d="M120.709,374.24c0.172,2.044,0.599,4.109,1.653,5.889c1.053,1.78,2.804,3.249,4.886,3.632
						c2.5,0.46,5.099-0.718,6.833-2.52c1.734-1.802,2.732-4.148,3.493-6.498c0.929-2.87,1.56-5.895,1.183-8.88
						c-0.377-2.985-1.882-5.942-4.487-7.583c-2.823-1.778-8.296-1.768-10.38,1.177C121.047,363.473,120.313,369.521,120.709,374.24z
						"/>
					<path style="fill:#141332;" d="M173.201,90.59c3.364,1.135,6.995,1.47,10.511,0.972c1.155-0.164,2.43-0.508,3.017-1.516
						c0.511-0.879,0.331-1.988,0.035-2.961c-0.856-2.819-2.599-5.619-4.88-7.484c0.981,0.002,1.984-0.039,2.9-0.39
						s1.744-1.062,1.999-2.01c0.215-0.8-0.003-1.671-0.436-2.377c-0.433-0.706-1.063-1.269-1.719-1.775
						c-2.181-1.685-4.535-3.622-7.235-4.17c2.555-1.083,4.705-3.092,5.959-5.567c0.4-0.789,0.716-1.692,0.493-2.548
						c-0.379-1.454-2.066-2.089-3.541-2.375c-5.016-0.975-10.492-0.525-15.242,1.358c1.98-2.277,3.401-5.037,4.104-7.972
						c0.251-1.049,0.396-2.218-0.138-3.156c-0.486-0.853-1.463-1.341-2.439-1.447c-0.976-0.106-1.957,0.119-2.895,0.409
						c-5.598,1.731-10.346,5.645-12.802,10.964c0.365-2.198,0.725-4.489,0.076-6.62c-0.649-2.131-2.637-4.033-4.852-3.798
						c-2.099,0.222-3.555,2.152-4.601,3.986c-2.445,4.288-4.336,8.864-5.155,13.732c-0.228-1.271-0.468-2.574-1.128-3.684
						c-0.661-1.11-1.842-2.004-3.133-1.948c-1.881,0.082-3.1,2.003-3.746,3.771c-1.859,5.085-1.477,10.784,0.604,15.782
						c-0.528-0.958-1.068-1.933-1.862-2.685c-0.794-0.752-1.898-1.26-2.976-1.076c-2.018,0.344-2.908,2.744-3.091,4.784
						c-0.411,4.572,0.8,9.203,2.962,13.252c2.162,4.05,5.241,7.553,8.653,10.625C144.498,95.863,159.208,85.871,173.201,90.59z"/>
					<rect x="144.157" y="117.529" style="fill:#FA5855;" width="23.89" height="32.21"/>
					<path style="fill:#BB2B2B;" d="M168.047,117.529v9.963c-5.441,0.226-17.921-0.347-23.001-9.918l3.497-0.045H168.047z"/>
					<g>
						<path style="fill:#FA5855;" d="M203.379,358.478c-0.221-4.535-0.391-9.076-0.568-13.617
							c-9.191,0.337-18.388,0.514-27.589,0.619c-2.879,0.193-5.759,0.365-8.641,0.507c0.207,0.886,0.405,1.774,0.621,2.66
							c1.788,7.306,3.626,14.605,5.2,21.941l-0.082-2.353l0.148,2.652c-0.021-0.1-0.045-0.199-0.066-0.299l2.954,85.142
							c0.176,5.248,4.314,9.651,9.729,9.982c5.649,0.345,10.46-4.123,10.974-9.76l6.812-74.636
							c-3.991-2.022-5.686-5.534-6.565-9.049C195.594,367.274,198.617,361.215,203.379,358.478z"/>
						<path style="fill:#FA5855;" d="M172.321,368.236l0.082,2.353c0.021,0.1,0.045,0.199,0.066,0.299L172.321,368.236z"/>
						<path style="fill:#B23632;" d="M203.878,367.073l-0.041-0.597c-0.184-2.661-0.327-5.328-0.457-7.997
							c-4.762,2.737-7.785,8.796-7.072,13.789c0.879,3.515,2.574,7.027,6.565,9.049l0.965-10.579
							C203.851,369.514,203.864,368.296,203.878,367.073z"/>
					</g>
					<path style="fill:#FA5855;" d="M188.802,245.066h-65.4l-2.605-88.761c-0.234-7.989,4.123-15.096,10.697-17.326l23.532-7.984
						l25.454,8.131c6.688,2.137,11.159,9.306,10.921,17.395L188.802,245.066z"/>
					<path style="fill:#BB2B2B;" d="M72.711,194.245c-0.32,0.39-0.648,0.772-0.965,1.165l-1.815,2.242
						c-3.791,4.685-3.836,11.549,0.211,16.306l1.368,1.608c0.975-0.787,1.86-1.664,2.741-2.544
						C77.636,206.927,76.21,199.872,72.711,194.245z"/>
					<path style="fill:#FA5855;" d="M147.342,144.985c-5.006-6.751-14.537-8.167-21.288-3.161c-5.149,3.818-9.957,7.99-14.69,12.24
						c-4.711,4.273-9.29,8.683-13.776,13.19c-4.492,4.5-8.916,9.071-13.24,13.747c-3.967,4.323-7.895,8.688-11.638,13.243
						c3.5,5.628,4.925,12.682,1.539,18.777c-0.881,0.881-1.766,1.757-2.741,2.544l37.947,44.609
						c0.88,3.849,1.438,7.771,1.649,11.713c0.118,2.197,0.136,4.432,0.787,6.534c0.65,2.102,2.061,4.102,4.135,4.836
						c1.219-6.274,2.302-12.488,3.158-18.733c1.261-0.193,2.505-0.631,3.655-1.35c4.519-2.828,5.889-8.783,3.062-13.301
						l-25.699-41.066c2.027-1.671,4.039-3.359,6.039-5.059c4.838-4.141,9.574-8.388,14.243-12.704
						c4.675-4.31,9.257-8.717,13.707-13.261c4.429-4.566,8.781-9.211,12.793-14.211C151.21,158.309,151.55,150.661,147.342,144.985z
						"/>
					<path style="fill:#FA5855;" d="M241.723,214.827c-4.704-5.247-4.556-13.614-1.051-19.643c-3.973-4.9-8.176-9.561-12.417-14.183
						c-4.324-4.675-8.748-9.246-13.24-13.747c-4.486-4.507-9.064-8.917-13.775-13.19c-4.732-4.251-9.541-8.423-14.69-12.24
						c-5.422-4.019-13.078-4.067-18.589,0.356c-6.555,5.26-7.604,14.839-2.344,21.394c4.012,4.999,8.365,9.645,12.793,14.211
						c4.45,4.544,9.032,8.951,13.707,13.261c4.669,4.316,9.406,8.563,14.243,12.704c2,1.699,4.012,3.387,6.039,5.059l-25.699,41.066
						c-2.505,3.994-1.769,9.326,1.928,12.471c1.415,1.204,3.077,1.917,4.788,2.178c0.856,6.246,1.939,12.461,3.158,18.735
						c2.074-0.735,3.485-2.734,4.135-4.836c0.65-2.102,0.669-4.337,0.787-6.534c0.212-3.942,0.769-7.865,1.649-11.713
						L241.723,214.827z"/>
					<path style="fill:#FA5855;" d="M180.101,94.704c0-15.784-10.557-28.579-23.579-28.579c-13.023,0-23.58,12.795-23.58,28.579
						c0,4.936,1.044,9.884,3.187,14.339c1.927,4.005,4.754,7.62,8.377,10.224c2.251,1.618,4.891,2.858,7.607,3.435
						c1.805,0.384,3.752,0.301,5.59,0.326c2.016,0.028,4.033,0.002,6.048-0.078c2.344-0.093,4.82-0.209,7.059-0.975
						c1.982-0.678,3.803-1.88,5.227-3.412c2.451-2.637,3.801-6.171,3.801-9.765V98.757C179.993,97.43,180.101,96.084,180.101,94.704
						z"/>
					<g>
						<path style="fill:#FA5855;" d="M138.191,94.505c-0.846-1.505-2.889-2.371-4.819-2.229c-1.93,0.142-3.685,1.191-4.744,2.592
							c-1.059,1.401-1.467,3.118-1.404,4.791c0.065,1.726,0.636,3.471,1.856,4.838c1.22,1.368,3.135,2.316,5.135,2.31
							c1.999-0.006,4.006-1.067,4.702-2.686L138.191,94.505z"/>
						<g>
							
								<path style="fill:none;stroke:#BB2B2B;stroke-width:1.033;stroke-linecap:round;stroke-linejoin:round;stroke-miterlimit:10;" d="
								M133.624,103.793c1.528-2.842,1.306-6.254-0.581-8.952"/>
							
								<path style="fill:none;stroke:#BB2B2B;stroke-width:1.033;stroke-linecap:round;stroke-linejoin:round;stroke-miterlimit:10;" d="
								M134.188,98.738c-1.607,0.707-2.853,1.926-3.406,3.331"/>
						</g>
					</g>
					<path style="fill:#F7931E;" d="M158.24,300.491c-1.528,0.382-2.431,0.575-3.959,0.957c-0.243,19.993-2.083,39.875-5.016,59.716
						c-12.522-0.608-25.215-1.563-37.647-2.265c-0.735-39.91,4.157-78.664,11.113-117.542h66.936
						c2.678,14.369,6.06,29.404,8.738,43.773c4.356,23.373,4.705,42.305,6.518,70.732c-11.904,1.484-25.056,4.034-36.961,5.518
						C162.491,341.147,160.081,321.003,158.24,300.491z"/>
					<g>
						<g>
							<path style="fill:#FA5855;" d="M124.612,451.769L124.612,451.769c-7.315,0-13.246,5.93-13.246,13.246v2.475h26.492v-2.475
								C137.858,457.7,131.928,451.769,124.612,451.769z"/>
						</g>
						<g>
							<path style="fill:#141332;" d="M138.259,469.634l-27.279-0.056c-0.623-0.001-1.127-0.507-1.126-1.13l0-0.056
								c0.001-0.623,0.506-1.127,1.129-1.125l27.281,0.056c0.622,0.001,1.126,0.507,1.125,1.129v0.056
								C139.388,469.131,138.882,469.636,138.259,469.634z"/>
						</g>
						<path style="fill:#141332;" d="M134.339,454.805c-0.101-0.002-0.201-0.003-0.301-0.003c-4.602,0-6.928,2.449-7.98,4.109
							c-1.316-2.006-4.489-4.989-11.423-3.87c-0.449,0.072-0.754,0.495-0.68,0.944c0.072,0.45,0.502,0.759,0.944,0.68
							c8.079-1.296,10.099,3.484,10.365,4.253v6.746c0,0.455,0.368,0.823,0.823,0.823s0.823-0.368,0.823-0.823v-6.854
							c0.22-0.589,1.864-4.434,7.39-4.359c0.479,0.053,0.833-0.349,0.842-0.804C135.152,455.193,134.792,454.816,134.339,454.805z"
							/>
					</g>
					<g>
						<path style="fill:#FA5855;" d="M183.872,446.787l9.152,3.419c0,0,17.015,6.764,20.466,11.722c0,0,6.04-1.115,5.857,2.979
							c-0.164,3.667-26.779,2.846-38.365,2.557c-2.921-0.073-5.317-2.317-5.583-5.226c-0.304-3.315-0.25-7.855-0.168-10.433
							L183.872,446.787z"/>
						<path style="fill:#141332;" d="M221.672,469.698l-46.213-0.058c-0.625-0.001-1.13-0.508-1.13-1.133l0,0
							c0.001-0.625,0.508-1.13,1.133-1.13l46.213,0.058c0.625,0.001,1.13,0.508,1.13,1.133l0,0
							C222.804,469.193,222.297,469.699,221.672,469.698z"/>
						<g>
							<path style="fill:#141332;" d="M198.926,468.673c-0.103,0.083-0.226,0.143-0.365,0.167c-0.438,0.079-0.857-0.213-0.934-0.65
								c-1.912-10.667,6.806-13.966,6.892-13.997c0.417-0.152,0.878,0.064,1.031,0.48c0.152,0.418-0.059,0.88-0.479,1.033
								c-0.306,0.115-7.522,2.898-5.859,12.2C199.264,468.204,199.146,468.494,198.926,468.673z"/>
						</g>
					</g>
					<path style="fill:#1E92F7;" d="M196.544,270.255c-2.674-23.018-5.659-53.781-4.812-74.064
						c-8.367-6.638-13.599-16.676-15.854-27.116c-2.255-10.439-1.331-21.734,0.257-32.295l-4.18-1.432
						c-0.368,4.086-1.258,8.193-3.261,11.773c-2.003,3.581-5.219,6.604-9.156,7.757c-5.24,1.535-11.153-0.534-14.903-4.503
						c-3.75-3.969-5.479-9.564-5.478-15.024l-4.639,1.34c0.879,10.54,1.495,21.084-0.218,31.521
						c-1.713,10.437-5.944,20.739-13.542,28.096c0.334,19.956-2.177,50.143-3.896,71.633
						C141.792,271.239,171.408,270.981,196.544,270.255z"/>
					<path style="fill:#141332;" d="M180.306,81.283c-0.155-1.354-0.861-2.58-1.636-3.701l-1.324-1.109
						c-3.611-4.539-7.429-9.242-12.727-11.604c-5.363-2.392-11.745-2.011-17.091,0.42c-5.346,2.43-9.691,6.766-12.743,11.783
						c-3.053,5.017-5.135,11.016-6.289,16.774c2.782,3.046,7.592,4.021,11.341,2.298c1.101-0.506,2.194-1.351,2.377-2.549
						c0.221-1.449-0.946-2.701-2.018-3.7c2.236,0.84,4.366,1.03,6.752,0.928c0.549-0.023,1.109-0.075,1.616-0.288
						c0.507-0.214,0.961-0.614,1.117-1.141c0.177-0.597-0.048-1.237-0.334-1.791c-0.676-1.307-1.72-2.422-2.98-3.183
						c2.923,1.148,5.844,1.893,8.964,2.253c0.778,0.09,1.617,0.142,2.293-0.254c0.981-0.574,1.256-1.933,0.929-3.021
						c-0.327-1.088-1.112-1.969-1.875-2.811c2.061,2.434,4.931,4.142,8.088,4.595c0.868,0.124,1.82,0.144,2.548-0.345
						c1.034-0.694,1.231-2.207,0.781-3.368c-0.45-1.161-1.389-2.053-2.299-2.903c2.573,2.126,5.151,3.972,8.094,5.547
						c1.51,0.808,3.371,1.538,4.865,0.699C179.942,84.146,180.461,82.637,180.306,81.283z"/>
					<g>
						<g>
							<g>
								<circle style="fill:#141332;" cx="155.674" cy="99.329" r="2.23"/>
							</g>
						</g>
						<g>
							<g>
								<circle style="fill:#141332;" cx="171.886" cy="99.329" r="2.23"/>
							</g>
						</g>
						<g>
							<path style="fill:#141332;" d="M164.71,117.929c0.198,0,0.378-0.132,0.432-0.332c0.064-0.239-0.078-0.484-0.317-0.548
								c-0.809-0.217-1.668-0.224-2.481-0.018c-0.24,0.061-0.385,0.304-0.325,0.543c0.061,0.24,0.308,0.385,0.544,0.325
								c0.666-0.167,1.368-0.163,2.031,0.015C164.632,117.924,164.671,117.929,164.71,117.929z"/>
						</g>
						<g>
							<path style="fill:#141332;" d="M158.482,91.259c-3.794,0.443-7.371,1.949-10.262,4.248c-0.427,0.34-0.498,0.962-0.158,1.389
								c0.313,0.394,0.866,0.485,1.286,0.23l0.006-0.004c2.84-1.721,6.125-2.599,9.318-2.557c0.917,0.012,1.669-0.722,1.681-1.638
								c0.012-0.917-0.722-1.669-1.638-1.681c-0.069-0.001-0.137,0.002-0.204,0.01L158.482,91.259z"/>
						</g>
						<g>
							<path style="fill:#141332;" d="M168.946,94.45c3.194,0.033,6.457,0.986,9.257,2.772l0.006,0.004
								c0.46,0.294,1.071,0.159,1.365-0.302c0.271-0.424,0.177-0.977-0.201-1.291c-2.837-2.365-6.378-3.953-10.161-4.484
								l-0.019-0.003c-0.908-0.127-1.747,0.506-1.874,1.413s0.506,1.747,1.413,1.874C168.801,94.443,168.879,94.448,168.946,94.45z"
								/>
						</g>
						<g>
							<path style="fill:#B23632;" d="M157.333,105.742c0,1.074-1.703,1.944-3.804,1.944c-2.101,0-3.804-0.87-3.804-1.944
								c0-1.074,1.703-1.944,3.804-1.944C155.631,103.798,157.333,104.668,157.333,105.742z"/>
						</g>
						<g>
							<path style="fill:#B23632;" d="M178.595,105.742c0,1.074-1.703,1.944-3.804,1.944c-2.101,0-3.804-0.87-3.804-1.944
								c0-1.074,1.703-1.944,3.804-1.944C176.892,103.798,178.595,104.668,178.595,105.742z"/>
						</g>
						<g>
							<path style="fill:#141332;" d="M158.425,115.444c0.08,0,0.162-0.021,0.236-0.063c3.149-1.799,7.103-1.896,10.32-0.255
								c0.235,0.12,0.521,0.026,0.642-0.208c0.12-0.234,0.026-0.522-0.208-0.642c-3.499-1.786-7.802-1.68-11.226,0.277
								c-0.229,0.131-0.308,0.422-0.178,0.651C158.099,115.358,158.26,115.444,158.425,115.444z"/>
						</g>
						<g>
							<path style="fill:#141332;" d="M163.678,110.139c0.89,0,1.843-0.214,2.511-0.941c0.548-0.597,0.812-1.495,0.725-2.463
								c-0.074-0.823-0.376-1.607-0.643-2.3l-2.309-5.998c-0.089-0.232-0.35-0.348-0.579-0.257
								c-0.231,0.089-0.346,0.348-0.257,0.579l2.309,5.998c0.257,0.669,0.523,1.36,0.586,2.058c0.065,0.718-0.115,1.366-0.493,1.778
								c-0.706,0.769-2.024,0.691-2.747,0.575c-0.247-0.043-0.475,0.127-0.513,0.372c-0.039,0.244,0.127,0.474,0.372,0.513
								C162.96,110.103,163.314,110.139,163.678,110.139z"/>
						</g>
					</g>
					<g>
						<path style="fill:#141332;" d="M214.268,248.902l-18.042-14.561c-0.6-0.484-0.694-1.363-0.21-1.963l1.841-2.28
							c0.484-0.6,1.363-0.694,1.962-0.21l18.042,14.561L214.268,248.902z"/>
					</g>
					<path style="fill:none;stroke:#1E92F7;stroke-width:1.926;stroke-miterlimit:10;" d="M138.015,445.763
						c-0.114,1.843-6.009,2.977-13.166,2.533s-12.866-2.299-12.751-4.142"/>
					<polygon style="fill:#C77618;" points="110.157,356.913 150.797,359.365 149.395,364.883 110.42,361.73 					"/>
					<polygon style="fill:#C77618;" points="206.103,353.683 165.939,360.348 167.906,365.69 206.342,358.501 					"/>
					<g>
						<g>
							<path style="fill:none;stroke:#C77618;stroke-width:0.9536;stroke-linecap:round;stroke-linejoin:round;" d="
								M146.985,356.442c0,0,0.13-0.851,0.346-2.355"/>
							
								<path style="fill:none;stroke:#C77618;stroke-width:0.9536;stroke-linecap:round;stroke-linejoin:round;stroke-dasharray:4.5689,4.5689;" d="
								M147.96,349.565c1.389-10.32,3.746-30.011,3.508-43.234"/>
							<path style="fill:none;stroke:#C77618;stroke-width:0.9536;stroke-linecap:round;stroke-linejoin:round;" d="
								M151.397,304.042c-0.037-0.828-0.087-1.622-0.151-2.38"/>
						</g>
					</g>
					
						<path style="fill:none;stroke:#C77618;stroke-width:0.9536;stroke-linecap:round;stroke-linejoin:round;stroke-miterlimit:10;stroke-dasharray:4.7679;" d="
						M170.114,357.173c0,0-8.034-36.642-8.4-57.092"/>
					
						<line style="fill:none;stroke:#C77618;stroke-width:0.8742;stroke-linecap:round;stroke-linejoin:round;stroke-miterlimit:10;" x1="151.181" y1="272.75" x2="153.674" y2="292.932"/>
					
						<polyline style="fill:none;stroke:#C77618;stroke-width:0.8742;stroke-linecap:round;stroke-linejoin:round;stroke-miterlimit:10;" points="
						153.004,287.551 157.587,287.061 159.878,272.983 					"/>
					
						<path style="fill:none;stroke:#C77618;stroke-width:0.8742;stroke-linecap:round;stroke-linejoin:round;stroke-miterlimit:10;" d="
						M118.484,287.075c6.784-3.214,12.316-8.991,15.232-15.909"/>
					
						<path style="fill:none;stroke:#C77618;stroke-width:0.8742;stroke-linecap:round;stroke-linejoin:round;stroke-miterlimit:10;" d="
						M196.754,287.075c-6.785-3.214-12.316-8.991-15.232-15.909"/>
					<path style="fill:#135D9E;" d="M174.137,136.096c-0.505,4.158-1.545,8.277-3.585,11.92c-2.308,4.129-6.027,7.628-10.575,8.954
						c-6.055,1.774-12.883-0.61-17.212-5.197c-3.938-4.177-5.95-9.898-6.274-15.648l2.67-0.772c0,5.454,1.726,11.052,5.473,15.019
						c3.748,3.976,9.669,6.046,14.904,4.51c3.938-1.154,7.152-4.177,9.154-7.762c2.003-3.576,2.899-7.686,3.261-11.777
						L174.137,136.096z"/>
					<path style="fill:#135D9E;" d="M196.546,270.254c-25.136,0.725-54.754,0.982-79.68-2.317c0.067-0.791,0.124-1.592,0.191-2.412
						c25.003,2.994,53.982,2.861,79.194,2.184C196.345,268.567,196.45,269.415,196.546,270.254z"/>
					<g>
						<path style="fill:#135D9E;" d="M137.446,201.164c0,1.708,0,3.417,0,5.125c-1.426-0.158-2.843-0.334-4.248-0.529
							c0,0.73,0,1.459,0,2.189c1.135,0.06,2.278,0.116,3.426,0.167c0,1.601,0,3.201,0,4.802c-1.149,0.154-2.291,0.321-3.426,0.503
							c0,1.824,0,3.648,0,5.472c-1.405,0.524-2.799,1.097-4.18,1.719c0-7.53,0-15.061,0-22.591
							C131.779,199.266,134.594,200.314,137.446,201.164z"/>
						<path style="fill:#135D9E;" d="M145.257,215.647c-0.67-1.272-1.339-2.609-2.007-4.031c-0.056,0.004-0.111,0.008-0.167,0.012
							c0,1.476,0,2.952,0,4.427c-1.446,0.297-2.886,0.642-4.318,1.037c0-5.183,0-10.366,0-15.549c0-0.005,2.311,0.441,4.819,0.948
							c3.678,0.77,5.372,2.521,5.37,4.918c0,2.386-1.515,3.271-1.515,3.279c0.953,1.512,1.907,2.929,2.863,4.3
							C148.616,215.142,146.933,215.362,145.257,215.647z M143.584,208.18c0.585,0.017,1.003-0.431,1.003-0.981
							c0-0.55-0.418-1.046-1.003-1.105c-0.167-0.016-0.334-0.032-0.501-0.049c0,0.706,0,1.411,0,2.117
							C143.25,208.168,143.417,208.174,143.584,208.18z"/>
						<path style="fill:#135D9E;" d="M155.371,211.634c1.691-0.01,3.383,0.008,5.072,0.055c0,1.054,0,2.108,0,3.162
							c-3.153-0.202-6.315-0.175-9.465,0.08c0-3.742,0-7.483,0-11.225c3.038,0.246,6.087,0.279,9.128,0.1c0,1.05,0,2.1,0,3.15
							c-1.577,0.04-3.156,0.055-4.734,0.046c0,0.257,0,0.515,0,0.772c1.466,0.006,2.932-0.003,4.396-0.025c0,1.046,0,2.093,0,3.139
							c-1.464-0.022-2.93-0.031-4.396-0.025C155.371,211.119,155.371,211.376,155.371,211.634z"/>
						<path style="fill:#135D9E;" d="M166.255,211.608c0.004-0.909-4.542-1.057-4.546-4.541c-0.001-1.836,1.86-3.705,4.797-4.221
							c3.02-0.574,4.51,1.268,4.511,1.312c-0.527,1.1-1.054,2.144-1.583,3.139c0-0.009-1.001-0.978-2.174-0.872
							c-0.419,0.034-0.671,0.318-0.671,0.584c0.005,0.892,4.517,0.591,4.511,5.15c-0.001,2.409-1.826,4.155-4.763,3.604
							c-3.695-0.61-5.222-2.525-5.22-2.538c0.535-0.769,1.069-1.551,1.603-2.353c0-0.005,1.181,1.098,2.862,1.221
							C166.003,212.119,166.255,211.873,166.255,211.608z"/>
						<path style="fill:#135D9E;" d="M176.713,206.594c0.873-0.09,1.742-0.185,2.607-0.286c0-2.189,0-4.378,0-6.567
							c1.405-0.524,2.799-1.097,4.18-1.719c0,7.53,0,15.061,0,22.591c-1.38-0.622-2.774-1.195-4.18-1.719c0-2.189,0-4.378,0-6.567
							c-0.865-0.101-1.734-0.197-2.607-0.286c0,1.981,0,3.961,0,5.942c-1.419-0.463-2.847-0.877-4.284-1.242
							c0-4.949,0-9.899,0-14.848c1.436-0.365,2.865-0.778,4.284-1.242C176.713,202.633,176.713,204.613,176.713,206.594z"/>
					</g>
					<path style="fill:#B23632;" d="M242.669,197.649l-1.81-2.24c-0.061-0.076-0.125-0.149-0.187-0.225
						c-3.505,6.029-3.653,14.395,1.051,19.643l0.74-0.869C246.371,209.37,246.594,202.507,242.669,197.649z"/>
				</g>
				<path style="fill:#A9D0E8;" d="M95.061,87.495c4.99-5.238,7.988-11.944,7.988-19.255c0-16.754-15.735-30.335-35.145-30.335
					S32.76,51.487,32.76,68.241c0,16.754,15.735,30.335,35.145,30.335c5.797,0,11.261-1.219,16.081-3.365l19.965,8.422
					L95.061,87.495z"/>
				<g>
					
						<ellipse transform="matrix(0.2263 -0.9741 0.9741 0.2263 -12.7495 118.2042)" style="fill:#CEE5F3;" cx="68.031" cy="67.127" rx="16.564" ry="16.564"/>
					<g>
						<path style="fill:#A9D0E8;" d="M76.578,75.655c-0.119,0-0.238-0.042-0.334-0.127c-2.283-2.045-5.217-3.172-8.262-3.172
							c-3,0-5.901,1.097-8.168,3.088c-0.208,0.183-0.524,0.162-0.706-0.045c-0.183-0.207-0.162-0.523,0.045-0.705
							c2.45-2.152,5.585-3.337,8.828-3.337c3.292,0,6.463,1.217,8.929,3.427c0.206,0.185,0.223,0.501,0.039,0.706
							C76.851,75.599,76.715,75.655,76.578,75.655z"/>
					</g>
					<g>
						<path style="fill:#A9D0E8;" d="M63.805,61.744c0,1.399-1.134,2.532-2.532,2.532c-1.399,0-2.532-1.134-2.532-2.532
							c0-1.399,1.134-2.532,2.532-2.532C62.671,59.212,63.805,60.346,63.805,61.744z"/>
						<path style="fill:#A9D0E8;" d="M77.321,61.744c0,1.399-1.134,2.532-2.532,2.532c-1.398,0-2.532-1.134-2.532-2.532
							c0-1.399,1.134-2.532,2.532-2.532C76.187,59.212,77.321,60.346,77.321,61.744z"/>
					</g>
				</g>
			</g>
		</g>
	</g>
</g>
</svg>
