<svg width="1867" height="878" viewBox="0 0 1867 878" fill="none" xmlns="http://www.w3.org/2000/svg">
<g clip-path="url(#clip0_26_7)">
<path d="M513.089 327.689C181.944 410.535 -2.2806 139.082 -53 -7V880H1869V675.885C1731.66 817.165 1432.5 608.306 1226.5 491C1082.5 409 844.234 244.842 513.089 327.689Z" fill="url(#paint0_linear_26_7)"/>
<path d="M1425.08 282.05C1426.06 282.233 1426.87 282.725 1427.51 283.525C1428.14 284.325 1428.46 285.242 1428.46 286.275C1428.46 287.208 1428.22 288.033 1427.76 288.75C1427.31 289.45 1426.65 290 1425.78 290.4C1424.91 290.8 1423.89 291 1422.71 291H1415.18V273.55H1422.38C1423.56 273.55 1424.58 273.742 1425.43 274.125C1426.3 274.508 1426.95 275.042 1427.38 275.725C1427.83 276.408 1428.06 277.183 1428.06 278.05C1428.06 279.067 1427.78 279.917 1427.23 280.6C1426.7 281.283 1425.98 281.767 1425.08 282.05ZM1418.68 280.75H1421.88C1422.71 280.75 1423.36 280.567 1423.81 280.2C1424.26 279.817 1424.48 279.275 1424.48 278.575C1424.48 277.875 1424.26 277.333 1423.81 276.95C1423.36 276.567 1422.71 276.375 1421.88 276.375H1418.68V280.75ZM1422.21 288.15C1423.06 288.15 1423.71 287.95 1424.18 287.55C1424.66 287.15 1424.91 286.583 1424.91 285.85C1424.91 285.1 1424.66 284.517 1424.16 284.1C1423.66 283.667 1422.98 283.45 1422.13 283.45H1418.68V288.15H1422.21ZM1450.27 273.55V291H1446.77V279.65L1442.1 291H1439.45L1434.75 279.65V291H1431.25V273.55H1435.22L1440.77 286.525L1446.32 273.55H1450.27ZM1457.23 273.55V291H1453.73V273.55H1457.23ZM1465.8 282.25C1465.8 280.533 1466.18 279 1466.95 277.65C1467.73 276.283 1468.79 275.225 1470.12 274.475C1471.47 273.708 1472.98 273.325 1474.65 273.325C1476.6 273.325 1478.3 273.825 1479.77 274.825C1481.24 275.825 1482.26 277.208 1482.85 278.975H1478.82C1478.42 278.142 1477.85 277.517 1477.12 277.1C1476.4 276.683 1475.57 276.475 1474.62 276.475C1473.6 276.475 1472.7 276.717 1471.9 277.2C1471.11 277.667 1470.5 278.333 1470.05 279.2C1469.61 280.067 1469.4 281.083 1469.4 282.25C1469.4 283.4 1469.61 284.417 1470.05 285.3C1470.5 286.167 1471.11 286.842 1471.9 287.325C1472.7 287.792 1473.6 288.025 1474.62 288.025C1475.57 288.025 1476.4 287.817 1477.12 287.4C1477.85 286.967 1478.42 286.333 1478.82 285.5H1482.85C1482.26 287.283 1481.24 288.675 1479.77 289.675C1478.32 290.658 1476.61 291.15 1474.65 291.15C1472.98 291.15 1471.47 290.775 1470.12 290.025C1468.79 289.258 1467.73 288.2 1466.95 286.85C1466.18 285.5 1465.8 283.967 1465.8 282.25ZM1496.53 287.675H1489.58L1488.43 291H1484.76L1491.03 273.525H1495.11L1501.38 291H1497.68L1496.53 287.675ZM1495.58 284.875L1493.06 277.575L1490.53 284.875H1495.58ZM1507.23 288.225H1512.98V291H1503.73V273.55H1507.23V288.225ZM1514.35 282.25C1514.35 280.533 1514.74 279 1515.5 277.65C1516.29 276.283 1517.35 275.225 1518.68 274.475C1520.03 273.708 1521.54 273.325 1523.2 273.325C1525.15 273.325 1526.86 273.825 1528.33 274.825C1529.8 275.825 1530.82 277.208 1531.4 278.975H1527.38C1526.98 278.142 1526.41 277.517 1525.68 277.1C1524.96 276.683 1524.13 276.475 1523.18 276.475C1522.16 276.475 1521.25 276.717 1520.45 277.2C1519.67 277.667 1519.05 278.333 1518.6 279.2C1518.17 280.067 1517.95 281.083 1517.95 282.25C1517.95 283.4 1518.17 284.417 1518.6 285.3C1519.05 286.167 1519.67 286.842 1520.45 287.325C1521.25 287.792 1522.16 288.025 1523.18 288.025C1524.13 288.025 1524.96 287.817 1525.68 287.4C1526.41 286.967 1526.98 286.333 1527.38 285.5H1531.4C1530.82 287.283 1529.8 288.675 1528.33 289.675C1526.88 290.658 1525.17 291.15 1523.2 291.15C1521.54 291.15 1520.03 290.775 1518.68 290.025C1517.35 289.258 1516.29 288.2 1515.5 286.85C1514.74 285.5 1514.35 283.967 1514.35 282.25ZM1537.84 273.55V284.35C1537.84 285.533 1538.15 286.442 1538.77 287.075C1539.39 287.692 1540.25 288 1541.37 288C1542.5 288 1543.38 287.692 1543.99 287.075C1544.61 286.442 1544.92 285.533 1544.92 284.35V273.55H1548.44V284.325C1548.44 285.808 1548.12 287.067 1547.47 288.1C1546.84 289.117 1545.98 289.883 1544.89 290.4C1543.83 290.917 1542.64 291.175 1541.32 291.175C1540.02 291.175 1538.84 290.917 1537.77 290.4C1536.72 289.883 1535.89 289.117 1535.27 288.1C1534.65 287.067 1534.34 285.808 1534.34 284.325V273.55H1537.84ZM1555.33 288.225H1561.08V291H1551.83V273.55H1555.33V288.225ZM1574 287.675H1567.05L1565.9 291H1562.23L1568.5 273.525H1572.58L1578.85 291H1575.15L1574 287.675ZM1573.05 284.875L1570.53 277.575L1568 284.875H1573.05ZM1593.07 273.55V276.375H1588.42V291H1584.92V276.375H1580.27V273.55H1593.07ZM1603.72 291.175C1602.09 291.175 1600.59 290.792 1599.22 290.025C1597.86 289.258 1596.77 288.2 1595.97 286.85C1595.17 285.483 1594.77 283.942 1594.77 282.225C1594.77 280.525 1595.17 279 1595.97 277.65C1596.77 276.283 1597.86 275.217 1599.22 274.45C1600.59 273.683 1602.09 273.3 1603.72 273.3C1605.37 273.3 1606.87 273.683 1608.22 274.45C1609.59 275.217 1610.67 276.283 1611.45 277.65C1612.25 279 1612.65 280.525 1612.65 282.225C1612.65 283.942 1612.25 285.483 1611.45 286.85C1610.67 288.2 1609.59 289.258 1608.22 290.025C1606.86 290.792 1605.36 291.175 1603.72 291.175ZM1603.72 288.05C1604.77 288.05 1605.7 287.817 1606.5 287.35C1607.3 286.867 1607.92 286.183 1608.37 285.3C1608.82 284.417 1609.05 283.392 1609.05 282.225C1609.05 281.058 1608.82 280.042 1608.37 279.175C1607.92 278.292 1607.3 277.617 1606.5 277.15C1605.7 276.683 1604.77 276.45 1603.72 276.45C1602.67 276.45 1601.74 276.683 1600.92 277.15C1600.12 277.617 1599.5 278.292 1599.05 279.175C1598.6 280.042 1598.37 281.058 1598.37 282.225C1598.37 283.392 1598.6 284.417 1599.05 285.3C1599.5 286.183 1600.12 286.867 1600.92 287.35C1601.74 287.817 1602.67 288.05 1603.72 288.05ZM1624.25 291L1620.4 284.2H1618.75V291H1615.25V273.55H1621.8C1623.15 273.55 1624.3 273.792 1625.25 274.275C1626.2 274.742 1626.91 275.383 1627.38 276.2C1627.86 277 1628.1 277.9 1628.1 278.9C1628.1 280.05 1627.77 281.092 1627.1 282.025C1626.44 282.942 1625.45 283.575 1624.13 283.925L1628.3 291H1624.25ZM1618.75 281.575H1621.68C1622.63 281.575 1623.34 281.35 1623.8 280.9C1624.27 280.433 1624.5 279.792 1624.5 278.975C1624.5 278.175 1624.27 277.558 1623.8 277.125C1623.34 276.675 1622.63 276.45 1621.68 276.45H1618.75V281.575Z" fill="#082EA5"/>
<path d="M1453.69 309.08C1454.06 308.427 1454.61 307.893 1455.33 307.48C1456.05 307.067 1456.87 306.86 1457.79 306.86C1458.77 306.86 1459.66 307.093 1460.45 307.56C1461.23 308.027 1461.85 308.687 1462.31 309.54C1462.76 310.38 1462.99 311.36 1462.99 312.48C1462.99 313.587 1462.76 314.573 1462.31 315.44C1461.85 316.307 1461.23 316.98 1460.43 317.46C1459.64 317.94 1458.76 318.18 1457.79 318.18C1456.84 318.18 1456.01 317.973 1455.29 317.56C1454.58 317.147 1454.05 316.62 1453.69 315.98V318H1451.87V303.2H1453.69V309.08ZM1461.13 312.48C1461.13 311.653 1460.96 310.933 1460.63 310.32C1460.29 309.707 1459.84 309.24 1459.27 308.92C1458.71 308.6 1458.09 308.44 1457.41 308.44C1456.74 308.44 1456.12 308.607 1455.55 308.94C1454.99 309.26 1454.53 309.733 1454.19 310.36C1453.85 310.973 1453.69 311.687 1453.69 312.5C1453.69 313.327 1453.85 314.053 1454.19 314.68C1454.53 315.293 1454.99 315.767 1455.55 316.1C1456.12 316.42 1456.74 316.58 1457.41 316.58C1458.09 316.58 1458.71 316.42 1459.27 316.1C1459.84 315.767 1460.29 315.293 1460.63 314.68C1460.96 314.053 1461.13 313.32 1461.13 312.48ZM1474.82 307.04L1468.22 323.16H1466.34L1468.5 317.88L1464.08 307.04H1466.1L1469.54 315.92L1472.94 307.04H1474.82ZM1492.94 318H1491.12L1483.8 306.9V318H1481.98V304.04H1483.8L1491.12 315.12V304.04H1492.94V318ZM1505.77 307.04V318H1503.95V316.38C1503.6 316.94 1503.11 317.38 1502.49 317.7C1501.87 318.007 1501.19 318.16 1500.45 318.16C1499.59 318.16 1498.83 317.987 1498.15 317.64C1497.47 317.28 1496.93 316.747 1496.53 316.04C1496.14 315.333 1495.95 314.473 1495.95 313.46V307.04H1497.75V313.22C1497.75 314.3 1498.02 315.133 1498.57 315.72C1499.11 316.293 1499.86 316.58 1500.81 316.58C1501.78 316.58 1502.55 316.28 1503.11 315.68C1503.67 315.08 1503.95 314.207 1503.95 313.06V307.04H1505.77ZM1511.06 308.54V315C1511.06 315.533 1511.17 315.913 1511.4 316.14C1511.63 316.353 1512.02 316.46 1512.58 316.46H1513.92V318H1512.28C1511.27 318 1510.51 317.767 1510 317.3C1509.49 316.833 1509.24 316.067 1509.24 315V308.54H1507.82V307.04H1509.24V304.28H1511.06V307.04H1513.92V308.54H1511.06ZM1517.94 308.82C1518.26 308.193 1518.72 307.707 1519.3 307.36C1519.9 307.013 1520.63 306.84 1521.48 306.84V308.72H1521C1518.96 308.72 1517.94 309.827 1517.94 312.04V318H1516.12V307.04H1517.94V308.82ZM1524.52 305.26C1524.18 305.26 1523.88 305.14 1523.64 304.9C1523.4 304.66 1523.28 304.367 1523.28 304.02C1523.28 303.673 1523.4 303.38 1523.64 303.14C1523.88 302.9 1524.18 302.78 1524.52 302.78C1524.86 302.78 1525.14 302.9 1525.36 303.14C1525.6 303.38 1525.72 303.673 1525.72 304.02C1525.72 304.367 1525.6 304.66 1525.36 304.9C1525.14 305.14 1524.86 305.26 1524.52 305.26ZM1525.4 307.04V318H1523.58V307.04H1525.4Z" fill="#0343A5"/>
<path d="M1537.83 308.14C1537.83 309.3 1537.43 310.267 1536.63 311.04C1535.84 311.8 1534.63 312.18 1533.01 312.18H1530.33V318H1528.51V304.06H1533.01C1534.58 304.06 1535.77 304.44 1536.59 305.2C1537.41 305.96 1537.83 306.94 1537.83 308.14ZM1533.01 310.68C1534.02 310.68 1534.77 310.46 1535.25 310.02C1535.73 309.58 1535.97 308.953 1535.97 308.14C1535.97 306.42 1534.98 305.56 1533.01 305.56H1530.33V310.68H1533.01ZM1541.91 303.2V318H1540.09V303.2H1541.91ZM1544.33 312.48C1544.33 311.36 1544.56 310.38 1545.01 309.54C1545.46 308.687 1546.08 308.027 1546.87 307.56C1547.67 307.093 1548.56 306.86 1549.53 306.86C1550.49 306.86 1551.32 307.067 1552.03 307.48C1552.74 307.893 1553.26 308.413 1553.61 309.04V307.04H1555.45V318H1553.61V315.96C1553.25 316.6 1552.71 317.133 1551.99 317.56C1551.28 317.973 1550.46 318.18 1549.51 318.18C1548.54 318.18 1547.66 317.94 1546.87 317.46C1546.08 316.98 1545.46 316.307 1545.01 315.44C1544.56 314.573 1544.33 313.587 1544.33 312.48ZM1553.61 312.5C1553.61 311.673 1553.44 310.953 1553.11 310.34C1552.78 309.727 1552.32 309.26 1551.75 308.94C1551.19 308.607 1550.57 308.44 1549.89 308.44C1549.21 308.44 1548.59 308.6 1548.03 308.92C1547.47 309.24 1547.02 309.707 1546.69 310.32C1546.36 310.933 1546.19 311.653 1546.19 312.48C1546.19 313.32 1546.36 314.053 1546.69 314.68C1547.02 315.293 1547.47 315.767 1548.03 316.1C1548.59 316.42 1549.21 316.58 1549.89 316.58C1550.57 316.58 1551.19 316.42 1551.75 316.1C1552.32 315.767 1552.78 315.293 1553.11 314.68C1553.44 314.053 1553.61 313.327 1553.61 312.5ZM1560.75 308.54V315C1560.75 315.533 1560.86 315.913 1561.09 316.14C1561.31 316.353 1561.71 316.46 1562.27 316.46H1563.61V318H1561.97C1560.95 318 1560.19 317.767 1559.69 317.3C1559.18 316.833 1558.93 316.067 1558.93 315V308.54H1557.51V307.04H1558.93V304.28H1560.75V307.04H1563.61V308.54H1560.75ZM1575.81 312.1C1575.81 312.447 1575.79 312.813 1575.75 313.2H1566.99C1567.06 314.28 1567.42 315.127 1568.09 315.74C1568.77 316.34 1569.59 316.64 1570.55 316.64C1571.34 316.64 1571.99 316.46 1572.51 316.1C1573.04 315.727 1573.42 315.233 1573.63 314.62H1575.59C1575.3 315.673 1574.71 316.533 1573.83 317.2C1572.95 317.853 1571.86 318.18 1570.55 318.18C1569.51 318.18 1568.58 317.947 1567.75 317.48C1566.94 317.013 1566.3 316.353 1565.83 315.5C1565.36 314.633 1565.13 313.633 1565.13 312.5C1565.13 311.367 1565.36 310.373 1565.81 309.52C1566.26 308.667 1566.9 308.013 1567.71 307.56C1568.54 307.093 1569.48 306.86 1570.55 306.86C1571.59 306.86 1572.51 307.087 1573.31 307.54C1574.11 307.993 1574.72 308.62 1575.15 309.42C1575.59 310.207 1575.81 311.1 1575.81 312.1ZM1573.93 311.72C1573.93 311.027 1573.78 310.433 1573.47 309.94C1573.16 309.433 1572.74 309.053 1572.21 308.8C1571.69 308.533 1571.11 308.4 1570.47 308.4C1569.55 308.4 1568.76 308.693 1568.11 309.28C1567.47 309.867 1567.1 310.68 1567.01 311.72H1573.93Z" fill="#03A54E"/>
<path d="M1513.5 455.5C1604.63 455.5 1678.5 381.627 1678.5 290.5C1678.5 199.373 1604.63 125.5 1513.5 125.5C1422.37 125.5 1348.5 199.373 1348.5 290.5C1348.5 381.627 1422.37 455.5 1513.5 455.5Z" stroke="#468EFE" stroke-width="5"/>
</g>
<defs>
<linearGradient id="paint0_linear_26_7" x1="908" y1="-7" x2="908" y2="880" gradientUnits="userSpaceOnUse">
<stop stop-color="#468EFE"/>
<stop offset="1" stop-color="#002299"/>
</linearGradient>
<clipPath id="clip0_26_7">
<rect width="1920" height="885" fill="white" transform="translate(-53 -7)"/>
</clipPath>
</defs>
</svg>
